<svg width="494" height="441" viewBox="0 0 494 441" fill="none" xmlns="http://www.w3.org/2000/svg">
<path d="M444.094 388.559H267.109L268.437 367.382H319.886C320.564 367.382 321.111 366.833 321.111 366.156C321.111 365.478 320.564 364.93 319.886 364.93H268.59L269.154 355.951H347.15C347.828 355.951 348.376 355.402 348.376 354.725C348.376 354.047 347.828 353.498 347.15 353.498H269.307L269.87 344.52H298.43C299.107 344.52 299.655 343.972 299.655 343.294C299.655 342.618 299.107 342.069 298.43 342.069H270.024L271.475 318.923L276.931 310.009L279.562 305.713C285.528 295.966 286.766 283.445 282.855 272.413L279.99 264.331L301.479 252.078L302.154 251.69V249.592C302.154 213.03 280.398 182.875 252.327 178.608C255.154 177.076 257.26 174.97 258.419 172.308C259.718 169.323 259.683 165.941 258.533 162.417C259.808 162.202 261.062 161.913 262.282 161.523C285.826 154.004 298.174 137.982 298.524 122.362C298.799 122.365 299.069 122.365 299.344 122.365C329.802 122.363 361.25 111.108 391.236 108.866C395.03 108.583 398.86 108.429 402.701 108.429C410.739 108.429 418.81 109.108 426.607 110.712C428.249 115.362 430.191 119.933 432.672 124.37C439.93 137.34 452.619 146.143 463.77 155.97C474.652 165.558 484.322 176.543 492.5 188.533C495.448 208.442 493.348 229.048 486.55 248.136C481.579 262.096 470.931 274.078 463.159 287.084C461.45 285.626 459.236 284.744 456.82 284.744H397.147C392.581 284.744 388.868 288.458 388.868 293.023V330.158C388.868 333.948 391.951 337.031 395.741 337.031H455.744C456.273 342.413 456.544 347.85 455.825 353.449C454.243 365.765 450.28 377.788 444.094 388.559ZM317.964 342.069C317.286 342.069 316.739 342.618 316.739 343.294C316.739 343.972 317.286 344.52 317.964 344.52H367.073C367.751 344.52 368.299 343.972 368.299 343.294C368.299 342.618 367.751 342.069 367.073 342.069H317.964ZM121.477 388.559H34.6127C13.1085 365.315 1.22993 333.84 0.199219 302.057C3.12529 281.926 10.8038 262.473 22.4396 245.792C34.6653 228.263 51.5353 208.662 55.7587 187.151C56.0268 185.785 56.2274 184.417 56.3691 183.048C80.5595 163.547 110.656 151.498 142.861 150.734C144.309 150.7 145.735 150.573 147.129 150.359C146.481 152.475 146.134 154.698 146.134 156.995C146.134 166.565 152.132 174.902 160.993 179.235V179.3L154.07 179.357C139.458 179.474 127.073 189.97 122.251 204.645L91.8233 272.563C91.7735 272.557 91.7228 272.555 91.6716 272.555H61.5275C60.8502 272.555 60.302 273.103 60.302 273.78C60.302 274.457 60.8502 275.006 61.5275 275.006H90.729L86.3498 284.78H46.9752C46.2977 284.78 45.7497 285.328 45.7497 286.006C45.7497 286.683 46.2977 287.231 46.9752 287.231H85.2516L80.9708 296.787L86.9119 297.514L120.767 301.656L121.477 388.559ZM8.76677 323.981C8.08939 323.981 7.54118 324.53 7.54118 325.208C7.54118 325.885 8.08939 326.433 8.76677 326.433H91.6716C92.3489 326.433 92.8971 325.885 92.8971 325.208C92.8971 324.53 92.3489 323.981 91.6716 323.981H8.76677ZM46.9752 311.173C46.2977 311.173 45.7497 311.722 45.7497 312.398C45.7497 313.076 46.2977 313.624 46.9752 313.624H91.6716C92.3489 313.624 92.8971 313.076 92.8971 312.398C92.8971 311.722 92.3489 311.173 91.6716 311.173H46.9752ZM8.76677 298.364C8.08939 298.364 7.54118 298.912 7.54118 299.59C7.54118 300.268 8.08939 300.815 8.76677 300.815H91.6716C92.3489 300.815 92.8971 300.268 92.8971 299.59C92.8971 298.912 92.3489 298.364 91.6716 298.364H8.76677ZM455.488 334.58H395.741C395.307 334.58 394.887 334.518 394.491 334.4L419.779 311.902L424.939 315.694C425.775 316.309 426.757 316.616 427.738 316.616C428.714 316.616 429.691 316.312 430.523 315.704L435.082 312.38L454.963 330.003C455.139 331.529 455.319 333.052 455.488 334.58ZM392.364 333.01C391.712 332.239 391.319 331.244 391.319 330.158V293.023C391.319 292.387 391.422 291.776 391.611 291.202L417.76 310.418L392.364 333.01ZM454.563 326.374L437.109 310.902L458.927 294.996C456.169 300.929 454.293 307.173 454.016 313.981C453.847 318.154 454.139 322.268 454.563 326.374ZM427.737 314.162C427.264 314.162 426.792 314.014 426.389 313.718L392.859 289.079C393.926 287.921 395.453 287.196 397.147 287.196H456.82C458.79 287.196 460.581 287.977 461.899 289.248C461.725 289.557 461.552 289.865 461.382 290.174L429.08 313.723C428.677 314.016 428.206 314.162 427.737 314.162Z" fill="#EEF4FF"/>
<path d="M488.726 393.816H4.05568C2.98563 393.816 2.11914 392.95 2.11914 391.88C2.11914 390.81 2.98563 389.942 4.05568 389.942H488.726C489.796 389.942 490.662 390.81 490.662 391.88C490.662 392.95 489.796 393.816 488.726 393.816Z" fill="#3941AB"/>
<path d="M316.22 275.863C315.881 275.863 315.545 275.725 315.304 275.453C314.854 274.947 314.9 274.172 315.405 273.722L353.915 239.462C354.418 239.01 355.197 239.058 355.645 239.563C356.095 240.069 356.05 240.844 355.545 241.293L317.035 275.553C316.8 275.762 316.509 275.863 316.22 275.863Z" fill="#A4BCFD"/>
<path d="M459.72 337.031H455.744C455.665 336.214 455.578 335.395 455.488 334.58H459.72C459.85 334.58 459.98 334.574 460.107 334.563L461.958 336.203L463.583 334.369L462.606 333.504C463.546 332.693 464.141 331.493 464.141 330.158V294.516C464.141 293.49 463.929 292.514 463.548 291.627L465.565 290.156C466.222 291.469 466.592 292.95 466.592 294.516V330.158C466.592 333.948 463.508 337.031 459.72 337.031ZM462.212 289.569C462.111 289.459 462.007 289.352 461.899 289.248C462.309 288.524 462.73 287.802 463.159 287.084C463.532 287.403 463.88 287.748 464.201 288.118L462.212 289.569Z" fill="#F8FDFE"/>
<path d="M393.226 335.523L391.596 333.692L392.364 333.009L417.759 310.416L419.779 311.9L394.491 334.398L393.226 335.523Z" fill="#F2FBFE"/>
<path d="M461.958 336.203L460.107 334.563L454.963 330.003C454.824 328.793 454.688 327.584 454.562 326.374L462.606 333.504L463.583 334.37L461.958 336.203Z" fill="#F8FDFE"/>
<path d="M454.961 330L435.08 312.377L437.107 310.899L454.561 326.371C454.686 327.581 454.822 328.79 454.961 330Z" fill="#F2FBFE"/>
<path d="M458.928 294.996C459.684 293.367 460.509 291.761 461.383 290.173L462.212 289.569L464.201 288.118L465.103 287.461L466.547 289.441L465.565 290.156L463.548 291.627L458.928 294.996Z" fill="#F8FDFE"/>
<path d="M103.422 94.855H68.0067C66.8769 94.855 65.7949 95.3145 65.0098 96.1283L56.2 105.275C55.174 106.34 53.373 105.613 53.373 104.135V90.2603V55.4648C53.373 50.5588 57.3499 46.583 62.2561 46.583H104.83C108.823 46.583 112.06 49.8197 112.06 53.8115V86.2171C112.06 90.987 108.192 94.855 103.422 94.855Z" fill="#A4BCFD"/>
<path d="M72.0583 71.7882C72.0583 73.4623 70.7011 74.8203 69.027 74.8203C67.3523 74.8203 65.9941 73.4623 65.9941 71.7882C65.9941 70.1128 67.3523 68.7561 69.027 68.7561C70.7011 68.7561 72.0583 70.1128 72.0583 71.7882Z" fill="white"/>
<path d="M86.2699 71.7882C86.2699 73.4623 84.9112 74.8203 83.237 74.8203C81.5624 74.8203 80.2051 73.4623 80.2051 71.7882C80.2051 70.1128 81.5624 68.7561 83.237 68.7561C84.9112 68.7561 86.2699 70.1128 86.2699 71.7882Z" fill="white"/>
<path d="M100.814 71.7882C100.814 73.4623 99.4565 74.8203 97.7811 74.8203C96.1072 74.8203 94.75 73.4623 94.75 71.7882C94.75 70.1128 96.1072 68.7561 97.7811 68.7561C99.4565 68.7561 100.814 70.1128 100.814 71.7882Z" fill="white"/>
<path d="M29.9395 199.464C29.9395 221.031 47.4231 238.516 68.9914 238.516C90.5588 238.516 108.043 221.031 108.043 199.464C108.043 177.896 90.5588 160.412 68.9914 160.412C47.4231 160.412 29.9395 177.896 29.9395 199.464Z" fill="#8098F9"/>
<path d="M63.3159 214.478C64.1642 216.815 66.4038 218.447 68.9899 218.447C71.5751 218.447 73.8147 216.815 74.6631 214.478H63.3159ZM68.9899 220.898C64.6789 220.898 61.0547 217.671 60.5592 213.393L60.4004 212.026H77.5786L77.4197 213.393C76.9242 217.671 73.3 220.898 68.9899 220.898Z" fill="white"/>
<path d="M56.3613 203.916H81.6221V192.514C81.6221 185.882 76.2253 180.485 69.5923 180.485H68.3897C61.7567 180.485 56.3613 185.882 56.3613 192.514V203.916ZM84.0733 206.367H53.9102V192.514C53.9102 184.53 60.4052 178.034 68.3897 178.034H69.5923C77.5767 178.034 84.0733 184.53 84.0733 192.514V206.367Z" fill="white"/>
<path d="M55.1345 206.366C53.6633 206.366 52.4726 207.556 52.4726 209.019V209.372C52.4726 210.835 53.6633 212.025 55.1273 212.025H82.8522C84.3162 212.025 85.5068 210.835 85.5068 209.372V209.019C85.5068 207.556 84.3162 206.366 82.8522 206.366H55.1345ZM82.8522 214.477H55.1273C52.3122 214.477 50.0215 212.186 50.0215 209.372V209.019C50.0215 206.205 52.3122 203.915 55.1273 203.915H82.8522C85.6673 203.915 87.958 206.205 87.958 209.019V209.372C87.958 212.186 85.6673 214.477 82.8522 214.477Z" fill="white"/>
<path d="M457.901 59.4391H329.339C322.506 59.4391 316.967 64.9788 316.967 71.8102V120.271V139.593C316.967 141.652 319.476 142.665 320.903 141.182L333.175 128.444C334.266 127.309 335.773 126.668 337.348 126.668L457.901 126.529C463.805 126.529 468.59 121.744 468.59 115.84V70.1287C468.59 64.2251 463.805 59.4391 457.901 59.4391Z" fill="#A4BCFD"/>
<path d="M380.232 84.7969H349.345C348.667 84.7969 348.119 84.2478 348.119 83.5713C348.119 82.8935 348.667 82.3457 349.345 82.3457H380.232C380.91 82.3457 381.457 82.8935 381.457 83.5713C381.457 84.2478 380.91 84.7969 380.232 84.7969Z" fill="white"/>
<path d="M446.322 84.7969H399.038C398.36 84.7969 397.812 84.2478 397.812 83.5713C397.812 82.8935 398.36 82.3457 399.038 82.3457H446.322C447 82.3457 447.548 82.8935 447.548 83.5713C447.548 84.2478 447 84.7969 446.322 84.7969Z" fill="white"/>
<path d="M427.141 95.8047H349.345C348.667 95.8047 348.119 95.2569 348.119 94.5791C348.119 93.9026 348.667 93.3535 349.345 93.3535H427.141C427.817 93.3535 428.367 93.9026 428.367 94.5791C428.367 95.2569 427.817 95.8047 427.141 95.8047Z" fill="white"/>
<path d="M400.891 106.809H349.345C348.667 106.809 348.119 106.261 348.119 105.583C348.119 104.906 348.667 104.357 349.345 104.357H400.891C401.568 104.357 402.117 104.906 402.117 105.583C402.117 106.261 401.568 106.809 400.891 106.809Z" fill="white"/>
<path d="M294.448 62.0073H330.267C331.41 62.0073 332.505 62.4731 333.298 63.2967L342.209 72.5461C343.247 73.6234 345.068 72.8893 345.068 71.3941V57.3612V22.1686C345.068 17.2075 341.046 13.1839 336.084 13.1839H293.023C288.984 13.1839 285.711 16.4574 285.711 20.4957V53.2714C285.711 58.0965 289.623 62.0073 294.448 62.0073Z" fill="#8098F9"/>
<path d="M326.168 38.6836C326.168 40.3773 327.541 41.75 329.234 41.75C330.928 41.75 332.301 40.3773 332.301 38.6836C332.301 36.9898 330.928 35.616 329.234 35.616C327.541 35.616 326.168 36.9898 326.168 38.6836Z" fill="white"/>
<path d="M311.793 38.6836C311.793 40.3773 313.168 41.75 314.861 41.75C316.554 41.75 317.927 40.3773 317.927 38.6836C317.927 36.9898 316.554 35.616 314.861 35.616C313.168 35.616 311.793 36.9898 311.793 38.6836Z" fill="white"/>
<path d="M297.082 38.6836C297.082 40.3773 298.455 41.75 300.147 41.75C301.842 41.75 303.215 40.3773 303.215 38.6836C303.215 36.9898 301.842 35.616 300.147 35.616C298.455 35.616 297.082 36.9898 297.082 38.6836Z" fill="white"/>
<path d="M482.423 68.2079C482.423 78.7222 473.9 87.2461 463.386 87.2461C452.872 87.2461 444.348 78.7222 444.348 68.2079C444.348 57.6936 452.872 49.1698 463.386 49.1698C473.9 49.1698 482.423 57.6936 482.423 68.2079Z" fill="#8098F9"/>
<path d="M465.563 77.0977H462.944V61.2803L460.287 62.9103V60.2006L462.944 58.4296H465.563V77.0977Z" fill="white"/>
<path d="M298.429 344.523H269.869L270.024 342.072H298.429C299.107 342.072 299.654 342.621 299.654 343.298C299.654 343.976 299.107 344.523 298.429 344.523Z" fill="#EFFAFE"/>
<path d="M367.071 344.523H317.962C317.284 344.523 316.736 343.976 316.736 343.298C316.736 342.621 317.284 342.072 317.962 342.072H367.071C367.749 342.072 368.297 342.621 368.297 343.298C368.297 343.976 367.749 344.523 367.071 344.523Z" fill="#EFFAFE"/>
<path d="M347.15 355.949H269.154L269.307 353.497H347.15C347.828 353.497 348.376 354.046 348.376 354.724C348.376 355.4 347.828 355.949 347.15 355.949Z" fill="#EFFAFE"/>
<path d="M319.884 367.383H268.436L268.589 364.932H319.884C320.562 364.932 321.11 365.479 321.11 366.157C321.11 366.834 320.562 367.383 319.884 367.383Z" fill="#EFFAFE"/>
<path d="M91.6714 326.43H8.7666C8.08922 326.43 7.54102 325.882 7.54102 325.205C7.54102 324.528 8.08922 323.979 8.7666 323.979H91.6714C92.3488 323.979 92.897 324.528 92.897 325.205C92.897 325.882 92.3488 326.43 91.6714 326.43Z" fill="#EFFAFE"/>
<path d="M91.6714 300.816H8.7666C8.08922 300.816 7.54102 300.269 7.54102 299.591C7.54102 298.913 8.08922 298.365 8.7666 298.365H91.6714C92.3488 298.365 92.897 298.913 92.897 299.591C92.897 300.269 92.3488 300.816 91.6714 300.816Z" fill="#EFFAFE"/>
<path d="M91.67 313.625H46.9736C46.2961 313.625 45.748 313.077 45.748 312.399C45.748 311.723 46.2961 311.174 46.9736 311.174H91.67C92.3473 311.174 92.8955 311.723 92.8955 312.399C92.8955 313.077 92.3473 313.625 91.67 313.625Z" fill="#EFFAFE"/>
<path d="M85.25 287.23H46.9736C46.2961 287.23 45.748 286.683 45.748 286.005C45.748 285.327 46.2961 284.779 46.9736 284.779H86.3482L85.25 287.23Z" fill="#EFFAFE"/>
<path d="M90.7278 275.004H61.5264C60.849 275.004 60.3008 274.455 60.3008 273.778C60.3008 273.101 60.849 272.553 61.5264 272.553H91.6704C91.7216 272.553 91.7724 272.555 91.8221 272.561L90.7278 275.004Z" fill="#EFFAFE"/>
<path d="M274.791 89.6815L274.685 89.6337C289.7 69.6101 270.907 43.0297 254.535 41.3875C248.955 34.4335 241.471 28.813 232.379 25.4475C227.565 23.6668 222.618 22.6863 217.69 22.4191C217.602 10.0261 207.534 0.00447083 195.12 0.00447083C182.65 0.00447083 172.54 10.1131 172.54 22.5834C172.54 28.3828 174.746 33.6553 178.339 37.6531C174.703 41.3384 171.581 45.6157 169.166 50.4323C168.595 51.5708 168.086 52.7229 167.607 53.8798C149.287 53.2621 133.547 67.1357 132.099 85.5929C131.076 98.649 137.467 110.575 147.734 117.231C141.503 120.517 137.559 125.044 137.149 130.284C136.671 136.381 141.075 142.267 148.542 146.822C146.996 149.938 146.133 153.379 146.133 156.999C146.133 171.033 159.029 182.41 174.937 182.41C185.69 182.41 195.06 177.209 200.009 169.506C203.445 171.739 207.242 173.799 211.344 175.585C232.542 184.809 253.618 183.344 258.419 172.313C259.718 169.327 259.682 165.946 258.533 162.421C259.807 162.206 261.061 161.917 262.282 161.527C305.112 147.849 310.89 106.028 274.791 89.6815Z" fill="#3941AB"/>
<path d="M282.853 272.414L279.988 264.332L301.477 252.079L302.152 251.692V249.593C302.152 210.105 276.777 178.092 245.474 178.092H212.244L212.673 178.885L154.068 179.358C139.456 179.475 127.071 189.971 122.249 204.646L80.9688 296.788L86.9099 297.515L120.765 301.657L121.53 395.319L266.681 395.355L271.473 318.925L276.928 310.01L279.56 305.714C285.526 295.967 286.764 283.446 282.853 272.414Z" fill="#8098F9"/>
<path d="M161.465 307.055L127.089 303.046C126.753 303.007 126.513 302.703 126.551 302.367C126.59 302.029 126.903 301.799 127.231 301.828L160.52 305.709L169.972 264.919C170.048 264.592 170.378 264.386 170.707 264.461C171.037 264.538 171.243 264.867 171.166 265.197L161.465 307.055Z" fill="#353C84"/>
<path d="M197.347 219.305C177.302 219.305 160.994 202.998 160.994 182.953V178.851C160.994 178.36 161.391 177.962 161.881 177.962C162.374 177.962 162.77 178.36 162.77 178.851V182.953C162.77 202.018 178.282 217.53 197.347 217.53C216.411 217.53 231.922 202.018 231.922 182.953V178.851C231.922 178.36 232.319 177.962 232.809 177.962C233.301 177.962 233.698 178.36 233.698 178.851V182.953C233.698 202.998 217.39 219.305 197.347 219.305Z" fill="#3941AB"/>
<path d="M173.077 199.523C172.792 199.523 172.513 199.386 172.341 199.132C168.959 194.137 167.172 188.296 167.172 182.239V178.852C167.172 178.361 167.569 177.963 168.059 177.963C168.551 177.963 168.948 178.361 168.948 178.852V182.239C168.948 187.938 170.63 193.436 173.812 198.137C174.088 198.543 173.98 199.094 173.574 199.37C173.422 199.474 173.248 199.523 173.077 199.523Z" fill="#3941AB"/>
<path d="M197.346 212.41C190.434 212.41 183.932 210.138 178.546 205.839C178.162 205.533 178.098 204.973 178.406 204.591C178.714 204.206 179.272 204.149 179.652 204.45C184.723 208.496 190.842 210.634 197.346 210.634C203.84 210.634 209.954 208.501 215.021 204.463C215.403 204.156 215.965 204.221 216.269 204.604C216.575 204.988 216.51 205.547 216.128 205.852C210.742 210.143 204.247 212.41 197.346 212.41Z" fill="#3941AB"/>
<path d="M222.826 197.57C222.676 197.57 222.526 197.534 222.386 197.454C221.961 197.212 221.811 196.67 222.054 196.243C224.465 191.995 225.74 187.154 225.74 182.241V178.853C225.74 178.363 226.136 177.965 226.628 177.965C227.119 177.965 227.516 178.363 227.516 178.853V182.241C227.516 187.462 226.161 192.605 223.598 197.121C223.435 197.409 223.135 197.57 222.826 197.57Z" fill="#3941AB"/>
<path d="M283.776 420.127L260.881 385.697C255.66 379.003 252.656 370.887 246.572 369.23L242.47 368.186L242.495 368.121L139.81 342.604L148.281 305.024L86.9115 297.515L67.9581 360.026C66.7205 365.415 66.7803 370.799 67.9303 375.852C70.8817 391.643 84.5776 404.112 101.728 404.412L209.997 404.143C221.243 415.917 256.402 440.024 256.402 440.024C258.059 441.466 260.593 441.289 262.034 439.634C262.976 438.551 263.215 437.098 262.815 435.817C262.994 435.783 263.102 435.762 263.102 435.762C263.216 435.793 263.308 435.807 263.418 435.835L264.918 437.294C266.662 438.985 269.472 438.943 271.165 437.201L271.273 437.091C272.033 436.308 272.422 435.309 272.487 434.295L272.519 434.328C274.218 436.065 277.028 436.096 278.766 434.398L278.876 434.29C280.613 432.592 280.645 429.781 278.946 428.044L278.523 427.61C278.465 427.452 278.403 427.298 278.341 427.146C280.008 428.086 282.163 427.881 283.596 426.481L283.706 426.372C285.443 424.675 285.475 421.864 283.776 420.127Z" fill="#C7D7FE"/>
<path d="M278.682 427.801C278.522 427.801 278.363 427.741 278.243 427.617L264.626 413.69C264.389 413.448 264.394 413.06 264.635 412.823C264.879 412.588 265.268 412.589 265.502 412.833L279.119 426.76C279.357 427.002 279.352 427.39 279.109 427.627C278.991 427.743 278.836 427.801 278.682 427.801Z" fill="#8098F9"/>
<path d="M271.449 433.262C271.291 433.262 271.132 433.2 271.011 433.077L257.394 419.149C257.156 418.908 257.161 418.519 257.404 418.283C257.648 418.047 258.035 418.05 258.27 418.292L271.888 432.22C272.124 432.462 272.119 432.85 271.878 433.086C271.758 433.203 271.603 433.262 271.449 433.262Z" fill="#8098F9"/>
<path d="M262.852 436.113C262.699 436.113 262.546 436.055 262.427 435.941L248.395 422.431C248.151 422.195 248.144 421.808 248.378 421.564C248.616 421.321 249.003 421.315 249.244 421.547L263.277 435.058C263.521 435.293 263.528 435.681 263.293 435.925C263.173 436.05 263.012 436.113 262.852 436.113Z" fill="#8098F9"/>
<path d="M150.092 345.77L149.905 345.739L118.301 335.583C117.978 335.48 117.801 335.135 117.905 334.812C118.007 334.491 118.355 334.313 118.676 334.417L150.28 344.573C150.602 344.676 150.78 345.021 150.676 345.344C150.592 345.604 150.352 345.77 150.092 345.77Z" fill="#8098F9"/>
<path d="M226.796 72.5997C220.763 73.5066 215.04 79.083 210.454 85.2134C209.746 86.162 208.969 87.0297 208.137 87.8141C201.998 93.6062 193.085 94.1724 186.149 90.3792L184.46 90.0789C176.936 88.7382 169.752 93.7496 168.411 101.273L168.365 101.531C167.025 109.053 172.037 116.239 179.561 117.58L182.962 118.186L182.067 123.215C181.526 126.245 181.382 129.252 181.586 132.189L173.682 176.553C171.395 189.395 179.951 201.662 192.794 203.95C205.635 206.238 217.902 197.681 220.189 184.838L223.346 167.121C240.781 167.195 256.269 154.749 259.432 136.998L260.038 133.599V133.598L267.541 91.4798C259.096 90.4344 229.208 85.8213 226.796 72.5997Z" fill="#C7D7FE"/>
<path d="M221.439 178.09H221.395L223.295 167.42L223.337 167.437L221.439 178.09Z" fill="#815268"/>
<path d="M219.844 187.035L219.729 186.904C219.911 186.231 220.066 185.545 220.189 184.845L221.393 178.096H221.437L219.844 187.035Z" fill="#4752E1"/>
<path d="M223.504 167.133C223.452 167.133 223.399 167.133 223.346 167.133L223.348 167.122C223.399 167.122 223.452 167.122 223.503 167.122C239.909 167.123 254.558 156.043 258.795 139.904C254.558 156.045 239.91 167.133 223.504 167.133ZM181.585 132.203C181.423 129.887 181.48 127.526 181.777 125.146C181.482 127.522 181.428 129.878 181.587 132.189L181.585 132.203Z" fill="#815268"/>
<path d="M219.73 186.898L190.076 153.135C185.191 147.318 182.133 140.018 181.585 132.203L181.588 132.19C181.429 129.878 181.482 127.523 181.778 125.146C181.857 124.504 181.954 123.861 182.07 123.216L182.964 118.187C185.554 119.624 187.031 122.422 186.89 125.38C186.031 143.449 198.698 159.782 216.983 163.04L217.66 163.161C219.828 163.547 221.983 163.734 224.111 163.734C241.482 163.734 256.886 151.297 260.04 133.599L259.434 136.999C259.259 137.984 259.045 138.954 258.796 139.905C254.559 156.043 239.91 167.124 223.504 167.122C223.452 167.122 223.4 167.122 223.348 167.122L223.347 167.133C223.1 167.132 222.849 167.129 222.602 167.122L223.296 167.42L221.395 178.09L220.191 184.839C220.067 185.539 219.913 186.226 219.73 186.898Z" fill="#C7D7FE"/>
<path d="M223.333 153.598C223.171 153.598 223.008 153.533 222.888 153.405C222.657 153.16 222.666 152.774 222.91 152.541C222.945 152.508 226.423 149.268 230.514 151.42C230.813 151.578 230.929 151.948 230.771 152.247C230.614 152.549 230.242 152.661 229.944 152.504C226.637 150.767 223.87 153.321 223.753 153.43C223.636 153.541 223.484 153.598 223.333 153.598Z" fill="#8098F9"/>
<path d="M233.231 113.262C233.009 114.503 231.824 115.33 230.582 115.109C229.341 114.888 228.513 113.702 228.735 112.46C228.957 111.219 230.141 110.393 231.384 110.613C232.625 110.835 233.452 112.02 233.231 113.262Z" fill="#3941AB"/>
<path d="M260.254 118.071C260.032 119.311 258.847 120.138 257.606 119.918C256.364 119.696 255.537 118.511 255.759 117.269C255.979 116.028 257.164 115.2 258.407 115.422C259.649 115.644 260.475 116.829 260.254 118.071Z" fill="#3941AB"/>
<path d="M238.308 130.531C237.189 130.531 235.88 130.33 234.353 129.828C234.03 129.721 233.856 129.374 233.963 129.053C234.07 128.732 234.415 128.557 234.735 128.662C239.889 130.36 242.091 128.243 242.798 127.254C242.927 127.074 242.978 126.851 242.945 126.627L240.314 109.358C240.262 109.024 240.493 108.711 240.827 108.661C241.156 108.609 241.475 108.838 241.525 109.174L244.156 126.443C244.238 126.984 244.111 127.525 243.796 127.966C243.155 128.864 241.527 130.531 238.308 130.531Z" fill="#8098F9"/>
<path d="M220.939 143.786L216.206 141.054C210.344 137.67 208.336 130.175 211.721 124.313L212.07 123.707L230.053 134.09L225.099 142.672C224.258 144.129 222.395 144.628 220.939 143.786Z" fill="white"/>
<path d="M211.908 109.865C211.916 116.401 217.236 121.713 223.769 121.713H223.783C230.323 121.707 235.637 116.38 235.631 109.841C235.627 106.673 234.39 103.696 232.147 101.458C229.908 99.2223 226.934 97.9918 223.771 97.9918H223.757C217.217 97.9991 211.903 103.326 211.908 109.865ZM223.769 124.164C215.885 124.164 209.467 117.754 209.457 109.868C209.45 101.976 215.863 95.5492 223.755 95.5406H223.771C227.587 95.5406 231.177 97.026 233.879 99.7223C236.585 102.423 238.078 106.016 238.082 109.838C238.09 117.73 231.676 124.157 223.785 124.164H223.769Z" fill="white"/>
<path d="M244.451 116.197C244.459 122.732 249.779 128.045 256.312 128.045H256.325C262.864 128.039 268.18 122.712 268.174 116.172C268.166 109.637 262.846 104.324 256.312 104.324H256.299C249.759 104.331 244.445 109.658 244.451 116.197ZM256.312 130.496C248.428 130.496 242.01 124.086 242 116.2C241.991 108.308 248.406 101.881 256.296 101.873H256.312C264.198 101.873 270.615 108.282 270.625 116.169C270.632 124.061 264.219 130.489 256.327 130.496H256.312Z" fill="white"/>
<path d="M242.853 114.594L242.734 114.588L237.637 114.093C236.963 114.026 236.469 113.427 236.535 112.754C236.6 112.08 237.193 111.58 237.874 111.652L242.971 112.149C243.645 112.214 244.138 112.814 244.073 113.487C244.011 114.121 243.477 114.594 242.853 114.594Z" fill="white"/>
<path d="M221.886 90.7797C222.668 91.0689 223.651 90.9194 224.608 90.8311C225.57 90.7221 226.54 90.6363 227.383 90.5909C228.231 90.5443 229.204 90.526 230.174 90.5321C231.136 90.5162 232.132 90.5578 232.868 90.1877C233.576 89.8421 233.825 88.9462 232.907 87.9093C232.041 86.9007 229.869 85.8687 227.067 86.0134C224.268 86.1702 222.253 87.4277 221.533 88.5234C220.766 89.6497 221.135 90.5125 221.886 90.7797Z" fill="#3941AB"/>
<path d="M264.099 97.9683C263.268 97.9573 262.404 97.4658 261.542 97.0393C260.683 96.5908 259.809 96.1618 259.039 95.8162C258.264 95.4694 257.362 95.1017 256.455 94.7598C255.564 94.3994 254.618 94.0796 254.065 93.4705C253.527 92.892 253.618 91.9667 254.847 91.3306C256.016 90.6994 258.416 90.518 260.979 91.659C263.533 92.8111 264.963 94.7083 265.24 95.989C265.551 97.3163 264.898 97.9879 264.099 97.9683Z" fill="#3941AB"/>
<path d="M176.981 107.781C176.709 107.781 176.461 107.597 176.388 107.32C176.305 106.993 176.502 106.659 176.829 106.574L181.197 105.451L179.214 98.131C179.125 97.805 179.319 97.468 179.645 97.3797C179.977 97.2866 180.308 97.4839 180.397 97.8111L182.705 106.33L177.133 107.762L176.981 107.781Z" fill="#8098F9"/>
<path d="M332.813 229.742H299.04C295.735 229.742 293.055 227.063 293.055 223.758V158.853C293.055 155.548 295.735 152.868 299.04 152.868H332.813C336.117 152.868 338.797 155.548 338.797 158.853V223.758C338.797 227.063 336.117 229.742 332.813 229.742Z" fill="#3941AB"/>
<path d="M361.741 286.411L357.985 218.282L358.876 210.016C360.123 198.452 356.713 186.889 349.477 177.783C348.789 176.916 348.108 176.055 347.433 175.24V164.123C347.433 161.695 345.465 159.728 343.038 159.728C340.697 159.728 338.8 161.625 338.8 163.966V168.185C338.8 176.209 332.302 182.717 324.278 182.728L311.595 182.744L292.614 181.124C290.145 180.913 287.953 182.76 287.743 185.228C287.57 187.254 288.794 189.075 290.601 189.786C290.433 189.837 290.265 189.892 290.093 189.951L289.566 189.905C287.098 189.694 284.905 191.541 284.694 194.011C284.484 196.479 286.331 198.671 288.8 198.883H288.811C288.039 199.593 287.495 200.558 287.371 201.677C287.095 204.139 288.885 206.378 291.348 206.654L293.341 206.877L293.614 207.074C293.614 207.074 293.666 207.171 293.755 207.333C292.508 207.839 291.536 208.951 291.299 210.369C290.935 212.539 292.414 214.612 294.585 214.974C294.585 214.974 308.543 219.572 314.569 221.269L309.466 247.696L308.378 253.331L301.479 252.076L279.991 264.33L282.856 272.411C286.767 283.444 285.529 295.965 279.563 305.712L276.932 310.007L287.429 314.32C300.681 319.762 319.854 325.423 334.056 322.052C338.662 320.959 342.233 319.637 345.01 318.074C355.233 312.737 362.345 300.548 361.741 286.411Z" fill="#C7D7FE"/>
<path d="M309.769 191.836L309.715 191.834L290.263 190.172C289.927 190.143 289.677 189.847 289.705 189.51C289.733 189.172 290.046 188.924 290.368 188.951L309.821 190.613C310.157 190.641 310.408 190.938 310.378 191.275C310.351 191.595 310.084 191.836 309.769 191.836Z" fill="#8098F9"/>
<path d="M310.153 200.91L310.099 200.908L290.647 199.246C290.31 199.218 290.06 198.921 290.088 198.584C290.118 198.246 290.424 197.996 290.752 198.025L310.205 199.687C310.541 199.715 310.791 200.012 310.762 200.349C310.734 200.669 310.467 200.91 310.153 200.91Z" fill="#8098F9"/>
<path d="M313.372 209.965L313.3 209.96L293.906 207.712C293.569 207.674 293.329 207.37 293.367 207.033C293.408 206.696 293.721 206.457 294.047 206.495L313.441 208.743C313.778 208.782 314.018 209.086 313.98 209.422C313.942 209.734 313.679 209.965 313.372 209.965Z" fill="#8098F9"/>
<path d="M300.429 285.984L300.288 285.967C299.958 285.889 299.755 285.56 299.833 285.229L309.558 243.989C309.635 243.661 309.955 243.449 310.296 243.534C310.624 243.611 310.828 243.941 310.751 244.271L301.024 285.513C300.96 285.793 300.708 285.984 300.429 285.984Z" fill="#8098F9"/>
<path d="M279.699 265.199L267.311 236.529C267.176 236.219 267.318 235.858 267.629 235.724C267.938 235.587 268.3 235.731 268.436 236.044L280.281 263.456L301.85 251.157C302.143 250.992 302.518 251.092 302.687 251.384C302.855 251.679 302.752 252.054 302.458 252.222L279.699 265.199Z" fill="#353C84"/>
</svg>
