<svg width="26" height="26" viewBox="0 0 26 26" fill="none" xmlns="http://www.w3.org/2000/svg">
<path d="M21.6957 3H4.30435C3.95841 3 3.62665 3.13742 3.38203 3.38203C3.13742 3.62665 3 3.95841 3 4.30435V21.6957C3 22.0416 3.13742 22.3734 3.38203 22.618C3.62665 22.8626 3.95841 23 4.30435 23H21.6957C22.0416 23 22.3734 22.8626 22.618 22.618C22.8626 22.3734 23 22.0416 23 21.6957V4.30435C23 3.95841 22.8626 3.62665 22.618 3.38203C22.3734 3.13742 22.0416 3 21.6957 3ZM22.1304 21.6957C22.1304 21.811 22.0846 21.9216 22.0031 22.0031C21.9216 22.0846 21.811 22.1304 21.6957 22.1304H4.30435C4.18904 22.1304 4.07845 22.0846 3.99691 22.0031C3.91537 21.9216 3.86957 21.811 3.86957 21.6957V18.4022L7.47826 14.7935C7.51778 14.7527 7.56508 14.7203 7.61736 14.6982C7.66964 14.6761 7.72584 14.6646 7.78261 14.6646C7.83938 14.6646 7.89557 14.6761 7.94785 14.6982C8.00013 14.7203 8.04744 14.7527 8.08696 14.7935L10.337 17.0435C10.5844 17.2838 10.9159 17.4183 11.2609 17.4183C11.6059 17.4183 11.9373 17.2838 12.1848 17.0435L17.0435 12.1848C17.083 12.144 17.1303 12.1116 17.1826 12.0895C17.2349 12.0674 17.2911 12.056 17.3478 12.056C17.4046 12.056 17.4608 12.0674 17.5131 12.0895C17.5654 12.1116 17.6127 12.144 17.6522 12.1848L22.1304 16.663V21.6957ZM22.1304 15.4239L18.2717 11.5652C18.0256 11.3223 17.6937 11.186 17.3478 11.186C17.002 11.186 16.6701 11.3223 16.4239 11.5652L11.5652 16.4239C11.5257 16.4647 11.4784 16.4971 11.4261 16.5192C11.3738 16.5413 11.3176 16.5527 11.2609 16.5527C11.2041 16.5527 11.1479 16.5413 11.0956 16.5192C11.0433 16.4971 10.996 16.4647 10.9565 16.4239L8.70652 14.1739C8.58534 14.0523 8.44135 13.9558 8.28281 13.89C8.12426 13.8242 7.95428 13.7903 7.78261 13.7903C7.61094 13.7903 7.44096 13.8242 7.28241 13.89C7.12386 13.9558 6.97987 14.0523 6.8587 14.1739L3.86957 17.163V4.30435C3.86957 4.18904 3.91537 4.07845 3.99691 3.99691C4.07845 3.91537 4.18904 3.86957 4.30435 3.86957H21.6957C21.811 3.86957 21.9216 3.91537 22.0031 3.99691C22.0846 4.07845 22.1304 4.18904 22.1304 4.30435V15.4239ZM10.8261 9.08696C10.8261 9.31758 10.7345 9.53876 10.5714 9.70183C10.4083 9.86491 10.1871 9.95652 9.95652 9.95652C9.84192 9.95798 9.72819 9.93649 9.62203 9.8933C9.51587 9.85012 9.41943 9.78612 9.33839 9.70508C9.25735 9.62405 9.19336 9.5276 9.15017 9.42144C9.10699 9.31528 9.0855 9.20155 9.08696 9.08696C9.08696 8.85633 9.17857 8.63516 9.34165 8.47208C9.50472 8.30901 9.7259 8.21739 9.95652 8.21739C10.1871 8.21739 10.4083 8.30901 10.5714 8.47208C10.7345 8.63516 10.8261 8.85633 10.8261 9.08696Z" fill="#3941AB" stroke="#3941AB" stroke-width="0.8"/>
</svg>
