<svg width="49" height="48" viewBox="0 0 49 48" fill="none" xmlns="http://www.w3.org/2000/svg">
<path d="M15.4205 38.6802H11.5804C5.70044 38.2602 3.06055 33.7402 3.06055 29.7202C3.06055 25.7002 5.70047 21.1602 11.4805 20.7602C12.3005 20.6802 13.0204 21.3202 13.0804 22.1602C13.1404 22.9802 12.5205 23.7002 11.6805 23.7602C7.80054 24.0402 6.06055 26.9602 6.06055 29.7402C6.06055 32.5202 7.80054 35.4402 11.6805 35.7202H15.4205C16.2405 35.7202 16.9205 36.4002 16.9205 37.2202C16.9205 38.0402 16.2405 38.6802 15.4205 38.6802Z" fill="#323232"/>
<path d="M15.4205 38.6802H11.5804C5.70044 38.2602 3.06055 33.7402 3.06055 29.7202C3.06055 25.7002 5.70047 21.1602 11.4805 20.7602C12.3005 20.6802 13.0204 21.3202 13.0804 22.1602C13.1404 22.9802 12.5205 23.7002 11.6805 23.7602C7.80054 24.0402 6.06055 26.9602 6.06055 29.7402C6.06055 32.5202 7.80054 35.4402 11.6805 35.7202H15.4205C16.2405 35.7202 16.9205 36.4002 16.9205 37.2202C16.9205 38.0402 16.2405 38.6802 15.4205 38.6802Z" fill="black" fill-opacity="0.2"/>
<path d="M15.4205 38.6802H11.5804C5.70044 38.2602 3.06055 33.7402 3.06055 29.7202C3.06055 25.7002 5.70047 21.1602 11.4805 20.7602C12.3005 20.6802 13.0204 21.3202 13.0804 22.1602C13.1404 22.9802 12.5205 23.7002 11.6805 23.7602C7.80054 24.0402 6.06055 26.9602 6.06055 29.7402C6.06055 32.5202 7.80054 35.4402 11.6805 35.7202H15.4205C16.2405 35.7202 16.9205 36.4002 16.9205 37.2202C16.9205 38.0402 16.2405 38.6802 15.4205 38.6802Z" fill="black" fill-opacity="0.2"/>
<path d="M33.8398 38.68C33.7998 38.68 33.7798 38.68 33.7398 38.68C32.9198 38.68 32.1599 38 32.1599 37.18C32.1599 36.32 32.7998 35.68 33.6398 35.68C36.0998 35.68 38.2998 34.82 40.0198 33.28C43.1398 30.56 43.3398 26.64 42.4998 23.88C41.6598 21.14 39.3198 18 35.2398 17.5C34.5798 17.42 34.0598 16.92 33.9398 16.26C33.1398 11.46 30.5598 8.14001 26.6398 6.94001C22.5998 5.68001 17.8798 6.92 14.9398 10C12.0798 12.98 11.4198 17.16 13.0798 21.76C13.3598 22.54 12.9599 23.4 12.1799 23.68C11.3999 23.96 10.5398 23.56 10.2598 22.78C8.23984 17.14 9.15986 11.74 12.7799 7.94001C16.4799 4.06001 22.4198 2.51999 27.5198 4.07999C32.1998 5.51999 35.4998 9.37999 36.6998 14.74C40.7798 15.66 44.0598 18.76 45.3598 23.04C46.7798 27.7 45.4998 32.5 41.9998 35.54C39.7798 37.54 36.8798 38.68 33.8398 38.68Z" fill="#323232"/>
<path d="M33.8398 38.68C33.7998 38.68 33.7798 38.68 33.7398 38.68C32.9198 38.68 32.1599 38 32.1599 37.18C32.1599 36.32 32.7998 35.68 33.6398 35.68C36.0998 35.68 38.2998 34.82 40.0198 33.28C43.1398 30.56 43.3398 26.64 42.4998 23.88C41.6598 21.14 39.3198 18 35.2398 17.5C34.5798 17.42 34.0598 16.92 33.9398 16.26C33.1398 11.46 30.5598 8.14001 26.6398 6.94001C22.5998 5.68001 17.8798 6.92 14.9398 10C12.0798 12.98 11.4198 17.16 13.0798 21.76C13.3598 22.54 12.9599 23.4 12.1799 23.68C11.3999 23.96 10.5398 23.56 10.2598 22.78C8.23984 17.14 9.15986 11.74 12.7799 7.94001C16.4799 4.06001 22.4198 2.51999 27.5198 4.07999C32.1998 5.51999 35.4998 9.37999 36.6998 14.74C40.7798 15.66 44.0598 18.76 45.3598 23.04C46.7798 27.7 45.4998 32.5 41.9998 35.54C39.7798 37.54 36.8798 38.68 33.8398 38.68Z" fill="black" fill-opacity="0.2"/>
<path d="M33.8398 38.68C33.7998 38.68 33.7798 38.68 33.7398 38.68C32.9198 38.68 32.1599 38 32.1599 37.18C32.1599 36.32 32.7998 35.68 33.6398 35.68C36.0998 35.68 38.2998 34.82 40.0198 33.28C43.1398 30.56 43.3398 26.64 42.4998 23.88C41.6598 21.14 39.3198 18 35.2398 17.5C34.5798 17.42 34.0598 16.92 33.9398 16.26C33.1398 11.46 30.5598 8.14001 26.6398 6.94001C22.5998 5.68001 17.8798 6.92 14.9398 10C12.0798 12.98 11.4198 17.16 13.0798 21.76C13.3598 22.54 12.9599 23.4 12.1799 23.68C11.3999 23.96 10.5398 23.56 10.2598 22.78C8.23984 17.14 9.15986 11.74 12.7799 7.94001C16.4799 4.06001 22.4198 2.51999 27.5198 4.07999C32.1998 5.51999 35.4998 9.37999 36.6998 14.74C40.7798 15.66 44.0598 18.76 45.3598 23.04C46.7798 27.7 45.4998 32.5 41.9998 35.54C39.7798 37.54 36.8798 38.68 33.8398 38.68Z" fill="black" fill-opacity="0.2"/>
<path d="M24.5 44.5601C20.48 44.5601 16.72 42.4201 14.66 38.9601C14.44 38.6201 14.22 38.2201 14.04 37.7801C13.36 36.3601 13 34.7401 13 33.0601C13 26.7201 18.16 21.5601 24.5 21.5601C30.84 21.5601 36 26.7201 36 33.0601C36 34.7601 35.64 36.3601 34.92 37.8401C34.76 38.2201 34.54 38.6201 34.3 39.0001C32.28 42.4201 28.52 44.5601 24.5 44.5601ZM24.5 24.5601C19.82 24.5601 16 28.3801 16 33.0601C16 34.3001 16.26 35.4601 16.76 36.5201C16.92 36.8601 17.06 37.1401 17.22 37.4001C18.74 39.9801 21.52 41.5601 24.48 41.5601C27.44 41.5601 30.22 39.9801 31.72 37.4401C31.9 37.1401 32.0601 36.86 32.1801 36.58C32.7201 35.48 32.98 34.32 32.98 33.08C33 28.38 29.18 24.5601 24.5 24.5601Z" fill="#323232"/>
<path d="M24.5 44.5601C20.48 44.5601 16.72 42.4201 14.66 38.9601C14.44 38.6201 14.22 38.2201 14.04 37.7801C13.36 36.3601 13 34.7401 13 33.0601C13 26.7201 18.16 21.5601 24.5 21.5601C30.84 21.5601 36 26.7201 36 33.0601C36 34.7601 35.64 36.3601 34.92 37.8401C34.76 38.2201 34.54 38.6201 34.3 39.0001C32.28 42.4201 28.52 44.5601 24.5 44.5601ZM24.5 24.5601C19.82 24.5601 16 28.3801 16 33.0601C16 34.3001 16.26 35.4601 16.76 36.5201C16.92 36.8601 17.06 37.1401 17.22 37.4001C18.74 39.9801 21.52 41.5601 24.48 41.5601C27.44 41.5601 30.22 39.9801 31.72 37.4401C31.9 37.1401 32.0601 36.86 32.1801 36.58C32.7201 35.48 32.98 34.32 32.98 33.08C33 28.38 29.18 24.5601 24.5 24.5601Z" fill="black" fill-opacity="0.2"/>
<path d="M24.5 44.5601C20.48 44.5601 16.72 42.4201 14.66 38.9601C14.44 38.6201 14.22 38.2201 14.04 37.7801C13.36 36.3601 13 34.7401 13 33.0601C13 26.7201 18.16 21.5601 24.5 21.5601C30.84 21.5601 36 26.7201 36 33.0601C36 34.7601 35.64 36.3601 34.92 37.8401C34.76 38.2201 34.54 38.6201 34.3 39.0001C32.28 42.4201 28.52 44.5601 24.5 44.5601ZM24.5 24.5601C19.82 24.5601 16 28.3801 16 33.0601C16 34.3001 16.26 35.4601 16.76 36.5201C16.92 36.8601 17.06 37.1401 17.22 37.4001C18.74 39.9801 21.52 41.5601 24.48 41.5601C27.44 41.5601 30.22 39.9801 31.72 37.4401C31.9 37.1401 32.0601 36.86 32.1801 36.58C32.7201 35.48 32.98 34.32 32.98 33.08C33 28.38 29.18 24.5601 24.5 24.5601Z" fill="black" fill-opacity="0.2"/>
<path d="M23.3598 36.5397C22.9798 36.5397 22.5999 36.3997 22.2999 36.0997L20.3198 34.1197C19.7398 33.5397 19.7398 32.5797 20.3198 31.9997C20.8998 31.4197 21.8598 31.4197 22.4398 31.9997L23.3998 32.9597L26.5998 29.9997C27.2198 29.4397 28.1598 29.4797 28.7198 30.0797C29.2798 30.6797 29.2398 31.6397 28.6398 32.1997L24.3798 36.1397C24.0798 36.3997 23.7198 36.5397 23.3598 36.5397Z" fill="#323232"/>
<path d="M23.3598 36.5397C22.9798 36.5397 22.5999 36.3997 22.2999 36.0997L20.3198 34.1197C19.7398 33.5397 19.7398 32.5797 20.3198 31.9997C20.8998 31.4197 21.8598 31.4197 22.4398 31.9997L23.3998 32.9597L26.5998 29.9997C27.2198 29.4397 28.1598 29.4797 28.7198 30.0797C29.2798 30.6797 29.2398 31.6397 28.6398 32.1997L24.3798 36.1397C24.0798 36.3997 23.7198 36.5397 23.3598 36.5397Z" fill="black" fill-opacity="0.2"/>
<path d="M23.3598 36.5397C22.9798 36.5397 22.5999 36.3997 22.2999 36.0997L20.3198 34.1197C19.7398 33.5397 19.7398 32.5797 20.3198 31.9997C20.8998 31.4197 21.8598 31.4197 22.4398 31.9997L23.3998 32.9597L26.5998 29.9997C27.2198 29.4397 28.1598 29.4797 28.7198 30.0797C29.2798 30.6797 29.2398 31.6397 28.6398 32.1997L24.3798 36.1397C24.0798 36.3997 23.7198 36.5397 23.3598 36.5397Z" fill="black" fill-opacity="0.2"/>
</svg>
