<svg width="22" height="24" viewBox="0 0 22 24" fill="none" xmlns="http://www.w3.org/2000/svg">
<path d="M10.7951 7.99942C10.004 7.99942 9.23078 8.23399 8.57307 8.67345C7.91537 9.11292 7.40274 9.73755 7.10003 10.4684C6.79732 11.1992 6.71812 12.0033 6.87244 12.7791C7.02676 13.555 7.40767 14.2676 7.96701 14.8269C8.52634 15.3863 9.23898 15.7672 10.0148 15.9215C10.7906 16.0758 11.5948 15.9966 12.3256 15.6939C13.0564 15.3912 13.681 14.8786 14.1205 14.2209C14.56 13.5632 14.7945 12.7899 14.7945 11.9989C14.7945 10.9382 14.3731 9.92088 13.6231 9.17084C12.8731 8.42079 11.8558 7.99942 10.7951 7.99942ZM10.7951 13.9986C10.3995 13.9986 10.0129 13.8813 9.68406 13.6616C9.35521 13.4419 9.0989 13.1295 8.94754 12.7641C8.79619 12.3987 8.75659 11.9967 8.83375 11.6088C8.91091 11.2208 9.10136 10.8645 9.38103 10.5849C9.6607 10.3052 10.017 10.1147 10.4049 10.0376C10.7928 9.96042 11.1949 10 11.5603 10.1514C11.9257 10.3027 12.238 10.559 12.4578 10.8879C12.6775 11.2167 12.7948 11.6034 12.7948 11.9989C12.7948 12.5292 12.5841 13.0379 12.2091 13.4129C11.8341 13.7879 11.3254 13.9986 10.7951 13.9986Z" fill="white"/>
<path d="M20.088 13.8981L19.644 13.6422C19.8439 12.5548 19.8439 11.44 19.644 10.3526L20.088 10.0966C20.4294 9.89968 20.7286 9.63741 20.9686 9.32481C21.2087 9.0122 21.3848 8.65537 21.4869 8.2747C21.589 7.89403 21.6152 7.49698 21.5639 7.1062C21.5126 6.71542 21.3848 6.33858 21.1878 5.99719C20.9909 5.6558 20.7286 5.35655 20.416 5.11651C20.1034 4.87648 19.7465 4.70037 19.3659 4.59824C18.9852 4.49611 18.5882 4.46996 18.1974 4.52128C17.8066 4.5726 17.4298 4.70038 17.0884 4.89734L16.6434 5.15431C15.8031 4.43632 14.8373 3.87973 13.7948 3.51253V2.9996C13.7948 2.20405 13.4788 1.44109 12.9163 0.878561C12.3537 0.316028 11.5908 0 10.7952 0C9.99968 0 9.23672 0.316028 8.67418 0.878561C8.11165 1.44109 7.79562 2.20405 7.79562 2.9996V3.51253C6.75315 3.88104 5.78774 4.439 4.94801 5.15831L4.50107 4.89934C3.8116 4.50157 2.99235 4.39398 2.22356 4.60024C1.45476 4.8065 0.799391 5.30972 0.40162 5.99919C0.00384858 6.68866 -0.10374 7.50791 0.102522 8.2767C0.308784 9.0455 0.812001 9.70087 1.50147 10.0986L1.94541 10.3546C1.74555 11.442 1.74555 12.5568 1.94541 13.6442L1.50147 13.9001C0.812001 14.2979 0.308784 14.9533 0.102522 15.7221C-0.10374 16.4909 0.00384858 17.3101 0.40162 17.9996C0.799391 18.689 1.45476 19.1923 2.22356 19.3985C2.99235 19.6048 3.8116 19.4972 4.50107 19.0994L4.94601 18.8425C5.78666 19.5606 6.75274 20.1172 7.79562 20.4842V20.9972C7.79562 21.7927 8.11165 22.5557 8.67418 23.1182C9.23672 23.6807 9.99968 23.9968 10.7952 23.9968C11.5908 23.9968 12.3537 23.6807 12.9163 23.1182C13.4788 22.5557 13.7948 21.7927 13.7948 20.9972V20.4842C14.8373 20.1157 15.8027 19.5578 16.6424 18.8385L17.0894 19.0964C17.7788 19.4942 18.5981 19.6018 19.3669 19.3955C20.1357 19.1893 20.791 18.686 21.1888 17.9966C21.5866 17.3071 21.6942 16.4879 21.4879 15.7191C21.2817 14.9503 20.7784 14.2949 20.089 13.8971L20.088 13.8981ZM17.5403 10.1226C17.8789 11.3495 17.8789 12.6452 17.5403 13.8721C17.4812 14.0857 17.4947 14.3128 17.5786 14.5179C17.6626 14.7229 17.8123 14.8942 18.0042 15.005L19.0881 15.6309C19.3179 15.7635 19.4856 15.9819 19.5543 16.2382C19.623 16.4944 19.5871 16.7674 19.4545 16.9972C19.322 17.227 19.1035 17.3947 18.8473 17.4634C18.5911 17.5321 18.318 17.4963 18.0882 17.3637L17.0024 16.7357C16.8103 16.6245 16.5867 16.5803 16.3667 16.6102C16.1468 16.6401 15.943 16.7423 15.7875 16.9007C14.8976 17.8093 13.7764 18.4575 12.545 18.7755C12.33 18.8307 12.1396 18.9559 12.0036 19.1313C11.8677 19.3068 11.794 19.5224 11.7941 19.7443V20.9972C11.7941 21.2624 11.6887 21.5167 11.5012 21.7042C11.3137 21.8917 11.0594 21.997 10.7942 21.997C10.529 21.997 10.2747 21.8917 10.0872 21.7042C9.89969 21.5167 9.79435 21.2624 9.79435 20.9972V19.7453C9.79446 19.5234 9.72074 19.3078 9.58479 19.1323C9.44884 18.9569 9.25839 18.8317 9.04345 18.7765C7.81197 18.4572 6.6911 17.8076 5.80189 16.8977C5.64644 16.7393 5.44268 16.6371 5.22272 16.6072C5.00277 16.5773 4.77913 16.6215 4.58705 16.7327L3.5032 17.3597C3.38945 17.4263 3.26362 17.4699 3.13298 17.4877C3.00233 17.5056 2.86944 17.4974 2.74196 17.4637C2.61448 17.43 2.49492 17.3715 2.39017 17.2914C2.28542 17.2113 2.19756 17.1112 2.13162 16.997C2.06569 16.8828 2.023 16.7567 2.006 16.626C1.989 16.4952 1.99804 16.3624 2.03259 16.2351C2.06714 16.1079 2.12652 15.9887 2.20731 15.8845C2.2881 15.7803 2.38871 15.6931 2.50334 15.6279L3.58719 15.002C3.77911 14.8912 3.92882 14.7199 4.01279 14.5149C4.09677 14.3098 4.11025 14.0827 4.05113 13.8691C3.71253 12.6422 3.71253 11.3465 4.05113 10.1196C4.10919 9.90655 4.09506 9.68023 4.01095 9.47602C3.92684 9.2718 3.77748 9.10118 3.58619 8.99079L2.50234 8.36487C2.27256 8.23228 2.10486 8.01384 2.03614 7.75761C1.96741 7.50138 2.0033 7.22834 2.13589 6.99856C2.26848 6.76878 2.48692 6.60108 2.74315 6.53236C2.99938 6.46364 3.27242 6.49952 3.5022 6.63211L4.58805 7.26002C4.77961 7.37152 5.00278 7.41621 5.2225 7.38707C5.44221 7.35793 5.64602 7.25662 5.80189 7.09904C6.69186 6.19051 7.81305 5.54227 9.04445 5.2243C9.26006 5.16887 9.451 5.04307 9.58702 4.86685C9.72303 4.69062 9.79635 4.47404 9.79535 4.25143V2.9996C9.79535 2.73442 9.90069 2.4801 10.0882 2.29258C10.2757 2.10507 10.53 1.99973 10.7952 1.99973C11.0604 1.99973 11.3147 2.10507 11.5022 2.29258C11.6897 2.4801 11.7951 2.73442 11.7951 2.9996V4.25143C11.795 4.47335 11.8687 4.68901 12.0046 4.86443C12.1406 5.03984 12.331 5.16504 12.546 5.2203C13.7778 5.53941 14.8991 6.18905 15.7885 7.09904C15.944 7.25749 16.1478 7.3597 16.3677 7.38957C16.5877 7.41944 16.8113 7.37527 17.0034 7.26402L18.0872 6.63711C18.201 6.57042 18.3268 6.52689 18.4575 6.50903C18.5881 6.49116 18.721 6.49932 18.8485 6.53302C18.976 6.56673 19.0955 6.62531 19.2003 6.70541C19.305 6.78551 19.3929 6.88553 19.4588 6.99973C19.5247 7.11392 19.5674 7.24003 19.5844 7.3708C19.6014 7.50156 19.5924 7.63439 19.5578 7.76165C19.5233 7.8889 19.4639 8.00807 19.3831 8.11228C19.3023 8.21649 19.2017 8.3037 19.0871 8.36887L18.0032 8.99479C17.8123 9.10548 17.6634 9.27623 17.5796 9.48042C17.4959 9.68461 17.4821 9.91076 17.5403 10.1236V10.1226Z" fill="white"/>
</svg>
