<svg width="24" height="24" viewBox="0 0 24 24" fill="none" xmlns="http://www.w3.org/2000/svg">
<path d="M7.48642 12.9765C6.59801 12.9765 5.72956 12.713 4.99088 12.2194C4.2522 11.7259 3.67647 11.0243 3.33649 10.2036C2.99651 9.38278 2.90756 8.47962 3.08088 7.60829C3.25419 6.73696 3.682 5.93659 4.3102 5.30839C4.9384 4.68019 5.73877 4.25239 6.6101 4.07907C7.48143 3.90575 8.38459 3.9947 9.20537 4.33468C10.0262 4.67466 10.7277 5.25039 11.2213 5.98907C11.7148 6.72775 11.9783 7.5962 11.9783 8.48461C11.9769 9.67551 11.5033 10.8173 10.6612 11.6594C9.81908 12.5015 8.67732 12.9751 7.48642 12.9765ZM7.48642 5.98913C6.99286 5.98913 6.51038 6.13549 6.10001 6.4097C5.68963 6.6839 5.36978 7.07364 5.1809 7.52963C4.99202 7.98562 4.94261 8.48738 5.03889 8.97145C5.13518 9.45552 5.37285 9.90017 5.72185 10.2492C6.07085 10.5982 6.5155 10.8358 6.99957 10.9321C7.48365 11.0284 7.9854 10.979 8.44139 10.7901C8.89738 10.6012 9.28712 10.2814 9.56133 9.87102C9.83553 9.46064 9.98189 8.97816 9.98189 8.48461C9.98189 7.82277 9.71897 7.18803 9.25098 6.72004C8.78299 6.25205 8.14826 5.98913 7.48642 5.98913ZM14.9728 22.9583V22.4592C14.9728 20.4737 14.1841 18.5695 12.7801 17.1656C11.3761 15.7616 9.47194 14.9728 7.48642 14.9728C5.5009 14.9728 3.5967 15.7616 2.19272 17.1656C0.788745 18.5695 0 20.4737 0 22.4592L0 22.9583C0 23.2231 0.105166 23.477 0.292363 23.6642C0.479559 23.8514 0.733453 23.9565 0.998189 23.9565C1.26292 23.9565 1.51682 23.8514 1.70401 23.6642C1.89121 23.477 1.99638 23.2231 1.99638 22.9583V22.4592C1.99638 21.0032 2.57479 19.6068 3.60437 18.5772C4.63395 17.5476 6.03037 16.9692 7.48642 16.9692C8.94246 16.9692 10.3389 17.5476 11.3685 18.5772C12.398 19.6068 12.9765 21.0032 12.9765 22.4592V22.9583C12.9765 23.2231 13.0816 23.477 13.2688 23.6642C13.456 23.8514 13.7099 23.9565 13.9746 23.9565C14.2394 23.9565 14.4933 23.8514 14.6805 23.6642C14.8677 23.477 14.9728 23.2231 14.9728 22.9583ZM23.9565 17.9674C23.9565 16.6185 23.566 15.2985 22.8323 14.1667C22.0985 13.0348 21.0528 12.1396 19.8215 11.5889C18.5901 11.0383 17.2257 10.8559 15.8929 11.0637C14.5601 11.2714 13.316 11.8605 12.3107 12.7598C12.2116 12.8469 12.1308 12.9527 12.0729 13.0712C12.0149 13.1896 11.981 13.3184 11.9732 13.45C11.9653 13.5816 11.9835 13.7135 12.0269 13.838C12.0703 13.9626 12.1379 14.0773 12.2259 14.1755C12.3138 14.2737 12.4204 14.3536 12.5394 14.4104C12.6584 14.4672 12.7874 14.4999 12.9191 14.5066C13.0508 14.5133 13.1825 14.4938 13.3066 14.4492C13.4308 14.4047 13.5448 14.336 13.6422 14.2471C14.3604 13.6049 15.2491 13.1843 16.201 13.036C17.1529 12.8877 18.1275 13.0181 19.0069 13.4115C19.8864 13.8048 20.6332 14.4443 21.1572 15.2527C21.6813 16.0612 21.9601 17.004 21.9602 17.9674C21.9602 18.2321 22.0653 18.486 22.2525 18.6732C22.4397 18.8604 22.6936 18.9656 22.9583 18.9656C23.2231 18.9656 23.477 18.8604 23.6642 18.6732C23.8514 18.486 23.9565 18.2321 23.9565 17.9674ZM17.4683 8.9837C16.5799 8.9837 15.7114 8.72026 14.9728 8.22669C14.2341 7.73312 13.6584 7.03159 13.3184 6.21081C12.9784 5.39003 12.8894 4.48687 13.0628 3.61553C13.2361 2.7442 13.6639 1.94383 14.2921 1.31563C14.9203 0.687438 15.7207 0.259631 16.592 0.0863116C17.4633 -0.0870074 18.3665 0.00194626 19.1873 0.341924C20.008 0.681901 20.7096 1.25763 21.2031 1.99631C21.6967 2.73499 21.9602 3.60345 21.9602 4.49185C21.9588 5.68276 21.4852 6.82451 20.6431 7.66661C19.801 8.50871 18.6592 8.98238 17.4683 8.9837ZM17.4683 1.99638C16.9747 1.99638 16.4923 2.14274 16.0819 2.41694C15.6715 2.69115 15.3517 3.08089 15.1628 3.53688C14.9739 3.99286 14.9245 4.49462 15.0208 4.97869C15.1171 5.46277 15.3547 5.90742 15.7037 6.25642C16.0527 6.60541 16.4974 6.84309 16.9815 6.93937C17.4655 7.03566 17.9673 6.98624 18.4233 6.79737C18.8793 6.60849 19.269 6.28864 19.5432 5.87826C19.8174 5.46788 19.9638 4.98541 19.9638 4.49185C19.9638 3.83001 19.7009 3.19528 19.2329 2.72729C18.7649 2.25929 18.1301 1.99638 17.4683 1.99638Z" fill="white"/>
</svg>
