<svg width="24" height="24" viewBox="0 0 24 24" fill="none" xmlns="http://www.w3.org/2000/svg">
<path d="M23.9968 22.997C23.9968 23.2621 23.8915 23.5164 23.704 23.7039C23.5165 23.8914 23.2622 23.9968 22.997 23.9968H1.00141C0.736249 23.9968 0.481945 23.8914 0.294446 23.7039C0.106947 23.5164 0.00161122 23.2621 0.00161122 22.997C0.00161122 22.7318 0.106947 22.4775 0.294446 22.29C0.481945 22.1025 0.736249 21.9972 1.00141 21.9972H22.997C23.2622 21.9972 23.5165 22.1025 23.704 22.29C23.8915 22.4775 23.9968 22.7318 23.9968 22.997ZM0.292553 8.55183C0.0771185 8.15223 -0.0226893 7.7005 0.00433111 7.24733C0.0313515 6.79417 0.184131 6.3575 0.445523 5.98633C0.872697 5.35958 1.44477 4.84512 2.11319 4.48663L9.6127 0.583404C10.3498 0.200111 11.1684 0 11.9992 0C12.83 0 13.6486 0.200111 14.3858 0.583404L21.8843 4.48963C22.5527 4.84812 23.1248 5.36257 23.5519 5.98933C23.8133 6.3605 23.9661 6.79717 23.9931 7.25033C24.0201 7.7035 23.9203 8.15523 23.7049 8.55483C23.473 8.99357 23.1251 9.36027 22.6992 9.615C22.2733 9.86974 21.7857 10.0027 21.2894 9.99954H20.9974V17.998H21.9972C22.2624 17.998 22.5167 18.1033 22.7042 18.2908C22.8917 18.4783 22.997 18.7326 22.997 18.9978C22.997 19.2629 22.8917 19.5172 22.7042 19.7047C22.5167 19.8922 22.2624 19.9976 21.9972 19.9976H2.00121C1.73605 19.9976 1.48175 19.8922 1.29425 19.7047C1.10675 19.5172 1.00141 19.2629 1.00141 18.9978C1.00141 18.7326 1.10675 18.4783 1.29425 18.2908C1.48175 18.1033 1.73605 17.998 2.00121 17.998H3.00102V9.99954H2.70907C2.21233 10.0026 1.72428 9.86927 1.29814 9.61398C0.87201 9.35869 0.524166 8.99128 0.292553 8.55183ZM5.00062 17.998H8.00002V9.99954H5.00062V17.998ZM9.99963 9.99954V17.998H13.9988V9.99954H9.99963ZM18.9978 9.99954H15.9984V17.998H18.9978V9.99954ZM2.0642 7.62501C2.12693 7.74067 2.22028 7.83683 2.33403 7.90296C2.44778 7.96909 2.57753 8.00264 2.70907 7.99994H21.2894C21.4209 8.00264 21.5507 7.96909 21.6644 7.90296C21.7782 7.83683 21.8715 7.74067 21.9343 7.62501C21.98 7.54859 22.0021 7.46037 21.9978 7.37143C21.9935 7.2825 21.9631 7.1968 21.9103 7.12511C21.668 6.76509 21.3426 6.46878 20.9615 6.26128L13.4629 2.35505C13.011 2.12052 12.5094 1.9981 12.0002 1.9981C11.4911 1.9981 10.9894 2.12052 10.5375 2.35505L3.03901 6.26128C2.65807 6.46945 2.33268 6.76604 2.0902 7.12611C2.0373 7.1975 2.00662 7.28291 2.00199 7.37164C1.99737 7.46038 2.01901 7.54851 2.0642 7.62501Z" fill="white"/>
</svg>
