<svg width="16" height="16" viewBox="0 0 16 16" fill="none" xmlns="http://www.w3.org/2000/svg">
<path d="M10.1736 14.8332H5.82698C2.55365 14.8332 1.15365 13.4332 1.15365 10.1599V10.0732C1.15365 7.11319 2.32032 5.68652 4.93365 5.43985C5.20031 5.41985 5.45365 5.61985 5.48032 5.89319C5.50698 6.16652 5.30698 6.41319 5.02698 6.43985C2.93365 6.63319 2.15365 7.61985 2.15365 10.0799V10.1665C2.15365 12.8799 3.11365 13.8399 5.82698 13.8399H10.1736C12.887 13.8399 13.847 12.8799 13.847 10.1665V10.0799C13.847 7.60652 13.0536 6.61985 10.9203 6.43985C10.647 6.41319 10.4403 6.17319 10.467 5.89985C10.4936 5.62652 10.727 5.41985 11.007 5.44652C13.6603 5.67319 14.847 7.10652 14.847 10.0865V10.1732C14.847 13.4332 13.447 14.8332 10.1736 14.8332Z" fill="white"/>
<path d="M8 10.4202C7.72667 10.4202 7.5 10.1935 7.5 9.92016V1.3335C7.5 1.06016 7.72667 0.833496 8 0.833496C8.27333 0.833496 8.5 1.06016 8.5 1.3335V9.92016C8.5 10.2002 8.27333 10.4202 8 10.4202Z" fill="white"/>
<path d="M8 11.1667C7.87333 11.1667 7.74667 11.1201 7.64667 11.0201L5.41333 8.78673C5.22 8.59339 5.22 8.27339 5.41333 8.08006C5.60667 7.88673 5.92667 7.88673 6.12 8.08006L8 9.96006L9.88 8.08006C10.0733 7.88673 10.3933 7.88673 10.5867 8.08006C10.78 8.27339 10.78 8.59339 10.5867 8.78673L8.35333 11.0201C8.25333 11.1201 8.12667 11.1667 8 11.1667Z" fill="white"/>
</svg>
