<svg width="24" height="24" viewBox="0 0 24 24" fill="none" xmlns="http://www.w3.org/2000/svg">
<path d="M23.9946 9.49906C23.9946 8.29034 23.1357 7.28156 21.995 7.04962V1.00099C21.995 0.480108 21.5961 0.0472067 21.0782 0.00421645C20.5643 -0.0437727 20.0954 0.323144 20.0095 0.836028C19.6205 3.1685 16.3903 4.00031 13.4969 4.00031H5.49875C2.46644 4.00031 0 6.46675 0 9.49906C0 11.1497 0.731834 12.6333 1.88757 13.6421L5.02886 22.0232C5.3028 22.775 5.85467 23.3769 6.58051 23.7148C6.98341 23.9028 7.41332 23.9968 7.84422 23.9968C8.19114 23.9968 8.53806 23.9358 8.87399 23.8138C9.62582 23.5399 10.2277 22.988 10.5656 22.2622C10.9035 21.5353 10.9385 20.7215 10.6646 19.9707L8.86199 14.9978H13.4969C16.3903 14.9978 19.6205 15.8286 20.0095 18.1621C20.0904 18.647 20.5103 18.9969 20.9942 18.9969C21.0222 18.9969 21.0502 18.9969 21.0772 18.9939C21.5961 18.9509 21.994 18.518 21.994 17.9971V11.9485C23.1347 11.7166 23.9946 10.7088 23.9946 9.49906ZM5.49875 5.99986H6.99441L6.96442 12.9983H5.49975C3.57019 12.9983 2.00055 11.4286 2.00055 9.49906C2.00055 7.5695 3.56919 5.99986 5.49875 5.99986ZM8.78601 20.6535C8.87698 20.9035 8.86599 21.1754 8.75301 21.4174C8.64004 21.6593 8.44008 21.8433 8.18914 21.9352C7.9392 22.0272 7.66726 22.0152 7.42531 21.9022C7.18337 21.7893 6.99941 21.5893 6.90443 21.3304L4.49698 14.9068C4.82191 14.9668 5.15683 14.9988 5.49875 14.9988H6.73547L8.78601 20.6545V20.6535ZM19.9955 14.6969C18.5088 13.6021 16.2763 12.9983 13.4969 12.9983H8.96297L8.99296 5.99986H13.4959C16.2753 5.99986 18.5078 5.39599 19.9945 4.30124V14.6959L19.9955 14.6969Z" fill="white"/>
</svg>
