<svg width="27" height="18" viewBox="0 0 27 18" fill="none" xmlns="http://www.w3.org/2000/svg">
<path d="M9.95703 12.0355L17.0065 5.96484L9.95703 12.0355Z" fill="white"/>
<path d="M9.95703 12.0355L17.0065 5.96484" stroke="white" stroke-width="1.60505" stroke-linecap="round"/>
<path d="M17.5915 11.5297C17.5915 11.798 17.4677 12.0554 17.2474 12.2451C17.0271 12.4348 16.7282 12.5414 16.4166 12.5414C16.105 12.5414 15.8062 12.4348 15.5858 12.2451C15.3655 12.0554 15.2417 11.798 15.2417 11.5297C15.2417 11.2613 15.3655 11.004 15.5858 10.8142C15.8062 10.6245 16.105 10.5179 16.4166 10.5179C16.7282 10.5179 17.0271 10.6245 17.2474 10.8142C17.4677 11.004 17.5915 11.2613 17.5915 11.5297ZM11.717 6.47076C11.717 6.73911 11.5932 6.99646 11.3729 7.1862C11.1525 7.37595 10.8537 7.48254 10.5421 7.48254C10.2305 7.48254 9.93165 7.37595 9.71131 7.1862C9.49097 6.99646 9.36719 6.73911 9.36719 6.47076C9.36719 6.20242 9.49097 5.94507 9.71131 5.75533C9.93165 5.56558 10.2305 5.45898 10.5421 5.45898C10.8537 5.45898 11.1525 5.56558 11.3729 5.75533C11.5932 5.94507 11.717 6.20242 11.717 6.47076Z" fill="white"/>
<path d="M15.8342 0.905273H11.1252C6.6864 0.905273 4.46818 0.905273 3.08884 2.09108C2.05493 2.97841 1.79645 4.27045 1.73065 6.46399C1.72243 6.74527 1.99031 6.96988 2.30636 7.04172C2.80959 7.15457 3.25515 7.40799 3.57321 7.76227C3.89128 8.11656 4.0639 8.55169 4.06401 8.99951C4.06401 9.93946 3.31913 10.7297 2.30871 10.9573C1.99148 11.0281 1.7236 11.2527 1.733 11.534C1.79762 13.7296 2.05728 15.0206 3.08884 15.9079M20.5291 1.00645C22.0671 1.13596 23.101 1.42836 23.8717 2.09108C24.9033 2.97841 25.1641 4.27045 25.2288 6.46399C25.237 6.74527 24.9691 6.96988 24.6531 7.04172C24.1498 7.15457 23.7043 7.40799 23.3862 7.76227C23.0681 8.11656 22.8955 8.55169 22.8954 8.99951C22.8954 9.93946 23.6403 10.7297 24.6507 10.9573C24.9679 11.0281 25.2358 11.2527 25.2264 11.534C25.1618 13.7296 24.9021 15.0206 23.8706 15.9079C22.4912 17.0938 20.273 17.0938 15.8342 17.0938H11.1252C9.75526 17.0938 8.59327 17.0938 7.60518 17.0583" stroke="white" stroke-width="1.60505" stroke-linecap="round"/>
</svg>
