<svg width="22" height="24" viewBox="0 0 22 24" fill="none" xmlns="http://www.w3.org/2000/svg">
<path d="M19.1345 23.989C18.7647 23.988 18.3986 23.9137 18.0576 23.7704C17.7166 23.6272 17.4074 23.4178 17.1478 23.1544L10.9986 17.0432L4.84947 23.1584C4.45455 23.5589 3.94808 23.8312 3.39608 23.9398C2.84408 24.0484 2.27217 23.9882 1.75489 23.7671C1.23247 23.557 0.785563 23.1944 0.472518 22.7265C0.159473 22.2586 -0.00515856 21.7072 0.00012322 21.1443V4.99771C0.00012322 3.67223 0.526836 2.40105 1.46439 1.46379C2.40195 0.526542 3.67355 0 4.99945 0L16.9978 0C17.6544 0 18.3044 0.129269 18.911 0.380428C19.5175 0.631586 20.0687 0.999714 20.5329 1.46379C20.9971 1.92787 21.3654 2.47882 21.6166 3.08517C21.8678 3.69152 21.9972 4.3414 21.9972 4.99771V21.1443C22.0028 21.7067 21.8387 22.2578 21.5264 22.7256C21.2141 23.1935 20.7681 23.5564 20.2464 23.7671C19.8943 23.9143 19.5162 23.9898 19.1345 23.989ZM4.99945 1.99908C4.20391 1.99908 3.44095 2.31501 2.87842 2.87736C2.31588 3.43971 1.99985 4.20242 1.99985 4.99771V21.1443C1.99949 21.3109 2.04852 21.4738 2.14074 21.6125C2.23295 21.7512 2.36423 21.8595 2.51797 21.9237C2.67172 21.9879 2.84105 22.005 3.00456 21.9731C3.16807 21.9411 3.31844 21.8614 3.43666 21.744L10.2987 14.9261C10.4861 14.74 10.7395 14.6355 11.0036 14.6355C11.2678 14.6355 11.5212 14.74 11.7085 14.9261L18.5626 21.742C18.6808 21.8594 18.8312 21.9391 18.9947 21.9711C19.1582 22.003 19.3276 21.9859 19.4813 21.9217C19.6351 21.8575 19.7663 21.7492 19.8585 21.6105C19.9508 21.4718 19.9998 21.3089 19.9994 21.1423V4.99771C19.9994 4.20242 19.6834 3.43971 19.1209 2.87736C18.5583 2.31501 17.7954 1.99908 16.9998 1.99908H4.99945Z" fill="white"/>
</svg>
