<svg width="24" height="24" viewBox="0 0 24 24" fill="none" xmlns="http://www.w3.org/2000/svg">
<path d="M17.9709 13.0226C16.8521 11.9068 15.1583 11.7048 13.8315 12.4157L9.00015 7.58438V4.49879C9.00015 3.48593 8.45522 2.54306 7.57834 2.03713L4.59774 0.318357C3.66687 -0.219571 2.48603 -0.0625916 1.72413 0.697306L0.699269 1.72417C-0.0616285 2.48307 -0.216608 3.66491 0.32032 4.59578L2.03909 7.57638C2.54502 8.45426 3.48889 8.99919 4.50076 8.99919H7.58634L12.4117 13.8245C12.1337 14.3325 11.9857 14.9034 11.9857 15.4983C11.9857 16.4342 12.3507 17.3121 13.0136 17.974L18.0269 22.9733C18.6848 23.6292 19.5807 23.9972 20.5066 23.9972C21.4915 23.9972 22.5943 23.4762 23.2242 22.7083C24.3501 21.3365 24.2001 19.2338 22.8833 17.922L17.9709 13.0226ZM3.77085 6.57851L2.05209 3.59692C1.9661 3.44894 1.99109 3.25996 2.11308 3.13798L3.13794 2.11212C3.25992 1.99113 3.4489 1.96514 3.59788 2.05112L6.57748 3.77089C6.83744 3.92087 6.99942 4.20083 6.99942 4.49979V6.99946H4.49976C4.1998 6.99946 3.92083 6.83848 3.77085 6.57851ZM21.6784 21.4395C21.4025 21.7765 21.0125 21.9734 20.5816 21.9954C20.1606 22.0154 19.7407 21.8565 19.4397 21.5575L14.4264 16.5582C14.1425 16.2752 13.9865 15.8993 13.9865 15.4983C13.9865 15.0974 14.1435 14.7224 14.4264 14.4385C14.7204 14.1455 15.1073 13.9985 15.4933 13.9985C15.8792 13.9985 16.2652 14.1455 16.5591 14.4385L21.4725 19.3368C22.0684 19.9317 22.1584 20.8546 21.6784 21.4395ZM10.43 17.0971C10.8199 17.489 10.8189 18.121 10.428 18.5109L5.95156 22.9723C5.29365 23.6282 4.39877 23.9962 3.47189 23.9962C2.59101 23.9962 1.38418 23.4752 0.754261 22.7063C-0.370587 21.3355 -0.221607 19.2328 1.09622 17.921L6.76345 12.2667C7.1534 11.8768 7.78731 11.8768 8.17726 12.2687C8.56721 12.6597 8.56621 13.2926 8.17526 13.6826L2.50703 19.3368C1.91111 19.9317 1.81912 20.8546 2.29905 21.4385C2.57602 21.7765 2.96596 21.9734 3.39691 21.9954C3.82285 22.0144 4.23779 21.8565 4.53875 21.5575L9.01615 17.0961C9.40709 16.7062 10.039 16.7062 10.431 17.0981L10.43 17.0971ZM9.88603 4.63378C10.8059 2.29109 12.9096 0.560324 15.3763 0.117384C16.2392 -0.0365952 17.1061 -0.0395948 17.9549 0.111385C18.6209 0.229369 19.1578 0.699306 19.3568 1.33522C19.5857 2.06412 19.3568 2.86601 18.7448 3.47993L16.4102 5.72163C15.9252 6.20656 15.8462 6.98246 16.2452 7.47039C16.4751 7.75136 16.7981 7.91533 17.156 7.93433C17.505 7.95133 17.85 7.82235 18.1029 7.56938L20.7166 5.04872C21.2025 4.56279 21.9294 4.38181 22.6093 4.59878C23.2732 4.80775 23.7602 5.36068 23.8811 6.03959C24.0311 6.88747 24.0291 7.75635 23.8751 8.62024C23.5942 10.192 22.7753 11.6558 21.5695 12.7427C21.3785 12.9147 21.1385 12.9996 20.9005 12.9996C20.6276 12.9996 20.3546 12.8887 20.1576 12.6697C19.7877 12.2597 19.8207 11.6268 20.2306 11.2569C21.1075 10.467 21.7024 9.40513 21.9064 8.26929C22.0044 7.72136 22.0184 7.17443 21.9494 6.63751L19.5047 8.99619C18.8698 9.6331 17.9749 9.98005 17.0571 9.93206C16.1412 9.88607 15.2813 9.45113 14.6974 8.73722C13.6555 7.46339 13.7935 5.51166 15.0113 4.29482L17.345 2.05312L17.354 2.04412C16.8191 1.97613 16.2732 1.99013 15.7292 2.08812C13.9415 2.40808 12.4167 3.66491 11.7478 5.36668C11.5468 5.88061 10.9659 6.13357 10.452 5.9316C9.93802 5.72963 9.68406 5.14971 9.88703 4.63578L9.88603 4.63378Z" fill="white"/>
</svg>
