<svg width="41" height="40" viewBox="0 0 41 40" fill="none" xmlns="http://www.w3.org/2000/svg">
<path d="M15.9463 3.3335C11.5796 3.3335 8.0296 6.8835 8.0296 11.2502C8.0296 15.5335 11.3796 19.0002 15.7463 19.1502C15.8796 19.1335 16.0129 19.1335 16.1129 19.1502C16.1463 19.1502 16.1629 19.1502 16.1963 19.1502C16.2129 19.1502 16.2129 19.1502 16.2296 19.1502C20.4963 19.0002 23.8463 15.5335 23.8629 11.2502C23.8629 6.8835 20.3129 3.3335 15.9463 3.3335Z" fill="#3941AB"/>
<path d="M24.413 23.5833C19.763 20.4833 12.1796 20.4833 7.49629 23.5833C5.37962 25 4.21295 26.9166 4.21295 28.9666C4.21295 31.0166 5.37962 32.9166 7.47962 34.3166C9.81295 35.8833 12.8796 36.6666 15.9463 36.6666C19.013 36.6666 22.0796 35.8833 24.413 34.3166C26.513 32.9 27.6796 31 27.6796 28.9333C27.663 26.8833 26.513 24.9833 24.413 23.5833Z" fill="#3941AB"/>
<path d="M34.263 12.2332C34.5296 15.4665 32.2296 18.2998 29.0463 18.6832C29.0296 18.6832 29.0296 18.6832 29.013 18.6832H28.963C28.863 18.6832 28.763 18.6832 28.6796 18.7165C27.063 18.7998 25.5796 18.2832 24.463 17.3332C26.1796 15.7998 27.163 13.4998 26.963 10.9998C26.8463 9.64984 26.3796 8.41651 25.6796 7.36651C26.313 7.04984 27.0463 6.84984 27.7963 6.78317C31.063 6.49984 33.9796 8.93317 34.263 12.2332Z" fill="#3941AB"/>
<path d="M37.5963 27.6498C37.4629 29.2665 36.4296 30.6665 34.6963 31.6165C33.0296 32.5332 30.9296 32.9665 28.8463 32.9165C30.0463 31.8332 30.7463 30.4832 30.8796 29.0498C31.0463 26.9832 30.0629 24.9998 28.0963 23.4165C26.9796 22.5332 25.6796 21.8332 24.2629 21.3165C27.9463 20.2498 32.5796 20.9665 35.4296 23.2665C36.9629 24.4998 37.7463 26.0498 37.5963 27.6498Z" fill="#3941AB"/>
</svg>
