<svg width="41" height="40" viewBox="0 0 41 40" fill="none" xmlns="http://www.w3.org/2000/svg">
<path d="M20.4463 25C12.0963 25 5.2963 30.6 5.2963 37.5C5.2963 37.9667 5.66296 38.3333 6.12963 38.3333H34.763C35.2296 38.3333 35.5963 37.9667 35.5963 37.5C35.5963 30.6 28.7963 25 20.4463 25Z" fill="#6B86F4"/>
<path d="M26.6296 6.10016C25.1296 4.40016 22.8963 3.3335 20.4463 3.3335C18.1129 3.3335 15.9796 4.2835 14.4629 5.85016C13.0129 7.35016 12.1129 9.41683 12.1129 11.6668C12.1129 13.2335 12.5463 14.7002 13.3296 15.9502C13.7463 16.6668 14.2796 17.3168 14.9129 17.8502C16.3629 19.1835 18.2963 20.0002 20.4463 20.0002C23.4963 20.0002 26.1296 18.3668 27.5796 15.9502C28.0129 15.2335 28.3463 14.4335 28.5296 13.6002C28.6963 12.9835 28.7796 12.3335 28.7796 11.6668C28.7796 9.5335 27.9629 7.5835 26.6296 6.10016ZM23.5629 13.2002H22.0129V14.8168C22.0129 15.6835 21.3129 16.3835 20.4463 16.3835C19.5796 16.3835 18.8796 15.6835 18.8796 14.8168V13.2002H17.3296C16.4629 13.2002 15.7629 12.5002 15.7629 11.6335C15.7629 10.7668 16.4629 10.0668 17.3296 10.0668H18.8796V8.5835C18.8796 7.71683 19.5796 7.01683 20.4463 7.01683C21.3129 7.01683 22.0129 7.71683 22.0129 8.5835V10.0668H23.5629C24.4296 10.0668 25.1296 10.7668 25.1296 11.6335C25.1296 12.5002 24.4296 13.2002 23.5629 13.2002Z" fill="#6B86F4"/>
</svg>
