<svg width="41" height="40" viewBox="0 0 41 40" fill="none" xmlns="http://www.w3.org/2000/svg">
<path d="M20.4463 23.3335C12.0963 23.3335 5.2963 28.9335 5.2963 35.8335C5.2963 36.3002 5.66296 36.6668 6.12963 36.6668H34.763C35.2296 36.6668 35.5963 36.3002 35.5963 35.8335C35.5963 28.9335 28.7963 23.3335 20.4463 23.3335Z" fill="#4752E1"/>
<path d="M20.4463 3.3335C18.4796 3.3335 16.6796 4.01683 15.2463 5.16683C13.3296 6.6835 12.1129 9.0335 12.1129 11.6668C12.1129 13.2335 12.5463 14.7002 13.3296 15.9502C14.7629 18.3668 17.3963 20.0002 20.4463 20.0002C22.5463 20.0002 24.4629 19.2335 25.9296 17.9168C26.5796 17.3668 27.1463 16.7002 27.5796 15.9502C28.3463 14.7002 28.7796 13.2335 28.7796 11.6668C28.7796 7.06683 25.0463 3.3335 20.4463 3.3335ZM24.7629 10.7668L20.3129 14.8668C20.0129 15.1502 19.6296 15.2835 19.2463 15.2835C18.8463 15.2835 18.4463 15.1335 18.1463 14.8335L16.0963 12.7668C15.4796 12.1502 15.4796 11.1668 16.0963 10.5502C16.7129 9.9335 17.6963 9.9335 18.3129 10.5502L19.2963 11.5335L22.6463 8.45016C23.2796 7.86683 24.2629 7.90016 24.8463 8.5335C25.4296 9.1835 25.3963 10.1835 24.7629 10.7668Z" fill="#4752E1"/>
</svg>
