<svg width="41" height="40" viewBox="0 0 41 40" fill="none" xmlns="http://www.w3.org/2000/svg">
<path d="M20.9463 23.3335C12.5963 23.3335 5.79628 28.9335 5.79628 35.8335C5.79628 36.3002 6.16295 36.6668 6.62961 36.6668H35.2629C35.7296 36.6668 36.0963 36.3002 36.0963 35.8335C36.0963 28.9335 29.2963 23.3335 20.9463 23.3335Z" fill="#5769F4"/>
<path d="M29.0296 9.66681C28.8296 8.85014 28.4963 8.05014 28.0296 7.31681C27.7129 6.78347 27.2963 6.25014 26.8463 5.78347C25.3463 4.28347 23.3963 3.46681 21.3963 3.36681C19.1296 3.21681 16.8129 4.05014 15.0629 5.78347C13.4129 7.41681 12.5796 9.60014 12.6129 11.8001C12.6296 13.8835 13.4629 15.9668 15.0463 17.5668C16.1463 18.6668 17.4963 19.4001 18.9463 19.7335C19.7296 19.9335 20.5629 20.0335 21.3963 19.9668C23.3796 19.8835 25.3129 19.1001 26.8296 17.5668C28.9796 15.4168 29.7129 12.4001 29.0296 9.66681ZM24.2796 15.0001C23.6796 15.6001 22.6796 15.6001 22.0796 15.0001L20.9296 13.8501L19.8296 14.9501C19.2296 15.5501 18.2296 15.5501 17.6296 14.9501C17.0129 14.3335 17.0129 13.3501 17.6129 12.7501L18.7129 11.6501L17.6463 10.6168C17.0463 10.0001 17.0463 9.01681 17.6463 8.38347C18.2629 7.78347 19.2463 7.78347 19.8796 8.38347L20.9129 9.45014L22.0296 8.33347C22.6296 7.73347 23.6129 7.73347 24.2296 8.33347C24.8296 8.93347 24.8296 9.93347 24.2296 10.5335L23.1296 11.6335L24.2796 12.8001C24.8796 13.4001 24.8796 14.4001 24.2796 15.0001Z" fill="#5769F4"/>
</svg>
