<svg width="36" height="36" viewBox="0 0 36 36" fill="none" xmlns="http://www.w3.org/2000/svg">
<g clip-path="url(#clip0_7491_9011)">
<path d="M36 18C36 8.05887 27.9411 0 18 0C8.05887 0 0 8.05887 0 18C0 27.9411 8.05887 36 18 36C27.9411 36 36 27.9411 36 18Z" fill="#FAFAFA"/>
<path d="M9.51902 8.10841L27.3964 17.0043C27.5771 17.0941 27.7297 17.2352 27.8365 17.4114C27.9433 17.5877 28 17.7917 28 18.0001C28 18.2084 27.9433 18.4125 27.8365 18.5887C27.7297 18.7649 27.5771 18.9061 27.3964 18.9959L9.51902 27.8917C9.33575 27.9831 9.13112 28.0177 8.92948 27.9915C8.72784 27.9653 8.53767 27.8794 8.38161 27.744C8.22555 27.6086 8.11015 27.4294 8.04916 27.2277C7.98817 27.026 7.98415 26.8104 8.03758 26.6064L9.82617 19.7842C9.84806 19.7006 9.89313 19.6255 9.95574 19.5684C10.0184 19.5112 10.0958 19.4745 10.1783 19.4628L18.8412 18.2384C18.8774 18.2331 18.9117 18.2181 18.9407 18.1949C18.9697 18.1716 18.9924 18.141 19.0067 18.106L19.022 18.0513C19.0286 18.002 19.0191 17.9518 18.9949 17.9088C18.9708 17.8659 18.9333 17.8327 18.8887 17.8147L18.8421 17.8014L10.1876 16.577C10.1052 16.5652 10.028 16.5284 9.96558 16.4713C9.90312 16.4141 9.85819 16.3392 9.83635 16.2557L8.03758 9.39463C7.98394 9.19059 7.98779 8.9748 8.04869 8.77297C8.10959 8.57114 8.22496 8.39178 8.38107 8.25624C8.53717 8.12071 8.72743 8.03471 8.92918 8.0085C9.13093 7.98229 9.33568 8.01697 9.51902 8.10841Z" fill="#1255FB"/>
</g>
<defs>
<clipPath id="clip0_7491_9011">
<rect width="36" height="36" fill="white"/>
</clipPath>
</defs>
</svg>
