<svg width="254" height="253" viewBox="0 0 254 253" fill="none" xmlns="http://www.w3.org/2000/svg">
<path fill-rule="evenodd" clip-rule="evenodd" d="M43.0983 126.836L0.937556 84.8799L0.800781 85.0167V168.622L64.1958 231.71L106.356 189.754L43.1325 126.836H43.0983Z" fill="#2854F1"/>
<path fill-rule="evenodd" clip-rule="evenodd" d="M0.9375 84.8807L43.0982 126.837L169.546 0.967832L169.409 0.831055H85.3957L0.9375 84.8807Z" fill="#2854F1"/>
<path fill-rule="evenodd" clip-rule="evenodd" d="M253.868 84.8799L211.707 126.836L190.609 147.832L127.385 84.9141L85.2246 126.87L148.449 189.788L85.2246 252.706L85.3614 252.842H169.375L253.97 168.656V85.0509L253.833 84.9141L253.868 84.8799Z" fill="#DD7C43"/>
<path fill-rule="evenodd" clip-rule="evenodd" d="M148.484 63.9203L211.708 126.838L253.869 84.8814L190.645 21.9639L148.484 63.9203Z" fill="#DD7C43"/>
<path fill-rule="evenodd" clip-rule="evenodd" d="M51.2705 118.697L1.27944 84.5713L0.9375 84.9132L43.0982 126.87L51.2705 118.731V118.697Z" fill="#2854F1"/>
<path fill-rule="evenodd" clip-rule="evenodd" d="M203.535 118.699L253.526 84.5391L253.868 84.881L211.707 126.837L203.535 118.699Z" fill="#DD7C43"/>
</svg>
