<svg width="228" height="63" viewBox="0 0 228 63" fill="none" xmlns="http://www.w3.org/2000/svg">
<path d="M68.5469 12.2827H57.3379C53.4744 9.49985 48.7321 7.86823 43.6085 7.86823C31.844 7.86823 22.0942 16.4819 20.3448 27.7458H12.4023C14.2097 12.1253 27.4914 0 43.6085 0C53.7729 0 62.8014 4.81204 68.5469 12.2827Z" fill="url(#paint0_linear_11426_270079)"/>
<path d="M74.7478 35.9072C72.5882 51.2189 59.456 63.0002 43.5744 63.0002C33.5986 63.0002 24.7025 58.346 18.9297 51.0856H30.4172C34.18 53.6168 38.6986 55.0988 43.5744 55.0988C55.0869 55.0988 64.6723 46.8393 66.7406 35.9072H74.7478Z" fill="url(#paint1_linear_11426_270079)"/>
<path d="M87.8038 20.031V22.1885C87.8038 25.304 85.2811 27.828 82.1673 27.828H50.5962C50.4547 27.5531 50.2965 27.2866 50.1216 27.0283C48.6896 24.9375 46.2918 23.563 43.561 23.563C39.1817 23.563 35.6349 27.1116 35.6349 31.5016C35.6349 35.8916 39.1817 39.4319 43.561 39.4319C46.2918 39.4319 48.6896 38.0575 50.1216 35.9666H58.7388C56.8238 42.5308 50.7544 47.3289 43.561 47.3289C34.8274 47.3289 27.7422 40.24 27.7422 31.5016C27.7422 22.7633 34.8274 15.666 43.561 15.666C47.7905 15.666 51.6203 17.3237 54.4594 20.031H87.8038Z" fill="url(#paint2_linear_11426_270079)"/>
<path d="M23.1759 43.0878H0V41.0081C0 38.0131 2.51787 35.5801 5.61741 35.5801H20.3589C20.8326 38.27 21.7965 40.8074 23.1759 43.0878Z" fill="url(#paint3_linear_11426_270079)"/>
<path d="M113.714 41.6921C111.897 41.6921 110.23 41.3936 108.704 40.8048C107.179 40.2161 105.843 39.3869 104.707 38.3172C103.571 37.2475 102.692 35.9954 102.07 34.5526C101.448 33.1097 101.133 31.5425 101.133 29.8343C101.133 28.1262 101.448 26.5341 102.07 25.0995C102.692 23.6733 103.571 22.4212 104.707 21.3515C105.843 20.2818 107.17 19.4526 108.688 18.8638C110.206 18.2751 111.872 17.9766 113.68 17.9766C115.488 17.9766 117.155 18.2668 118.673 18.8472C120.191 19.4277 121.517 20.2486 122.654 21.3183C123.79 22.388 124.669 23.6401 125.291 25.0829C125.913 26.5258 126.228 28.1096 126.228 29.8343C126.228 31.5591 125.913 33.118 125.291 34.5692C124.669 36.0203 123.79 37.2807 122.654 38.3504C121.517 39.4201 120.191 40.241 118.673 40.8214C117.155 41.4019 115.497 41.6921 113.714 41.6921ZM113.68 37.2061C114.709 37.2061 115.654 37.0236 116.517 36.6671C117.379 36.3105 118.142 35.7964 118.797 35.1247C119.452 34.4614 119.958 33.6819 120.323 32.8029C120.688 31.924 120.862 30.9289 120.862 29.8426C120.862 28.7564 120.68 27.7613 120.323 26.8823C119.967 26.0034 119.452 25.2239 118.797 24.5605C118.142 23.8972 117.379 23.383 116.517 23.0182C115.654 22.6616 114.709 22.4792 113.68 22.4792C112.652 22.4792 111.707 22.6616 110.828 23.0182C109.948 23.3748 109.194 23.8889 108.547 24.5605C107.9 25.2239 107.402 26.0034 107.038 26.8823C106.673 27.7613 106.498 28.7564 106.498 29.8426C106.498 30.9289 106.681 31.924 107.038 32.8029C107.394 33.6819 107.9 34.4614 108.547 35.1247C109.194 35.7881 109.948 36.3022 110.828 36.6671C111.698 37.0236 112.652 37.2061 113.68 37.2061Z" fill="#3941AB"/>
<path d="M129.863 47.6491V23.6765H134.748V27.2753L134.648 32.5159L134.98 37.7234V45.1531C134.98 46.5296 133.861 47.6491 132.484 47.6491H129.872H129.863ZM140.246 41.5544C138.787 41.5544 137.493 41.2227 136.382 40.5676C135.27 39.9125 134.4 38.9175 133.778 37.5741C133.156 36.2308 132.841 34.5309 132.841 32.4827C132.841 30.4346 133.139 28.7015 133.728 27.3748C134.317 26.0397 135.171 25.053 136.299 24.3979C137.427 23.7428 138.737 23.4111 140.246 23.4111C141.93 23.4111 143.431 23.7843 144.75 24.5389C146.068 25.2935 147.121 26.3466 147.893 27.6982C148.664 29.0498 149.054 30.6502 149.054 32.4827C149.054 34.3153 148.664 35.9406 147.893 37.2839C147.113 38.6272 146.068 39.672 144.75 40.4266C143.431 41.1812 141.93 41.5544 140.246 41.5544ZM139.392 37.3668C140.246 37.3668 141.001 37.1678 141.673 36.7781C142.336 36.3883 142.875 35.8245 143.282 35.0948C143.688 34.3651 143.887 33.4944 143.887 32.491C143.887 31.4877 143.688 30.5921 143.282 29.8707C142.875 29.1493 142.345 28.602 141.673 28.2206C141.009 27.8391 140.246 27.6484 139.392 27.6484C138.538 27.6484 137.775 27.8391 137.103 28.2206C136.423 28.602 135.884 29.1576 135.478 29.8707C135.071 30.5921 134.872 31.4628 134.872 32.491C134.872 33.5193 135.071 34.3651 135.478 35.0948C135.884 35.8245 136.423 36.3883 137.103 36.7781C137.783 37.1678 138.546 37.3668 139.392 37.3668Z" fill="#3941AB"/>
<path d="M161.249 41.5544C159.242 41.5544 157.484 41.1646 155.975 40.3769C154.465 39.5891 153.296 38.5194 152.467 37.1512C151.637 35.783 151.223 34.2324 151.223 32.4827C151.223 30.7331 151.621 29.1742 152.417 27.7977C153.213 26.4212 154.324 25.3432 155.759 24.572C157.185 23.8009 158.803 23.4111 160.594 23.4111C162.385 23.4111 163.878 23.7843 165.263 24.5223C166.648 25.2686 167.751 26.3134 168.555 27.665C169.36 29.0166 169.766 30.6419 169.766 32.5491C169.766 32.7481 169.758 32.972 169.733 33.2207C169.708 33.4695 169.692 33.71 169.667 33.9256H155.353V30.9487H166.98L164.981 31.836C165.006 30.9155 164.832 30.1195 164.459 29.4478C164.085 28.7679 163.571 28.2455 162.916 27.8557C162.261 27.4743 161.498 27.2836 160.627 27.2836C159.756 27.2836 158.985 27.4743 158.313 27.8557C157.65 28.2372 157.127 28.7762 156.754 29.4644C156.381 30.1527 156.199 30.9653 156.199 31.9023V32.69C156.199 33.6768 156.414 34.5226 156.854 35.244C157.293 35.9654 157.89 36.5127 158.653 36.8942C159.416 37.2756 160.337 37.4663 161.407 37.4663C162.327 37.4663 163.14 37.3254 163.845 37.0434C164.019 36.9688 164.193 36.8942 164.367 36.803C165.346 36.2971 166.548 36.5791 167.295 37.3917L168.514 38.7184C167.71 39.6389 166.689 40.3437 165.47 40.8329C164.251 41.3222 162.841 41.5709 161.241 41.5709L161.249 41.5544Z" fill="#3941AB"/>
<path d="M173.168 41.2973V23.6765H175.548C176.933 23.6765 178.053 24.7959 178.053 26.1807V28.6932L177.364 27.2172C177.887 25.9734 178.733 25.0281 179.885 24.3813C181.046 23.7345 182.448 23.4111 184.107 23.4111V28.1625C183.908 28.1211 183.717 28.0879 183.534 28.063C183.352 28.0382 183.17 28.0299 182.995 28.0299C181.552 28.0299 180.408 28.4362 179.554 29.2405C178.7 30.0449 178.277 31.297 178.277 32.972V41.289H173.168V41.2973Z" fill="#3941AB"/>
<path d="M194.376 41.556C192.717 41.556 191.224 41.1828 189.889 40.4283C188.554 39.6737 187.509 38.6206 186.746 37.2689C185.983 35.9173 185.602 34.3252 185.602 32.4844C185.602 30.6435 185.983 29.0597 186.746 27.6998C187.509 26.3482 188.562 25.2951 189.889 24.5405C191.224 23.7859 192.717 23.4128 194.376 23.4128C195.86 23.4128 197.162 23.7444 198.274 24.3995C199.385 25.0546 200.247 26.0497 200.861 27.3764C201.475 28.7114 201.782 30.4113 201.782 32.4844C201.782 34.5574 201.483 36.2407 200.894 37.5923C200.305 38.944 199.46 39.9473 198.357 40.5858C197.254 41.2326 195.927 41.556 194.376 41.556ZM195.23 37.3685C196.084 37.3685 196.847 37.1777 197.519 36.7963C198.199 36.4149 198.738 35.851 199.144 35.113C199.551 34.3667 199.75 33.496 199.75 32.4927C199.75 31.4893 199.551 30.5938 199.144 29.8723C198.738 29.1509 198.199 28.6036 197.519 28.2222C196.839 27.8408 196.076 27.65 195.23 27.65C194.384 27.65 193.646 27.8408 192.966 28.2222C192.286 28.6036 191.747 29.1592 191.34 29.8723C190.934 30.5855 190.735 31.4644 190.735 32.4927C190.735 33.5209 190.934 34.3667 191.34 35.113C191.747 35.8593 192.286 36.4149 192.966 36.7963C193.646 37.1777 194.392 37.3685 195.23 37.3685ZM199.882 41.2989V37.7001L199.982 32.4595L199.65 27.252V19.5486C199.65 18.139 200.786 17.0029 202.196 17.0029H204.759V41.3072H199.874L199.882 41.2989Z" fill="#3941AB"/>
<path d="M217.812 41.5544C215.954 41.5544 214.304 41.1646 212.853 40.3769C211.401 39.5891 210.257 38.5194 209.428 37.1512C208.598 35.783 208.184 34.2324 208.184 32.4827C208.184 30.7331 208.598 29.1493 209.428 27.7811C210.257 26.4129 211.401 25.3432 212.853 24.572C214.304 23.8009 215.963 23.4111 217.812 23.4111C219.661 23.4111 221.362 23.8009 222.821 24.572C224.281 25.3515 225.433 26.4212 226.263 27.7811C227.092 29.1493 227.507 30.7165 227.507 32.4827C227.507 34.249 227.092 35.8162 226.263 37.1678C225.433 38.5194 224.289 39.5891 222.821 40.3769C221.362 41.1646 219.686 41.5544 217.812 41.5544ZM217.812 37.3668C218.683 37.3668 219.454 37.1761 220.126 36.7947C220.789 36.4132 221.328 35.8494 221.735 35.1114C222.141 34.3651 222.34 33.4944 222.34 32.491C222.34 31.4877 222.141 30.5921 221.735 29.8707C221.328 29.1493 220.798 28.602 220.126 28.2206C219.462 27.8391 218.699 27.6484 217.845 27.6484C216.991 27.6484 216.228 27.8391 215.548 28.2206C214.868 28.602 214.329 29.1576 213.922 29.8707C213.516 30.5838 213.317 31.4628 213.317 32.491C213.317 33.5193 213.516 34.3651 213.922 35.1114C214.329 35.8576 214.868 36.4132 215.548 36.7947C216.228 37.1761 216.974 37.3668 217.812 37.3668Z" fill="#3941AB"/>
<defs>
<linearGradient id="paint0_linear_11426_270079" x1="21.6299" y1="29.187" x2="65.503" y2="-5.7993" gradientUnits="userSpaceOnUse">
<stop stop-color="#8098F9"/>
<stop offset="1" stop-color="#C7D7FE"/>
</linearGradient>
<linearGradient id="paint1_linear_11426_270079" x1="29.0301" y1="33.3428" x2="76.3646" y2="62.9903" gradientUnits="userSpaceOnUse">
<stop stop-color="#8098F9"/>
<stop offset="1" stop-color="#C7D7FE"/>
</linearGradient>
<linearGradient id="paint2_linear_11426_270079" x1="29.4656" y1="36.4248" x2="86.1702" y2="16.6179" gradientUnits="userSpaceOnUse">
<stop stop-color="#8098F9"/>
<stop offset="1" stop-color="#C7D7FE"/>
</linearGradient>
<linearGradient id="paint3_linear_11426_270079" x1="0" y1="39.3299" x2="23.1759" y2="39.3299" gradientUnits="userSpaceOnUse">
<stop stop-color="#8098F9"/>
<stop offset="1" stop-color="#C7D7FE"/>
</linearGradient>
</defs>
</svg>
