<?xml version="1.0" encoding="utf-8"?>
<svg xmlns="http://www.w3.org/2000/svg"
     version="1.1"
     viewBox="360 335 300 300"
     fill="currentColor">
  <path d="M 967,945 L 967,947 L 962,956 L 955,963 L 945,967 L 945,968 L 947,968 L 956,973 L 963,980 L 967,990 L 968,990 L 968,988 L 973,979 L 980,972 L 990,968 L 990,967 L 988,967 L 979,962 L 972,955 L 968,945 Z" fill="currentColor" fill-rule="evenodd" stroke="none"/>
  <path d="M 603,561 L 595,576 L 595,594 L 597,602 L 602,611 L 613,618 L 621,619 L 629,617 L 638,608 L 639,604 L 638,596 L 632,589 L 626,587 L 633,593 L 634,596 L 633,604 L 627,610 L 624,611 L 619,611 L 613,609 L 607,603 L 604,596 L 604,585 L 603,584 L 604,561 Z" fill="currentColor" fill-rule="evenodd" stroke="none"/>
  <path d="M 420,561 L 419,564 L 419,574 L 420,575 L 419,595 L 415,604 L 410,609 L 405,611 L 399,611 L 395,609 L 390,604 L 389,595 L 397,587 L 389,590 L 385,596 L 384,599 L 385,607 L 387,611 L 394,617 L 402,619 L 412,617 L 416,615 L 423,608 L 426,602 L 428,593 L 428,577 L 425,569 Z" fill="currentColor" fill-rule="evenodd" stroke="none"/>
  <path d="M 620,544 L 612,550 L 612,596 L 614,591 L 620,585 Z" fill="currentColor" fill-rule="evenodd" stroke="none"/>
  <path d="M 403,544 L 403,585 L 409,591 L 411,596 L 411,550 Z" fill="currentColor" fill-rule="evenodd" stroke="none"/>
  <path d="M 375,489 L 373,494 L 373,503 L 374,508 L 378,516 L 387,525 L 408,538 L 422,550 L 428,558 L 434,573 L 432,553 L 423,534 L 412,522 L 389,506 L 378,495 Z" fill="currentColor" fill-rule="evenodd" stroke="none"/>
  <path d="M 648,488 L 644,496 L 635,505 L 611,522 L 600,534 L 594,545 L 590,557 L 589,573 L 592,564 L 598,554 L 610,542 L 636,525 L 646,515 L 650,504 L 650,494 Z" fill="currentColor" fill-rule="evenodd" stroke="none"/>
  <path d="M 541,477 L 540,478 L 541,479 L 546,480 L 550,484 L 551,488 L 551,522 L 550,523 L 504,523 L 497,516 L 496,510 L 494,510 L 494,545 L 495,546 L 496,545 L 498,537 L 502,533 L 505,532 L 549,532 L 551,541 L 550,542 L 551,544 L 551,571 L 549,577 L 546,580 L 541,581 L 541,582 L 579,582 L 580,583 L 581,581 L 576,580 L 572,576 L 571,573 L 571,486 L 575,480 L 581,479 L 580,477 L 557,477 L 556,478 L 554,477 Z" fill="currentColor" fill-rule="evenodd" stroke="none"/>
  <path d="M 442,477 L 441,479 L 447,480 L 451,485 L 451,556 L 452,557 L 451,576 L 447,580 L 442,581 L 442,583 L 444,582 L 522,582 L 528,558 L 528,553 L 526,553 L 520,565 L 510,573 L 507,574 L 473,574 L 472,573 L 472,486 L 477,480 L 482,479 L 482,477 Z" fill="currentColor" fill-rule="evenodd" stroke="none"/>
  <path d="M 636,446 L 635,446 L 634,457 L 628,469 L 616,485 L 600,502 L 589,519 L 585,530 L 583,540 L 584,555 L 587,542 L 596,527 L 609,514 L 628,501 L 638,491 L 642,484 L 645,475 L 645,464 L 643,457 Z" fill="currentColor" fill-rule="evenodd" stroke="none"/>
  <path d="M 387,445 L 381,454 L 378,464 L 378,475 L 380,482 L 386,492 L 395,501 L 414,514 L 427,527 L 435,539 L 439,550 L 439,554 L 440,552 L 440,540 L 436,524 L 431,514 L 422,501 L 407,485 L 396,471 L 390,460 Z" fill="currentColor" fill-rule="evenodd" stroke="none"/>
  <path d="M 608,408 L 607,409 L 611,418 L 610,441 L 604,458 L 590,482 L 584,495 L 581,505 L 580,522 L 581,522 L 584,512 L 591,501 L 620,467 L 627,451 L 628,441 L 625,428 L 620,419 Z" fill="currentColor" fill-rule="evenodd" stroke="none"/>
  <path d="M 416,408 L 409,413 L 400,424 L 395,437 L 395,448 L 401,464 L 412,479 L 421,488 L 434,504 L 439,512 L 443,522 L 442,505 L 439,495 L 432,480 L 418,456 L 412,437 L 411,425 L 412,424 L 413,414 Z" fill="currentColor" fill-rule="evenodd" stroke="none"/>
  <path d="M 424,446 L 424,450 L 429,461 L 430,455 L 434,445 L 446,430 L 461,419 L 493,400 L 512,385 L 526,397 L 556,415 L 577,430 L 587,442 L 592,452 L 594,461 L 599,450 L 599,446 L 595,437 L 585,426 L 573,417 L 531,392 L 517,379 L 512,370 L 511,370 L 505,380 L 497,388 L 483,398 L 450,417 L 439,425 L 430,434 Z" fill="currentColor" fill-rule="evenodd" stroke="none"/>
  <path d="M 519,340 L 516,349 L 516,357 L 518,365 L 524,375 L 539,388 L 584,415 L 599,429 L 603,436 L 603,423 L 601,416 L 597,409 L 589,401 L 579,394 L 558,383 L 533,367 L 523,356 L 519,347 Z" fill="currentColor" fill-rule="evenodd" stroke="none"/>
  <path d="M 503,339 L 504,342 L 503,350 L 498,359 L 491,366 L 470,380 L 444,394 L 434,401 L 426,409 L 420,422 L 420,436 L 424,429 L 435,418 L 449,408 L 484,388 L 499,375 L 505,365 L 507,356 L 506,346 Z" fill="currentColor" fill-rule="evenodd" stroke="none"/>
</svg>
