<svg width="279" height="66" viewBox="0 0 279 66" fill="none" xmlns="http://www.w3.org/2000/svg">
<g clip-path="url(#clip0_4919_40)">
<path fill-rule="evenodd" clip-rule="evenodd" d="M79.207 16.5868H92.5684L97.7189 36.5895L102.834 16.5868H116.187V49.4572H107.87V24.3921L101.458 49.4572H93.9266L87.5325 24.3921V49.4572H79.2158V16.5868H79.207Z" fill="#2854F1"/>
<path fill-rule="evenodd" clip-rule="evenodd" d="M124.238 16.5869H135.518L142.142 27.673L148.774 16.5869H159.992L147.213 35.69V49.4573H137.035V35.69L124.229 16.5869H124.238Z" fill="#2854F1"/>
<path d="M167.806 16.5605H193.091V23.6426H178.081V29.393H190.904V36.0517H178.081V49.5103H167.806V16.5605Z" fill="#DD7C43"/>
<path d="M203.639 16.5602H213.896V49.51H203.639V16.5602Z" fill="#2854F1"/>
<path d="M225.203 16.5602H235.46V49.51H225.203V16.5602Z" fill="#2854F1"/>
<path d="M246.422 16.5602H255.974L268.435 34.7814V16.5602H278.075V49.51H268.435L256.044 31.4212V49.51H246.422V16.5602Z" fill="#DD7C43"/>
<path fill-rule="evenodd" clip-rule="evenodd" d="M10.9096 33L0.0352775 22.1784L0 22.2137V43.7775L16.3511 60.0495L27.2254 49.228L10.9184 33H10.9096Z" fill="#2854F1"/>
<path fill-rule="evenodd" clip-rule="evenodd" d="M0.0351868 22.1784L10.9095 33L43.5235 0.53528L43.4882 0.500002H21.819L0.0351868 22.1784Z" fill="#2854F1"/>
<path fill-rule="evenodd" clip-rule="evenodd" d="M65.272 22.1784L54.3977 33L48.9562 38.4152L32.6492 22.1873L21.7749 33.0088L38.0819 49.2368L21.7749 65.4647L21.8101 65.5H43.4794L65.2985 43.7863V22.2225L65.2632 22.1873L65.272 22.1784Z" fill="#DD7C43"/>
<path fill-rule="evenodd" clip-rule="evenodd" d="M38.0908 16.772L54.3978 33L65.2721 22.1784L48.965 5.95047L38.0908 16.772Z" fill="#DD7C43"/>
<path fill-rule="evenodd" clip-rule="evenodd" d="M13.0173 30.901L0.123381 22.0991L0.0351868 22.1873L10.9095 33.0088L13.0173 30.9098V30.901Z" fill="#2854F1"/>
<path fill-rule="evenodd" clip-rule="evenodd" d="M52.2902 30.9009L65.1841 22.0902L65.2723 22.1784L54.398 33L52.2902 30.9009Z" fill="#DD7C43"/>
</g>
<defs>
<clipPath id="clip0_4919_40">
<rect width="278.075" height="65" fill="white" transform="translate(0 0.5)"/>
</clipPath>
</defs>
</svg>
