<svg width="88" height="63" viewBox="0 0 88 63" fill="none" xmlns="http://www.w3.org/2000/svg">
<path d="M68.5469 12.2827H57.3379C53.4744 9.49985 48.7321 7.86823 43.6085 7.86823C31.844 7.86823 22.0942 16.4819 20.3448 27.7458H12.4023C14.2097 12.1253 27.4914 0 43.6085 0C53.7729 0 62.8014 4.81204 68.5469 12.2827Z" fill="url(#paint0_linear_11426_270080)"/>
<path d="M74.7478 35.9072C72.5882 51.2189 59.456 63.0002 43.5744 63.0002C33.5986 63.0002 24.7025 58.346 18.9297 51.0856H30.4172C34.18 53.6168 38.6986 55.0988 43.5744 55.0988C55.0869 55.0988 64.6723 46.8393 66.7406 35.9072H74.7478Z" fill="url(#paint1_linear_11426_270080)"/>
<path d="M87.8038 20.031V22.1885C87.8038 25.304 85.2811 27.828 82.1673 27.828H50.5962C50.4547 27.5531 50.2965 27.2866 50.1216 27.0283C48.6896 24.9375 46.2918 23.563 43.561 23.563C39.1817 23.563 35.6349 27.1116 35.6349 31.5016C35.6349 35.8916 39.1817 39.4319 43.561 39.4319C46.2918 39.4319 48.6896 38.0575 50.1216 35.9666H58.7388C56.8238 42.5308 50.7544 47.3289 43.561 47.3289C34.8274 47.3289 27.7422 40.24 27.7422 31.5016C27.7422 22.7633 34.8274 15.666 43.561 15.666C47.7905 15.666 51.6203 17.3237 54.4594 20.031H87.8038Z" fill="url(#paint2_linear_11426_270080)"/>
<path d="M23.1759 43.0878H0V41.0081C0 38.0131 2.51787 35.5801 5.61741 35.5801H20.3589C20.8326 38.27 21.7965 40.8074 23.1759 43.0878Z" fill="url(#paint3_linear_11426_270080)"/>
<defs>
<linearGradient id="paint0_linear_11426_270080" x1="21.6299" y1="29.187" x2="65.503" y2="-5.7993" gradientUnits="userSpaceOnUse">
<stop stop-color="#8098F9"/>
<stop offset="1" stop-color="#C7D7FE"/>
</linearGradient>
<linearGradient id="paint1_linear_11426_270080" x1="29.0301" y1="33.3428" x2="76.3646" y2="62.9903" gradientUnits="userSpaceOnUse">
<stop stop-color="#8098F9"/>
<stop offset="1" stop-color="#C7D7FE"/>
</linearGradient>
<linearGradient id="paint2_linear_11426_270080" x1="29.4656" y1="36.4248" x2="86.1702" y2="16.6179" gradientUnits="userSpaceOnUse">
<stop stop-color="#8098F9"/>
<stop offset="1" stop-color="#C7D7FE"/>
</linearGradient>
<linearGradient id="paint3_linear_11426_270080" x1="0" y1="39.3299" x2="23.1759" y2="39.3299" gradientUnits="userSpaceOnUse">
<stop stop-color="#8098F9"/>
<stop offset="1" stop-color="#C7D7FE"/>
</linearGradient>
</defs>
</svg>
