<svg width="279" height="65" viewBox="0 0 279 65" fill="none" xmlns="http://www.w3.org/2000/svg">
<g clip-path="url(#clip0_7138_6171)">
<path fill-rule="evenodd" clip-rule="evenodd" d="M79.207 16.0869H92.5684L97.7189 36.0896L102.834 16.0869H116.187V48.9573H107.87V23.8922L101.458 48.9573H93.9266L87.5325 23.8922V48.9573H79.2159V16.0869H79.207Z" fill="white"/>
<path fill-rule="evenodd" clip-rule="evenodd" d="M124.238 16.0869H135.518L142.142 27.1731L148.774 16.0869H159.992L147.213 35.19V48.9573H137.035V35.19L124.229 16.0869H124.238Z" fill="white"/>
<path d="M167.807 16.0605H193.092V23.1426H178.081V28.893H190.905V35.5517H178.081V49.0103H167.807V16.0605Z" fill="white"/>
<path d="M203.64 16.0605H213.897V49.0103H203.64V16.0605Z" fill="white"/>
<path d="M225.203 16.0605H235.46V49.0103H225.203V16.0605Z" fill="white"/>
<path d="M246.423 16.0605H255.974L268.436 34.2817V16.0605H278.076V49.0103H268.436L256.045 30.9215V49.0103H246.423V16.0605Z" fill="white"/>
<path fill-rule="evenodd" clip-rule="evenodd" d="M10.9096 32.4998L0.0352775 21.6782L0 21.7135V43.2773L16.3511 59.5493L27.2254 48.7277L10.9184 32.4998H10.9096Z" fill="white"/>
<path fill-rule="evenodd" clip-rule="evenodd" d="M0.0351562 21.6784L10.9094 32.5L43.5235 0.0352782L43.4882 0H21.819L0.0351562 21.6784Z" fill="white"/>
<path fill-rule="evenodd" clip-rule="evenodd" d="M65.2716 21.6782L54.3973 32.4998L48.9557 37.915L32.6487 21.687L21.7744 32.5086L38.0814 48.7366L21.7744 64.9645L21.8097 64.9998H43.4789L65.298 43.2861V21.7223L65.2627 21.687L65.2716 21.6782Z" fill="white"/>
<path fill-rule="evenodd" clip-rule="evenodd" d="M38.0908 16.2723L54.3978 32.5002L65.2721 21.6786L48.9651 5.45068L38.0908 16.2723Z" fill="white"/>
<path fill-rule="evenodd" clip-rule="evenodd" d="M13.0173 30.401L0.12335 21.5991L0.0351562 21.6873L10.9094 32.5089L13.0173 30.4098V30.401Z" fill="white"/>
<path fill-rule="evenodd" clip-rule="evenodd" d="M52.29 30.4011L65.184 21.5903L65.2722 21.6785L54.3979 32.5001L52.29 30.4011Z" fill="white"/>
</g>
<defs>
<clipPath id="clip0_7138_6171">
<rect width="278.075" height="65" fill="white"/>
</clipPath>
</defs>
</svg>
