<svg width="92" height="16" viewBox="0 0 92 16" fill="none" xmlns="http://www.w3.org/2000/svg">
<path fill-rule="evenodd" clip-rule="evenodd" d="M0.570312 0.375H6.67508L9.02834 9.51418L11.3655 0.375H17.4662V15.3934H13.6663V3.94122L10.7369 15.3934H7.29563L4.37421 3.94122V15.3934H0.574343V0.375H0.570312Z" fill="white"/>
<path fill-rule="evenodd" clip-rule="evenodd" d="M21.1466 0.375H26.3004L29.3266 5.44024L32.3568 0.375H37.4824L31.6436 9.10316V15.3934H26.9935V9.10316L21.1426 0.375H21.1466Z" fill="white"/>
<path d="M41.0527 0.363281H52.6054V3.59907H45.7472V6.22638H51.6061V9.26875H45.7472V15.418H41.0527V0.363281Z" fill="white"/>
<path d="M57.4238 0.363281H62.1102V15.418H57.4238V0.363281Z" fill="white"/>
<path d="M67.2754 0.363281H71.9618V15.418H67.2754V0.363281Z" fill="white"/>
<path d="M76.9707 0.363281H81.3347L87.0285 8.68848V0.363281H91.4327V15.418H87.0285L81.3669 7.1532V15.418H76.9707V0.363281Z" fill="white"/>
</svg>
