<svg width="172" height="36" viewBox="0 0 172 36" fill="none" xmlns="http://www.w3.org/2000/svg">
<path d="M7.45801 15.045H11.952C13.3135 9.23211 18.5394 4.90184 24.7787 4.90184C26.7596 4.90184 28.6431 5.34151 30.3271 6.12372H37.672C34.4679 2.66769 29.8767 0.5 24.7839 0.5C16.0979 0.5 8.88605 6.78323 7.45801 15.045Z" fill="white"/>
<path d="M24.7837 35.4997C33.9559 35.4997 41.4851 28.4854 42.2887 19.5283H37.8561C37.0679 26.0467 31.5144 31.0978 24.7837 31.0978C21.815 31.0978 19.0766 30.1163 16.8757 28.4649H10.708C13.9121 32.739 19.0254 35.4997 24.7837 35.4997Z" fill="white"/>
<path d="M16.4766 18.256C16.3025 13.6037 20.0236 9.77441 24.6456 9.77441C24.6916 9.77441 24.7377 9.77441 24.7889 9.77441H48.4923C48.4923 12.2642 46.4705 14.2836 43.9778 14.2836H25.009C25.009 14.2836 25.009 14.2836 25.0039 14.2836H24.794C24.7428 14.2836 24.6967 14.2836 24.6507 14.2836C22.5009 14.2836 20.7914 16.1803 21.0524 18.3736C21.2469 20.0147 22.5675 21.3337 24.2105 21.528C26.089 21.7478 27.7269 20.5311 28.1619 18.8388H32.7736C32.313 23.0157 28.6942 26.2468 24.3538 26.0934C20.0134 25.9401 16.6455 22.4891 16.4868 18.2509L16.4766 18.256Z" fill="white"/>
<path d="M0 24.0228H13.3181C12.6118 22.6577 12.1409 21.1495 11.9515 19.5596H4.4735C2.00642 19.5596 0.00511842 21.5585 0.00511842 24.0228H0Z" fill="white"/>
<path d="M120.186 17.9113C120.186 21.3773 117.535 24.0414 114.394 24.0414C113.075 24.0414 111.946 23.5249 111.103 22.7637V28.4997H107.69V11.9579H110.532L110.777 13.3035C111.634 12.42 112.884 11.7676 114.38 11.7676C117.548 11.7676 120.172 14.4589 120.172 17.9113H120.186ZM116.746 17.9113C116.746 16.2666 115.522 15.0841 113.918 15.0841C112.313 15.0841 111.117 16.2802 111.117 17.9113C111.117 19.5424 112.341 20.7113 113.918 20.7113C115.495 20.7113 116.746 19.5288 116.746 17.9113Z" fill="white"/>
<path d="M134.34 19.0802H125.733C126.182 20.3715 127.338 21.1463 128.956 21.1463C130.125 21.1463 131.05 20.82 131.811 20.1404L133.755 22.288C132.273 23.5793 130.927 24.0822 128.956 24.0822C125.04 24.0822 122.348 21.6084 122.348 17.9928C122.348 14.3773 125.026 11.7676 128.643 11.7676C132.042 11.7676 134.476 14.2006 134.476 17.6123C134.476 18.2919 134.435 18.822 134.354 19.0802H134.34ZM125.747 16.5657H131.24C131.226 16.3482 131.186 16.1443 131.104 15.9676C130.764 15.1657 129.88 14.7035 128.629 14.7035C127.147 14.7035 126.155 15.3695 125.76 16.5657H125.747Z" fill="white"/>
<path d="M143.994 11.7957V15.3161C143.586 15.2345 143.219 15.1937 142.865 15.1937C140.921 15.1937 140.01 16.3219 140.01 18.0073V24.0151H136.529V11.85H139.425L139.697 13.4131C140.622 12.4073 141.832 11.7549 143.314 11.7549C143.545 11.7549 143.763 11.7821 144.008 11.7957H143.994Z" fill="white"/>
<path d="M153.716 7.52726H157.088V23.9196H154.273L154.029 22.5875C153.172 23.4574 151.948 24.1099 150.453 24.1099C147.312 24.1099 144.715 21.4458 144.715 18.0205C144.715 14.5953 147.339 11.9448 150.453 11.9448C151.758 11.9448 152.873 12.4613 153.702 13.2088V7.51367L153.716 7.52726ZM153.716 18.0205C153.716 16.4166 152.506 15.2477 150.942 15.2477C149.379 15.2477 148.141 16.4166 148.141 18.0205C148.141 19.6244 149.351 20.8205 150.942 20.8205C152.533 20.8205 153.716 19.6244 153.716 18.0205Z" fill="white"/>
<path d="M159.168 17.871C159.168 14.4593 161.887 11.8496 165.327 11.8496C168.767 11.8496 171.473 14.4865 171.473 17.871C171.473 21.2555 168.781 23.9196 165.327 23.9196C161.874 23.9196 159.168 21.2827 159.168 17.871ZM168.088 17.871C168.088 16.2807 166.891 15.1118 165.327 15.1118C163.764 15.1118 162.554 16.2671 162.554 17.871C162.554 19.4749 163.75 20.6438 165.327 20.6438C166.905 20.6438 168.088 19.4613 168.088 17.871Z" fill="white"/>
<path d="M89.2119 15.8178C89.2119 11.278 92.7743 7.7168 97.3564 7.7168C101.939 7.7168 105.528 11.2644 105.528 15.8178C105.528 20.3712 101.939 23.9188 97.3564 23.9188C92.7743 23.9188 89.2119 20.3576 89.2119 15.8178ZM101.721 15.8178C101.721 13.2896 99.8718 11.4003 97.37 11.4003C94.8682 11.4003 93.0462 13.2896 93.0462 15.8178C93.0462 18.346 94.909 20.2353 97.37 20.2353C99.8311 20.2353 101.721 18.346 101.721 15.8178Z" fill="white"/>
<path d="M101.681 22.7097C99.1243 24.2864 95.6435 24.3544 92.8698 22.5874C91.2246 21.5408 90.1504 19.9913 89.6065 18.3058C89.2122 17.0961 90.096 15.8592 91.3605 15.832C92.2035 15.8048 92.9786 16.3485 93.2097 17.1641C93.4681 18.0884 94.0119 18.9039 94.9501 19.5291C96.6633 20.6709 98.6077 20.3039 99.845 19.5019L101.681 22.7097Z" fill="url(#paint0_linear_4781_18238)"/>
<path d="M91.2654 16.0899C90.1096 16.0899 89.2258 15.0025 89.4978 13.8744C90.0417 11.6316 91.5101 9.55203 93.7536 8.50542C95.5212 7.68988 97.4247 7.52678 99.1515 7.89377C100.348 8.15202 100.974 9.47047 100.389 10.5443L100.362 10.6122C99.9674 11.3326 99.1379 11.686 98.3221 11.5093C97.3432 11.2918 96.3098 11.387 95.3716 11.8491C94.0663 12.488 93.3593 13.6161 93.0873 14.7307C92.897 15.5326 92.1628 16.0899 91.3198 16.0899H91.2518H91.2654Z" fill="url(#paint1_linear_4781_18238)"/>
<path d="M101.884 9.03605C104.549 10.7215 105.922 13.8069 105.392 17.205C105.093 19.1351 104.1 20.7526 102.795 21.9351C101.857 22.7914 100.361 22.506 99.8037 21.3643C99.4366 20.6031 99.5997 19.6788 100.252 19.1215C100.987 18.4963 101.503 17.6672 101.68 16.5662C102.006 14.5273 100.959 12.8419 99.7085 12.0399L101.87 9.02246L101.884 9.03605Z" fill="url(#paint2_linear_4781_18238)"/>
<path d="M55.5058 23.9195V7.5H59.1905L63.6639 15.0709L68.1101 7.5H71.8084V23.9195H68.1509V13.0185L63.6367 19.8554L59.1497 13.0185V23.9195H55.4922H55.5058Z" fill="white"/>
<path d="M74.868 28.4599L78.1177 22.3297L72.8965 11.9316H77.0435L79.994 18.6326L82.8086 11.9316H86.8061L78.9335 28.4735H74.868V28.4599Z" fill="white"/>
<defs>
<linearGradient id="paint0_linear_4781_18238" x1="91.2654" y1="15.7097" x2="96.7973" y2="21.7057" gradientUnits="userSpaceOnUse">
<stop stop-color="#8096F7"/>
<stop offset="1" stop-color="#3941A9" stop-opacity="0"/>
</linearGradient>
<linearGradient id="paint1_linear_4781_18238" x1="100.406" y1="10.5877" x2="92.7894" y2="12.3262" gradientUnits="userSpaceOnUse">
<stop stop-color="#8096F7"/>
<stop offset="1" stop-color="#3941A9" stop-opacity="0"/>
</linearGradient>
<linearGradient id="paint2_linear_4781_18238" x1="99.998" y1="21.5551" x2="103.168" y2="13.9458" gradientUnits="userSpaceOnUse">
<stop stop-color="#8096F7"/>
<stop offset="1" stop-color="#3941A9" stop-opacity="0"/>
</linearGradient>
</defs>
</svg>
