<svg width="49" height="36" viewBox="0 0 49 36" fill="none" xmlns="http://www.w3.org/2000/svg">
<path d="M7.45801 15.045H11.952C13.3135 9.23211 18.5394 4.90184 24.7787 4.90184C26.7596 4.90184 28.6431 5.34151 30.3271 6.12372H37.672C34.4679 2.66769 29.8767 0.5 24.7839 0.5C16.0979 0.5 8.88605 6.78323 7.45801 15.045Z" fill="white"/>
<path d="M24.7837 35.4997C33.9559 35.4997 41.4851 28.4854 42.2887 19.5283H37.8561C37.0679 26.0467 31.5144 31.0978 24.7837 31.0978C21.815 31.0978 19.0766 30.1163 16.8757 28.4649H10.708C13.9121 32.739 19.0254 35.4997 24.7837 35.4997Z" fill="white"/>
<path d="M16.4766 18.2555C16.3025 13.6032 20.0236 9.77393 24.6456 9.77393C24.6916 9.77393 24.7377 9.77393 24.7889 9.77393H48.4923C48.4923 12.2637 46.4705 14.2831 43.9778 14.2831H25.009C25.009 14.2831 25.009 14.2831 25.0039 14.2831H24.794C24.7428 14.2831 24.6967 14.2831 24.6507 14.2831C22.5009 14.2831 20.7914 16.1799 21.0524 18.3731C21.2469 20.0142 22.5675 21.3332 24.2105 21.5275C26.089 21.7473 27.7269 20.5306 28.1619 18.8383H32.7736C32.313 23.0152 28.6942 26.2463 24.3538 26.0929C20.0134 25.9396 16.6455 22.4887 16.4868 18.2504L16.4766 18.2555Z" fill="white"/>
<path d="M0 24.0223H13.3181C12.6118 22.6572 12.1409 21.1491 11.9515 19.5591H4.4735C2.00642 19.5591 0.00511842 21.5581 0.00511842 24.0223H0Z" fill="white"/>
</svg>
