<?xml version="1.0" encoding="UTF-8"?>
<svg version="1.1" xmlns="http://www.w3.org/2000/svg" width="1024" height="1024">
<path d="M0 0 C337.92 0 675.84 0 1024 0 C1024 337.92 1024 675.84 1024 1024 C686.08 1024 348.16 1024 0 1024 C0 686.08 0 348.16 0 0 Z " fill="#010101" transform="translate(0,0)"/>
<path d="M0 0 C13.53 0 27.06 0 41 0 C41 0.99 41 1.98 41 3 C39.329375 3.4021875 39.329375 3.4021875 37.625 3.8125 C33.78159049 4.65809019 33.78159049 4.65809019 32 8 C31.79480386 10.87267572 31.7063075 13.64920215 31.70947266 16.52294922 C31.70275543 17.39317719 31.69603821 18.26340515 31.68911743 19.16000366 C31.67009349 22.04162276 31.66621098 24.92300948 31.6640625 27.8046875 C31.65763748 29.80624488 31.65090934 31.80780131 31.64389038 33.80935669 C31.63190651 38.00752948 31.62821068 42.20561991 31.62939453 46.40380859 C31.62959775 51.78314052 31.60229768 57.1619443 31.56785011 62.54115105 C31.54561116 66.67614161 31.54155607 70.81100449 31.54261398 74.94604874 C31.54025341 76.92918849 31.53140431 78.91233151 31.51594925 80.89541245 C31.49635073 83.67007149 31.50210315 86.44358417 31.51416016 89.21826172 C31.50292114 90.03713867 31.49168213 90.85601563 31.48010254 91.69970703 C31.523564 95.63612579 31.73401614 97.57092036 33.85848999 100.99807739 C36.27541118 103.25745939 37.74185497 103.72848791 41 104 C41 104.66 41 105.32 41 106 C27.47 106 13.94 106 0 106 C0 105.34 0 104.68 0 104 C1.7578125 103.34895833 3.515625 102.69791667 5.2734375 102.046875 C7.53363466 100.67643871 7.99400861 99.42467994 9 97 C9.3213405 94.94506338 9.3213405 94.94506338 9.31884766 92.78222656 C9.33871735 91.96167786 9.35858704 91.14112915 9.37905884 90.29571533 C9.39638565 88.98144562 9.39638565 88.98144562 9.4140625 87.640625 C9.43342865 86.73624695 9.4527948 85.8318689 9.4727478 84.90008545 C9.53243831 82.01681901 9.57888686 79.13351242 9.625 76.25 C9.66318947 74.29295152 9.70224177 72.33591967 9.7421875 70.37890625 C9.83813125 65.58607289 9.92220127 60.79316085 10 56 C3.39749511 56.016286 -3.2038882 56.07110528 -9.8059082 56.15258789 C-12.05127693 56.17576945 -14.29675442 56.19016395 -16.54223633 56.19555664 C-19.77233673 56.2048447 -23.00072609 56.24583423 -26.23046875 56.29296875 C-27.73386055 56.28706978 -27.73386055 56.28706978 -29.2676239 56.28105164 C-34.01076758 56.38010571 -36.26650721 56.43389992 -40.11523438 59.40429688 C-41.88063148 61.83560542 -42.76842124 63.39425939 -43.3125 66.3125 C-43.6528125 68.1378125 -43.6528125 68.1378125 -44 70 C-44.99 70 -45.98 70 -47 70 C-47 57.79 -47 45.58 -47 33 C-46.01 33 -45.02 33 -44 33 C-43.34895833 34.953125 -42.69791667 36.90625 -42.046875 38.859375 C-40.62939591 41.7578024 -39.64376142 43.05459066 -37 45 C-33.52454151 45.63039603 -30.07179534 45.60498065 -26.546875 45.609375 C-25.53151672 45.62591125 -24.51615845 45.64244751 -23.47003174 45.65948486 C-20.22996005 45.7080339 -16.99035795 45.7293516 -13.75 45.75 C-11.55205962 45.77815383 -9.35414118 45.80808042 -7.15625 45.83984375 C-1.77091878 45.91379443 3.61428 45.9653965 9 46 C8.95590686 40.50014079 8.88613795 35.0014362 8.79248047 29.50219727 C8.76424263 27.63119696 8.7430421 25.76007674 8.72900391 23.88891602 C8.70761283 21.20005779 8.66098455 18.51264562 8.609375 15.82421875 C8.60814636 14.98662521 8.60691772 14.14903168 8.60565186 13.28605652 C8.54503345 8.7064801 8.54503345 8.7064801 6.13378906 4.99145508 C3.76089249 3.88889982 1.58699859 3.35930536 -1 3 C-0.67 2.01 -0.34 1.02 0 0 Z " fill="#EDEDED" transform="translate(541,477)"/>
<path d="M0 0 C13.86 0 27.72 0 42 0 C42 0.99 42 1.98 42 3 C40.6078125 3.37125 40.6078125 3.37125 39.1875 3.75 C35.6114953 5.15235479 34.79556981 5.67995285 33 9 C32.69599089 11.91395487 32.56245324 14.61752011 32.56762695 17.53222656 C32.5574353 18.39112488 32.54724365 19.25002319 32.53674316 20.13494873 C32.50658015 22.97024022 32.49734218 25.80519405 32.48828125 28.640625 C32.47143702 30.60790126 32.45328712 32.57516675 32.43388367 34.54241943 C32.38634982 39.7176171 32.3565623 44.89277107 32.33044434 50.06811523 C32.30065594 55.35018546 32.25411969 60.63210506 32.20898438 65.9140625 C32.12291272 76.27596293 32.05558455 86.63789433 32 97 C36.83870793 96.95559414 41.67614215 96.88550083 46.51416016 96.79248047 C48.15696019 96.76440669 49.79989189 96.74312505 51.44287109 96.72900391 C53.81675973 96.70738379 56.18908792 96.6606424 58.5625 96.609375 C59.28679199 96.60814636 60.01108398 96.60691772 60.75732422 96.60565186 C67.00494783 96.4296903 72.37638634 94.4976802 76.953125 90.140625 C77.38109375 89.51671875 77.8090625 88.8928125 78.25 88.25 C78.72179687 87.56421875 79.19359375 86.8784375 79.6796875 86.171875 C81.68592853 82.87166785 83.37353877 79.50314727 85 76 C85.99 76 86.98 76 88 76 C87 86 87 86 82 106 C55.27 106 28.54 106 1 106 C1 105.34 1 104.68 1 104 C1.94875 103.71125 2.8975 103.4225 3.875 103.125 C7.05211578 102.23174891 7.05211578 102.23174891 9 100 C9.20932751 97.06393271 9.29363201 94.22144455 9.29052734 91.28344727 C9.29724457 90.38089203 9.30396179 89.47833679 9.31088257 88.5484314 C9.32993554 85.55436756 9.33379035 82.56052699 9.3359375 79.56640625 C9.34236008 77.49136766 9.34908802 75.41632999 9.35610962 73.34129333 C9.36810047 68.98751729 9.37178856 64.6338207 9.37060547 60.2800293 C9.37040212 54.69309435 9.39771334 49.10666715 9.43214989 43.51985264 C9.45435459 39.23310492 9.458445 34.94648067 9.45738602 30.65968132 C9.45975134 28.59952989 9.46862686 26.53937552 9.48405075 24.47928047 C9.503582 21.60113785 9.49792366 18.72410665 9.48583984 15.84594727 C9.49707886 14.9902565 9.50831787 14.13456573 9.51989746 13.25294495 C9.52846877 8.69293902 9.52846877 8.69293902 7.14151001 4.99009705 C4.7655229 3.89159281 2.58823015 3.35947641 0 3 C0 2.01 0 1.02 0 0 Z " fill="#EAEBEA" transform="translate(441,477)"/>
<path d="M0 0 C0.66 0 1.32 0 2 0 C2.474375 1.11375 2.94875 2.2275 3.4375 3.375 C11.99189766 20.18779541 30.75702355 29.28838871 46.40234375 38.39892578 C83.74358151 60.19809598 83.74358151 60.19809598 89 76 C90.10649702 82.63898212 87.17092014 87.37161675 84 93 C82.23829106 89.7077566 81.04486934 86.33295439 79.8125 82.8125 C77.74879655 77.33598548 75.27763026 73.2111827 71.453125 68.8046875 C70 67 70 67 69 64 C67.68720495 63.29374836 66.3493242 62.63367691 65 62 C63.45637669 60.79722359 61.93883833 59.56059917 60.44140625 58.30078125 C55.21682665 54.0593369 49.72647223 50.59929853 43.9375 47.1875 C41.90661981 45.96769666 39.87667901 44.746328 37.84765625 43.5234375 C36.85652832 42.92756836 35.86540039 42.33169922 34.84423828 41.71777344 C23.09045844 34.61909576 12.22235567 27.19123109 2 18 C-1.5445327 19.53189 -3.96143042 21.66822185 -6.8125 24.25 C-15.10033684 31.43092259 -24.70281396 36.68106345 -34.09326172 42.26708984 C-62.15447687 58.22467519 -62.15447687 58.22467519 -78.51171875 84.984375 C-79.15508564 87.64019351 -79.65253431 90.28976764 -80 93 C-80.99 93 -81.98 93 -83 93 C-88.6226671 80.08958413 -88.6226671 80.08958413 -86 73 C-76.45994287 56.03989843 -59.24941075 47.06279322 -43.0625 37.5625 C-16.80282889 23.3596216 -16.80282889 23.3596216 0 0 Z " fill="#EFEFEE" transform="translate(511,369)"/>
<path d="M0 0 C0.33 0 0.66 0 1 0 C1.32871094 1.54107422 1.32871094 1.54107422 1.6640625 3.11328125 C5.43331781 19.94045943 14.28855426 36.29148907 28.4375 46.8125 C34.38981014 51.89374037 38.30524324 58.90117993 42.40625 65.484375 C43.57452127 67.32841102 44.82746642 69.11951339 46.125 70.875 C52.2126709 81.02111817 54.1922304 91.29170217 54.0625 102.9375 C54.05798828 103.71673828 54.05347656 104.49597656 54.04882812 105.29882812 C54.03716908 107.19925268 54.01923877 109.09963706 54 111 C53.34 111 52.68 111 52 111 C51.938125 110.0925 51.87625 109.185 51.8125 108.25 C49.61279069 93.83611534 39.55869807 80.4990427 28 72 C27.01 71.505 27.01 71.505 26 71 C26 70.34 26 69.68 26 69 C24.68 68.67 23.36 68.34 22 68 C22 67.34 22 66.68 22 66 C21.34 66 20.68 66 20 66 C20 65.34 20 64.68 20 64 C18.35 63.67 16.7 63.34 15 63 C15 62.34 15 61.68 15 61 C14.46246094 60.77570313 13.92492187 60.55140625 13.37109375 60.3203125 C10.23267512 58.57272519 7.69285427 56.2908566 5.0625 53.875 C4.52834473 53.38507568 3.99418945 52.89515137 3.44384766 52.39038086 C-0.50870978 48.66807538 -3.58114757 44.89218352 -6 40 C-6.35578125 39.31808594 -6.7115625 38.63617188 -7.078125 37.93359375 C-10.68638227 30.36542701 -9.95142033 19.91272645 -7.3125 12.1875 C-5.44057013 7.57452997 -3.15825816 3.84112479 0 0 Z " fill="#EAEAEA" transform="translate(387,445)"/>
<path d="M0 0 C0.66 0 1.32 0 2 0 C9.42614342 9.68551253 12.37622634 18.82248209 11 31 C6.37450323 46.55346323 -3.92954326 55.26226417 -16.7421875 64.26855469 C-32.55486544 75.40460729 -45.05524934 88.00850056 -49.4375 107.4375 C-49.7159375 109.2009375 -49.7159375 109.2009375 -50 111 C-50.33 111 -50.66 111 -51 111 C-51.88639141 95.69952059 -51.53075745 82.65332448 -44 69 C-41.859375 66.6640625 -41.859375 66.6640625 -40 65 C-38.96210419 63.35666496 -37.96432076 61.68756133 -37 60 C-33.28169014 54.14084507 -33.28169014 54.14084507 -31 53 C-30.67 52.01 -30.34 51.02 -30 50 C-27.8692047 47.7438638 -25.64239419 45.61113413 -23.39453125 43.47265625 C-18.45243674 38.66627143 -14.217372 33.44521448 -10 28 C-9.51273438 27.43796875 -9.02546875 26.8759375 -8.5234375 26.296875 C-2.6179865 19.12338237 -1.14415023 8.97013779 0 0 Z " fill="#ECECEB" transform="translate(635,445)"/>
<path d="M0 0 C-0.433125 0.9590625 -0.433125 0.9590625 -0.875 1.9375 C-6.24011016 16.54252211 -4.31571141 31.36472609 1.75 45.5 C2.48497484 47.00741898 3.23767625 48.50622542 4 50 C4.59656356 51.22452521 5.1914546 52.44986591 5.78515625 53.67578125 C9.40819038 61.09979815 13.26697044 68.29968242 17.47265625 75.4140625 C25.17720997 88.45860103 27.70114992 101.00318232 27 116 C26.34 116 25.68 116 25 116 C24.82984375 115.35933594 24.6596875 114.71867188 24.484375 114.05859375 C22.92028783 108.4761337 20.99091478 103.95047964 18 99 C18 98.34 18 97.68 18 97 C17.34 97 16.68 97 16 97 C13.67980703 93.80973467 11.65356922 90.58273331 10 87 C9.34 87 8.68 87 8 87 C6.48259024 85.30096977 5.034872 83.53927277 3.625 81.75 C0.89199397 78.29489539 -1.87185595 75.09648268 -5 72 C-16 58.9495614 -16 58.9495614 -16 54 C-16.66 54 -17.32 54 -18 54 C-22.3586769 44.52461543 -23.87426534 33.60075167 -21 23.375 C-18.22834427 16.31634404 -8.57852413 0 0 0 Z " fill="#EAEAEA" transform="translate(417,408)"/>
<path d="M0 0 C9.55319341 4.63512307 14.97762059 12.3582251 19.875 21.5 C22.70517173 29.72414608 21.64004277 40.61462003 20 49 C19.34 49 18.68 49 18 49 C17.89816406 49.70511719 17.79632812 50.41023438 17.69140625 51.13671875 C16.90085188 54.41059645 15.59476266 56.88584467 13.9375 59.8125 C13.38964844 60.78832031 12.84179688 61.76414062 12.27734375 62.76953125 C11.85582031 63.50558594 11.43429687 64.24164063 11 65 C10.34 65 9.68 65 9 65 C8.73574219 65.59296875 8.47148438 66.1859375 8.19921875 66.796875 C6.95629575 69.08029054 5.69598354 70.47426723 3.8125 72.25 C-0.02486875 75.9926189 -3.57244456 79.87869085 -7 84 C-7.79792969 84.9590625 -8.59585938 85.918125 -9.41796875 86.90625 C-16.24990311 95.33299615 -23.34259829 105.03250224 -25 116 C-25.66 116 -26.32 116 -27 116 C-27.05469515 113.66634031 -27.09399808 111.33400172 -27.125 109 C-27.14820313 107.700625 -27.17140625 106.40125 -27.1953125 105.0625 C-27.00480357 96.86570606 -23.83104873 89.72517803 -20.625 82.3125 C-20.23828125 81.38888672 -19.8515625 80.46527344 -19.453125 79.51367188 C-17.41340004 74.76001756 -15.37000455 70.96431397 -12 67 C-1.77334862 49.45654857 6.12942806 29.60842866 3 9 C2.16200334 5.93079411 1.15591715 2.96320563 0 0 Z " fill="#EBEBEB" transform="translate(607,408)"/>
<path d="M0 0 C0.33 0 0.66 0 1 0 C1.02578125 0.556875 1.0515625 1.11375 1.078125 1.6875 C1.8427894 11.97571192 6.4554378 19.0706098 14 26 C23.57590926 33.40185112 34.29471711 39.03502684 44.85351562 44.88623047 C77.8528779 63.20418248 77.8528779 63.20418248 84.1171875 78.77734375 C85.1218584 82.44483709 85.19662423 85.5789156 85.125 89.375 C85.10695313 90.62023437 85.08890625 91.86546875 85.0703125 93.1484375 C85.04710937 94.08945312 85.02390625 95.03046875 85 96 C84.34 96 83.68 96 83 96 C81.80859375 94.3125 81.80859375 94.3125 80.4375 92 C77.01084768 86.69367918 72.87779228 82.95714937 68 79 C67.24203125 78.36835938 66.4840625 77.73671875 65.703125 77.0859375 C61.58358589 73.74769029 57.59403467 71.04513446 52.7265625 68.921875 C50.77050583 67.87746465 49.558867 66.56299098 48 65 C46.31522162 64.25480956 44.62792686 63.51356663 42.91796875 62.828125 C39.79064588 61.47783488 36.92917599 59.73359395 34 58 C34 57.34 34 56.68 34 56 C33.071875 55.835 32.14375 55.67 31.1875 55.5 C21.1519557 52.63560375 10.86269152 42.72052796 4 35 C4 34.34 4 33.68 4 33 C3.34 33 2.68 33 2 33 C-1.8193007 23.77911689 -5.31320906 14.7413644 -2.3125 4.69921875 C-1.5 2.75 -1.5 2.75 0 0 Z " fill="#EAEAE9" transform="translate(519,340)"/>
<path d="M0 0 C2.59735972 2.54926046 3.23249993 4.55862352 3.3984375 8.08203125 C3.40638119 9.65885351 3.39805453 11.23582628 3.375 12.8125 C3.38660156 13.59431641 3.39820313 14.37613281 3.41015625 15.18164062 C3.36036999 25.11399872 -1.18141664 31.98027849 -8 39 C-17.13103543 47.23103319 -27.6350969 53.22516456 -38.34326172 59.1394043 C-54.4944486 68.08658968 -72.32278263 78.09825629 -82.01171875 94.41796875 C-82.33785156 94.94003906 -82.66398437 95.46210938 -83 96 C-83.33 96 -83.66 96 -84 96 C-84.57457802 84.02962461 -83.97287876 75.4183216 -76.0625 65.9375 C-64.54944368 53.97805701 -48.87857291 46.67721951 -34.57128906 38.63476562 C-14.2124793 27.58095086 -14.2124793 27.58095086 -1.9765625 8.765625 C-1.23148657 5.85367687 -0.56919666 2.9508353 0 0 Z " fill="#EDECEC" transform="translate(504,341)"/>
<path d="M0 0 C0.66 0.33 1.32 0.66 2 1 C4.74916171 9.24748512 2.99567474 17.86082275 -0.6875 25.5 C-4.95168405 32.53014127 -11.28712687 37.15657242 -18.1875 41.375 C-36.49698913 52.9323068 -51.64518738 64.46424611 -58 86 C-58.33 86 -58.66 86 -59 86 C-59.30670052 77.37830762 -59.38860851 70.02923302 -56 62 C-55.64808594 60.97132813 -55.29617188 59.94265625 -54.93359375 58.8828125 C-52.3351653 51.45628102 -49.21105945 45.85994616 -44 40 C-43.51934082 39.40276123 -43.03868164 38.80552246 -42.54345703 38.19018555 C-38.15100895 32.86486759 -33.40175579 29.17024396 -27.625 25.4375 C-11.58427747 14.97351938 -11.58427747 14.97351938 0 0 Z " fill="#E9E8E8" transform="translate(648,489)"/>
<path d="M0 0 C2 2 2 2 3.625 5.125 C8.29981608 13.42236729 16.92708238 20.97569413 26 24 C27.69048251 25.64250554 29.35400469 27.31291524 31 29 C32.83377757 30.56586397 34.68821999 32.10784984 36.5625 33.625 C37.49191406 34.38039063 38.42132813 35.13578125 39.37890625 35.9140625 C41.87527456 37.95747365 41.87527456 37.95747365 44.15234375 39.44921875 C46.50684053 41.42540315 47.58694675 43.46506861 49 46.1875 C49.51175781 47.16847656 50.02351563 48.14945313 50.55078125 49.16015625 C51.02902344 50.09730469 51.50726563 51.03445313 52 52 C52.38542969 52.72058594 52.77085937 53.44117188 53.16796875 54.18359375 C58.63312809 64.59042974 60.24255289 74.35746113 60 86 C59.01 85.67 58.02 85.34 57 85 C56.48046875 83.28515625 56.48046875 83.28515625 56.1875 81.0625 C53.80975036 68.61894353 44.05539799 58.9672338 34 52 C30.85810649 49.98061806 27.67876288 48.02316884 24.5 46.0625 C13.34742795 39.14894399 3.67465443 32.27412785 -1.3125 19.6875 C-2.59336768 12.81739154 -2.93276875 6.44743607 0 0 Z " fill="#E8E8E8" transform="translate(375,488)"/>
<path d="M0 0 C0.66 0 1.32 0 2 0 C2.01401855 1.57297852 2.01401855 1.57297852 2.02832031 3.17773438 C2.06844378 7.09937728 2.13426226 11.02025398 2.20751953 14.94140625 C2.23560037 16.63271174 2.25687854 18.32414532 2.27099609 20.015625 C2.29260608 22.45899425 2.33934334 24.90084425 2.390625 27.34375 C2.39185364 28.08991577 2.39308228 28.83608154 2.39434814 29.6048584 C2.545105 35.11064054 3.95708665 39.38400837 7 44 C11.32132556 48.01265945 14.01331241 49.31194328 19.96875 49.21484375 C22.97281372 48.89710624 24.68828277 47.91542285 27 46 C29.3453706 43.08850547 29.96853279 41.2202705 30.5 37.5 C29.8707347 33.09514288 28.4026803 31.75455072 25 29 C24.34 28.67 23.68 28.34 23 28 C23 27.34 23 26.68 23 26 C28.22588808 26.31672049 31.5609835 29.30110819 35 33 C37.58072687 37.19900445 37.6694756 41.19651254 37 46 C34.56908812 50.86182377 31.28718414 53.80741607 27 57 C20.67728865 59.10757045 12.53906847 59.25933098 6.22265625 57.01171875 C-0.69695567 52.81263801 -4.49130809 46.26257132 -7.140625 38.77734375 C-8.16588998 34.27083812 -8.33068264 30.10384544 -8.3125 25.5 C-8.32861328 24.68402344 -8.34472656 23.86804688 -8.36132812 23.02734375 C-8.36733467 15.54318874 -6.0012501 10.54273666 -2.3125 4.0625 C-1.87550781 3.29035156 -1.43851563 2.51820313 -0.98828125 1.72265625 C-0.66214844 1.15417969 -0.33601562 0.58570313 0 0 Z " fill="#E8E8E7" transform="translate(603,561)"/>
<path d="M0 0 C0.66 0 1.32 0 2 0 C2.51046875 1.17755859 2.51046875 1.17755859 3.03125 2.37890625 C8.05320028 13.26425062 13.78827324 18.82155554 25 23 C25 23.66 25 24.32 25 25 C24.21496094 25.3403125 23.42992187 25.680625 22.62109375 26.03125 C11.73574938 31.05320028 6.17844446 36.78827324 2 48 C1.34 48 0.68 48 0 48 C-0.3403125 47.21496094 -0.680625 46.42992187 -1.03125 45.62109375 C-6.05320028 34.73574938 -11.78827324 29.17844446 -23 25 C-23 24.34 -23 23.68 -23 23 C-22.21496094 22.6596875 -21.42992187 22.319375 -20.62109375 21.96875 C-9.73574938 16.94679972 -4.17844446 11.21172676 0 0 Z " fill="#7D7D7D" transform="translate(967,944)"/>
<path d="M0 0 C6.51024071 6.25689801 9.19470366 14.26436661 9.4453125 23.22363281 C9.40804522 33.18797105 8.23610613 43.4126247 1.13671875 50.98828125 C-5.86019558 57.35270615 -11.24922459 58.46415792 -20.67578125 58.31640625 C-26.1986515 57.79072765 -28.62444616 55.49018333 -32.25 51.5625 C-35.56807569 46.70388917 -36.61247205 42.92056316 -36 37 C-34.05636056 31.73229539 -31.07798866 28.53899433 -26 26 C-23.625 26.25 -23.625 26.25 -22 27 C-23.52994792 28.23697917 -25.05989583 29.47395833 -26.58984375 30.7109375 C-28.93761884 32.85710309 -29.0061216 34.08111124 -29.25 37.3125 C-28.92556346 42.09793901 -27.52056699 44.36679841 -24.3125 47.8125 C-20.87798874 49.57616794 -17.7262629 49.61291801 -14 49 C-9.62030556 47.51355825 -7.37385631 45.52541968 -4.6875 41.75 C-0.42531371 33.08336637 -0.58785371 23.94094874 -0.375 14.5 C-0.33674703 13.09112362 -0.29769125 11.6822688 -0.2578125 10.2734375 C-0.16399467 6.84908673 -0.07829784 3.42473492 0 0 Z " fill="#E7E8E7" transform="translate(420,561)"/>
<path d="M0 0 C1.33333333 1.33333333 2.66666667 2.66666667 4 4 C5.65736217 5.01534645 7.32550792 6.01315957 9 7 C10.81914583 8.1983047 12.63119046 9.40743213 14.4375 10.625 C18.85171176 13.57858736 23.28327597 16.50122816 27.75 19.375 C28.61902954 19.93417114 28.61902954 19.93417114 29.50561523 20.50463867 C33.3033661 22.93795295 37.13049041 25.31942882 40.97143555 27.68383789 C57.44668335 37.86561638 74.47585684 48.52755738 81 68 C80.23564972 71.56554461 79.58054783 73.41945217 77 76 C76.72027344 75.03320312 76.44054687 74.06640625 76.15234375 73.0703125 C73.87352246 65.55068606 71.44510294 59.33417872 66.55078125 53.05078125 C65 51 65 51 64.04296875 48.85546875 C63.15532766 46.86905025 63.15532766 46.86905025 61.21972656 46.11523438 C58.62102169 44.80959383 56.66622966 43.17256725 54.44140625 41.30078125 C49.21682665 37.0593369 43.72647223 33.59929853 37.9375 30.1875 C35.90661981 28.96769666 33.87667901 27.746328 31.84765625 26.5234375 C30.85652832 25.92756836 29.86540039 25.33169922 28.84423828 24.71777344 C17.09045844 17.61909576 6.22235567 10.19123109 -4 1 C-7.75730247 2.6281644 -10.616823 5.01401917 -13.75 7.625 C-15.22726562 8.85089844 -15.22726562 8.85089844 -16.734375 10.1015625 C-17.48203125 10.72804688 -18.2296875 11.35453125 -19 12 C-19.66 11.67 -20.32 11.34 -21 11 C-18.72923096 5.42629417 -14.30006669 1.65003335 -9 -1 C-5.22373259 -2.19735308 -3.30197467 -2.23682155 0 0 Z " fill="#DCDCDB" transform="translate(517,386)"/>
<path d="M0 0 C6.75 3.75 6.75 3.75 9 6 C9.24050903 8.02481079 9.24050903 8.02481079 9.22705078 10.54150391 C9.22682419 11.95274033 9.22682419 11.95274033 9.22659302 13.39248657 C9.21627045 14.41023163 9.20594788 15.42797668 9.1953125 16.4765625 C9.1924826 17.51694672 9.18965271 18.55733093 9.18673706 19.62924194 C9.17551704 22.96127694 9.15040915 26.29304586 9.125 29.625 C9.11497256 31.88020446 9.1058463 34.13541312 9.09765625 36.390625 C9.07557178 41.92717454 9.04207639 47.46356827 9 53 C8.33871094 52.09314453 8.33871094 52.09314453 7.6640625 51.16796875 C5.64998688 48.54399699 3.36770395 46.30539595 1 44 C0 43 0 43 -0.12025452 41.24729919 C-0.11803391 40.48562943 -0.11581329 39.72395966 -0.11352539 38.93920898 C-0.11344986 38.07839218 -0.11337433 37.21757538 -0.11329651 36.33067322 C-0.10813522 35.39526199 -0.10297394 34.45985077 -0.09765625 33.49609375 C-0.0962413 32.54307877 -0.09482635 31.59006378 -0.09336853 30.60816956 C-0.08775152 27.55124835 -0.07519616 24.49439923 -0.0625 21.4375 C-0.05748719 19.37044376 -0.05292391 17.30338638 -0.04882812 15.23632812 C-0.03777656 10.15752412 -0.02050055 5.0787743 0 0 Z " fill="#E9E9E9" transform="translate(403,544)"/>
<path d="M0 0 C0.17383694 5.83480816 0.30043861 11.66808988 0.38452148 17.50488281 C0.41959187 19.48757198 0.46726351 21.47008182 0.52807617 23.45214844 C0.61359326 26.31229987 0.6528209 29.1700476 0.68359375 32.03125 C0.71972275 32.90865845 0.75585175 33.78606689 0.79307556 34.69006348 C0.79630883 39.82855167 0.01588825 42.52833417 -3.41772461 46.43554688 C-4.6113227 47.62419388 -5.80536287 48.81239727 -7 50 C-7.66 50.99 -8.32 51.98 -9 53 C-9.17781506 46.41675298 -9.30020826 39.83412708 -9.38452148 33.24902344 C-9.41967552 31.01018127 -9.46740932 28.77149926 -9.52807617 26.53320312 C-9.61321526 23.31079594 -9.65273927 20.090516 -9.68359375 16.8671875 C-9.71972275 15.87008759 -9.75585175 14.87298767 -9.79307556 13.84567261 C-9.79690022 7.04206982 -9.79690022 7.04206982 -7.46536255 3.9932251 C-2.96914061 0 -2.96914061 0 0 0 Z " fill="#EAEAEA" transform="translate(621,544)"/>
<path d="M0 0 C0.33 0 0.66 0 1 0 C1.33 3.63 1.66 7.26 2 11 C2.66 11 3.32 11 4 11 C4.10957031 11.78503906 4.21914063 12.57007813 4.33203125 13.37890625 C5.69182599 22.38892831 6.78712039 28.94696906 14.25 34.77734375 C19.24439114 38.26672863 24.04627045 38.66504426 30 38 C35.26533639 36.14164598 38.18312254 32.90362468 42 29 C42.66 29 43.32 29 44 29 C44 26.36 44 23.72 44 21 C44.33 21 44.66 21 45 21 C45.37034447 25.62930592 45.48658988 29.02682024 43.375 33.25 C39.14930737 38.14290726 35.44103042 41.67405107 28.7421875 42.30859375 C21.56327973 42.54789068 15.73057467 42.65230299 9.8671875 37.97265625 C1.93410744 29.59147334 -0.34707377 20.29430797 -0.125 9.0625 C-0.11597656 8.18787109 -0.10695313 7.31324219 -0.09765625 6.41210938 C-0.0742957 4.27461936 -0.03843247 2.13727214 0 0 Z " fill="#CDCDCD" transform="translate(595,577)"/>
<path d="M0 0 C0.66 0 1.32 0 2 0 C1.34 3.3 0.68 6.6 0 10 C-26.73 10 -53.46 10 -81 10 C-81 9.34 -81 8.68 -81 8 C-79.6078125 7.566875 -79.6078125 7.566875 -78.1875 7.125 C-74.90208333 6.1125 -74.90208333 6.1125 -72 4 C-72.33 5.65 -72.66 7.3 -73 9 C-65.41 9 -57.82 9 -50 9 C-49.67 8.01 -49.34 7.02 -49 6 C-47.54207031 6.01740234 -47.54207031 6.01740234 -46.0546875 6.03515625 C-37.51123719 6.10564156 -28.97602765 5.9869329 -20.4375 5.6875 C-19.06537354 5.65378296 -19.06537354 5.65378296 -17.66552734 5.61938477 C-11.26219868 5.36111991 -4.75055285 4.75055285 0 0 Z " fill="#DEDEDE" transform="translate(523,573)"/>
<path d="M0 0 C0.53625 0.2475 1.0725 0.495 1.625 0.75 C0.09505208 1.98697917 -1.43489583 3.22395833 -2.96484375 4.4609375 C-6.01428511 7.24851548 -5.84879526 10.68664323 -6.25 14.625 C-6.39179688 15.85992188 -6.53359375 17.09484375 -6.6796875 18.3671875 C-6.75012683 21.92712108 -6.75012683 21.92712108 -3.8828125 23.9453125 C-3.05523437 24.54085937 -2.22765625 25.13640625 -1.375 25.75 C-1.375 27.07 -1.375 28.39 -1.375 29.75 C2.255 30.08 5.885 30.41 9.625 30.75 C9.625 31.08 9.625 31.41 9.625 31.75 C4.63795144 32.10480978 0.79580309 32.33540154 -3.75 30.0625 C-8.95312908 25.47879105 -11.97648758 21.33661182 -12.75 14.375 C-12.13238368 8.40470887 -9.95558531 5.06715443 -5.375 1.25 C-2.375 -0.25 -2.375 -0.25 0 0 Z " fill="#DCDCDC" transform="translate(396.375,587.25)"/>
<path d="M0 0 C4.0423701 1.58591919 5.25631085 2.86778946 7.95703125 6.46875 C-1.28296875 6.46875 -10.52296875 6.46875 -20.04296875 6.46875 C-20.37296875 5.80875 -20.70296875 5.14875 -21.04296875 4.46875 C-16.41796875 0.46875 -16.41796875 0.46875 -13.04296875 0.46875 C-9.12200006 -1.49173434 -4.17513688 -1.08569525 0 0 Z " fill="#DBDBDB" transform="translate(566.04296875,575.53125)"/>
<path d="M0 0 C3.80635497 3.20760251 7.54563567 6.40746109 11 10 C6.62043796 13.04136253 6.62043796 13.04136253 4.125 12.875 C1.15383611 11.65157958 -0.53712456 9.74800229 -2.75 7.4375 C-3.54921875 6.61121094 -4.3484375 5.78492188 -5.171875 4.93359375 C-5.77515625 4.29550781 -6.3784375 3.65742188 -7 3 C-4 3 -4 3 -2 4 C-1.34 2.68 -0.68 1.36 0 0 Z " fill="#474747" transform="translate(386,493)"/>
<path d="M0 0 C0.99 0 1.98 0 3 0 C3.33 1.98 3.66 3.96 4 6 C3.01 5.67 2.02 5.34 1 5 C1 11.27 1 17.54 1 24 C1.99 23.67 2.98 23.34 4 23 C4.99 23.99 5.98 24.98 7 26 C6.525625 26.70125 6.05125 27.4025 5.5625 28.125 C3.91260143 31.16081337 3.39631536 33.59168786 3 37 C2.01 37 1.02 37 0 37 C0 24.79 0 12.58 0 0 Z " fill="#D2D2D1" transform="translate(494,510)"/>
<path d="M0 0 C4.29082695 2.03513521 8.18119412 4.62193105 12.1640625 7.1953125 C13.90939915 8.30598128 15.67213181 9.39047657 17.4609375 10.4296875 C18.17507813 10.84476562 18.88921875 11.25984375 19.625 11.6875 C20.57246094 12.21923828 20.57246094 12.21923828 21.5390625 12.76171875 C23.40959486 14.34716998 23.62944424 15.62143261 24 18 C20.36707683 16.65152264 17.20068097 15.01515006 13.91796875 12.9609375 C12.98662109 12.38085938 12.05527344 11.80078125 11.09570312 11.203125 C10.13599609 10.59984375 9.17628906 9.9965625 8.1875 9.375 C7.20845703 8.76398438 6.22941406 8.15296875 5.22070312 7.5234375 C2.81154528 6.01918285 0.40475932 4.5112726 -2 3 C-1.34 2.01 -0.68 1.02 0 0 Z " fill="#D6D5D5" transform="translate(529,396)"/>
<path d="M0 0 C-3.64401658 2.23214658 -7.2905419 4.46016317 -10.9375 6.6875 C-11.95908203 7.31333984 -12.98066406 7.93917969 -14.03320312 8.58398438 C-19.95069003 12.19497479 -25.90414702 15.69820007 -32 19 C-30.21366082 15.01078548 -28.24241427 13.55453931 -24.5 11.25 C-23.03046875 10.32960938 -23.03046875 10.32960938 -21.53125 9.390625 C-19 8 -19 8 -17 8 C-17 7.34 -17 6.68 -17 6 C-16.34 5.773125 -15.68 5.54625 -15 5.3125 C-11.68342759 3.86149957 -8.9187878 2.00231618 -5.96484375 -0.07421875 C-3.51115708 -1.23032957 -2.52995123 -0.75184531 0 0 Z " fill="#D3D2D1" transform="translate(497,399)"/>
<path d="M0 0 C0.33 0 0.66 0 1 0 C1.33 3.63 1.66 7.26 2 11 C2.66 11 3.32 11 4 11 C4.66 15.62 5.32 20.24 6 25 C5.01 25.66 4.02 26.32 3 27 C-0.70434645 21.44348032 -0.12513036 15.64806261 -0.0625 9.1875 C-0.05798828 8.30384766 -0.05347656 7.42019531 -0.04882812 6.50976562 C-0.03709866 4.33981441 -0.01916495 2.16989828 0 0 Z " fill="#D5D5D4" transform="translate(595,577)"/>
<path d="M0 0 C0.66 0 1.32 0 2 0 C2.4125 1.093125 2.825 2.18625 3.25 3.3125 C4.63096491 6.60302884 6.10911636 7.9066015 9 10 C9 11.32 9 12.64 9 14 C12.63 14.33 16.26 14.66 20 15 C20 15.33 20 15.66 20 16 C15.01295144 16.35480978 11.17080309 16.58540154 6.625 14.3125 C2.99370642 11.11350328 -0.49611432 8.0388568 -1 3 C-0.67 2.01 -0.34 1.02 0 0 Z " fill="#D4D4D4" transform="translate(386,603)"/>
<path d="M0 0 C0.33 0 0.66 0 1 0 C1.82810601 6.81508864 2.50413785 12.51870203 0 19 C-0.99 19 -1.98 19 -3 19 C-3.31461385 11.90370975 -3.44572039 6.31715405 0 0 Z " fill="#D7D6D5" transform="translate(519,340)"/>
<path d="M0 0 C0.99 0.33 1.98 0.66 3 1 C2.360625 1.495 1.72125 1.99 1.0625 2.5 C-3.0713508 5.87457208 -7.02939246 9.43596883 -11 13 C-11.5534764 10.92446352 -12 9.15634036 -12 7 C-11.21753906 6.57847656 -10.43507813 6.15695312 -9.62890625 5.72265625 C-8.61699219 5.17480469 -7.60507812 4.62695312 -6.5625 4.0625 C-5.55316406 3.51722656 -4.54382813 2.97195313 -3.50390625 2.41015625 C-1.13329507 1.22300532 -1.13329507 1.22300532 0 0 Z M-14 9 C-13.34 9.33 -12.68 9.66 -12 10 C-14.97 12.475 -14.97 12.475 -18 15 C-16.84826645 12.53199953 -15.95216435 10.95216435 -14 9 Z " fill="#DCDCDC" transform="translate(457,420)"/>
<path d="M0 0 C3.45925087 1.26839199 5.43444525 3.43444525 8 6 C8.825 6.495 9.65 6.99 10.5 7.5 C13.09505455 9.05703273 14.94552346 10.79334001 17 13 C15.19775391 13.63989258 15.19775391 13.63989258 13 14 C10.60268766 12.30412349 8.5343674 10.64683671 6.375 8.6875 C5.78976562 8.17509766 5.20453125 7.66269531 4.6015625 7.13476562 C2.340719 5.14615672 0.12929921 3.12929921 -2 1 C-1.34 0.67 -0.68 0.34 0 0 Z " fill="#D8D8D7" transform="translate(513,384)"/>
<path d="M0 0 C2.31 0.66 4.62 1.32 7 2 C7 2.66 7 3.32 7 4 C-6.53 4 -20.06 4 -34 4 C-34 3.34 -34 2.68 -34 2 C-22.78 2.33 -11.56 2.66 0 3 C0 2.01 0 1.02 0 0 Z " fill="#E7E7E7" transform="translate(575,579)"/>
<path d="M0 0 C0.33 0 0.66 0 1 0 C1.33 1.65 1.66 3.3 2 5 C2.99 4.01 3.98 3.02 5 2 C6.32 2.66 7.64 3.32 9 4 C8.06558465 5.27310312 7.12732889 6.543388 6.1875 7.8125 C5.66542969 8.52019531 5.14335937 9.22789062 4.60546875 9.95703125 C3 12 3 12 0 15 C0 10.05 0 5.1 0 0 Z " fill="#DAD9D9" transform="translate(420,422)"/>
<path d="M0 0 C0.66 0.66 1.32 1.32 2 2 C0.02 6.29 -1.96 10.58 -4 15 C-4.66 15 -5.32 15 -6 15 C-6.92017937 7.33183857 -6.92017937 7.33183857 -4.6640625 4.06640625 C-3 2.4375 -3 2.4375 0 0 Z " fill="#E2E2E1" transform="translate(591,532)"/>
<path d="M0 0 C4.94427173 6.16263095 7.68790946 13.0890412 7 21 C5.07591276 18.11386913 4.03385205 15.38220568 2.86328125 12.140625 C1.55211167 8.88939908 -0.18882978 5.99779899 -2 3 C-1.34 3 -0.68 3 0 3 C0 2.01 0 1.02 0 0 Z " fill="#D3D4D3" transform="translate(431,527)"/>
<path d="M0 0 C5.19797535 -0.64974692 8.08614674 0.87602199 12.36328125 3.515625 C14.29946609 5.27159216 14.62446309 6.4528801 15 9 C11.32305352 7.62859834 8.04681411 5.96304199 4.6875 3.9375 C3.80449219 3.41027344 2.92148437 2.88304687 2.01171875 2.33984375 C1.34785156 1.89769531 0.68398438 1.45554687 0 1 C0 0.67 0 0.34 0 0 Z " fill="#CAC9C8" transform="translate(538,405)"/>
<path d="M0 0 C-2.45267635 1.53068488 -4.91133894 3.04968623 -7.375 4.5625 C-8.07367188 5.00013672 -8.77234375 5.43777344 -9.4921875 5.88867188 C-11.29185903 6.98750978 -13.14322343 8.00067867 -15 9 C-15.66 8.67 -16.32 8.34 -17 8 C-17 7.34 -17 6.68 -17 6 C-16.34 5.773125 -15.68 5.54625 -15 5.3125 C-11.68342759 3.86149957 -8.9187878 2.00231618 -5.96484375 -0.07421875 C-3.51115708 -1.23032957 -2.52995123 -0.75184531 0 0 Z " fill="#D6D6D5" transform="translate(497,399)"/>
<path d="M0 0 C0.99 0 1.98 0 3 0 C3.33 1.98 3.66 3.96 4 6 C3.01 5.67 2.02 5.34 1 5 C1 9.95 1 14.9 1 20 C0.67 20 0.34 20 0 20 C0 13.4 0 6.8 0 0 Z " fill="#DDDDDD" transform="translate(494,510)"/>
<path d="M0 0 C3.93673644 1.31224548 6.22719294 2.91910327 9 6 C6 7 6 7 3.375 5.8125 C1 4 1 4 0.1875 1.8125 C0.125625 1.214375 0.06375 0.61625 0 0 Z " fill="#D2D2D2" transform="translate(552,411)"/>
<path d="M0 0 C0.33 1.32 0.66 2.64 1 4 C-0.9375 6.25 -0.9375 6.25 -3 8 C-3.99 7.67 -4.98 7.34 -6 7 C-4.02 4.69 -2.04 2.38 0 0 Z " fill="#D9DAD9" transform="translate(636,608)"/>
<path d="M0 0 C2 2 2 2 2 5 C1.01 5.495 1.01 5.495 0 6 C-0.46751788 8.35599235 -0.46751788 8.35599235 -0.625 11.0625 C-0.69976562 11.98160156 -0.77453125 12.90070313 -0.8515625 13.84765625 C-0.90054687 14.55792969 -0.94953125 15.26820313 -1 16 C-1.33 16 -1.66 16 -2 16 C-2.05449838 14.27119018 -2.09301688 12.54187288 -2.125 10.8125 C-2.14820313 9.84957031 -2.17140625 8.88664062 -2.1953125 7.89453125 C-1.9913544 4.87187222 -1.26874632 2.73230015 0 0 Z " fill="#B7B7B7" transform="translate(375,488)"/>
<path d="M0 0 C3.63 0 7.26 0 11 0 C9.68 1.32 8.36 2.64 7 4 C4.69 3.34 2.38 2.68 0 2 C0 1.34 0 0.68 0 0 Z " fill="#E1E0DF" transform="translate(540,478)"/>
<path d="M0 0 C0.99 0.33 1.98 0.66 3 1 C0.42215154 3.64752004 -1.91648098 5.94432065 -5 8 C-4.45773019 4.20411134 -2.79872437 2.52788007 0 0 Z " fill="#D3D3D2" transform="translate(505,388)"/>
<path d="M0 0 C0.33 0 0.66 0 1 0 C1.33 2.31 1.66 4.62 2 7 C1.01 7.66 0.02 8.32 -1 9 C-2 8 -2 8 -2.0625 5.4375 C-2.041875 4.633125 -2.02125 3.82875 -2 3 C-1.34 3 -0.68 3 0 3 C0 2.01 0 1.02 0 0 Z " fill="#E0E0DF" transform="translate(599,595)"/>
<path d="M0 0 C3.37462715 0.54723683 5.08235 1.0549 8 3 C7.67 3.99 7.34 4.98 7 6 C3.535 4.02 3.535 4.02 0 2 C0 1.34 0 0.68 0 0 Z " fill="#CAC8C8" transform="translate(626,587)"/>
<path d="M0 0 C2.0625 0.4375 2.0625 0.4375 4 1 C2.35 2.98 0.7 4.96 -1 7 C-1.66 6.67 -2.32 6.34 -3 6 C-1.125 1.125 -1.125 1.125 0 0 Z " fill="#D8D6D6" transform="translate(599,550)"/>
<path d="M0 0 C0.66 0.33 1.32 0.66 2 1 C-2.625 6.875 -2.625 6.875 -6 8 C-5.65120368 4.74456771 -4.97866739 3.98126893 -2.4375 1.75 C-1.633125 1.1725 -0.82875 0.595 0 0 Z " fill="#E1E1E0" transform="translate(466,413)"/>
<path d="M0 0 C2.88437779 1.29299694 4.87219421 2.65941363 7 5 C5.35 5.33 3.7 5.66 2 6 C1.34 4.02 0.68 2.04 0 0 Z " fill="#E0DFDE" transform="translate(607,408)"/>
<path d="M0 0 C0.33 0 0.66 0 1 0 C1 4.29 1 8.58 1 13 C-2 9 -2 9 -1.85546875 6.640625 C-1.63503906 5.85171875 -1.41460937 5.0628125 -1.1875 4.25 C-0.97480469 3.45078125 -0.76210938 2.6515625 -0.54296875 1.828125 C-0.36378906 1.22484375 -0.18460937 0.6215625 0 0 Z " fill="#D8D6D7" transform="translate(411,584)"/>
<path d="M0 0 C0.99 0.99 1.98 1.98 3 3 C3 3.66 3 4.32 3 5 C2.34 5 1.68 5 1 5 C1 7.31 1 9.62 1 12 C0.67 12 0.34 12 0 12 C0 8.04 0 4.08 0 0 Z " fill="#F1F0F0" transform="translate(420,561)"/>
<path d="M0 0 C0.66 0.66 1.32 1.32 2 2 C0.02 3.32 -1.96 4.64 -4 6 C-4.66 5.67 -5.32 5.34 -6 5 C-6 4.34 -6 3.68 -6 3 C-5.195625 2.690625 -4.39125 2.38125 -3.5625 2.0625 C-1.10919595 1.23664655 -1.10919595 1.23664655 0 0 Z " fill="#DEDEDD" transform="translate(486,402)"/>
<path d="M0 0 C-1.39332574 3.36720387 -2.9789286 4.9859524 -6 7 C-5.37162381 3.35541809 -4.14650034 0 0 0 Z " fill="#343434" transform="translate(498,358)"/>
</svg>
