<svg xmlns="http://www.w3.org/2000/svg" width="120" height="40" viewBox="0 0 120 40" fill="none">
<path d="M110.135 0.00013H9.53468C9.16798 0.00013 8.80568 0.00013 8.43995 0.00213C8.1338 0.00413 7.83009 0.00994 7.521 0.01483C6.84951 0.0227318 6.17961 0.0818063 5.5171 0.19154C4.85552 0.303663 4.21467 0.515046 3.61622 0.81854C3.0185 1.1246 2.47235 1.5223 1.99757 1.9972C1.5203 2.47077 1.12246 3.01815 0.81935 3.61829C0.5154 4.21724 0.304641 4.85907 0.19435 5.52161C0.0830109 6.18332 0.0230984 6.85265 0.01515 7.52361C0.00587 7.83021 0.00489 8.13783 0 8.44447V31.5587C0.00489 31.8692 0.00587 32.17 0.01515 32.4806C0.0231008 33.1516 0.0830134 33.8209 0.19435 34.4825C0.304336 35.1455 0.515108 35.7877 0.81935 36.3868C1.12233 36.985 1.52022 37.5302 1.99757 38.0011C2.47054 38.4781 3.01705 38.8761 3.61622 39.1798C4.21467 39.4841 4.85545 39.6968 5.5171 39.8106C6.17972 39.9195 6.84956 39.9786 7.521 39.9874C7.83009 39.9942 8.1338 39.9981 8.43995 39.9981C8.80567 40.0001 9.168 40.0001 9.53468 40.0001H110.135C110.494 40.0001 110.859 40.0001 111.219 39.9981C111.523 39.9981 111.836 39.9942 112.141 39.9874C112.811 39.9791 113.479 39.92 114.141 39.8106C114.804 39.696 115.448 39.4834 116.049 39.1798C116.647 38.8759 117.193 38.478 117.666 38.0011C118.142 37.5284 118.541 36.9836 118.848 36.3868C119.15 35.7872 119.358 35.1451 119.467 34.4825C119.578 33.8208 119.64 33.1516 119.652 32.4806C119.656 32.17 119.656 31.8692 119.656 31.5587C119.664 31.1954 119.664 30.8341 119.664 30.4649V9.53626C119.664 9.17005 119.664 8.80677 119.656 8.44447C119.656 8.13783 119.656 7.83021 119.652 7.52357C119.64 6.85255 119.578 6.18337 119.467 5.52157C119.358 4.85941 119.149 4.21763 118.848 3.61825C118.23 2.41533 117.252 1.43616 116.049 0.81845C115.448 0.515697 114.804 0.30437 114.141 0.19145C113.48 0.0812328 112.811 0.0221378 112.141 0.01469C111.836 0.00981 111.523 0.00395 111.219 0.002C110.859 0 110.494 0 110.135 0V0.00013Z" fill="black"/>
<path d="M8.44487 39.125C8.14019 39.125 7.84287 39.1211 7.54058 39.1143C6.91436 39.1061 6.2896 39.0516 5.67144 38.9512C5.09503 38.8519 4.53664 38.6673 4.0147 38.4033C3.49754 38.1415 3.02585 37.7983 2.6177 37.3867C2.20364 36.98 1.85891 36.5082 1.59719 35.9902C1.33258 35.4688 1.14945 34.9099 1.05419 34.333C0.951311 33.7131 0.895651 33.0863 0.887687 32.458C0.881347 32.2471 0.873047 31.5449 0.873047 31.5449V8.44434C0.873047 8.44434 0.881887 7.75293 0.887737 7.5498C0.895363 6.92248 0.950699 6.29665 1.05327 5.67773C1.14871 5.09925 1.33197 4.53875 1.59673 4.01563C1.85749 3.49794 2.2003 3.02586 2.61187 2.61768C3.02297 2.20562 3.49617 1.8606 4.01421 1.59521C4.53495 1.33209 5.09228 1.14873 5.66753 1.05127C6.28772 0.949836 6.91465 0.894996 7.54304 0.88721L8.44536 0.875H111.214L112.127 0.8877C112.75 0.895099 113.371 0.94945 113.985 1.05029C114.566 1.14898 115.13 1.33362 115.656 1.59814C116.694 2.13299 117.539 2.97916 118.071 4.01807C118.332 4.53758 118.512 5.09351 118.607 5.66699C118.71 6.29099 118.768 6.92174 118.78 7.5542C118.783 7.8374 118.783 8.1416 118.783 8.44434C118.791 8.81934 118.791 9.17627 118.791 9.53613V30.4648C118.791 30.8281 118.791 31.1826 118.783 31.54C118.783 31.8652 118.783 32.1631 118.779 32.4697C118.768 33.0909 118.711 33.7104 118.608 34.3232C118.515 34.9043 118.333 35.4675 118.068 35.9932C117.805 36.5056 117.462 36.9733 117.053 37.3789C116.644 37.7927 116.172 38.1379 115.653 38.4014C115.128 38.6674 114.566 38.8527 113.985 38.9512C113.367 39.0522 112.742 39.1067 112.116 39.1143C111.823 39.1211 111.517 39.125 111.219 39.125L110.135 39.127L8.44487 39.125Z" fill="white"/>
<path d="M24.9965 19.8907C25.0077 19.0227 25.2383 18.1717 25.6667 17.4168C26.0952 16.6618 26.7077 16.0276 27.4471 15.573C26.9774 14.9021 26.3576 14.3499 25.6372 13.9604C24.9167 13.5709 24.1153 13.3548 23.2967 13.3292C21.5505 13.1459 19.8576 14.3741 18.9677 14.3741C18.0607 14.3741 16.6906 13.3474 15.2153 13.3777C14.261 13.4086 13.331 13.6861 12.5158 14.1832C11.7007 14.6803 11.0282 15.3801 10.5639 16.2144C8.55278 19.6964 10.0529 24.8138 11.9794 27.6284C12.9433 29.0067 14.0698 30.5462 15.5438 30.4916C16.9862 30.4318 17.5249 29.5718 19.266 29.5718C20.9909 29.5718 21.4963 30.4916 23.0003 30.4569C24.548 30.4318 25.5232 29.0725 26.4533 27.6813C27.1458 26.6992 27.6787 25.6139 28.0323 24.4654C27.133 24.085 26.3657 23.4484 25.8258 22.6349C25.286 21.8214 24.9976 20.867 24.9965 19.8907Z" fill="black"/>
<path d="M22.1559 11.4775C22.9998 10.4645 23.4155 9.16233 23.3149 7.84766C22.0256 7.98307 20.8346 8.59927 19.9793 9.57348C19.5611 10.0494 19.2408 10.6031 19.0368 11.2029C18.8327 11.8026 18.7488 12.4368 18.79 13.069C19.4348 13.0756 20.0728 12.9358 20.6558 12.6602C21.2389 12.3845 21.7518 11.9802 22.1559 11.4775V11.4775Z" fill="black"/>
<path d="M42.3018 27.1397H37.5684L36.4316 30.4961H34.4268L38.9102 18.0781H40.9932L45.4766 30.4961H43.4375L42.3018 27.1397ZM38.0586 25.5908H41.8106L39.961 20.1436H39.9092L38.0586 25.5908Z" fill="black"/>
<path d="M55.1592 25.9695C55.1592 28.7829 53.6533 30.5905 51.3809 30.5905C50.8052 30.6207 50.2327 30.4881 49.7289 30.2079C49.2251 29.9278 48.8104 29.5114 48.5323 29.0065H48.4893V33.4909H46.6309V21.4421H48.4297V22.948H48.4639C48.7548 22.4455 49.1766 22.0313 49.6842 21.7495C50.1918 21.4676 50.7664 21.3287 51.3467 21.3474C53.6446 21.3474 55.1592 23.1638 55.1592 25.9695ZM53.249 25.9695C53.249 24.1365 52.3018 22.9314 50.8565 22.9314C49.4365 22.9314 48.4815 24.1618 48.4815 25.9695C48.4815 27.7937 49.4365 29.0154 50.8565 29.0154C52.3018 29.0154 53.249 27.8191 53.249 25.9695H53.249Z" fill="black"/>
<path d="M65.1245 25.9695C65.1245 28.7829 63.6182 30.5905 61.3457 30.5905C60.7701 30.6207 60.1976 30.4881 59.6938 30.2079C59.19 29.9278 58.7753 29.5114 58.4971 29.0065H58.4541V33.4909H56.5957V21.4421H58.3945V22.948H58.4287C58.7197 22.4455 59.1414 22.0313 59.649 21.7495C60.1567 21.4676 60.7312 21.3287 61.3115 21.3474C63.6094 21.3474 65.1245 23.1638 65.1245 25.9695ZM63.2139 25.9695C63.2139 24.1365 62.2666 22.9314 60.8213 22.9314C59.4014 22.9314 58.4463 24.1618 58.4463 25.9695C58.4463 27.7937 59.4014 29.0154 60.8213 29.0154C62.2666 29.0154 63.2139 27.8191 63.2139 25.9695V25.9695Z" fill="black"/>
<path d="M71.7095 27.0362C71.8472 28.2676 73.0435 29.0762 74.6783 29.0762C76.2447 29.0762 77.3716 28.2676 77.3716 27.1572C77.3716 26.1934 76.6919 25.6162 75.0826 25.2207L73.4732 24.833C71.1929 24.2822 70.1343 23.2158 70.1343 21.4854C70.1343 19.3428 72.0015 17.8711 74.6519 17.8711C77.2769 17.8711 79.0757 19.3428 79.1363 21.4854H77.2603C77.148 20.2461 76.1236 19.4981 74.6265 19.4981C73.1294 19.4981 72.105 20.2549 72.105 21.3565C72.105 22.2344 72.7593 22.751 74.3599 23.1465L75.7281 23.4824C78.2759 24.0849 79.3335 25.1084 79.3335 26.9248C79.3335 29.248 77.4839 30.7031 74.5405 30.7031C71.7866 30.7031 69.9272 29.2822 69.8071 27.0361L71.7095 27.0362Z" fill="black"/>
<path d="M83.3462 19.3008V21.4434H85.0679V22.915H83.3462V27.9062C83.3462 28.6816 83.6909 29.043 84.4477 29.043C84.6521 29.0394 84.8562 29.0251 85.0591 29V30.4629C84.7188 30.5264 84.3729 30.5552 84.0268 30.5488C82.1938 30.5488 81.479 29.8603 81.479 28.1045V22.915H80.1626V21.4434H81.479V19.3008H83.3462Z" fill="black"/>
<path d="M86.064 25.9707C86.064 23.1221 87.7417 21.332 90.3579 21.332C92.9829 21.332 94.6528 23.122 94.6528 25.9707C94.6528 28.8272 92.9917 30.6094 90.3579 30.6094C87.7251 30.6094 86.064 28.8271 86.064 25.9707ZM92.7593 25.9707C92.7593 24.0166 91.8638 22.8633 90.3579 22.8633C88.852 22.8633 87.9565 24.0254 87.9565 25.9707C87.9565 27.9326 88.852 29.0772 90.3579 29.0772C91.8638 29.0772 92.7593 27.9326 92.7593 25.9707H92.7593Z" fill="black"/>
<path d="M96.1851 21.442H97.9575V22.983H98.0005C98.1205 22.5017 98.4024 22.0764 98.799 21.7785C99.1956 21.4806 99.6826 21.3284 100.178 21.3473C100.392 21.3465 100.606 21.3698 100.815 21.4166V23.1549C100.545 23.0723 100.263 23.0343 99.98 23.0426C99.71 23.0316 99.4409 23.0792 99.191 23.1821C98.9412 23.285 98.7166 23.4408 98.5326 23.6386C98.3486 23.8365 98.2096 24.0719 98.1252 24.3286C98.0408 24.5852 98.0129 24.8571 98.0435 25.1256V30.4957H96.1851L96.1851 21.442Z" fill="black"/>
<path d="M109.383 27.8379C109.133 29.4814 107.533 30.6094 105.485 30.6094C102.851 30.6094 101.216 28.8447 101.216 26.0137C101.216 23.1738 102.86 21.332 105.407 21.332C107.912 21.332 109.487 23.0527 109.487 25.7978V26.4346H103.092V26.5469C103.063 26.8801 103.104 27.2157 103.215 27.5316C103.325 27.8474 103.501 28.1362 103.731 28.3787C103.962 28.6213 104.241 28.8121 104.551 28.9384C104.86 29.0647 105.194 29.1236 105.528 29.1113C105.967 29.1525 106.408 29.0508 106.784 28.8213C107.161 28.5919 107.454 28.247 107.619 27.8379L109.383 27.8379ZM103.101 25.1357H107.627C107.644 24.8361 107.599 24.5363 107.494 24.2551C107.389 23.9739 107.228 23.7174 107.019 23.5016C106.811 23.2858 106.56 23.1155 106.282 23.0013C106.005 22.8871 105.707 22.8314 105.407 22.8379C105.104 22.8361 104.804 22.8942 104.524 23.009C104.244 23.1237 103.989 23.2928 103.775 23.5064C103.561 23.72 103.391 23.974 103.275 24.2537C103.159 24.5333 103.1 24.8331 103.101 25.1357V25.1357Z" fill="black"/>
<path d="M37.8262 8.73138C38.2158 8.70342 38.6067 8.76228 38.9709 8.90371C39.335 9.04515 39.6632 9.26563 39.9317 9.54925C40.2003 9.83288 40.4026 10.1726 40.524 10.5438C40.6454 10.9151 40.6829 11.3087 40.6338 11.6962C40.6338 13.6025 39.6035 14.6982 37.8262 14.6982H35.6709V8.73138H37.8262ZM36.5976 13.8544H37.7226C38.0011 13.871 38.2797 13.8254 38.5382 13.7208C38.7967 13.6161 39.0287 13.4552 39.2172 13.2496C39.4057 13.0441 39.546 12.7991 39.6278 12.5324C39.7097 12.2658 39.7311 11.9843 39.6904 11.7084C39.7281 11.4335 39.7046 11.1538 39.6215 10.8891C39.5383 10.6244 39.3977 10.3814 39.2096 10.1775C39.0216 9.97358 38.7907 9.81378 38.5337 9.70954C38.2766 9.6053 37.9996 9.55922 37.7226 9.57459H36.5976V13.8544Z" fill="black"/>
<path d="M41.6805 12.4458C41.6521 12.1498 41.686 11.8513 41.7798 11.5692C41.8737 11.2871 42.0254 11.0278 42.2254 10.8078C42.4253 10.5878 42.669 10.4121 42.9409 10.2918C43.2127 10.1715 43.5067 10.1094 43.804 10.1094C44.1013 10.1094 44.3952 10.1715 44.6671 10.2918C44.939 10.4121 45.1827 10.5878 45.3826 10.8078C45.5825 11.0278 45.7343 11.2871 45.8281 11.5692C45.922 11.8513 45.9558 12.1498 45.9275 12.4458C45.9564 12.742 45.9229 13.041 45.8293 13.3235C45.7357 13.606 45.5841 13.8658 45.3841 14.0862C45.1841 14.3067 44.9402 14.4828 44.6681 14.6033C44.3959 14.7239 44.1016 14.7861 43.804 14.7861C43.5064 14.7861 43.212 14.7239 42.9399 14.6033C42.6678 14.4828 42.4239 14.3067 42.2239 14.0862C42.0239 13.8658 41.8722 13.606 41.7786 13.3235C41.6851 13.041 41.6516 12.742 41.6805 12.4458V12.4458ZM45.0135 12.4458C45.0135 11.4697 44.575 10.8989 43.8055 10.8989C43.033 10.8989 42.5985 11.4697 42.5985 12.4458C42.5985 13.4297 43.033 13.9961 43.8055 13.9961C44.575 13.996 45.0135 13.4257 45.0135 12.4458H45.0135Z" fill="black"/>
<path d="M51.5732 14.6982H50.6514L49.7207 11.3818H49.6504L48.7236 14.6982H47.8105L46.5693 10.1953H47.4707L48.2773 13.6313H48.3438L49.2695 10.1953H50.1221L51.0479 13.6313H51.1182L51.9209 10.1953H52.8096L51.5732 14.6982Z" fill="black"/>
<path d="M53.8535 10.1949H54.709V10.9102H54.7754C54.888 10.6533 55.0781 10.4379 55.3189 10.2941C55.5598 10.1503 55.8395 10.0852 56.1191 10.1079C56.3382 10.0915 56.5582 10.1245 56.7628 10.2046C56.9674 10.2847 57.1514 10.4098 57.3011 10.5707C57.4508 10.7315 57.5623 10.924 57.6275 11.1338C57.6927 11.3436 57.7099 11.5654 57.6777 11.7827V14.6977H56.7891V12.0059C56.7891 11.2823 56.4746 10.9224 55.8174 10.9224C55.6686 10.9155 55.5201 10.9408 55.3821 10.9966C55.244 11.0525 55.1197 11.1375 55.0175 11.2459C54.9154 11.3543 54.8379 11.4834 54.7904 11.6246C54.7429 11.7657 54.7264 11.9154 54.7422 12.0635V14.6978H53.8535L53.8535 10.1949Z" fill="black"/>
<path d="M59.0938 8.4375H59.9824V14.6982H59.0938V8.4375Z" fill="black"/>
<path d="M61.2175 12.4439C61.1893 12.1479 61.2231 11.8494 61.317 11.5673C61.4109 11.2852 61.5626 11.0259 61.7626 10.8059C61.9626 10.5859 62.2063 10.4101 62.4782 10.2898C62.75 10.1696 63.044 10.1074 63.3413 10.1074C63.6386 10.1074 63.9326 10.1696 64.2045 10.2898C64.4764 10.4101 64.7201 10.5859 64.92 10.8059C65.12 11.0259 65.2718 11.2852 65.3656 11.5673C65.4595 11.8494 65.4934 12.1479 65.4651 12.4439C65.4939 12.7401 65.4604 13.0391 65.3668 13.3216C65.2732 13.6042 65.1215 13.864 64.9215 14.0844C64.7215 14.3048 64.4776 14.4809 64.2054 14.6014C63.9333 14.722 63.639 14.7842 63.3413 14.7842C63.0437 14.7842 62.7493 14.722 62.4772 14.6014C62.2051 14.4809 61.9612 14.3048 61.7612 14.0844C61.5611 13.864 61.4095 13.6042 61.3158 13.3216C61.2222 13.0391 61.1887 12.7401 61.2175 12.4439V12.4439ZM64.5505 12.4439C64.5505 11.4678 64.1121 10.897 63.3425 10.897C62.5701 10.897 62.1355 11.4678 62.1355 12.4439C62.1355 13.4278 62.5701 13.9942 63.3425 13.9942C64.1121 13.9942 64.5505 13.4239 64.5505 12.4439H64.5505Z" fill="black"/>
<path d="M66.4009 13.4258C66.4009 12.6152 67.0044 12.1479 68.0757 12.0815L69.2954 12.0112V11.6226C69.2954 11.147 68.981 10.8784 68.3735 10.8784C67.8774 10.8784 67.5337 11.0605 67.4351 11.3789H66.5747C66.6655 10.6055 67.3931 10.1094 68.4146 10.1094C69.5435 10.1094 70.1802 10.6714 70.1802 11.6226V14.6992H69.3247V14.0664H69.2544C69.1117 14.2934 68.9113 14.4784 68.6737 14.6027C68.436 14.7269 68.1697 14.7858 67.9019 14.7734C67.7128 14.7931 67.5218 14.7729 67.341 14.7142C67.1602 14.6555 66.9938 14.5596 66.8524 14.4326C66.711 14.3056 66.5977 14.1504 66.52 13.977C66.4422 13.8036 66.4016 13.6158 66.4009 13.4258V13.4258ZM69.2954 13.041V12.6645L68.1958 12.7349C67.5757 12.7764 67.2944 12.9873 67.2944 13.3843C67.2944 13.7895 67.646 14.0254 68.1294 14.0254C68.2711 14.0397 68.4142 14.0254 68.5502 13.9833C68.6862 13.9412 68.8123 13.8722 68.9211 13.7804C69.0299 13.6885 69.1191 13.5757 69.1834 13.4487C69.2477 13.3217 69.2858 13.183 69.2954 13.041V13.041Z" fill="black"/>
<path d="M71.3481 12.4448C71.3481 11.022 72.0796 10.1206 73.2173 10.1206C73.4987 10.1077 73.778 10.1751 74.0225 10.315C74.267 10.4548 74.4667 10.6615 74.5981 10.9106H74.6646V8.4375H75.5532V14.6982H74.7017V13.9868H74.6314C74.4897 14.2343 74.2831 14.4383 74.0339 14.5768C73.7846 14.7153 73.5022 14.783 73.2173 14.7724C72.0718 14.7725 71.3481 13.8711 71.3481 12.4448ZM72.2661 12.4448C72.2661 13.3999 72.7163 13.9746 73.4693 13.9746C74.2183 13.9746 74.6812 13.3916 74.6812 12.4487C74.6812 11.5103 74.2134 10.919 73.4693 10.919C72.7212 10.919 72.2661 11.4976 72.2661 12.4448H72.2661Z" fill="black"/>
<path d="M79.2298 12.4458C79.2015 12.1498 79.2353 11.8513 79.3292 11.5692C79.423 11.2871 79.5748 11.0278 79.7747 10.8078C79.9746 10.5878 80.2183 10.4121 80.4902 10.2918C80.762 10.1715 81.056 10.1094 81.3533 10.1094C81.6506 10.1094 81.9446 10.1715 82.2164 10.2918C82.4883 10.4121 82.732 10.5878 82.9319 10.8078C83.1319 11.0278 83.2836 11.2871 83.3775 11.5692C83.4713 11.8513 83.5052 12.1498 83.4768 12.4458C83.5057 12.742 83.4722 13.041 83.3786 13.3235C83.2851 13.606 83.1334 13.8658 82.9334 14.0862C82.7334 14.3067 82.4895 14.4828 82.2174 14.6033C81.9453 14.7239 81.6509 14.7861 81.3533 14.7861C81.0557 14.7861 80.7613 14.7239 80.4892 14.6033C80.2171 14.4828 79.9732 14.3067 79.7732 14.0862C79.5732 13.8658 79.4216 13.606 79.328 13.3235C79.2344 13.041 79.2009 12.742 79.2298 12.4458V12.4458ZM82.5628 12.4458C82.5628 11.4697 82.1243 10.8989 81.3548 10.8989C80.5823 10.8989 80.1478 11.4697 80.1478 12.4458C80.1478 13.4297 80.5823 13.9961 81.3548 13.9961C82.1243 13.996 82.5628 13.4257 82.5628 12.4458Z" fill="black"/>
<path d="M84.6694 10.1949H85.5249V10.9102H85.5913C85.704 10.6533 85.894 10.4379 86.1348 10.2941C86.3757 10.1503 86.6555 10.0852 86.9351 10.1079C87.1542 10.0915 87.3742 10.1245 87.5788 10.2046C87.7834 10.2847 87.9673 10.4098 88.117 10.5707C88.2667 10.7315 88.3783 10.924 88.4435 11.1338C88.5087 11.3436 88.5258 11.5654 88.4937 11.7827V14.6977H87.605V12.0059C87.605 11.2823 87.2905 10.9224 86.6333 10.9224C86.4846 10.9155 86.336 10.9408 86.198 10.9966C86.0599 11.0525 85.9356 11.1375 85.8335 11.2459C85.7313 11.3543 85.6539 11.4834 85.6063 11.6246C85.5588 11.7657 85.5423 11.9154 85.5581 12.0635V14.6978H84.6694V10.1949Z" fill="black"/>
<path d="M93.5151 9.07422V10.2158H94.4907V10.9644H93.5151V13.2798C93.5151 13.7515 93.7095 13.958 94.1519 13.958C94.2651 13.9576 94.3783 13.9508 94.4907 13.9375V14.6777C94.3311 14.7063 94.1694 14.7215 94.0073 14.7231C93.019 14.7231 92.6255 14.3755 92.6255 13.5073V10.9643H91.9106V10.2158H92.6255V9.07422H93.5151Z" fill="black"/>
<path d="M95.7046 8.4375H96.5854V10.919H96.6558C96.7739 10.6596 96.9691 10.443 97.2148 10.2987C97.4605 10.1543 97.7447 10.0893 98.0288 10.1123C98.2467 10.1004 98.4646 10.1368 98.6669 10.2189C98.8692 10.3009 99.0508 10.4266 99.199 10.5869C99.3471 10.7473 99.458 10.9383 99.5238 11.1465C99.5896 11.3546 99.6086 11.5747 99.5795 11.791V14.6982H98.69V12.0103C98.69 11.291 98.355 10.9268 97.7271 10.9268C97.5743 10.9142 97.4207 10.9352 97.2769 10.9883C97.1332 11.0413 97.0027 11.1252 96.8947 11.2339C96.7867 11.3426 96.7038 11.4737 96.6517 11.6178C96.5997 11.7619 96.5797 11.9157 96.5933 12.0683V14.6982H95.7046L95.7046 8.4375Z" fill="black"/>
<path d="M104.761 13.4815C104.641 13.8931 104.379 14.249 104.022 14.4872C103.666 14.7253 103.237 14.8305 102.81 14.7842C102.514 14.7921 102.219 14.7353 101.946 14.6177C101.674 14.5002 101.43 14.3248 101.232 14.1036C101.034 13.8825 100.887 13.6209 100.8 13.3371C100.713 13.0533 100.69 12.754 100.73 12.46C100.691 12.1652 100.715 11.8652 100.801 11.5805C100.888 11.2959 101.035 11.0331 101.231 10.81C101.428 10.587 101.671 10.4088 101.943 10.2876C102.214 10.1664 102.509 10.105 102.806 10.1075C104.059 10.1075 104.815 10.9635 104.815 12.3775V12.6876H101.635V12.7374C101.621 12.9026 101.642 13.069 101.696 13.2257C101.751 13.3825 101.837 13.5262 101.95 13.6476C102.063 13.7691 102.2 13.8656 102.352 13.931C102.504 13.9964 102.669 14.0292 102.835 14.0274C103.047 14.0529 103.263 14.0146 103.453 13.9174C103.644 13.8202 103.802 13.6685 103.906 13.4815L104.761 13.4815ZM101.635 12.0303H103.91C103.921 11.8792 103.9 11.7274 103.85 11.5847C103.799 11.442 103.718 11.3115 103.614 11.2016C103.51 11.0918 103.383 11.005 103.243 10.9468C103.103 10.8886 102.953 10.8604 102.801 10.8638C102.648 10.8619 102.495 10.8908 102.353 10.9487C102.21 11.0067 102.081 11.0925 101.972 11.2012C101.864 11.3099 101.778 11.4393 101.72 11.5817C101.662 11.7241 101.633 11.8766 101.635 12.0303H101.635Z" fill="black"/>
</svg>