<svg width="423" height="79" viewBox="0 0 423 79" fill="none" xmlns="http://www.w3.org/2000/svg">
<g filter="url(#filter0_dd_7209_178810)">
<rect x="4" y="3.20996" width="415" height="70" rx="8" fill="white" shape-rendering="crispEdges"/>
<path d="M39.9062 49.6006C33.3125 49.6006 29.1719 45.1943 29.1719 37.9287V37.9131C29.1719 30.6475 33.3281 26.2725 39.9062 26.2725C45.375 26.2725 49.2969 29.7256 49.7344 34.5068L49.75 34.6475H45.1562L45.0938 34.3818C44.5625 31.8975 42.7188 30.2725 39.9062 30.2725C36.2969 30.2725 33.9844 33.1787 33.9844 37.8975V37.9131C33.9844 42.6631 36.2969 45.6006 39.9062 45.6006C42.625 45.6006 44.5312 44.0381 45.1406 41.3662L45.1719 41.21H49.7656L49.75 41.3818C49.3125 46.1787 45.3594 49.6006 39.9062 49.6006ZM58.8906 30.585L55.0469 25.2412H59.0938L61.9531 30.585H58.8906ZM58 49.5537C54.3125 49.5537 52.2188 47.1943 52.2188 43.2725V32.46H56.7812V42.3193C56.7812 44.5068 57.8125 45.7725 59.8594 45.7725C61.9062 45.7725 63.2031 44.2725 63.2031 42.085V32.46H67.7656V49.21H63.2031V46.4443H63.1094C62.25 48.3662 60.5312 49.5537 58 49.5537ZM70.7344 49.21V32.46H75.2969V35.21H75.3906C76.25 33.2881 77.9688 32.1162 80.5 32.1162C84.1875 32.1162 86.2812 34.4756 86.2812 38.3975V49.21H81.7188V39.335C81.7188 37.1475 80.6875 35.8975 78.6406 35.8975C76.5938 35.8975 75.2969 37.3975 75.2969 39.585V49.21H70.7344ZM97 55.0225C92.3906 55.0225 89.4844 52.9443 89.0469 50.2568L89.0312 50.1162H93.4688L93.5156 50.2256C93.875 51.0537 95.0938 51.7725 97 51.7725C99.3594 51.7725 100.609 50.5537 100.609 48.6787V46.1162H100.516C99.6406 47.8662 97.7656 48.9756 95.3438 48.9756C91.1562 48.9756 88.5625 45.8506 88.5625 40.6475V40.6318C88.5625 35.2881 91.1875 32.1162 95.4219 32.1162C97.7812 32.1162 99.6094 33.3662 100.516 35.3193H100.609V32.46H105.172V48.7412C105.172 52.4756 102.031 55.0225 97 55.0225ZM96.9219 45.6318C99.1562 45.6318 100.625 43.7568 100.625 40.7568V40.7412C100.625 37.7568 99.1406 35.8975 96.9219 35.8975C94.6562 35.8975 93.2031 37.7412 93.2031 40.7412V40.7568C93.2031 43.7725 94.6406 45.6318 96.9219 45.6318ZM114.672 49.21V26.6631H119.234V39.1631H119.328L124.984 32.46H130.156L123.828 39.6631L130.469 49.21H125.203L120.406 42.3662L119.234 43.6631V49.21H114.672ZM131.844 49.21V26.6631H136.406V35.3506H136.5C137.359 33.2725 139.125 32.1162 141.641 32.1162C145.266 32.1162 147.516 34.6475 147.516 38.6943V49.21H142.953V39.6318C142.953 37.2881 141.797 35.8975 139.719 35.8975C137.703 35.8975 136.406 37.4287 136.406 39.6162V49.21H131.844ZM158.953 30.585H155.891L158.734 25.2412H162.781L158.953 30.585ZM155.438 49.4756C152.078 49.4756 149.812 47.3662 149.812 44.4131V44.3818C149.812 41.335 152.172 39.5537 156.328 39.2881L160.469 39.0381V38.0068C160.469 36.5225 159.5 35.6006 157.719 35.6006C156.016 35.6006 154.984 36.3975 154.766 37.4756L154.734 37.6162H150.562L150.578 37.4287C150.828 34.335 153.484 32.1162 157.906 32.1162C162.234 32.1162 165.031 34.3506 165.031 37.7256V49.21H160.469V46.71H160.375C159.422 48.4287 157.641 49.4756 155.438 49.4756ZM154.328 44.1787C154.328 45.4131 155.344 46.1475 156.922 46.1475C158.969 46.1475 160.469 44.835 160.469 43.085V41.8818L157.016 42.1006C155.25 42.21 154.328 42.96 154.328 44.1475V44.1787ZM167.984 49.21V32.46H172.547V35.2725H172.641C173.328 33.3662 175.078 32.1162 177.328 32.1162C179.672 32.1162 181.375 33.3662 181.938 35.5693H182.031C182.781 33.46 184.781 32.1162 187.234 32.1162C190.516 32.1162 192.719 34.3818 192.719 37.7568V49.21H188.156V38.8975C188.156 36.96 187.188 35.8975 185.422 35.8975C183.688 35.8975 182.547 37.1631 182.547 39.0225V49.21H178.156V38.7568C178.156 36.96 177.141 35.8975 175.453 35.8975C173.719 35.8975 172.547 37.21 172.547 39.1006V49.21H167.984ZM201.953 54.6787V32.46H206.516V35.3818H206.625C207.531 33.3506 209.359 32.1162 211.734 32.1162C215.984 32.1162 218.578 35.3662 218.578 40.8193V40.835C218.578 46.2725 215.984 49.5537 211.797 49.5537C209.406 49.5537 207.516 48.335 206.609 46.3506H206.516V54.6787H201.953ZM210.234 45.7725C212.5 45.7725 213.938 43.8818 213.938 40.835V40.8193C213.938 37.7568 212.5 35.8975 210.234 35.8975C208.016 35.8975 206.5 37.8037 206.5 40.835V40.8506C206.5 43.8662 208.016 45.7725 210.234 45.7725ZM221.062 49.21V26.6631H225.625V35.3506H225.719C226.578 33.2725 228.344 32.1162 230.859 32.1162C234.484 32.1162 236.734 34.6475 236.734 38.6943V49.21H232.172V39.6318C232.172 37.2881 231.016 35.8975 228.938 35.8975C226.922 35.8975 225.625 37.4287 225.625 39.6162V49.21H221.062ZM248.172 30.585H245.109L247.953 25.2412H252L248.172 30.585ZM244.656 49.4756C241.297 49.4756 239.031 47.3662 239.031 44.4131V44.3818C239.031 41.335 241.391 39.5537 245.547 39.2881L249.688 39.0381V38.0068C249.688 36.5225 248.719 35.6006 246.938 35.6006C245.234 35.6006 244.203 36.3975 243.984 37.4756L243.953 37.6162H239.781L239.797 37.4287C240.047 34.335 242.703 32.1162 247.125 32.1162C251.453 32.1162 254.25 34.3506 254.25 37.7256V49.21H249.688V46.71H249.594C248.641 48.4287 246.859 49.4756 244.656 49.4756ZM243.547 44.1787C243.547 45.4131 244.562 46.1475 246.141 46.1475C248.188 46.1475 249.688 44.835 249.688 43.085V41.8818L246.234 42.1006C244.469 42.21 243.547 42.96 243.547 44.1475V44.1787ZM263.938 49.21V26.6631H269.391L275.797 42.8662H275.891L282.297 26.6631H287.75V49.21H283.547V33.96H283.406L277.328 49.21H274.359L268.266 33.96H268.141V49.21H263.938ZM293.734 54.7256C292.844 54.7256 291.938 54.6162 291.406 54.5225V51.1318C291.734 51.1943 292.266 51.2881 292.938 51.2881C294.297 51.2881 295.047 50.8975 295.453 49.7568L295.656 49.21L289.734 32.46H294.75L298.281 45.5537H298.406L301.953 32.46H306.766L301.016 49.5068C299.703 53.46 297.453 54.7256 293.734 54.7256ZM308.75 49.21V26.6631H323.516V30.5537H313.469V36.6006H322.641V40.335H313.469V49.21H308.75ZM328.297 30.3037C326.922 30.3037 325.859 29.2256 325.859 27.9287C325.859 26.6318 326.922 25.5537 328.297 25.5537C329.672 25.5537 330.734 26.6318 330.734 27.9287C330.734 29.2256 329.672 30.3037 328.297 30.3037ZM326.016 49.21V32.46H330.578V49.21H326.016ZM336.016 30.3037C334.641 30.3037 333.578 29.2256 333.578 27.9287C333.578 26.6318 334.641 25.5537 336.016 25.5537C337.391 25.5537 338.453 26.6318 338.453 27.9287C338.453 29.2256 337.391 30.3037 336.016 30.3037ZM333.734 49.21V32.46H338.297V49.21H333.734ZM341.359 49.21V32.46H345.922V35.21H346.016C346.875 33.2881 348.594 32.1162 351.125 32.1162C354.812 32.1162 356.906 34.4756 356.906 38.3975V49.21H352.344V39.335C352.344 37.1475 351.312 35.8975 349.266 35.8975C347.219 35.8975 345.922 37.3975 345.922 39.585V49.21H341.359Z" fill="url(#paint0_linear_7209_178810)"/>
<path fill-rule="evenodd" clip-rule="evenodd" d="M368.916 38.2096C368.916 37.4921 369.498 36.9104 370.215 36.9104H388.648L381.679 29.9415C381.171 29.4341 381.171 28.6115 381.679 28.1042C382.186 27.5968 383.009 27.5968 383.516 28.1042L392.703 37.291C393.21 37.7983 393.21 38.6209 392.703 39.1283L383.516 48.3151C383.009 48.8225 382.186 48.8225 381.679 48.3151C381.171 47.8077 381.171 46.9851 381.679 46.4777L388.648 39.5088H370.215C369.498 39.5088 368.916 38.9272 368.916 38.2096Z" fill="url(#paint1_linear_7209_178810)"/>
</g>
<defs>
<filter id="filter0_dd_7209_178810" x="0" y="0.209961" width="423" height="78" filterUnits="userSpaceOnUse" color-interpolation-filters="sRGB">
<feFlood flood-opacity="0" result="BackgroundImageFix"/>
<feColorMatrix in="SourceAlpha" type="matrix" values="0 0 0 0 0 0 0 0 0 0 0 0 0 0 0 0 0 0 127 0" result="hardAlpha"/>
<feOffset dy="1"/>
<feGaussianBlur stdDeviation="2"/>
<feComposite in2="hardAlpha" operator="out"/>
<feColorMatrix type="matrix" values="0 0 0 0 0.0470588 0 0 0 0 0.0470588 0 0 0 0 0.0509804 0 0 0 0.05 0"/>
<feBlend mode="normal" in2="BackgroundImageFix" result="effect1_dropShadow_7209_178810"/>
<feColorMatrix in="SourceAlpha" type="matrix" values="0 0 0 0 0 0 0 0 0 0 0 0 0 0 0 0 0 0 127 0" result="hardAlpha"/>
<feOffset dy="1"/>
<feGaussianBlur stdDeviation="2"/>
<feComposite in2="hardAlpha" operator="out"/>
<feColorMatrix type="matrix" values="0 0 0 0 0.0470588 0 0 0 0 0.0470588 0 0 0 0 0.0509804 0 0 0 0.1 0"/>
<feBlend mode="normal" in2="effect1_dropShadow_7209_178810" result="effect2_dropShadow_7209_178810"/>
<feBlend mode="normal" in="SourceGraphic" in2="effect2_dropShadow_7209_178810" result="shape"/>
</filter>
<linearGradient id="paint0_linear_7209_178810" x1="113.397" y1="16.6152" x2="159.76" y2="135.958" gradientUnits="userSpaceOnUse">
<stop stop-color="#2854F2"/>
<stop offset="0.11" stop-color="#394EE4"/>
<stop offset="0.295637" stop-color="#6641C1"/>
<stop offset="0.570226" stop-color="#BA219D"/>
<stop offset="0.904632" stop-color="#FF6C0E"/>
</linearGradient>
<linearGradient id="paint1_linear_7209_178810" x1="375.151" y1="26.2916" x2="398.283" y2="34.1691" gradientUnits="userSpaceOnUse">
<stop stop-color="#2854F2"/>
<stop offset="0.11" stop-color="#394EE4"/>
<stop offset="0.295637" stop-color="#6641C1"/>
<stop offset="0.570226" stop-color="#BA219D"/>
<stop offset="0.904632" stop-color="#FF6C0E"/>
</linearGradient>
</defs>
</svg>
