<svg width="44" height="45" viewBox="0 0 44 45" fill="none" xmlns="http://www.w3.org/2000/svg">
<path d="M22 4.42041C11.8746 4.42041 3.66663 12.6284 3.66663 22.7537C3.66663 32.8791 11.8746 41.0871 22 41.0871C32.1253 41.0871 40.3333 32.8791 40.3333 22.7537C40.3333 12.6284 32.1253 4.42041 22 4.42041ZM17.5121 30.3525H13.7996V18.4053H17.5121V30.3525ZM15.6329 16.9386C14.4604 16.9386 13.7022 16.1079 13.7022 15.0805C13.7022 14.032 14.4833 13.2261 15.6807 13.2261C16.8781 13.2261 17.6114 14.032 17.6343 15.0805C17.6343 16.1079 16.8781 16.9386 15.6329 16.9386ZM31.0711 30.3525H27.3586V23.7315C27.3586 22.1904 26.8201 21.1438 25.4776 21.1438C24.452 21.1438 23.8428 21.8524 23.5736 22.5341C23.4743 22.7767 23.4494 23.1204 23.4494 23.4622V30.3506H19.735V22.2152C19.735 20.7237 19.6873 19.4767 19.6376 18.4034H22.8632L23.0331 20.0629H23.1076C23.5965 19.2838 24.7939 18.1341 26.7972 18.1341C29.2397 18.1341 31.0711 19.7708 31.0711 23.2885V30.3525Z" fill="white"/>
</svg>
