<svg width="68" height="68" viewBox="0 0 68 68" fill="none" xmlns="http://www.w3.org/2000/svg">
<rect width="68" height="68" rx="34" fill="#EDF4FF"/>
<path d="M32.3338 26.7437L30.8448 25.2337C30.4542 24.8408 30.2349 24.3092 30.2349 23.7552C30.2349 23.2011 30.4542 22.6696 30.8448 22.2766L36.9896 16.1109C38.0264 15.0629 39.2726 14.2454 40.6467 13.7116C42.0209 13.1778 43.4922 12.9397 44.9645 13.0129C46.4369 13.0862 47.8773 13.469 49.1917 14.1365C50.5061 14.804 51.665 15.7412 52.5928 16.8868C54.236 18.9958 55.0421 21.6374 54.8563 24.3045C54.6705 26.9715 53.5059 29.4759 51.5861 31.3366L45.7349 37.1668C45.342 37.5574 44.8104 37.7766 44.2564 37.7766C43.7023 37.7766 43.1708 37.5574 42.7779 37.1668L41.2679 35.6778C41.0713 35.4828 40.9153 35.2508 40.8088 34.9953C40.7024 34.7397 40.6475 34.4656 40.6475 34.1887C40.6475 33.9119 40.7024 33.6378 40.8088 33.3822C40.9153 33.1266 41.0713 32.8947 41.2679 32.6997L47.4337 26.5549C47.8741 26.1227 48.2137 25.5985 48.4283 25.0199C48.6429 24.4413 48.7271 23.8224 48.675 23.2075C48.623 22.5926 48.4358 21.9967 48.127 21.4624C47.8182 20.9281 47.3952 20.4686 46.8884 20.1165C46.0273 19.5545 44.9974 19.3098 43.9755 19.4247C42.9537 19.5395 42.0037 20.0066 41.2889 20.7457L35.3118 26.7437C35.1169 26.9403 34.8849 27.0963 34.6294 27.2027C34.3738 27.3092 34.0997 27.364 33.8228 27.364C33.546 27.364 33.2718 27.3092 33.0163 27.2027C32.7607 27.0963 32.5288 26.9403 32.3338 26.7437ZM32.3338 41.5499L26.7343 47.2543C26.0194 47.9934 25.0694 48.4605 24.0476 48.5753C23.0258 48.6902 21.9958 48.4455 21.1348 47.8835C20.6279 47.5314 20.205 47.0719 19.8961 46.5376C19.5873 46.0033 19.4002 45.4074 19.3481 44.7925C19.296 44.1776 19.3803 43.5587 19.5949 42.9801C19.8094 42.4015 20.149 41.8773 20.5895 41.4451L26.4616 35.5939C26.6582 35.3989 26.8142 35.167 26.9207 34.9114C27.0272 34.6558 27.082 34.3817 27.082 34.1049C27.082 33.828 27.0272 33.5539 26.9207 33.2983C26.8142 33.0428 26.6582 32.8108 26.4616 32.6158L24.9517 31.1059C24.5587 30.7153 24.0272 30.496 23.4731 30.496C22.9191 30.496 22.3875 30.7153 21.9946 31.1059L16.437 36.6634C14.5173 38.5241 13.3527 41.0285 13.1669 43.6955C12.9811 46.3626 13.7872 49.0042 15.4304 51.1132C16.3581 52.2588 17.517 53.196 18.8314 53.8635C20.1458 54.531 21.5862 54.9138 23.0586 54.9871C24.531 55.0603 26.0022 54.8222 27.3764 54.2884C28.7505 53.7546 29.9967 52.9371 31.0335 51.8891L36.9057 46.017C37.2963 45.624 37.5156 45.0925 37.5156 44.5384C37.5156 43.9844 37.2963 43.4528 36.9057 43.0599L35.3957 41.5499C35.2008 41.3534 34.9688 41.1973 34.7132 41.0909C34.4577 40.9844 34.1836 40.9296 33.9067 40.9296C33.6299 40.9296 33.3557 40.9844 33.1002 41.0909C32.8446 41.1973 32.6127 41.3534 32.4177 41.5499H32.3338Z" fill="#1255FB"/>
<path opacity="0.3" d="M41.6863 44.7167C42.094 44.641 42.5156 44.7257 42.863 44.9521C43.2104 45.1786 43.4572 45.53 43.5525 45.9335L44.4968 50.4423C44.578 50.8506 44.4955 51.2743 44.2683 51.623C44.041 51.9718 43.6864 52.2179 43.28 52.3085L42.9236 52.33C42.5649 52.3326 42.2163 52.2107 41.9373 51.9853C41.6582 51.7597 41.4651 51.4441 41.3923 51.0927L40.4695 46.5839C40.4265 46.3815 40.4238 46.1721 40.4617 45.9687C40.4996 45.7652 40.5772 45.5708 40.6902 45.3974C40.8032 45.224 40.95 45.0748 41.1208 44.958C41.2916 44.8412 41.4838 44.7591 41.6863 44.7167ZM48.0125 39.6337C48.2174 39.6028 48.4266 39.6129 48.6277 39.663L51.5632 40.3759C51.9401 40.4646 52.2713 40.6893 52.4929 41.0068C52.7145 41.3243 52.8111 41.7123 52.7644 42.0966C52.7177 42.4809 52.5311 42.8346 52.24 43.0898C51.9488 43.3449 51.5734 43.4836 51.1863 43.4794V43.4375C51.0613 43.4582 50.9333 43.4582 50.8083 43.4375L47.8728 42.7041C47.6723 42.6573 47.483 42.5707 47.3162 42.4501C47.1493 42.3296 47.0075 42.1776 46.9001 42.0019C46.7928 41.8262 46.7223 41.6302 46.6912 41.4267C46.6601 41.2233 46.6696 41.016 46.7195 40.8164C46.7686 40.6152 46.8567 40.4257 46.9792 40.2587C47.1018 40.0917 47.2561 39.9499 47.4333 39.8427C47.6106 39.7356 47.8076 39.6647 48.0125 39.6337ZM15.4685 21.6796C15.6749 21.6629 15.8831 21.6882 16.0798 21.7529L20.4832 23.1367C20.8341 23.256 21.1323 23.4952 21.324 23.8125C21.5156 24.1297 21.5887 24.5049 21.531 24.871C21.4733 25.2369 21.2882 25.5706 21.0085 25.8134C20.7287 26.0564 20.3713 26.1935 20.0007 26.1992H19.5818L15.1355 24.7519C14.7412 24.6219 14.4134 24.3427 14.2214 23.9746C14.0296 23.6064 13.9889 23.1779 14.1082 22.7802C14.1678 22.5818 14.2662 22.3969 14.3982 22.2373C14.5302 22.0777 14.6931 21.9463 14.8767 21.8505C15.0604 21.7548 15.262 21.6965 15.4685 21.6796ZM25.9158 13.8037C26.3301 13.7397 26.7533 13.843 27.0916 14.0908C27.4298 14.3385 27.6555 14.7106 27.7195 15.125L28.1394 18.124C28.1689 18.328 28.157 18.5358 28.1052 18.7353C28.0535 18.9348 27.9625 19.1221 27.8376 19.2861C27.7127 19.45 27.5563 19.5875 27.3777 19.6904C27.199 19.7933 27.0012 19.8599 26.7966 19.8857L26.5662 19.9697C26.1909 19.9645 25.8295 19.8265 25.5457 19.581C25.2618 19.3355 25.0736 18.9975 25.0144 18.6269L24.5945 15.6074C24.5305 15.193 24.6338 14.7698 24.8816 14.4316C25.1293 14.0935 25.5015 13.8677 25.9158 13.8037Z" fill="#1255FB"/>
</svg>
