<svg width="68" height="68" viewBox="0 0 68 68" fill="none" xmlns="http://www.w3.org/2000/svg">
<rect width="68" height="68" rx="34" fill="#EDF4FF"/>
<path d="M42.38 14H25.62C18.34 14 14 18.34 14 25.62V42.36C14 49.66 18.34 54 25.62 54H42.36C49.64 54 53.98 49.66 53.98 42.38V25.62C54 18.34 49.66 14 42.38 14ZM41.5 41.5H26.5C25.68 41.5 25 40.82 25 40C25 39.18 25.68 38.5 26.5 38.5H41.5C42.32 38.5 43 39.18 43 40C43 40.82 42.32 41.5 41.5 41.5ZM41.5 29.5H26.5C25.68 29.5 25 28.82 25 28C25 27.18 25.68 26.5 26.5 26.5H41.5C42.32 26.5 43 27.18 43 28C43 28.82 42.32 29.5 41.5 29.5Z" fill="#1255FB"/>
</svg>
