<svg width="68" height="68" viewBox="0 0 68 68" fill="none" xmlns="http://www.w3.org/2000/svg">
<rect width="68" height="68" rx="34" fill="#EDF4FF"/>
<path d="M38.2429 52.2949C37.9928 53.2153 37.4468 54.0282 36.6892 54.6074C35.9315 55.1866 35.0041 55.5 34.0505 55.5C33.0969 55.5 32.1695 55.1866 31.4118 54.6074C30.6542 54.0282 30.1082 53.2153 29.8581 52.2949H38.2429ZM34.028 12.5C34.4601 12.5 34.8749 12.672 35.1804 12.9775C35.4857 13.283 35.6569 13.697 35.6569 14.1289V18.2822C37.5608 18.4973 39.3885 19.1586 40.9909 20.2139C42.674 21.3223 44.0564 22.8309 45.0134 24.6045C45.9703 26.3781 46.4729 28.3617 46.4753 30.377V30.7471C46.4243 34.2869 47.4379 37.7604 49.3855 40.7168L50.863 42.8896C51.3777 43.661 51.6504 44.5688 51.6452 45.4961V45.626C51.6452 46.2307 51.5261 46.83 51.2946 47.3887C51.0632 47.9474 50.7232 48.4552 50.2956 48.8828C49.8681 49.3102 49.3609 49.6495 48.8024 49.8809C48.2437 50.1123 47.6445 50.2314 47.0398 50.2314H21.0817C19.8606 50.2314 18.6895 49.7462 17.8259 48.8828C16.9623 48.0192 16.4773 46.8473 16.4773 45.626C16.4757 44.6425 16.7869 43.6839 17.3669 42.8896L18.8015 40.8691C21.0579 37.8214 22.2687 34.1261 22.2546 30.334V30.1816C22.2203 27.8359 22.8917 25.5339 24.1814 23.5742C25.4711 21.6144 27.3199 20.0869 29.488 19.1904C30.4217 18.7903 31.3984 18.5103 32.3942 18.3535C32.3918 18.3138 32.3925 18.2737 32.3991 18.2344V14.1289C32.3992 13.6969 32.5712 13.283 32.8767 12.9775C33.1821 12.6721 33.596 12.5001 34.028 12.5ZM19.1052 16.8232C19.468 16.5756 19.9147 16.4822 20.3464 16.5635C20.7781 16.6449 21.1602 16.895 21.4079 17.2578C21.6556 17.6207 21.7491 18.0673 21.6677 18.499C21.5862 18.9308 21.3363 19.3128 20.9733 19.5605C19.4193 20.8151 18.2248 22.4587 17.5114 24.3242C16.798 26.1898 16.5913 28.2111 16.9118 30.1826C16.9424 30.394 16.9303 30.6097 16.8767 30.8164C16.823 31.023 16.7287 31.2169 16.5993 31.3867C16.4699 31.5566 16.3078 31.6991 16.1228 31.8057C15.9377 31.9122 15.733 31.9802 15.5212 32.0068L15.3044 32.0293C14.9132 32.0329 14.5339 31.8936 14.238 31.6377C13.9421 31.3818 13.7498 31.0263 13.697 30.6387C13.2673 28.0622 13.5436 25.4177 14.4958 22.9854C15.4481 20.553 17.0404 18.4232 19.1052 16.8232ZM47.6667 16.5635C47.8805 16.5231 48.1002 16.5258 48.3132 16.5703C48.5261 16.6148 48.7283 16.7007 48.9079 16.8232C50.9583 18.4156 52.5422 20.5309 53.4939 22.9463C54.4455 25.3617 54.7303 27.9887 54.3171 30.5518C54.2843 30.9551 54.1004 31.3317 53.8024 31.6055C53.5046 31.8792 53.1142 32.0306 52.7097 32.0293H52.4919C52.2801 32.0026 52.0753 31.9337 51.8903 31.8271C51.7055 31.7206 51.5441 31.5779 51.4148 31.4082C51.2854 31.2384 51.191 31.0445 51.1374 30.8379C51.0838 30.6312 51.0717 30.4155 51.1023 30.2041C51.4267 28.2293 51.2211 26.2037 50.5075 24.334C49.7939 22.4642 48.5975 20.817 47.0398 19.5605C46.8601 19.4379 46.7067 19.2807 46.5876 19.0986C46.4685 18.9166 46.3858 18.7128 46.3454 18.499C46.3051 18.2853 46.3077 18.0654 46.3523 17.8525C46.3968 17.6397 46.4826 17.4375 46.6052 17.2578C46.8529 16.8949 47.2349 16.645 47.6667 16.5635Z" fill="#1255FB"/>
</svg>
