<svg width="44" height="45" viewBox="0 0 44 45" fill="none" xmlns="http://www.w3.org/2000/svg">
<circle cx="22.335" cy="23.0889" r="18.335" fill="white"/>
<path d="M22.3215 13.9219C22.3215 13.9219 30.3374 13.9216 32.3303 14.458C32.8744 14.6034 33.3712 14.8876 33.7698 15.2812C34.1683 15.6749 34.4556 16.1648 34.6028 16.7021C35.4505 20.0726 35.2549 25.3959 34.6194 28.8965C34.4722 29.4337 34.1848 29.9238 33.7864 30.3174C33.3878 30.7111 32.891 30.9952 32.3469 31.1406C30.3582 31.6762 22.3666 31.6768 22.3381 31.6768C22.3381 31.6768 14.3203 31.6772 12.3284 31.1406C11.7844 30.9952 11.2884 30.711 10.8899 30.3174C10.4914 29.9237 10.2041 29.4338 10.0569 28.8965C9.20416 25.5407 9.43779 20.2143 10.0403 16.7188C10.1875 16.1815 10.4749 15.6915 10.8733 15.2979C11.2718 14.9043 11.7678 14.6201 12.3118 14.4746C14.2983 13.9395 22.2778 13.922 22.3215 13.9219ZM19.7698 26.6055L26.4202 22.8008L19.7698 18.9961V26.6055Z" fill="#FF0000"/>
</svg>
