<svg width="44" height="45" viewBox="0 0 44 45" fill="none" xmlns="http://www.w3.org/2000/svg">
<path d="M40.3333 22.7537C40.3333 26.5616 39.1723 30.0987 37.1854 33.0293C34.6354 36.7893 30.7262 39.5522 26.1633 40.6119C24.8256 40.9227 23.432 41.0871 21.9997 41.0871C20.5673 41.0871 19.1738 40.9227 17.836 40.6119C14.6627 39.8754 11.8059 38.3146 9.50251 36.1677C9.42875 36.0985 9.35555 36.0292 9.28292 35.9589C5.82081 32.6245 3.66663 27.9405 3.66663 22.7537C3.66663 15.6047 7.75822 9.41181 13.7275 6.38882C16.2128 5.12928 19.0235 4.42041 21.9997 4.42041C32.1248 4.42041 40.3333 12.6285 40.3333 22.7537Z" fill="#0172B1"/>
<path d="M37.1854 33.0292C34.6354 36.7892 30.7262 39.5521 26.1633 40.6117C24.8256 40.9225 23.432 41.0869 21.9997 41.0869C20.5673 41.0869 19.1738 40.9225 17.836 40.6117C14.6627 39.8753 11.8059 38.3145 9.50251 36.1676C9.42875 36.0983 9.35555 36.0291 9.28292 35.9587C5.82081 32.6244 3.66663 27.9404 3.66663 22.7536C3.66663 15.6046 7.75822 9.41166 13.7275 6.38867C12.9995 6.97199 12.3183 7.61104 11.695 8.31654C9.58471 10.7044 8.12194 13.4453 7.6259 16.6316C6.75151 22.2564 8.50818 27.0316 12.4849 31.0169C13.1915 31.7319 13.2839 32.2865 12.7208 33.2448C12.0396 34.3968 11.0053 35.1789 9.90395 35.8934C9.83357 35.9339 9.76376 35.9795 9.69338 36.0263C11.6533 36.3078 13.5727 36.0195 15.4628 35.4407C16.1604 35.2307 16.8586 35.0207 17.5646 34.8439C18.0438 34.7178 18.5483 34.7431 19.0111 34.9114C24.3414 36.7442 29.6041 36.5758 34.7834 34.3056C35.615 33.9379 36.4179 33.5117 37.1854 33.0292Z" fill="white"/>
<path d="M13.969 40.5862H13.9577C13.9572 40.5833 13.9566 40.58 13.9561 40.5771C13.96 40.5805 13.9645 40.5833 13.969 40.5862Z" fill="#0172B1"/>
<path d="M13.9561 40.5771C13.96 40.5805 13.9645 40.5833 13.969 40.5862H13.9577C13.9572 40.5833 13.9566 40.58 13.9561 40.5771Z" fill="#0172B1"/>
<path d="M19.4463 24.173C18.0843 24.1899 16.7308 24.1814 15.3688 24.1814C14.9735 24.1814 14.5873 24.1983 14.192 24.173C13.7044 24.1482 13.2253 24.0469 12.9894 23.5424C12.754 23.0379 12.9224 22.5841 13.2416 22.1719C14.5366 20.5245 15.8395 18.868 17.1429 17.2199C17.2183 17.1192 17.2944 17.0184 17.3698 16.926C17.2859 16.783 17.1682 16.85 17.0675 16.8416C16.1593 16.8331 15.2426 16.8416 14.335 16.8331C14.1245 16.8331 13.9144 16.8084 13.7129 16.7661C13.2332 16.6569 12.9393 16.1777 13.0485 15.7065C13.1239 15.3872 13.3762 15.1265 13.696 15.0511C13.8976 15.0004 14.1076 14.9751 14.3181 14.9751C15.8147 14.9666 17.3197 14.9666 18.8162 14.9751C19.0848 14.9666 19.3455 15.0004 19.6062 15.068C20.1782 15.2611 20.422 15.7909 20.1946 16.3455C19.993 16.8247 19.6738 17.2368 19.3539 17.649C18.2526 19.0532 17.1513 20.4485 16.05 21.8358C15.9577 21.945 15.8732 22.0543 15.7387 22.2395C17.0083 22.2395 18.202 22.2311 19.3877 22.2395C20.0521 22.2479 20.4136 22.5255 20.4806 23.0548C20.5566 23.7192 20.1698 24.1646 19.4463 24.173Z" fill="white"/>
<path d="M27.5428 18.2123C27.5343 17.54 26.9122 17.111 26.2484 17.2455C25.9038 17.3131 25.6932 17.5569 25.4916 17.817C24.4404 16.9009 23.2806 16.8418 22.1371 17.5231C20.7582 18.3299 20.2453 19.6418 20.4221 21.1801C20.5898 22.6012 21.2035 23.7701 22.7001 24.2577C23.6336 24.56 24.4996 24.4508 25.2647 23.8286C25.4663 23.6687 25.5254 23.7025 25.6679 23.8793C25.9454 24.2408 26.4246 24.3669 26.8452 24.207C27.2573 24.0809 27.5428 23.6941 27.5428 23.2572C27.5597 21.5753 27.5681 19.8941 27.5428 18.2123ZM25.0795 21.9036C24.9956 22.0128 24.9033 22.1052 24.8019 22.1806C24.1882 22.635 23.3223 22.5089 22.8685 21.9036C22.65 21.6091 22.5323 21.2561 22.5154 20.8862C22.507 19.7004 23.1545 18.9859 24.079 19.045C24.4742 19.0535 24.8441 19.2466 25.0795 19.5743C25.5502 20.2133 25.5502 21.2645 25.0795 21.9036ZM38.4646 20.5748C38.397 18.473 36.8335 17.0355 34.6894 17.1025C32.6715 17.1616 31.2509 18.7759 31.3179 20.9363C31.2842 23.0381 33.0245 24.6276 35.2192 24.4086C37.2282 24.207 38.5316 22.702 38.4646 20.5748ZM35.9675 21.9284C35.8915 22.0128 35.8161 22.0967 35.7237 22.1643C35.1179 22.635 34.2519 22.5173 33.7897 21.912C33.5374 21.5669 33.4113 21.1553 33.4282 20.7347C33.4282 19.6835 34.0673 18.9943 34.9754 19.045C35.3701 19.0535 35.74 19.255 35.976 19.5743C36.4551 20.2133 36.4551 21.2899 35.9675 21.9284ZM30.5781 15.3205C30.5781 14.6476 30.1491 14.227 29.5106 14.2355C28.8884 14.2355 28.4763 14.6561 28.4679 15.3036C28.4594 15.6988 28.4679 16.0851 28.4679 16.4803V23.1643C28.4679 23.6941 28.7871 24.14 29.2077 24.2492C29.3085 24.2746 29.4177 24.2825 29.5185 24.2825C30.1159 24.2661 30.5866 23.7701 30.5781 23.1727C30.5866 21.8698 30.5781 20.5664 30.5781 19.2635C30.5781 17.9516 30.5866 16.6318 30.5781 15.3205Z" fill="white"/>
</svg>
