<svg xmlns="http://www.w3.org/2000/svg" id="Layer_1" version="1.1" viewBox="0 0 2100 2100" class="mdl-js">
  <!-- Generator: Adobe Illustrator 29.6.1, SVG Export Plug-In . SVG Version: 2.1.1 Build 9)  -->
  <defs>
    <style>
      .st0 {
        fill: #252525;
      }
    </style>
  </defs>
  <path class="st0" d="M1208.8,358.3c2.2,1.3,10.2,1.2,15.1,3.4,32.5,14.4,55.3,47.3,70.3,77.1,4,8.1,10.3,31.3,14.1,36.4,2.4,3.2,8.4,2.5,10.2,4.2.2.2-1.6,5.2,1.4,5.5,2.5.2,4.6-5.4,7.7-5.9,8.4-1.3,18,1.8,25.3,1.7,55.6-1.3,110.6,1.3,166.1,1.5,74.6.2,150.4-5.1,225.7-3,44.3,1.2,88.4,7.9,131.9,4,9.3-.8,22.5-1.4,30.1,4.6,5.6,4.5,10.6,19.8,11.6,20.4,5.4,3.4,17.1-15.4,25.8-15.4,4.7,0,18.6,5.6,23.3,8,2.6,1.4,21.2,15.9,22.1,17.6,1.1,1.9,5.7,28.9,6.3,33.5.7,5.7-1.7,11-1.2,15.2,1,9.3,6.7,21.4,5.2,31.3-.8,5.1-2.1,2.5-7.8,2.9,13,11.5-.9,26.3-.1,31.9.2,1.1,3.7.9,3.9,2.3,1.7,10.2,4.3,39.2.7,48.8-.4,1.2-11.5,8.8-.7,4.3-2,38.4-7.2,76.9-7.1,115.4,0,55.3,9.3,106.7,5.2,162.8-3.1,42.6-13.4,86-16.3,128.8-8,116.3-2.3,243.6-19,357.6-1,7-6.9,16.3-11.3,21.9l5.8-1c1.3,16.3-8.8,30.2-7.7,46.5l7.7-1.9c2.9,3.2-16.6,74.9-19.9,83.8-7.5,20.2-41.9,66.8-56.5,83.1-3.9,4.3-4.3,10-10.9,14.3-4,2.6-14.5,4.7-15,5.3-7.4,8.3,8.5,30-24.2,24.4-17.1-2.9-30.2-13-52.9-15-26.1-2.4-56-2.5-81.7-3.3-159.2-4.9-318.9,11.8-478.9,12.9-101,.7-201.8-1.8-302.4-1.7-43.3,0-91.8,4-134,1.9-12.7-.6-7.6-2.6-23.4-.4-49.8,7-109.5,2.5-160.8,4.2-52.7,1.7-106.2,10.6-159.3,15.2-6.7.6-17.8-2.4-22.5-1.8-.9.1-1.4,4.1-7,5-19.6,3.1-39.7,3.9-59.2,6.8-7.8,1.2-15,7.9-24.4,3.7l3.8-3.3,3-10.2c-13.4-1.8-8.2,12.7-8.8,13.5-1.2,1.5-22.8,3.7-27.1,5.9l3.9-8.7c-4.9-3.4-5.8,4.2-6.2,8.3-31.1,2.6-64.2,12.3-94.8,3.4-1-11.7-1.8,2.4-12.9-2.5-11.8-5.2-7.3-2.3-16.5-4.6-1-.2-16.2-10.8-16.7-11.7-.3-.5,2.3-3.2,1.7-3.6-.8-.5-5,1.7-7.9,1.1-11.3-2.4-30.4-17.1-33.9-28.2-1.6-5.1-8-43.3-7.7-47.6.1-1.6,5.6-30,6.1-31.6,1.9-6.1,9.6-10.5,10-15.2.5-5.4-6.9-10.7-7.3-15.3-1.3-15.4,5.7-33.1,7.3-46.9,3.9-34.8,3.6-82.7,10.2-115.9.8-4.2,5.2-6.3,5.3-7.8.5-24.1-4.5-56.1,1.1-81.2,1.2-5.4,6.6-7.6,7.1-11.9.5-4.7-4-14-4-21.3s4.4-14.2,5-19.4c1.8-17.5,1.1-34.2,2.2-50.7.4-5.2-.6-20.6,2.6-23.1,1.9-1.4,8.6,4.3,9.6-9.8.7-10.3-5.4-11.8-5.8-15.2-2.1-14.4,6.9-15.7,7.5-21.7.4-4.4-5-7.2-5.3-11.3-.2-3.7,4.8-14.1,5.5-19.8,4.7-37.3,11.3-76,14.3-113.4,8.1-101.2-2.5-203.9,9.6-304.5,1.3-10.7,10.8-22.9,10.7-24.2-.3-6.7-5-13.3-3.5-25,.9-6.8,6.2-13.2,6-19.4-.2-7.6-9.7-10.2-9.7-17.4,0-5.2,14.2-25.4,18.4-30,1.8-1.9,14.9-10.7,15.4-11.6.8-1.5-1.6-5.4-.7-8.4.7-2.6,16.8-22,19.7-24.1,2-1.4,6.4,0,8.2-2.5,1.3-1.8.9-8.3,3-12.5,5.7-11.4,27.3-12.9,26.8-31.3l38-8.7c3.5-4.7-7.8-8.3-6.8-12.6,2-9.2,26.3,1.9,34,2.4,2.2.2,10.8,0,13.3-.2,26.2-1.8,52.8-5.5,79.8-7.2,11.9-.7,24,.5,35.9,0-5.5,20.5,7.2,2.8,8.9,2.3,1.6-.4,4.9,1.8,7.1,1.1,28.8-8.2,52.1-4.7,81.6-6.1,28.2-1.4,47.4-2.9,75.6-1.8,7.7.3,16.3-5.8,23.8-7,31.9-5.3,70.3-6.4,102.2-7.5,7.7,11.1,25.6,12,36.9,6.9,7.4-3.4.3-12.4-.4-18.2-.9-7-2.7-28.5,2.1-33.4.2-.2,5.3,1.5,5.4-1.3.1-2.1-3.5-4.5-.9-10.6,1.7-4,8.7-6.7,11.5-9.9,1.5-1.7.7-5.9,3-8.6,11.1-13,35.5-15,47.2-22.1,2.2-1.3,2.7-5.6,6.5-7.6,16.9-8.8,99.9-43.7,114.1-39.2,2.7.9-1,6.6,3,5.9-1.4-8.7,11.7-10.4,18.7-11.4,34.8-5,158.6,4.8,188.8,20.2,2.9,1.5,3.1,5.5,4.4,6.2ZM1255,477c.3-.2-2.9-5-3.4-7.3-3-14.5-3.6-33.5-8.7-47.5-.7-1.8-11.4-21.8-12.5-22.5-2.6-1.7-52.8-8.4-61.5-10.2-16.5-3.4-33.8-6.4-50.2-9.9-4.2-.9-6.7-5.4-10.1-5.5-.9,0-.5,3.4-3.8,4.1-8.9,2-44.5,6.5-52.4,5.5-3.6-.5-6.9-5.3-11.5-3.7-3.4,1.2-2.1,6.1-4.4,7.8-5.1,3.9-11.2-.2-15,.4-13.7,1.9-98.3,46.4-116,56.2-3.3,1.8-22.3,12.9-23,14-2.5,3.9,2.2,4.3,1.7,7.4-.6,4.4-4.1,8.4-3.7,14,.2,3.6,4.1,2.8,4.2,3.9.1,2.8-5.3,16.8-5.9,23.2-.6,7.2-1.5,41.3-.1,46.1,2.3,8.3,23.2,3.1,28.2,3.1,9.7.1,16.1,3.6,24.2,7.9l12.1-80c14.2-17.9,9.3-33.1,33.7-43.9,12.4-5.5,43.2-13,56.5-15.3s12,2.8,16.1,5.3c3.8,2.4,5.3-7.7,11.9-10.3,13.9-5.7.4,8.7,10.4,4.6,1.9-.8-.2-5.1,4.2-7.4,8.8-4.7,43.1-4,53.1-1.4,9.4,2.4,40.6,19.1,48.4,25.3,1.3,1,11.5,10.9,11.7,11.7.6,2.4-4.9,6.4-5.5,10-1.8,10,13.3,16.9,18.1,23.9,12.2,18.1,12.7,52.8,16.9,74.2l2.8,3.1,41.2-3.9c4.1-11.8-16.4-80.3-13.4-83.2.6-.6,5.1.6,5.8,0ZM1000.9,387.8c3.2,2.9,13.9-6.4,11.6-11.6-.7-.9-14.6,8.8-11.6,11.6ZM1158,469.3c-2.4-2.5-35.2,5-41.4,4.1l-20.6,5.5,62.1-1.9c-.3-1.9.5-7.2,0-7.7ZM1831,639.9c-5-32.8,7.9-63.3,20.5-92.9.9-2.1,4.5-4.1,4.7-5,1.3-6.7-13.6-4.7-17.4-4.8-.3,12.4,12.7,27.2-5.1,28.9-19.3,1.9-53.8-2.5-73-5.1l-112,.3c-8.9,2-14.3,16.4-17.9,19.9-1.4,1.3-5,1.2-7.3,3.4-15.6,15-29.3,31.5-46.4,44.8,7.5-1.6,26.5,8,30,8,2.2,0,5.5-3.2,9.7-3.2,55-.5,109.4-3.8,162.9,9.9l51.4-4.1ZM488.8,554.6c-1.6-1.8-9.2,6.5-13,7.3-9.6,2.2-28.3.6-39.6,1.5-33.9,2.8-69.2,6.5-103.6,4.8-4.9-.2-12.1-4.1-13.3-3.8-5.4,1.3-9.3,23.3-12.9,25-1.3.6-5.7-4.1-7.7-4.6-12.6-3.3-5.3,7.3-5.9,13.2-1.9,18.7-19.6,26.3-25.2,43.8,20.4,2.3,40.6,0,61.1-.2,9,0,17.1-.4,25.9-.6,14.9-.3,61.5,3.2,72.1-2.1,3.5-1.8,19.8-28.8,25.2-35,7-8,8.5-10.5,14.7-18.3,4.6-5.8,17.4-17.7,20.4-22.2,1.4-2.1,3.1-7.5,1.8-8.9ZM1493.5,560.4l-174.4,7.9c-2.1,11.8,1.9,21.6,3.8,32.8-22.1-4,3.4,15.9-12.6,15.7-8.6-.1-19.9-13.1-28.5-14.4-20.1-3-42.3,10.6-58.8-9.1-2.5,9.1-1,14.8-12.7,10.7-1.4-.5-22.6-13.5-23.7-14.6-2.2-2.2-2-5.7-4.2-7.9-9.5-9.3-19.5-20.5-34.6-17-3.8.9-7.2,5.5-10.1,5.5-3.9,0-4.9-5.1-9.2-5.4-7-.5-16.7,5.6-21.8,5.5-4.4,0-3.7-5.6-5.8-6-2.5-.6-10.2,8.2-15.4,5.9l-93-5.6c-12.1,9-2.2,37.5-5.9,44.4-3.8,7.1-17.9-2.9-26-2.9-4.2,0-7.5,3.2-11.8,2.9v25.2c1.6,1.5,33-1.8,37.8-1.9,21.4-.4,42.7,2.8,63.7,3.1,11.3.1,43.7-5.8,53.2-.7,1.1.6,3.1,7.1,5.3,7.2.5,0,4.6-4.5,8.2-5.3,6.3-1.4,13.6-.3,19.9-2.3,1.9,7.5-9.8,2.2-11.6,3.9-.8.7,5.2,9.9,2.9,13.6,14.3-2,15.6-15.3,27.2-18.4,6.2-1.7,38.9-3.1,46.6-3.1,10.7,0,22.5,3.8,33.8,2l1,7.8c14.7-16.4,20.6-3,31-3.7,5.5-.3,14.7-5.5,23.3-5.6,14.7-.2,19.3-1.4,32.8-2.5,8.9-.7,13.8,3.6,17.2,3.6,3.5,0,7.5-3.8,13.7-3.4,5.8.4,9.9,5.3,13.9,5.7,5.1.5,17-4.2,21.1-3.9,1.9.2,1.9,5.2,4.1,5.8,1.5.4,12-5.7,17.4-5.8,23.2-.8,12.8,11.8,32.9-9.7,1.6-1.7,5.3-1.1,6.9-3.1,3.3-4.2,1-15.9,12.2-14.3,1.5.2.4,4.7,4.1,4.1,2.8-.5,12.1-7.7,16.5-8.9.3-6-6.2-.2-11-2.3-13-5.8,9.1-17,11.9-20.1.6-.7,9.5-14.8,8.8-15.4ZM1565.3,562.4c-14.8-3-13.5,3.7-21.2,10.8-11.5,10.6-13.5,18.2-23.3,29-2.7,2.9-7.1,2.8-9.8,5.7-1.9,2.1-14.3,19.2-14.6,20.4-.8,2.9,2.7,3.9,4,5.8,18.2-26.9,41.2-50,65-71.7ZM810.4,572.5c-6.1-4.9-53.4,1.4-64.5,1.6-16.4.3-32.6-2-48.4-1.8-17.6.3-36.3,3.1-54.2,2.1-7.9,6.2-11.3,16.4-16.8,23.9-5.3,7.2-9,12.1-13.8,19.1-2.4,3.4-15.3,18.5-15.2,19.7.6,5.5,19.6,0,24.2-.1,38.8-.4,77.5.4,116.5-1,5.4-1.8,6.4,6,7.6,6,1.6,0,.7-3.9,4.2-5.5,8.2-3.6,50.9-.2,63.6-.5,15.2-.4,31.4-2.1,46.6-3.7l32,1.9c1.6-1.4-10.9-17-12.6-17.4-1.1-.2-2,6.8-7.8,7-.8,0-13.6-3-15-3.5-17.1-6.2-18.1-13.7-28.8-21.8-2.1-1.6-7.1-.6-8.7-3-3.9-5.6,0-2.2-6.1-8.2-2.7-2.7-.4-12.7-2.9-14.7ZM558.7,572.1c-5,.1-10-1.3-14.7,1.8-5.2,3.4-24.5,37.8-29.9,45.7-4.1,6.1-13.4,11-13.5,20.4l58.2-67.9ZM1530.3,579.8c-15.2-1.5-11.8,14.9-3.8,8.3.9-.7,4.8-7.4,3.8-8.3ZM1117.2,643.8c-.2-.3-5.5-2.3-6.8,0-7.7,13.3,10,4.6,6.8,0ZM1879.4,669l-.9-13.6c-9,3-1.8,18.3.9,13.6ZM1254.9,665.1c-.4-8-10.8-9.7-13.5-2.9-2.1,5.3,11.5,2.1,13.5,2.9ZM1115.3,667.1l-9.7,3.9,8.7,7.7.9-11.6ZM223.1,684.6c-.6-.4-2.7,0-3.8,0,2.4,26,4.7,52.4,5.9,78.5,2,41.8,2.6,83.7,3.7,124.1.4,15.3,7.8,40.6,8,56.3.1,11-8.7,13.5-7.9,14.5,2.9,4.1,7.1-.2,9.5,14.8,5.7,35.1,7,128.3-.8,160-1.1,4.4-5.7,6.5-6.8,14.2-2.4,17.4,5.3,11.4,6,13.7,1.4,4.7-3.6,27.4-6.2,32.6-1.8,3.5-7.5,6.1-7.5,10,0,4.4,6.7,6.6,7.4,9.9.4,2.1-1.2,38.5-1.6,42.3-1.6,13.4-6.7,27-7.5,41-.3,4.7,3.9,16.1,3.1,19.4-.7,2.9-9.6,2.8-7.1,13.1.3,1.4,3.9,1.4,4,2.4.5,4.2-4.2,7-3.8,9.3.4,2.1,4.4,3.5,4.9,6,.2,1-.8,18.1-1.1,19.6-1,5-5.9,4.2-6,5.9-.2,3,4.9,8,5.4,11.8,6.6,57.6-7.2,122.8-5.7,181.6-11,24.2-4.5,56.3-7.6,79.6-.8,5.9-6.6,5.9-7.1,8.3-1.9,9,5.4,30.8,4.7,42.3-.4,7.4-3.9,15.3-5.1,22.6l99.9-15.2c8.4,12.4-6.2,11.2-8.9,14.6-4.5,5.6,4.3,9.2.1,11.3-.7.3-8.4-8-13.6-4.8,6.2,7,2.7,17.7,16.2,13.3,5.3-1.7-2.1-7.4,1.2-13.3l9.7,3.9,1.9-3.9c1,7.2,19.6,13.8,7.8,3.9,26.1-10,8.9,3.2,15.5,11.6l20.3-13.5c7.5,5.7-6.8,6.9-8.7,9.6,6.4-1.8,6.8,6.2,10.5,5.9,17.2-1.3,10.9-17.5,12.8-19.4.3-.3,7.4-.3,7.7,0,2.2,1.8-7.3,12.4,4.4,9.6,6.5-1.6,4.8-16.6,10.1-15.4,1.7.4.1,3.7,4.7,5,6.6,1.9,9.8.3,15.6-.3,2.7-.3,4.6-2.8,4,2.1l-8.7,8.7-4.8-7.7c.1,7.4-10.8,4.9-13.6,9.7,4.5-2.1,6.6,4,7,4,5.6.4,9.7-6.1,22.6-1.9,1.3.4,2.3,7.3,5.3,3.8.7-.8-2.7-4.1-1.9-5.6,1-1.8,11.2-2.7,11.6-6-14.5,2.6-14.5-31-17.5-33-1.1-.8-6.9,2.9-7.7,1.9l1.1-5.8,8.6-1c-6.8-21.8-5.8-43.4-8.3-65.4-1.3-10.8-2.7-14.9-3.5-27.4-.3-4.7-4-8.8-3.7-13.7.4-6,7.7-11.1,7.7-11.8,0-1.3-5.3-3-6.6-5-5.1-8-1.1-32.2-1.8-43.2-2.8-43.6-10.3-88.5-11.2-132.1-.1-6.6,3.8-16.5,3.1-23.4-.7-7.4-7.9-22.1-8.7-31l8.5.9,9-9.5c-4.6,2-14.8-5.4-15.4-9-.5-3.2,3.9-4.4,4.7-6.6.8-2.1-.8-4-.3-5.3.9-2.5,11-9.2-4.5-8.2,0-15.2.4-30.3,0-45.7-.6-32.5,1-69.8,1.9-104.5,0-3.6-2.4-7.3-2-11.6,0-.9,5.2-16.1,5.9-16.7.6-.6,6,3.1,7.7-1-6.9.5-11.3-17.2-11.2-23.8,0-5.6,5.2-21.4,5.1-24.4,0-2.1-3.4-5.6-3.6-10-.2-3.2,1.2-18.4,2-20.9,1.1-3.2,6.9-2.4,7.8-3.3,2.8-2.9-7.5-5.6-7-12.6.3-3.5,4.8-6,5.1-9.8.4-4.5-4.3-8-5-12.2s.8-9.5,1.2-9.8c3.2-2,9.3,1.9,5.6-12.3-7.2-27.4-.3-97.5,13.1-127,.9-2.1,7.6-4.3,4.4-8.2-1.5-1.8-10.2,8.5-7.6-6.7,1.6-9.2,11.1-18.5,11.4-19.6.4-1.6-4-7.8-3.9-13.4.2-8.3,8.2-16.2,7.9-25.3-.2-6.2-3.5-.2-6-1.8-3.6-2.3-4.3-31.8-3.5-36.8.4-2.4,1.4-4.6,1.7-6.9,19.4,6.6,7.6,3.1,10.3-4.5,1.5-4.4,7.9-7.3,5.2-14.9-14.8,7.9-7.5.4-9.8-1.7-2.9-2.7-39.7-2.1-47.1-2.8-7.2-.7-17.5-4.3-25.8-4.9-12.7-.9-47,2.7-55.7-2.4-2.1-1.2-2.6-5.4-4.3-5.7-6.1-1.1-22.1,3.1-34.1-.3-5.4-1.5-11-7-16.5-8.7-2.5-.8-6.1,1.6-9.7.2-2.9-1.1-2.2-4.4-2.4-4.5ZM1154.1,686.5c-8.9.5-8.7,9.9-16.5,1.9l-4.9,7.7,21.3-2-3.9-1.9,3.9-5.8ZM1119.2,690.4c-1.8.7-26.2-3.2-23.3,1.9.3.5,8.7,6.8,9.7,5.8l-1-3.9c5.1,2,11.8,1.8,14.5-3.8ZM1289.8,704c-22.9,3.1-11.8,1.2-13.9,10.5-1.4,6-45.1,12.5-52.7,12.1-3.4-.2-20-2.8-23.1-3.6-3.1-.8-4.4-5.7-10.1-5.6-3.8,0-3.3,4.3-6.1,5.7-10.9,5.5-47,0-61.7.3-2.9,0-11.2,3.3-12.7,2-.5-.4,4.2-10.4-4.8-7.8-2.2.6.6,4.4-2.2,5.9-1.7.9-12.3,1.9-15.2,2-17,1-33.6-2.7-50.4-2.4-138.3,2.5-277.5-5.3-415-5.6h-76.7c.2,84.7-7.2,168.2-10,253-4.1,122.6-1.3,245.7-3.6,368.6,0,5.3-3.4,12.2-3,17.6.4,5.4,6.3,11.4,6.7,15.6.4,4.8-3.4,9.9-3.3,13.8,0,3.7,4.1,6.3,4.3,10,3.1,53.3,1.8,106,8.1,158.6l-11,124.8c42.9.5,86.1-2.3,128.9-3.9,48.2-1.9,97-3.4,145.5-4.9,187.1-6,373.4-4.3,560.5-24.1,3.3-.4,16.4-2.1,17.7-3.7l-1.2-54.4c-.9-1-15.2,5.3-19.5-1.3-3.9-6,1.5-58.3,1.6-68.9.2-39.7-1.5-73.6,4.3-111.5,2.4-15.5-1-19.9-2.6-33.4-1.2-10,3.9-12.4,4.2-17s-4.6-7.2-3.7-15.3c.8-6.3,4.9-7.1,5.7-10.1,1-3.8-1.7-8.4-1.7-13,0-2.4,3.5-4.9,3.4-6,0-1.3-4.5-3.6-5.3-7.8-1.8-8.8,3.6-15.9,3.4-21.6,0-2.8-3-4.5-3.2-7.3-.5-8.4,7.3-13.7,7.7-17.7.5-5.4-5.5-6.9-6.1-13.5-.5-5.2,2.1-10.3,2.2-15.5.5-41.5-3.8-109.8,5.2-148,1.2-5,8.4-17.8,8.3-18.9,0-3.1-9-9.4-4.4-17.9,3.1-5.8,7.1-3.5,8.2-4.4,6.3-5-5.5-2.5-5.9-2.8-1.7-1.2-1.4-40.3,0-41.8,3-3.1,10.1,3.8,10.7,3.8,2.1,0,14.3-14.8,4.4-20.8-7.5-4.5-4.5,4.3-5.8,7.9-3.7,10.2-8.3-4-8.4-9.3-.1-7,4.1-13.5,4.6-19.6,1.1-12.8-2.4-31-1.8-44.3,1.5-34.6,6-70.2,7.8-105,1.5-29.4-1.4-60.2,5.8-90-17.8-1.3-31.2,9.9-50.4,5.8,1.3-3.1,16-1.1,9.7-7.7-2-2.1-16.7,3.5-20.4,4-3.5.5-7.1-2.1-9.8-1.9-4.9.4-6.3,6.4-9.7,7.1-8.8,1.8-11.6-8.4-21-7.3-7.5.9-14.2,11.4-24.4,7.7l11.6-21.3ZM1832.6,713.3c-4.1,2.3-7.8-4.1-12.5-5.4-4.2-1.1-26.3-3.9-29.1-3.4-3.7.7-5.5,17-9.1,20.3-8.1,7.3-23.8-.6-31.7-1.4-7-.7-11.8,6.4-10.4-3.9l-16.5,9.6c-17.4-15.5-14.1-6.4-26.3-2.9-23.4,6.8-57.9-5.3-85.5-1.7-27.4,3.5-34.9,1.9-60.8.8-5.6-.2-42.2-1.5-43.7,0-.5.5-2,13.4-1.9,14.4.5,4.5,5.7,22,5.9,25.2.9,14.8.4,35.5-.3,50.3-.4,10.2-4.6,5-6.4,5.6-8.3,3.1-11.1,22.6,4.5,9.2v13.6c6.2-6.3,2.9,11.7,3.2,17.7.6,11,5.8,34.4,4.8,43.4-3.4,28.2-2.7,23.8,3.6,50.4.7,2.8,3.9,35.1,3.4,36.9-.7,3-6.2,2.2-7,3.1-3.9,4.9,6.9,27.5,8.5,34.6,5.9,27.2,3.8,44.6,2.9,70.9-.5,13,1.2,18.8,3.4,29.6,4.8,24.1,4.6,63.4,6.3,88.9.3,4.8-6.3,19.5-5.9,27.1.5,10.5,10.8,32,4.7,45.5-1.6,3.4-7.3,4.6-6.7,10.6.5,4.6,5.4,3.9,6,6.2,2.3,8.1-1.3,25.3-1,32.5.3,8.5,5.5,53.6.9,57.2-1.7,1.3-17.7-4.9-17.3,1,0,1.2,16,8.2,17,15.9.4,3-3.1,5.5-3,9,.6,19.6,4.1,27.9-1.9,47.4-4.7,15.2,3.2,20.8,3.4,36.3.2,12.3-.9,34.5-1.9,46.4,0,.7-8.1,3.6-6,11.9.2.9,9.4-.4,7.8,13.4-.5,4.6-4.4,8-5.3,12.3-2.3,11.5-1.1,20.3,1.5,31.5h-15.5s0,11.6,0,11.6c5.5,1.5,3.2-3.6,6.9-5.3,6.3-2.9,9.5,3.1,10.1,3.2,21.7,4.6,41.8,1.9,63.6,3.9,4.3.4,7.1,3.9,9.6,3.9,2.9,0,6.4-4.2,10.3-4.7,28.9-4.2,91-.6,119.1,7.3,13.3,3.7,23.2,18.5,23-7.3-.4-38.7,7.8-77.2,14.2-115.4,1.8-10.7,2.5-25,4.9-34.1.9-3.3,4.2-2.9,4.2-3.8-.2-2.8-3.3-4.5-3.5-6.4-2.4-18.7,7.5-31.7,8.6-46.2.5-5.7-3-15-2.6-20.8,1.9-25.9,17.1-67.4,23.7-94.3,1.7-7,1.5-18.9,3.2-25.7,1.6-6.3,9.1-9.6,9.4-14.1.3-4.2-3.4-6.2-3.7-8-.4-3,6.3-40,7.9-45.7.9-3.3,4.7-3.9,5.5-10.1,1.1-8.9-4.2-12.3-4.1-19.3,0-4.7,3-9.4,3.3-14,4.9-93.4,6.9-185.4,18.4-278.7,1.7-13.5,3-11.3,2.3-25-1.3-24.7,1.8-49.9,3.1-73.9.5-8.9-6.1-29.2-7.4-39.2-1-7.2-4.1-51.3-6-53.2-3.2-3.1-5.5,5.2-6.1,5.5ZM472.1,984.7c-4-17.4,5.1-23.4,6.8-33.8.7-4.3-2.5-10.4-1.5-16.9.8-5.2,7.4-21.3,7.7-25.5.3-3.9-3.3-6.4-3.3-7.9,0-14.1,3.5-30,5.4-44.1,5.3-39.6,11.4-80.5,17.4-120.3.6-4.2,6.2-10.5,5.2-15.4-1.9-9.1-16-2.6-21.8-3-7.7-.5-16-3.6-23.4-4.1-4.1-.3-17.5-.2-17.5,4-.1,12.1,7-2.5,8.9,4.9,1.6,13.6-2.2,22.5-3.8,35.7l9.7-3.9c2.6,14.2-10.9,28.2-2.8,40.7,1.9,2.9,6.4,3.5,6.8,5.3,1.2,5-4.3,10.1-3.7,12.9.4,2.3,4.6,3.9,5.1,6.4.9,4.3-5.6,10.1-5.6,15.3,0,4.3,5.3,11.3,6.1,19.4,1.9,19.7-4.2,36-2.1,56.3,2.1,20.4-3.6,27.7-3.8,42.7-.2,15.5,5.5,40.9,4.8,58.1-.4,9.6-9,18.3-.9,26.2,4.7-12.3,2.1-26.2,4-37.7.8-4.9,5.9-10.6,5.8-13.6,0-.9-3.2-1.1-3.3-1.6ZM444.1,732.8c4.6-2.9,1.1-13.9-5.5-16.4-16.9-6.3-3.3,22,5.5,16.4ZM1466.1,719.7c-4-2.3-18-1.1-20.6,5.2-5.4,12.9,2.6,20.9,3.5,30.5.7,7.1-3.5,13.1-3.7,19.4-.2,7.4,3.4,26.3,4.2,36.6,2.7,35.8,3.2,69,3,105,0,14,1.6,28.7,0,42.7-.9,7.7-5.6,16.5-6,21.4-.4,6.5,12.4,31,4.1,36.9-2.5,1.8-14.9.9-7.9,9.3,2.3,2.8,6.9.2,8,6.2,1.3,7.4-5.3,9.3-5.8,11.9-.2.9,5.9,13.1,5.4,17.3-.2,1.6-5.1,1.8-5.6,3.8-.3,1,5.1,9.2,5.3,14,.4,11.7-2.9,30-2.9,42.9,0,11.8,2.9,75.2-2.2,79-3.1,2.3-8-1.9-10.7-1.2-5.4,9.5,5.5,8.8,6.4,10,.7.9,5.6,21.1,5.6,22.4-.2,5.4-5.4,7.6-5.4,13.2,0,5,5.1,9,5.6,14,1.1,11-1,28.8-4.7,38.7-.5,1.2,1.5,4.3,1.3,4.5-.9.6-5.1-.6-5.9,0-.5.4,4.7,7.2,5.5,11.2,2.7,14.5-5.6,122-9.8,138.6-2.2,8.7-3.2,0-2.4,14,2.1,34.6-9.4,67.4-10.8,100.8-1,23.6,2,49.1,2,72.8,13.4-4.4,41.9,5.3,42.5-12.8.3-8-9.7-50.5-5.4-55,1-1,5.4,1.1,5.6-1.1.7-6.1-5.7-2.6-5.8-2.9-1.3-2.6,1.8-22.9,1.7-27.9-.8-43.6-4.1-89.7-4.5-134.1,0-5.6-.3-23,6.9-15.3.6.6,9.2,17.2,11.4,5.5,1.4-7.4-10.3-10-11.7-12-1.7-2.5-6.6-23.3-5.4-26.4,1.3-3.3,8.6-3.8,7.4-11.9-.5-3.4-7.4-11.8-8.7-19.5-1.1-6.8.5-17.3.2-25-.3-7.1-6.3-12.5.6-19.2,2.2-2.2,5.7-.4,6-2.3.7-5-7.1-10.9-7.3-11.6-.9-2.9.5-55.2,1.6-59.7.4-1.6,3.9-1.5,3.9-2.4.1-3.4-4.8-7.5-5-11.5-.3-5,3.9-10,4.2-13.6.1-1.6-2.3-4-2.4-6.1-.4-21.1.2-37,1.4-57.9.2-3.8-2.3-7.7-1.8-11.2,1-7.1,17.9-13.3,1.6-27.6-1.1-5.9,8.3.7,5.8-7.7-.2-.8-4.4-1-4.9-4.5-2-13.9-1.4-57.1-.8-72.9.3-8.9,5.7-27.1,5.4-33.3-.2-3.8-3.8-6.6-3.8-9.6,0-1,4.2-.2,4.2-3.8,0-5.8-5.3-12.2-4.9-20.8.4-9.3,6.5-13.4,6.7-14.2,2.1-7.7-5.2-3.2-6-5.9-1-3.4.1-16.3.2-21.1.4-13.3,0-30.4,1.8-44.7.9-7,5.2-12.1,5.8-15.5.2-.8-5.4-.7-5.5-7.6-.1-11.2,8.3-95,3.3-97.8ZM1414,802.8c2.4-3.9-2.8-9.6-7.7-7.7-3.8,9.2,4.8,12.5,7.7,7.7ZM1440.2,855.2c-4.3.8-3.6,11.5,0,11.6,4.2.1,7.5-13,0-11.6ZM426.8,1299.3c-3.1-7-11.3-4-13.6,1.9l13.6-1.9ZM450.1,1359.5l-9.6.9,5.7,6.8,3.9-7.7ZM1532.3,1431.2c-3.1-5.5-6.7,8.1-3.8,11.6,4.2,5.2,5-9.6,3.8-11.6ZM1530.2,1464c2.7-2.3-5.6-17.8-13.4-13.4l1.9,15.5c.4.4,10.9-1.7,11.5-2.2ZM1470.2,1501c9.4-1,3.3-3.9,3-6.8-.4-4.3,2.5-11.1-4.9-10.6l1.9,17.4ZM461.7,1518.5c-4.6-4.5-7,12.1,1.9,11.6l-1.9-11.6ZM166.3,1701.5c-3.3-2.6-6.2-3.9-9,.3l12.5,6.8c1.7-.8-3.1-6.9-3.5-7.1ZM265.8,1718.3l-25.2,6.8,5.8,8.7c-5.8-.4-9.8-.2-9.7,6.5l-5.8-.6c-1.3,7.8,8.7,3.1,10.7,0l4.8,6.8c-9.5,1-8.2,1-7.7,10.6,5.1,1.9,3.5-3.2,4.1-3.5.6-.3,6.7,1.8,11.4-4.3.7-3.7-4.5-.9-5.6-2-7.7-7.5,13.2-23.9,17.3-29ZM320.1,1735.7c-6.4-7.5-21.4,6.9-28.7,4.2l-8.2,9.4c9.4-1.1,14.2-6.1,24.5-7.6,3.6-.5,7.4,1.9,9.2,1.6,2.8-.5,4.1-6.3,3.1-7.5ZM1140.3,989.2c1,1.3-.1,5.5.2,7.6,7.5,1.3-2.6-7.7,8.4-3.8,6.9,2.4,19.1,6.3,27,11.6,2.3,1.6.8,4.7,2.6,6,2.5,1.8,10.2-.9,15.3,7.6,1.5,2.4.6,7.4,1,7.8.5.5,8-3.5,12.3-.2,2.5,1.9,1.5,6.4,3.1,8.5,43.8,56.6,11.7,136.3-18.6,192.8-6.4,11.9-16.1,26-23.5,38.7-3.8,6.6-6.7,16-10,21-2.4,3.5-8.7,6.3-9.2,7.2-1.5,2.7,0,7.5-2.6,12-.6,1-13.3,15.4-14.4,16.6-2.9,2.9-11.5,4.5-13.5,9.8-1.3,3.4,2,6.5,0,11.5-2.9,7.5-26.8,41.4-33.1,50.4-3.1,4.4-10.1,7.7-11.4,9.9-3.5,6-4.2,26.3-11.7,32.9-2.9,2.5-7.2,1.6-9.9,3.7-4.2,3.4-4.3,14.3-17.3,13.9-7.8-.2-5.8-5.2-6.8-6-1-.8-7.3,5.6-10.6,5.7-2.2,0-39.1-9.3-41.7-10.6-1.2-.5-19.7-13.4-20.5-14.5-3.2-4.6-2.7-8.8-4.9-12.5-7.1-11.7-52.2-55.6-65.9-66-13-9.9-31.3-14.1-38.7-30.2l10.7,7.7c4.9-9.3-7.4-9.3-9-17.3-10.7,9.3-38.9-17.8-41.5-25.5-1.5-4.5,3.1-4.6,2.1-7.7-1-2.1-16.2,0-21.5-5.7-4.8-5.1-1.2-10.8-4.6-16.7-3.1-5.4-11.6-5.4-15.6-9.6,3.3-5,7.8.4,12.6-1,3.3-.9-5.1-9.7-5.8-9.7-6.4,0-2.7,9.4-8.7,7.8l-1.9-13.6,7.7-1c-3.3-4.9-7.3,0-11.5-1.9-.9-.4-13.4-11.4-13.8-12.2-1.5-2.6-.8-15.1-3.9-17.9-.7-.6-3.9,1.5-5.7.8-4.1-1.8-23.7-35.5-26.1-41.7-5.8-15.5-16-49.2-12.2-64.5,1.2-4.9,7.3-10.9,7.3-14,0-2.6-7.6-15.7-8.3-22.6-1.6-15.2,6.8-11.7,7.5-13.1,2-4.2.3-10.7,1.7-15.9,11.2-39.7,63.8-36.9,96.8-34.6,38.2,2.6,66.2,13,99.6,28.5,19.6,9.1,14.1,11.9,24.4,23.1,1.1,1.2,25.9,18.1,27.5,18.1,5.2,0,11.8-12.7,15.2-16.8,10.6-12.6,24.1-28,40.1-38.5,2.6-1.7,6.8-.2,9.2-1.5,1.2-.6,2.7-6,9.1-9.3,13.8-7.1,46.7-13.1,62.3-13.4,6.3-.1,49.3,5.5,51.1,7.9ZM1192.9,1031.7c-.1-8.3-3.1-13.9-11.6-9.7l11.6,9.7ZM719.6,1041.4c4.4-4.2-4.7-21.2-7.7-17.5-.5.7,1.3,16.8,1.9,17.5.2.2,5.6.2,5.8,0ZM1136.6,1033.6c-17.2.6-19.7,13.5-30,23.2-20.9,19.6-34.4,31.2-51.1,55.7-5.7,8.3-18.2,35.7-23.5,40.5-4,3.6-9.2,2.4-9.7,2.9-1,1,1.5,19.2-2.4,25.7-7.2,12.2-21.1,6.4-31.4,5.8-1.9-.1-4.6,3-6,2.8-1.9-.2-3.6-4.4-6.2-5-3.1-.7-7.2,2.2-11,1.6-5.1-.8-25.4-4.8-28.8-6.3-8.4-3.6-4.4-12.6-15.1-7.2-6.7-12.6-8.3-28.2-13-40.7-2.2-5.8-8.5-11.2-10.3-16.6-2.1-6.5,1.6-12.1-1-18.2-2.4-5.6-13.2-9-16.5-13.2-8.7-10.8-4.1-24.9-29.1-21.8l-5.8,38.8c12.5-5.9,8.6,9.4,12.3,19.7,18.6,51.9,81.5,93.6,107.2,141l65.7,58.4,42.7-62c-1.2,6.6,1.6,14.5.4,20.8-.4,2.4-3.8,6-3.4,6.3.3.2,5.6.2,5.8,0,1.1-1,6.7-27.9,5.7-29-1.9-2-9.6,5.2-1.5-10.5,10.7-20.8,26.7-49.3,39.6-69,2.4-3.7,6.5-3.7,6.7-4,.9-1.2-3.9-4-3.8-4.8,0-1.2,4.6-2.4,5.8-4.3,6.4-9.6,3-19.3,8-26.6,2.3-3.4,4.9-1.1,5.2-1.4,4.6-4.5-1.2-8.9-1.2-11.8.2-25,7.5-51.7.4-79.1-.9-3.5-5.6-6.7-4.7-11.4ZM995,1072.4c-11.9-.2-7.1,10.7-13.6,15.5,12.1,4.9,7.4-8.3,7.9-9.4.6-1.1,7.2-1.1,5.7-6.1ZM985.3,1103.5c2.4-5.6-.8-10.4-5.8-13.6l-3.9,9.7,9.7,3.9ZM723.2,1092.1c-13.2-7.7-4.8,21.3.8,8.9,1-2.2.8-7.9-.8-8.9ZM1177.4,1091.8l-7.7,4.8,6.8,6.8.9-11.6ZM981.5,1109.3c-2-1.6-12.8,4.4-13.6,7.7,7.1,4.6,16.3-5.6,13.6-7.7ZM1144.4,1163.6l-11.6,11.6c6.8,1.1,11.2-5.6,11.6-11.6ZM1088.9,1300.1c1-1.2,5-2.5,5-3.6,0-.4-3.6-6.6-3.9-6.8-.5-.3-9.5,4.8-9.8,5.2-3,4,1.5,12.6.1,14.1-.4.4-4.3-.9-5.9,1.2-1.1,1.5-2.4,9.8-1.7,10.5,5.6,5.5,6-6.7,7.3-9.2,1.6-3,6.5-8.5,9-11.5ZM1057.1,1320.7c-12.7-4.7-11.4,6-2.9,9.7,7.3,3.1-1.3-7.3-1-7.7.6-.7,4.6,1.6,3.9-1.9ZM1070.7,1330.4c-2.5-2.5-17.8,5.3-21.3,6.8,4.5,3.2,5.5,11.5,12.3,8.8,3-1.2,1.8-6.5,3.1-8.5.7-1.1,10.7-2.2,5.9-7.1ZM1017.8,1338.8c-8.1-3.3-3.4,1.7-4.2,5.3-1,5-7.2,2-3,9.6,4.8-3.3,2.8-10.9,11.6-9.7-.1-1.1-4.1-5-4.4-5.1ZM946.6,1351.7l-9.7-3.9c.6,10.9,3.4,13.2,9.7,3.9ZM991.2,1371.1l3.9-19.4c-5.1,1.5-9.4,17.1-3.9,19.4ZM1037.7,1384.7c.6-.7,1.1-9.2,2.5-12.1,3-6.2,10.7-11.7,9.2-20.9-5.6,11.1-8.6-2.6-13.2,6.3-1,1.8,0,10.7-.2,14.1,0,1.5-3.8,19.5,1.7,12.6ZM1024.1,1365.3c-4.2-8.3-9.8-2.2-11.6,3.9l11.6-3.9ZM1024.1,1375c-4.5-4.2-21.9,17.1-11.6,23.2,8.4,5,2.7-6.5,2.6-7.1-1.9-13.4,2-6,6.7-8.7.8-.4,3-6.8,2.3-7.4ZM996.5,1403.7c.5-.4,3.7-8.4,1.5-9.3-8.8,1.2-8.9,12.3-11.9,13.4-9.9,3.5-1.5-4.6-10.4-5.6-1.2,9.6,3.3,12,11.6,7.8l-1.9,5.8c18,6,17.7,2.9,5.8-10.7.3-2,4-.2,5.3-1.4ZM1039.4,1427.1c4.5-3.2.5-23.5-5.6-19.1-1.8,1.3,4.2,14.7,3.9,15.4-.2.4-6,.8-5.8,3.9,2.2-.3,6.1.8,7.5-.2ZM1015.2,1430.7c-1.3-7.6,6.2-13.2.2-20.8.4,8.9-10.4,11.8-10.7,12.6-1.4,4,3.2,2.7,3.3,3.2.7,2.1-2.1,4.5,1.1,8.8.9,1.1,8.1,5.6,9.1,4.5,3.7-4.3-3-7.8-3.1-8.3ZM384.1,1695l-2,5.8-2.7-3.7-14.7,5.6c-5.4-8,15.7-8.4,19.4-7.7Z"/>
</svg>