<svg xmlns="http://www.w3.org/2000/svg" id="Layer_1" version="1.1" viewBox="0 0 2100 2100" class="mdl-js">
  <!-- Generator: Adobe Illustrator 29.6.1, SVG Export Plug-In . SVG Version: 2.1.1 Build 9)  -->
  <defs>
    <style>
      .st0 {
        fill: #252525;
      }
    </style>
  </defs>
  <path class="st0" d="M1355.9,1644.1c.1,1.3,3,6.7,1.5,8.1-.5.5-5.4-.5-5.9,0-1.3,1.3,3.4,8.1-5.2,9-8.5.9-15.9-9.5-19.7-16l2.7-60.5c-11.2-10.1-7-25.8-7.4-38.4-.3-11.3-5.3-25.7-6-37.2-.8-12.6-.3-31.3,0-44.4.2-6.8,4.8-32.5,1.2-36.2-1.6-1.7-5.4,3.8-4.2-8.3.7-6.9,11.8-12.7,1.5-12.6v-2.9c4.6.7,2.1-3.6,3.3-5.6.6-1,3.5-1.1,4-2.8.6-2-1.7-4.6-1.1-7,.3-1.5,3.7-3.9,4.7-7.2,1.4-4.4,1.1-9.4,2.5-13.8l-8.9-.8c.5-10-.7-20.4,0-30.4.3-4.2,2.2-7.9,2.8-12,.4-2.9-.4-13.4.2-13.9,1.3-1.3,11.3,4.5,7.1-9.3-.8-2.7-4.8-4.1-5.3-6.4-.3-1.8,1.2-12.1,4.1-12.4-.6,4.1.2,6.2,4.5,3.7.8-8.8-5.6-11.1-5.7-11.8-.2-1.2,3.3-5.8,2.8-8.8-.2-1-2.7-.7-2.8-1.6-1.2-9-1.4-28.3-1.8-38.5-.5-13.5,2.6-25.7-2.1-39.3l-6.9,24.4c-10.7,35.2-15.6,67.4-17.4,103.8-1.5,29.4-9.1,55.9-10.6,85.9-1.3,25.4,1.3,51.4-4.4,76.4l-4.4-1.5v4.4s4.4-1.5,4.4-1.5c2.8,3.5-7.3,22.3-7,27.7.2,2.5,2.9,4.1,2.6,7-.2,2.2-3.2,4.1-2.9,5.8.3,1.6,3.5,2.8,3.8,4.6.3,2-2.2,5.7-2,8.8.2,3.6,4,6.7,4,9.1,0,2.8-7.3,11.7-7.5,13.2-.7,4.8-.4,16.4,6,17.1.5,2.9-3.4.7-4.3,1.5-.3.3-.3,7-.1,7.3.4.5,4.5-2.8,5.8.9.4,1.2-.6,24.8-5.8,22.8-.2-2.6.7-5,.6-7.6-.1-2.3.2-9.4-2.1-10.2-.2,5.7-5.6,12.9-4.5,18.2.3,1.2,3,.5,3.1,3.2.2,4.7-2.4,8.9-1.6,14.8.6,4.3,5.2,12.8,5.8,16.5,2.3,14.5-4.8,6.4-6.4,6.7-2.9.5-11.3,11.7-12.8,12.6-1.9,1.1-5-6.1-5.9,2.6-1.8,3.1-6.1.7-5.9-4,.2-5.2,5.5-5.3,4.4-7.5-1.8-3.5-9.8-3.7-11.9-5.9-3.4-3.7,1.8-42.1,0-52-.6-3.1-6.2-4.7-5.5-15,.8-12.4.2-7.6-1.8-19.2-1.9-10.7-4.5-29.4-4.6-39.9,0-6.7,2.1-2,5.6-4,8.2-4.7-5-12.3-5.3-13.9-.3-1.7,1.7-4.5,1.3-6.6l11.8,3c1.7-1.8-2.9-11.6-4.4-12.7-3.9-2.9-9.8,7.4-9-13.2,2-2.7.9,1.9,2.5,2.3,4.5,1,12.3-1.6,10.9-7.5l-5.9,1.5c-1.5-4.1,3.7-6.2,4.1-8.3.3-1.7-1.2-3.9-1.2-5.8,0-4.4,4-11.6-4.9-9.7-1.9.4-1.5,5.7-5.4,4.5v-11.9s7.4,1.5,7.4,1.5c-.5-4-4.3-7-5.5-10-3.4-8.3-3.5-9.6,5.5-9.9-18.1-22.4.5-10.3,1.5-11.1,4.4-7.7-2-12.1-2.5-15.8-1.4-9.2-3.5-20.3-4.7-31-.5-4.3,1.1-17.4-1.5-19.2l-30.7-5c-36.6-2.2-72.8-2.9-109.4-6-19.6-1.7-38.8-6.2-57.6-7.5-9.4-.7-22.7-5.4-29.9-5.7-3.5-.2-7.8,2.4-11.4,1.4-1.8-.5-2.1-5.2-5-5.8-2.4-.5-6.7,3.9-10.2,4.2-4.1.3-10.1-2.6-14.8-2.9-9.1-.5-18.3.3-27.4,0,4,11.4-7.8-.2-10-1.1-11.7-4.9-16.3,3.4-24.3,4.6-4.4.7-16.5,1.1-21.2.9-4.3,0-9.3-2.6-14.1-1.5l3-5.9c-5.8-1.9-16.8,2.9-21.3,1.3-3.2-1.2-1.8-6-3.1-5.8-4.9,1-10.4,4.9-17.1,3,1.2,5.1,10.4,1.9,11.9,3-4,11.9-11.2,3-15.3,3.2-3.6.2-4.2,3.9-6,5.2-1.2.9-3.7.2-3.9.4-.6.6,5.1,10.5,4.3,16.9-1,8.8-6,4.1-7.3,5.3-.5.5.1,10.7-3,12.6l4.4.7,1.5-8.9c5.9,2.2.9,7.1.8,10.2-.5,18.3-2.1,40.3-3.9,58.5-.4,4.3-4.4,14.9-4.3,16.5.1,2.3,3.1,4,3,7.3-.1,2.2-2.3,4.2-2.5,6.3-.5,5.4,1.7,13.3-3.4,17.6l4.5,1.5c-5.3,2.2-7.6,7.6,0,6.7-3.3,4.9,0,9.1,0,14,0,5-1.5,9.3-1.6,13.4,0,2.5,2.8,11.3,1.5,12.6-1.4,1.4-8-3.6-5.9,5.9l4.4-1.5v5.9s-4.4-1.5-4.4-1.5v4.4s4.4-1.5,4.4-1.5c-2.9,7-.9,14.9-1.5,22.2,6.5-2.7,13-2.2,19.7-3.3,1.9-.3,3.9-2.1,6.3-2.5,16.1-2.6,11.6,2.4,23.8-11.1,1.4-1.6-.5-5.5,7.2-4.5,11.4,1.4,0,12.1.7,12.6,3.4.8,6.8-1.2,9.8-1.3,18.3-.7,42.4-3.8,60.5-3.2,4.2.1,8,3.2,12,3.2,2.4,0,4.3-7.7,7.3-.1h3c2.6-8,9.6,1.1,13.2,1.3,38.4,2.4,76,2.9,113.4,14.2,22.2,6.7,48.3,16,70.7,25.6,4.5,1.9,9.5,7.1,13.4,8.8,2.9,1.3,7.6-1,10.1,3.3,4.1,7.1-6.2,2-3.8,8.2.5,1.3,6.5,1.1,4.3,8.7-1,3.7-8-.1-8.5-.9-1.1-1.8-.3-10-4-13.1-3.1-2.6-5.8-.7-8.6-1.5-1.2-.3-1-2.6-2.1-2.9-4.1-1-8,1.2-11.4,1-2.5-.2-6.1-3.8-9.8-2.5,1.2,4.9,10.4,8.5,8.8,13.9-1.3,4.5-23.7,1.8-28.6.8-11-2.3-25.8-11.7-36.5-15.4-9.4-3.2-23.3-4.7-32-8-2.7-1-13.3-11.6-14-3.1,25.7,8.8,12.9,13.5-5.9,13.3-.7-3.8,4.7-4.3,1.5-6.6-6.6-4.8-18.7-2.1-22.9-12.6-4.1,1.6-1.9,5.7-2.2,5.9-1.3.8-17.8-4.3-21.7-4.3-5,0-8.6,3.6-16.2,3-9-.8-13.4-1.8-23.6-1.7-25.3.4-50.6,10.8-73.5,22.9-3.6,1.9-7,6.1-10.4,7.4-2.8,1.1-7-.4-9.8,1.3-10.8,6.6-22.1,19.6-32.3,27.7-16.7,13.3-29.8,27-41.4,46.1-1.4,2.3-1.1,6.3-2.2,7.9-1.1,1.7-4.2.5-4.6.9-.3.2,1.7,4.3,1.4,7.9-1.5,15.9-15.5,35.6.8,46.9,2.8,1.9,29.1,14.9,31.8,15.6,5.6,1.4,11.5-.3,16.4,1.3,3.6,1.2,4.3,5.3,5.2,5.3,1.9.1,6-2.3,9.7-2.2,17.6.4,38,8.4,55.8,10.7,3.1.4,18.7,1.7,19.5,1.2,5.1-3.4-2.8-4.6-4.7-7.4-1.6-2.5.2-4.5-.1-5-.7-1.1-5.4-1-4.1-4.7,5.3,0,6.3-1.1,4.4-5.9l70.1,6.2,5.5,5.6c-2.6.7-4-1.8-5.8-2.3-7.5-2.1-3,7,3.6,7,4.5,0,13.7-8.1,21.5-4.6l-7.4-3c.3-3.5,14.4-3,16.4-2.4,3.6,1.1,4.3,5.3,5.2,5.5,3.6.6,5-3.2,7.7-4.2,18.4-6.6,54.8.9,75.1,1.2,13.2.2,26.1-3.5,39.3-1.6,1.4,1.3-5.6,7-.7,7.4,1.8.2,4.1-4.1,5.6-4.8,9.8-5.1,25.1-1.9,35.9-2.4,34.6-1.5,83.4-9,98.8,31.5,7.5,19.9,0,10-9.1,12-13.2,2.8-36.1,19.1-51.9,23.8-45,13.4-87.4,22.6-133.7,30.8-11.4,2-24,8.4-35.9,7-2-.2-3.9-2.6-4.5-2.6-1,0-2.7,3.4-5.9,4.1-12.9,2.5-29.2,2-41.2,3.5-3.3.4-7.5,4-13.6,4.1-5.3,0-8.9-2.8-11.6-2.7-28,1.1-56.8,2-84.9,2.5-73.9,1.1-159.1-20.1-223.3-59.4-17.2-10.5-54.2-48-62.8-66.1-2.3-4.8-10.5-29.5-10.7-33.8-.2-5.3,3.7-8.1,4.1-10.5.3-2.3-3.2-4.2-3.5-7.1-.4-3.9,2.8-10.8,3.3-15.1.3-2.4-1.4-5.3-.9-8.5,3.8-25.3,43.1-96.5,65.2-108.3,2.7-1.4,5.6-.3,8.9-2.9,5.8-4.6,10.2-16.1,7.3-23.1h10.4c.9-6.4-10.8-3.3-14.8-2.3-16.8,4.2-32.2,15.6-48.6,19.8l-3.2-4.2c5.7,12.6-7.9,17.3-15.8,24.2-13.3,11.5-40.4,26-49.3,35.9-5.3,5.9-22.8,30.7-25.9,37.9-2.1,5-3.9,18.4-4.5,19.2-1.4,1.9-5,.7-6.5,1.7-.5.3-5.2,9.6-4.8,10,.2.3,5-.3,6.7,3,5.5,10.5-9,3.9-9.6,4.5s-5.4,12-5.6,12.9c-1,4.2-5.2,27.3-4.5,30.4.4,1.8,9.6,19.7,11.3,22.9,15.3,28.4,38.9,59.4,64.9,78.8,1.8,1.3,14.5,7.6,16.2,7.7,4.6.3,5.3-4.1,8.8-4.5,6.7-.7,25.8,7.3,15.6,15.6l36.4,19.8c76.4,25,157.6,43.5,238.2,47.7,47.6,12.6,96.7,13.5,145.3,13.2,54.6-.3,103.6-18.7,158.2-21.2,42-9,86.2-22.9,128.2-30.3,12-2.1,29.1-.7,39.3-3.7,3.6-1.1,4.7-6.1,8-8.3,9-5.9,30.3-11.5,41.4-16.4,14.5-6.4,28.7-13.4,42.7-20.8,3.2.2,8.2,18.8,10.3,20.6,2.2,2,5.5.9,6.5,1.7.4.4,3.3,10.2,3.3,10.7,0,.9-13.3,8.8-15.4,10-61.5,35.3-133.6,56.5-200.6,77.9-26.5,8.5-58,22.9-84.2,28.4-2.1.4-8.6,1.8-10,1.7-.7,0-2-4.5-4.7-4.1-1.3.2-2.6,3.1-4.7,3.8-17.5,5.4-38.2,6.3-55.9,9.3-4,.7-8.1,4.1-12.1,4.3-7.5.5-14.2-1.3-24.4.6-50.6,9.5-106.2,6.1-157.7,3.2-17.2-1-30.6-2.8-47.4-5.3-79.9-11.8-161.5-19.7-239.3-42.2-49.2-14.2-107.8-24.8-154-44.5-37.1-15.8-92.8-47.5-117.7-79.4-5.3-6.8-21.3-33.7-22.8-41-2.4-12.1,0-24.1.7-35.4.4-7.2-4-17.3-2.4-27.9.9-5.8,9.6-27.4,7-31.7-.5-.8-4-1.4-4.1-2.5-.4-4,7.1-.5,7.4-.7,1-.9,4.9-21.1,6.4-25.5,2.7-8,5.5-14.2,8-21.5.6-1.6,2.7-7.7,3.3-8.3,1.5-1.6,7.6-.9,7.5-3.2,0-.4-2.7-1.7-2.3-3.8.5-2.6,5-5.7,6.6-8.3,6.9-12,12.8-20.5,23.1-30.1,2.5-2.3,6.8-3,9.1-5.8,5-6.3,5.8-13.7,14.7-20.9,6-4.9,15.1-5.3,17.7-7.2,1.5-1.1.6-4.2,1.6-6,3.1-5.1,31.2-20.2,37.5-21.5,5.3-1,11.4,1.2,16.5,2.1-3.2-14.4,16.9-15.6,27.1-16.8,5.2-.7,3.1-5.3,9.9,3.5,0-2.7-2.5-4.6,0-6.7,1.7-1.5,25.8-10.8,29.7-11.9,13.3-3.9,53.6-11,65.7-8.1,1.2.3,1,2.9,1.8,3,2.9.3,4.8-2.6,7.4-3,8.8-1.4,33.8,2.2,42.6,4.7,4,1.2,7.5,4.1,11.4,5.6v-197.1c-6.3,2.1-12.8-1.2-17.1-5.9-4.8-5.3,2.6-7.9-3.7-9.6,2.2-1.7,5.4-4.7,8.1-5.2,5.2-1-2.1,5.6,3,4.5,9.5-2.1,11.4-7.8,9.6-17-1.3-6.6-12.3-4.3-17.4-16.7-7.4-17.9-1.4-17,14.5-12.3-.5-3.3,1.6-6.6,1.5-9.7-.2-8.7-4.3-22.3-4.6-31.1-.4-13.4,5.1-27.2-1.4-41.1-.9-1.9-3.8-1.9-4.2-3.5-.5-2.1,2.7-6.6,2-9.7-.6-2.9-4.7-4.6-5.2-8-.2-1.3.9-19.2,1.6-19.8.8-.7,5.2.7,7.4-.8.9-.6,9.3-14.8,10.9-17.3,1.3-2.2,1.1-5.4,2.6-7.8,1.5-2.5,10.1-9.8,10.2-10.6-.9-3.1-8.4-4.8-8.8-5.4-.2-.3,1.7-9-3-5.7-4.2,3-2.8,14.6-3.6,16.3-1.8,3.6-7.8,2.4-9.1,4.4-2.1,3,2,11.4-5.8,10.5-11.7-1.3,2.1-10.4,1.8-12.7-.2-1.4-3.1-2.6-3.7-4.7-3.1-10.2,4.6-12.9,4.2-17.4-.3-3.4-5.1-5-4.5-7.5.6-2.5,11.9-5,13-7,2.2-3.8,1.4-13.7-5.7-9.4-2.3,1.4,1,9.4-3.3,7.9-11.5-3.9-15.4-7.6-21.7-18.3,5-3.4,10.8-3.8,10.4,3.7h2.1c0,0,15.7-9.7,15.7-9.7-.1-4.4-6.8-5.2-8.2-8.1-1.5-3.1.4-8-2.8-10.5-7.1-5.7-24.5,0-21.7-21.1.9-4,19.9-2,23.8-2.5-5-5.1-4.2-11.5-2.6-18.1.6-2.2,3.6-4.3,3.6-6.3,0-2.6-4.7-5-3.8-8.6.7-2.7,5.6-4.1,5.7-7.7.1-3.6-4.8-7.3-2.6-14.5,2.9-9.6,15.7,4.7,17.5-1.8,2.2-8.1-12.2-4.1-13.3-5.2-.4-.4,1.2-4.8.5-7.1-.3-.9-6.9-4.5-2.7-6.3,6.1-2.5,1.3,6.9,7.3,4.4,8.1-3.4-1.9-14-3.2-18.9-1-3.4,0-7.1-1-10.8-1.2-3.9-6.2-5.7-6.8-9.6-1.1-6.9,3.8-5.8,5.2-8,.6-1-.9-3.8,0-6,6-16.5,14.1-.9,18.4-8.4,2.8-4.9-.6-9.2,9.1-9.4,2.4,2.4-14.8,20.4-.9,19,3.1-.3,6.7-5.9,11.3-4.1-1.5,5.8-3.3,8.5-1.5,14.8,2-1.4,15.4-3.5,16.2-2.9,1.2.8,0,7.5,4.5,5.9,1.6-5.1-4.1-3.5-3-8.1.6-2.6,1.5-4.2,4.5-3.8-1.6,6,3.7,3.9,5.3,5.8.3.4-.7,8.5.7,10.5,12.7-3.7.3-7.9,0-12.5-.2-3.6,4.9-10.5,2.9-15.6-10.9,6.2-17.2,1.5-13.9-10.5.7-2.5,7.1-9.4,2.8-10.2-3.6-.7-5.7,7-8,8.2-8.9,4.2-20.4-36.3-23.7-7.3l-11.9-.9c2.1,8.8-6.1,11.5-13.3,11.9v-5.9c24.9,5.5,3.1-23.1,4.4-31.8.5-3.3,5.6-6.2,5.6-10.7,0-2.5-4.7-7.8-2.6-12.3l8.9,2.9c-1.5-7.9-5.8-12.1-5.4-20.3,1.2-22.6,6.7-48.6,12.2-71.1.5-2-.6-4.8.3-7.3,1.7-4.6,19.1-8.8,4.8-16.2,1-5.2,7.5.9,7.5-7.4,0-3.7-7.6-2.4-8.3-7.3-.4-2.5,2-7.6,2.2-10.7.2-2.8-1.1-5.2-.7-8,.3-2.2,5.2-13.5,6.7-15.1,3.6-4,14-5.3,11.9-14.4l-10.4,1.5c2.6-4.7,3.8-10.6,10.8-8.7,5.1,1.4,3.7,9.4,9.8-3.9-.4-3.6-12.6-1.4-14.4-12.2-.9-5.4,5.1-11.8,6.7-17.8,3.8-14.3.9-12.9,8.5-27.1,1.5-2.9.2-11.7,8.2-10.3l2.2,5.9c8.5-5.3,8.3-6.6,6.7-16.3l-8.9,2.9c-4.5-8.7,1.6-9.1,4-14.4,5.6-12.3-.4-18.5.4-26.2.3-3.4,9.2-18.5,10.1-22.6.8-3.5-2.5-6.8-2.6-10.2-.4-9.3,12-11.8,13.1-16.5.6-2.6-1.8-5.5-.9-9.6.4-1.6,11.2-28.3,12.5-30.7,6.4-12.2,18.3-31.3,27.2-42.4,2.3-2.8,6.5-4,9.5-8.3,5.1-7.4,1.3-13.4,6.1-19.1,1.8-2.1,12.4-7.4,12.6-8.2.4-1.9-5.3-4.3-.7-11,2.4-3.5,7.5-4.2,7.8-4.8,1-1.7-.6-5.6,1-8.7.8-1.5,9.3-7.2,10.3-9,3.8-6.6,4.9-12.6,11.2-19.9,6.6-7.7,7.8-4.4,13.3-7.5,1.5-.9,17.3-19.4,23.2-24.2,11.4-9.1,9.6-11,18.3-20.2,3.6-3.9,28.2-23.2,32.2-24.1,8.4-2.1,9.2,4.8,15.7-6.5.9-1.5.8-4.1.9-4.2.3-.4,9,3.3,8.8-.7,0-1.8-5.8-1.3,1-6.4,8.2-6.2,29.4-16.8,39.5-21.3,88.3-39,187.4-50.2,282.8-31.9,5.1,1,26.6,8.4,29.3,7l.7-4.4c3.8,1.7,0,5.2.7,5.9.6.6,13.9,2.9,16.3,3-.5-2.5-5.4-2.2-7.8-3.3-1.8-.8-4.6-2.8-.3-2.7,7,2.8,15.5,3.5,22.3,5.8.9.3,4.9,1.8,2.9,3.1-3-.5-10.6-3.9-12.6,0,8.9-.2,48.7,33.7,53.3,29.6-4.2-16.8.2-13.3,8.9-3.7-9.4,4.5.5,17.4,1.5,3,1.5-4,10.9,8.6,11.9,10.3,2.6,4.5,3,11.5,4.3,13.4,3.1,4.5,20.5,14.8,25.2,19.4,3.4,3.4,3.9,7.5,6.9,10.9,11.6-6.8,23.1-12.9,35.9-17.4,33.3-11.6,56.5-12.3,91.5-7.8,10.5,1.4,27.1,7.1,35.8,7.3,4,0,6.3-3.2,9.8-2.7,7.2,1.1,27.1,14.9,33.6,19.9,6.1,4.6,14.7,14,20.3,18.2,16.2,12.1,37.1,17,45.6,37.3,2,4.7.4,9.4,4.6,14.7,2.6,3.2,8.5,5.3,10.2,9,3.5,7.3,8.4,19.8,11.9,28.1,6.3,14.7,4.7,28.9,10,43.4,2.7,7.4,12.8,20.5,13.9,26.2,2.8,14.6,6.7,30.8,8.9,46,2.2,15.1,2.5,30.2,4.8,44.2,7,43.1,15.6,73.4,13.7,119.6-.2,5.1-3.4,13.8-3,17.7.3,2.4,2.8,3.7,3,5.9,0,1.3-4.5,1.3-6,3-3.9,4.3,1.2,7.4-10.3,10.5-24.9,6.6-61.2.6-86.8-2.3-8.2-.9-36.3-1.3-42.2-5.2-6.9-4.5,15.7-9,18.7-9.5,1.6-.3,16.6,1,12.4-3.1-3.2-3.1-22.1-2.2-26.6-6.7.3-4.8,10.5-1,13.3-2.2-.2-3.5-10.7-1.1-8.9-5.2.7-1.5,4-3.7,5.3-6.6.9-1.9,5.2-13.2,5.2-14.1,0-.5-2.7-.7-3.6-3.9-3.4-12.3,0-14.7,7.9-22.8-2.7-3.2-8.7-3.5-9.6-8-.6-2.6,1.9-4.9,1.9-7.1.2-8.3-4.1-26.4-4.2-36.9,0-2.6,2.6-1.8,3-3.1.7-2.3-2.9-7.2-3-10.1,0-2.1,2.3-15,1.6-15.5-.4-.4-2.9.4-4-.3-2.7-1.8-2.6-17.2-3.5-21.1-7.1-32.9-11.8-64.9-18.4-98.6.6-44.1-31.4-63.3-62.2-86.9-4.7,2.9-10.2,1.9-15,3.7-3.6,1.4-5.2,4.9-8.5,6.4-18.6,8.5-28,11.5-44,25.6-10.2,9-18.8,19.8-28.1,29.8l.6,2.2c3.5,2.3,7.6,3.7,6.7,8.8l-5.9-1.5c-.3,3,.6,6.5,0,9.4-.2,1.2-4.7,1.3-2.9,5.5,7.2-3.9,4.4,3.6,8.1,7.4l2.9-4.4c5.5,3.2,5.9,8.4,2.2,13.3-1.3,1.7-1.8-6.1-4.4-2.9-1.4,1.7,6.6,11.5,7.1,14.4.4,2.2-1.1,4.1-1,5.6.2,2.1,2.2,3.4,2.2,4.4.2,2.8-4.5,5.3-4.8,7.3-.6,4.3,2.5,13.4,2.3,17.7-.1,2.9-2.5,5.5-2.5,7.8-.2,4.2,1.6,8.1,1.2,16.1-.2,3.4,2.3,7.3,1.4,11.1l-4.4-1.5-1.5,3.7c8.7,3.3,4.2,3.7,5.1,5.9,1.4,3.5,5.6,5.4,3.8,11.1l-4.4.7c10.9,10.3,2,20,1.5,31.2-.2,4.5-.1,3.8,4.5,3.7-1.9,3.7-4,6.8-4.5,11.1-.7,6.4-.7,28.1.2,34,1.6,10.5,11.6,22.4,11.9,34.2.2,7.5-4.4,18.3-4.4,25.3,0,1.2,4.1,1.6,4.2,2.9.3,3.4-12.4,4.4-13.3,8.1,50.5,7,6.2,16.5-14.7,11.9l-2.5,7.4c-2.2.5-10.8-.8-12.8-1.9-2.2-1.1-2.3-4-3.4-4.2-5.2-1-8.5,6.8-14.5,7.6-7.8,1.1-25.1-5.5-26-4.5-.3.4.5,4.4-.6,6-1.5,2.1-5.7.5-6.9,2.3-.7,1-5.1,21-5.3,23.7-1.4,19.3,5.6,18.6,9.5,32.8,1.9,6.8,1.7,31.9-.8,38.3-1.4,3.5-5.4,3.2-6.1,10.5-.5,5.6,3.6,1.4,2.9,6.4h-8.9c-2.6,9.4,9.9,10.5,4.5,19.8-.8,1.3-3.1.5-3,1.7,0,1.3,2-.4,3.1,2.9.6,1.8,1.6,18.5,1.5,20.8-.2,3.3-2.2,5.1-2.6,7.6-1.1,5.9,4.6,9-9.4,7.9v7.4s7.4,0,7.4,0l-3,3.7,3,6.7c-2.2,2.1-10.9-9.8-8.9,8.1.3,2.1,5.4,0,7.2,1,5,3-7.8,31.9-7.2,10.2h-5.9s-1.5,11.1-1.5,11.1h8.8c0-.1,3,1.5,3,1.5-.2,4.8-5.7,10.8-5.9,14.9-.3,5.5-1,10.8-1.3,15-.1,2.2,2.9,3.5,2.5,6.8-.5,4.3-6.4,5.5-7.2,9.3-.9,4.3,4.9,1.2,5.9,2.2.7.7.8,17,.6,19.5-.7,8.3-.8,6.5-.6,15.3.1,4.5-.5,33.3-5.2,33.3-.6,0-7.8-6.5-7.9,3.7,0,11,6,8.4,8,11.1,1.8,2.4-3.2,25.2-4,30.3-1,6.8-4.2,20.2-4.4,26.8,0,.9,3.3.6,3.8,3.5.4,2.3.3,24.8,0,27.7-.4,3.8-5.7,8.6-5.2,10.3.4,1.4,4,1.6,4.5,3.3,1.1,4-2.1,9-1.5,12.9,1.7,12.2,8.7,25.8,7.1,40.6-1.7,2.6-1.5,12.7-1.9,13.7-2.1,5-2.3-2.6-3.7-3.7-3-2.5-7.5,3.5-1.9,6.3,3.7,1.8,5.7-1.2,6.4,5.6.3,2.7.2,28-.2,29.6-.8,4-5.4,5.9-5.6,7.4-.1,1.4,4.3,5.2,4.3,10.4,0,4.6-2.9,6.3-3.1,8.9-.4,4.2,1.5,14.1,1.5,19.1,0,15.6-3.3,91.3,1.1,100.9,1.4,3.1,4.1,2.6,4.8,5.8.9,4.4-2,10.8-1.5,11.1.2.2,3.6,0,5.3,1.4,5.5,4.4-1.4,11.5-2.8,16.7-2,7.6-4.4,23.9-4.1,31.5.2,4.3,3.8,11.2,3.1,14.6-.4,1.7-5.4,1.5-6.1,6.3-.5,3.5,1.9,8.3,1.6,13.2-.7,10.1-2.2,20.7-3.1,31.2-1.4,16.6-7.1,43.9-5.7,59.1.1,1.3,1.1,6.6,2.3,7,9-1.4,17.8,1.1,26.4,1.5,16.8.7,36.2-2.9,51.8-1.5,4.5.4,11.5,6.2,18,7.3,8.7,1.5,19-.7,27.6.5,28.8,3.9,112.7,33.8,130,56.6,8.3,10.9,18.6,27.5,22.6,41.1,2.2,7.5,3.8,18.9-3.5,24.1-2.4,1.7-6.1,1.6-8.7,3.2-6.5,4-19.6,17-27.7,22.6-32.6,22.4-56.7,24.2-93.8,35.1-8.8,2.6-37,15-43.6,14.1-2-.3-3.9-2.6-4.6-2.6-.6,0-6.8,5.8-10.1,7.3-20.1,9.7-50.7,11.4-72.8,14.6-15.4,2.3-26.9,8.4-42,11.5-2.9.6-5.5-1.2-8.9-.3-3.3.9-5.5,4.3-7.3,4.8-.7.2-12.8-1.2-14.2-1.6-16.7-4.3-31.4-24.9-41.1-38.2,7.7-.2,14.8-4,21.8-5.6,45.3-10.3,98.5-35.3,132.2-67.9,1.3-1.2,4.2-2.1,4.3-2.3.3-.5-2.5-7.4-1.8-11.4,1.1-5.9,9.2-15,10.6-21.8-.3-2.2-15.4-7.8-17.2-10-3.8-4.7-3-44.9-21.1-25.5-1.1,3,4.4,2.5,5.7,6,2.1,5.5-3.8,2.4-4.3,4.3l1.5,8.1-48.9-10.4c.6,10.9-.9,22.6,0,33.3ZM1283.3,133.4c-5.4-.5-8.7-5.3-14-6-15-2.1-46.2-.7-62.3,0-15.8.7-53.7,4.1-66.5,11.8-1.2.7.6,5.3-1.1,7.2-.7.8-13.8,2.9-10.1,6.3,1.3,1.1,29.5-11,32.6-3-7,.4-4.5,7.5.6,5.8,2.1-.7,2.3-4.6,4.8-5.5,3.3-1.2,9.9-.1,13.8-1.7l-7.4-1.5c-.5-3.2,2.1-4.1,4.4-5.2,17-7.4,58.6-13,77.2-11.7,8.4.6,15.4,3.3,23.5,4.3,1.6.2,4.8,2.1,4.4-.8ZM1338.1,152.6c-12.8-15.2-32.2-23-51.8-23.7,14.5,12.8,32.8,19.7,51.8,23.7ZM1344,146.7c4.3,1.7,8.7,4.2,13.3,4.4-2.6-3.7-7.8-4.3-11.8-6.7-3-1.8-7.9-10.5-11.9-5.1,3.6,2,10.3,3,10.4,7.4-1.7-.7-6.7-3.6-7.4-2.9.3,3.6,7.6,10.3,7.4,2.9ZM1120.3,146.7c-5.1,1.4-12.1.7-13.3,8.9,9.1,2,8-4.8,10.3-6.7,1.6-1.3,2.4,3.3,3-2.2,1.3-.4,5.6-1.2,5.9-1.5,1.2-1.1-5.2-4.6-5.9,1.5ZM1299.6,161.5c-.3-.5,3.1-10.4-3.7-8.9-4,.9-.7,11.8-9.7,8.9,3.1,7.4,8.6,2.3,14.5,3.9,23,6.1,40.4,27.9,56.6,42.8,1.5,1.4,13.8,12.1,14.8,11.1-5.9-7.6-11.4-17.5-17.8-24.4-3.9-4.3-24.3-25-27.8-27.5-6.1-4.4-26.3-4.6-27.1-5.9ZM1090.7,154.1c-12.8-.5-3,14.2-.3,6.4.7-1.9.2-4.4.3-6.4ZM1284.8,157.1h-7.4s0,1.5,0,1.5l7.4,1.5v-2.9ZM1077.4,160c-.9-.7-13.6,3.4-15.8,4.2-7,2.5-21.2,11.9-25.6,13-3.4.8-8.8-2.5-12-.2-1.6,1.2-1.1,4.9-2.2,6.6-4,6.1-10.6,6.9-16,10.8-26.1,18.9-51.2,39.8-74.8,61.5-13.2,12.1-27.7,25.2-38,38.9-7,9.4-17.2,18.7-16.9,31.2,3.9-2.8,7.3-11.1,10.3-14.1,2.3-2.4,6-2.8,7.1-4,1.6-1.8,1.4-6.6,3.3-8,1.8-1.3,5.4,1.5,6,.9.2-.3,0-4.2,1.4-6.8,1.1-2,15.9-22.1,17.1-23,4.4-3.2,8,0,12.7,0l-3-7.4c6.9.9,10.7-8.4,13.3-9.7,2.5-1.3,6.3,2.2,9,.2,2.5-1.8,0-11,5-14.3,3.5-2.4,8.3-.5,12.7-3.6,4.2-3,3.6-8,6.6-11.2,2.8-2.8,11.4-6.1,14.9-8.8,12.3-9.5,15.5-12.2,28.5-19.2,14.3-7.8,27.6-17.5,42-24.4,1.6-.8,3.8.5,5.1-.7,2.1-1.8,2.1-6.4,4.4-7.6.6-.3,1.1,6,3.7,2.9.3-.3-1.9-5.4,1.5-7.4ZM1210.7,164.4c-.6-4.6-9.3-1-10.4,1.5l10.4-1.5ZM1262.5,166l-7.4-1.5c.9,3.4,4.7,3.1,7.4,2.9v-1.4ZM1358.8,192.6l5.9-2.2c-5.4-9.6-8.9-23-22.2-23,2.9,10.7,22.2,12.1,16.3,25.2ZM1340.5,236.1c-18.7-14.2-40.5-49.7-64-53.7-17.1-2.9-32.5-1.3-48.8-1.6-15.5-.2-30-2.7-45.8-1.5-3.6.3-20.8,2.4-23.4,3.3-5.1,1.9-7.1,9.1-16.8,9.9-9.2.8,1.7-3.9.9-7.3l-11.8,3c-1.3,4.6,3.8,2.3,5.3,4.3,3.6,4.9-3.7,6-7.4,7.5-3.1-.6.2-8.4-4.5-7.4-3.5.8-4.3,9.2-5.5,10.1-3.8,2.8-23.4,5.3-19-4.2-7,.1-12.6,8.1-19.2,4.5v5.9c.3.4,6.2-3.1,7.4.8.3.9-8.4,2.2-2.2,6.6,4-10.4,23.8-10.9,15.6,1-1.7,2.4-7.2.4-10,2.5-4,3-9.5,14.6-17.4,18.9-7.2,3.9-18.1,1.8-25.2,10.3-.7,4.4,7.3-.7,8.1-1.5,1,3.9-3.8,4.4-5.4,6.4-22.4,27.1-46.9,39.5-67.2,69.9-2.6,3.9-40.8,45.2-43.6,46.8-2.9,1.6-5,1.7-8.2,1.4-.6,5.2,5.4.9,1.8,8.5-5,10.8-13.8,19-19.3,28.1-7.2,11.8-13.3,25.5-20.4,37.4-5.5,9.1-21.2,27.5-24,35.3-5.5,15.5-10.3,32.8-16.2,47.4-7.8,19.6-18.4,37.4-20.5,58.2l-12.6,38.5v-6.7c-7-6.6-5,3.9-5.2,8.4,0,1.3-2.2,3-2.1,3.5.1,1.6,4.6.9,4.5,4.3-.2,4.4-5.2,6.9-5.7,9.3-.5,2.2,1.4,7.2,1.1,11.4-.3,3.9-7.1,21.9-5.8,23.2,5.8-.4,11.2-2.6,17-3,22.3-1.4,59.6-2,81.5,0,12.4,1.2,23.3,8.4,36.3,4.4l-4.4,4.4c5.1,1.7,4.8-3.8,7-4.4,1.7-.5,7.6-.9,9.8-.9,25.6-.6,54.1,7,80,7,3.9,1.2-.1,5.1,3.2,7.2,4.7.5,7.3-4.6,11.8-4.6.7,0,12.1,4.2,12.6,4.6,4.3,3.8-9.6,2.1-8.9,5.9,4.4.4,17.9.1,20.7-3,3.5-3.8-9.7-4.1-10.4-6.7,6.1-3.8,13,1.6,17.1,2.1,9.8,1.2,18.4-3.8,23.6,7.5,3.2,1.3,2.1-5.4,7.4-5.9,9.2,1.6,18.5,2.3,27.7,3.3,20.5,2.4,41.9,5.4,62.6,7,4.1.3,32.1,1.8,33.4.9,3.2-13.1,4-26.6,6-39.9,1.3-8.6,2-19.6,4.4-28.2.9-3.3,2-6.8,3-10,3.6-11.3,3.7-23.8,5.3-36.5.7-6,6.1-11.1,6.4-14.4.9-9.1-1.8-17.2.7-30.4,2.9-15.3,5.2-32,8.6-46.3,2.1-8.9,11.1-15.7,11.4-16.7,1.3-4.7-3.3-4.2-4.1-5.4-2.1-3.5,4-14.1,5.2-18.7,7.2-26.9,13.6-44.5,24.8-70,2.4-5.4,3.3-12.6,8.6-17.4,1.7-1.5,5.3-1.7,5.5-1.9.5-.7-2.6-2.4-2.6-4.8,0-4.9,9.4-22.3,12.4-27.6,1.9-3.4,8.7-10,10.2-13.5,4.3-10.9,7.4-21.8,12.9-33.1,1-2.1,5.5-5.4,5.4-7.6,0-1.1-3-2.9-3.7-4.8-5.1-13.8-8.3-28.4-15.7-41.4ZM1396.9,197.4c-1.3-.9-3.8-.8-5.5-1.9l3.7,7.4c3.6.4,4.1-4,1.8-5.6ZM1065.5,197.1c-2.8-.4-5.1,0-5.9,2.9h5.9s0-2.9,0-2.9ZM1406.2,223.7c5.6-5.3-1.6-16.7-8.9-17.8,2,4.6,3.4,11.8,5.6,15.9.7,1.4,1.1,3.9,3.3,1.9ZM1555.9,211.9l-8.9,5.9c5.7,1.3,6.6-1.5,8.9-5.9ZM1573.6,216.3c3.9,1.2,17.1,4.9,19.8,7.3,1.4,1.3.2,3.8,1.9,4.6,8.5,3.7,16.4,1.8,21.2-5.9-8.1-.1-12.3,5.2-20.7,1.4,0-2.7,4-1.5,5.6-3.4,1.3-1.6-.1-4.5,6.3-6.2-1.6-.4-5.9-2.2-6.7-2.2h-42.2v1.5c3.1,0,6.2-.2,9.3.4,3.1.6,5,2.4,5.5,2.6-2.3-.3-7.2,2.3-10.1,2.7-13.3,1.5-8.6,2.5-17,5.1-3.3,1-8.6.3-10,2.6,14.8,4.2,29.5-2.4,44.4-1.5l-7.4-8.9ZM1654.2,229.2c-7.1-7.2-11.6-12.3-22.7-14.4-1.5,5,4.6,6.6,5.6,9.9,1.4,4.8-1.2,10.5,1.8,15.2l-11.8-5.9c1.3,7-5.7,21.4-4.2,27.1,1.3,4.9,9.8,6.6,13.1,9.3,3.6,2.9,23.1,25.4,24.5,28.9,1.4,3.5-1.1,5.4-.8,7.8,0,.9,8.8,10.7,9.6,14.3.8,3.2-1.1,11.4-.7,11.8.4.4,3.4-.3,5.1,1.6,10.2,11.1,9.7,67.1,9.7,83h-8.9c1.2,7,1.8,12.7,6,18.6-7.6,9.1-3.1,4.6,0,8.7,4.1,5.5,13,51.3,12.7,59.1-.2,4.5-3.7,13.2-3.6,14.8.2,2.2,3.4,4.9,4.2,7.6,4.1,13.1,2.6,21.6,3.4,33.9.6,9.1,5.4,19,1,29.1,6.1-2.5,32.3-1.9,34.9-5.9,2.6-3.9-2-34.8-2.3-42.2-1.4-30.7,1.1-68.8-5.3-98.3-2.6-12.1-6.2-16.1-6.4-29.1,0-.9-2.7-.7-3-1.9-2.1-8.4-.8-22-3.4-30.5-1.8-6.1-6-15.4-8.5-22.7-1.4-4.1-5.7-10-6-13.4-.3-2.7,5.1-1.6,2.8-7-3-7.2-4.1,2.7-6.4-1-1.8-2.7-6.5-14.2-7.5-17.7-1-3.4,0-7.7-1.4-10.5-2.3-4.6-2.4,6.6-9,1.6-1.2-.9-15-24.8-15.3-26.4-.7-4.7,4-7.9,7.3-3.9v9.4c0,0,8.8-1.5,8.8-1.5-.1-3.8-3.7-5.2-5.2-8.9-3.1-7.2-4.5-14.6-2.2-22.2-2.7-.6-.9,2.5-1.5,2.9-2.8,2.4-5.5-8.4-7.2-2-1.7,6.1,2.7,9.7,2.8,15.4-10.3,1.7-7-3-9.8-7.3-2.4-3.7-7.6-7.6-6.6-12.5.1-.5,5.4-1.4,2.8-8.9-.4-1-11.4-10-8.6-12.8.2-.2,5.5-1,6-.7,1.9.9,2.7,4.9,4.4,6,1.3.8,3.7-.6,4.5,0,1.8,1.4,1.9,8.2,8.8,8.2,1.1-4.4-3.6-2.8-5.1-5.9-1.3-2.7-.6-7.3-2.1-9.5-.9-1.3-3.3-.6-4-1.3ZM1053.7,220.8c-4.8-4.2-6.7,8-1.5,3.7,1.1-.9,2.2-3,1.5-3.7ZM1047.7,226.7c-7.2-1.4-5.1,5-7.1,8.5-2.3,4-7,5.7-6.2,10.8,15.4-3.1,6.8-4.3,9-10.9.8-2.3,6.6-2.2,4.3-8.3ZM1539.6,240h22.2l-25.7-5.4c-48,1.4-95.5,43.5-124.7,78-34.5,40.7-39.1,72-53.4,121.5-13.9,48.1-27.4,97.3-37,146.7-1.3,6.7-6.4,31.3-4.9,36,.7,2.1,3.8,3.6,4,5,.3,1.7-2.4,3.2-2.4,5.4-.1,12.1,1,25-.5,37.3-1.1,9.2-5.9,34.5-8.9,42.7-.6,1.5-2.9.7-2.9,1.9,0,3.5,3.9,2.7,4.5,4.7,2.4,8.7-3.5,21-4.2,29.5-1.1,12.7-.7,27.8-1.8,41.2-.7,8.4-.1,6.9.1,14.9,1.7,45.7-3,92.8-3.7,137.7-.1,6.6,1.4,13.8.7,20.8-.6,6.4-5.9,17.5-6.1,22.2-.1,2.6,3.5,15.5,4.1,19.5.2,1.4-.3,13.9,4.2,12.4l9.5-51.3c8-67.1,11.1-133,25.7-199.5,7.7-35,6.9-69.9,11.3-105.6,1.1-9.2,1.7-23.1,3.1-31,.6-3,3.9-5.6,3.8-7.4-.7-14.6-4.3-29.3-2.4-44.3.9-6.9,8.4-23.6,8.8-29.9.2-3.6-2.4-6.4-2.4-10-.2-12.6,10.7-60.2,14.7-74,7.1-24.9,27-81.5,38.9-103.4,10.5-19.2,39-51.1,55.6-65.9,4.5-4,16.9-9,14-14.1-2.2,1.9-8.9-.4-8-3.7,18.8-14.5,40.1-29.4,65.2-27.4l-1.5-4.4ZM1592.9,241.5c2.4-3-22.4-9.8-25.2-3.7,8.1,2.1,16.5,5.5,25.2,3.7ZM905.5,260.8c1,1,8.2,0,7.4-3.7-1.3-5.7-10.8.3-7.4,3.7ZM954.4,314.1c-.6-.6-7.8-1.4-5.9,3.7,2.1,5.7,8.3-1.2,5.9-3.7ZM1698.1,329h-2.9v5.9h2.9v-5.9ZM862.6,340.8c-8.6,1.7-12,6.2-11.8,14.8l11.8-14.8ZM838.9,346.7c-4.4,4.4,8.8,8.9,8.8,3.7,0-2-7.4-5.1-8.8-3.7ZM781.1,380.8c3.5-4.8-7.4-9.3-5.9-.8.4,2.5,5.4,1.5,5.9.8ZM822.6,392.7c-5.6-1.8-8,6-3.7,4.4.9-.3,3.4-3.1,3.7-4.4ZM766.3,406c-2.8-.5-4.9,1.7-4.4,4.4h4.4s0-4.4,0-4.4ZM787,422.3c.8-6.2-1.2-8.2-7.4-7.4-.8,6.2,1.2,8.2,7.4,7.4ZM822.6,426.8c-5.2-.3-9.5-2.7-13.3,2.2,2.4,4.6,6.2-1.6,7.3-.7,1.3.9,1.7,10,6-1.5ZM795.9,456.4c3.9.4,5-2.6,4.4-5.9l-4.4,5.9ZM764.8,480.1l-7.5-.9-1.4,6.7c5.5,2.2,8.5,0,8.8-5.9ZM1455.1,508.3c3.9-2.7,5.1-16.7,2.2-20.7-2.6,2.5-1.3,7.7-3,10.3-1.4,2.4-15.7,5.8,0,5.8l.8,4.6ZM1447,528.3c2.4-3.9,5.9-6.5-2.3-8.9-6.9-2-2.9,4.1-3.1,7.1-.3,4.4-2.5,9.3-1.3,14.2,4.7.8,2.9-6.9,4.5-10.7.5-1.1,1.8-1.3,2.2-1.8ZM798.1,523.8c-1-1.2-.2-2.6-2.2-2.2-1.4,7.8-2.4,16.1-8,22.1v17.8c2.3-5.3,10-13.4,10.7-18.8.3-2-2.5-3.3-2.4-5.4.2-4.8,7.6-6.4,1.9-13.6ZM755.7,530.7c-.1-.2-3.3-1-4.2-1.7-.4,2.7,0,4.4,2.2,5.9,2.5,1.2,3.1-2.6,2-4.2ZM1450,532c-3.6.8-2.6,8.3,1.4,7.4,3.6-.8,2.6-8.3-1.4-7.4ZM736.6,551.2c1-5.4-2.1-8.7-7.4-8.9,1.9,3,2.7,9.1,7.4,8.9ZM1459.6,580.9c-3.9-11.1,5.4-17,0-28.2-10.7,2.8-5,4-5.9,9.5-.3,2.2-3,4-2.7,5.8.6,3.7,6.9,5.3-1.7,9.2l10.3,3.7ZM1449.2,558.7h-4.4s1.5,5.9,1.5,5.9h1.4s1.5-5.9,1.5-5.9ZM727.7,560.1c-2.3-.1-7.9,1.5-9.4,2.9-1.4,1.3-.6,3.5-1.3,4.1-1.2,1.2-16.3,2.8-11.4,10.6.2.3,6.1,3.1,6.5,3.1,2.6-.1,2.4-7.5,3.6-9.6,3.3-5.4,10.4-5.5,11.9-11.1ZM791.5,570.5l-3.7,1.4-.7,4.5c.7,1.4,3.7-4.7,4.4-5.9ZM1459.2,605.8c2.2-1.5,1.9-19.5-3.4-20.5-15.5-2.8-5.3,19.9-20,16.4v5.9s13.3-1.5,13.3-1.5l-3,5.9h7.4c2.4-3.2-4.7-3.1-2.9-4.4,1.7-1.2,7.1-.8,8.5-1.8ZM1409.9,586.8l-2.2,2.2,5.2,5.2,2.2-2.2-5.2-5.2ZM1361.8,595.7c2.6,2.2,6.8-4.9,2.2-5.9-3.8-.8-3.5,4.8-2.2,5.9ZM1770.7,592.7h-4.4s0,14.8,0,14.8c3.7.3,2.5.4,2.9-2.2.3-1.8,2-12.2,1.5-12.6ZM1360.3,603.1c5.6-.1,5.2-4.5,0-4.4v4.4ZM752.9,606.1c-12.5,6.7-25.2-2.6-36.3-1.5-5.3.5,2.3,6.2,6.1,6.9,1.5.3,3.7-1.2,5.4-.7,2.8.7,4.4,5.7,7.7,5.7,3.5,0,8.1-10,17-4.5v-5.9ZM694.4,616.5c-7.5,0-1.1,18.7,7.3,16.2,5.7-1.7-6.3-16.2-7.3-16.2ZM1456.6,623.8l-1.5-4.4-7.4,3,8.9,1.4ZM1483.3,623.9l-8.9-1.5v3s8.9,0,8.9,0v-1.5ZM754.4,623.9c-9.2,1.4-14.1,11.9-22.2,11.8,1.5,5.3,6.6,4.3,4.4,11.8,9-4.3,7.6,4.1,5.9,11.1l1.5,1.6,3-.8v11.9c10,3.2-.1-17.8,3-20.8.5-.5,5.4.5,5.9,0,.2-.2.2-5.7,0-5.9-3.3-3.5-6.3,6.8-8.9,4.4-4.9-10.4,5.2-15.8,7.4-25.2ZM1444.8,628.3c-1.8-4.4-8.3-1.3-11.8-2.9-.7,6.5,8.5,2.2,11.8,2.9ZM736.6,660.9c-6.9.1-4,8.9-4.4,13.3,5.7-2.3,4.5-8.2,4.4-13.3ZM745.5,686.1c.3-5-5.1-5.4-8.2-7.4-.3,6.1-8,5.1-2.7,10.5l10.9-3.1ZM926.3,687.6c-11.2-2.3-6.8,6.3-13.3,11.1,5.5,2,7.4,3.9,8.9,9.6l-115.6-5.9c-1.1,6.6,3.1,11.7,4.4,17.8-5.5,1.3-13-7.1-14-11.7-.4-1.8,1.2-5.6.7-6.1-.7-.6-16.4-.4-18.2,0-1.2.3-1.2,2.7-2.8,3.4-9.2,3.7-48.9-4.2-50.1,9.2-2.1,23.9,30,20.9,46.7,20.1,60.4-3.1,121.5,1.3,182.1,5.9,14.2,1.1,16.8,3.2,31.3,1.6,18.4-2,56,7,76.9,8.8,18.1,1.5,35.5-1.6,54,3.7,2.1.6,4.2,3.3,5.4,3.5,1.9.2,3.3-2.4,4.2-2.4s10.3,6.3,15,6.7c2.1.2,5.2-2.3,8.6-2.7,3.7-.4,27.3.9,28.7,3.2.8,1.3-.4,4.8.3,5.6.8.9,22.5,4.7,23.4.7l-.5-9.5c6.5-.4,11.6,6.2,13.3,11.9,1.1,3.9-7.6,10.3-3.7,14.1,1.5,1.4,7.3,3.1,8.8,2.1.8-.5,1-6,1.9-7.8,1.1-2,3.3-2.1,4-3.7,4.9-10.2-2.5-16.8-1.4-23.2.7-4.2,9.1-6.3,6-9.7-.6-.6-14.9-2.7-17.1-3-19.3-2.2-39.5,1.8-58.8-3.3-15.1-4-23.1-3.7-38.7-5.8-30.2-4-60.5-10.7-90.8-14.4-31.2-3.8-63.4-3.7-94.5-7.8-1.5-.2-4.5-.8-5.3-2.1,1.9-1.5,2.8-4.3,4.5-5.9,2-1.8,5.7-1.3,5.8-3.8l-12.6-5.9,2.2-4.4ZM732.2,702.4h-4.4s1.5,4.4,1.5,4.4c.6.7,3.9-2.6,2.9-4.4ZM1061.1,702.4l-7.4.7c1.7,2.5,4.6,2.5,7.4,2.2v-2.9ZM1056.6,708.3c-5.2-.8-6.2.9-2.2,4.4l2.2-4.4ZM871.5,742.4c-.8-2.9-3.2-3.3-5.9-2.9v2.9s5.9,0,5.9,0ZM1077.4,763.1c22.7.2,5.4-15.4.7-5.9-.9,1.9-.9,3.9-.7,5.9ZM699.6,791.3h-5.9s0,2.9,0,2.9l5.9-1.5v-1.4ZM720.3,792.8h-5.9s0,5.9,0,5.9c3.6.6,4.6-3.3,5.9-5.9ZM1074.2,813.3c-4.1,2.6-25.7-3.5-31.6-4.2-11.9-1.5-25.6-1.6-37.8-3.6-19.1-3.1-37-2.6-56.4-4.5-4.5-.4-9.3-3.5-14-3.9-19.1-1.4-42.8,1.6-62.2,1.7-5.7,0-10-3.9-11.9-4-2.7,0-9.5,3.1-16.4,2.5-3.6-.3-7.7-3-8.5-2.8-1.7.3-3.6,3.4-6.3,3.8-6.9.9-14.3-5.7-21.2-3.9l6,124.9c1.8,5.4,25,2.6,29.9,4.2,4.7,1.5,2.3,7.9,7.9,8.2,3.9.2,5.9-2.6,9-3.4,4.4-1.2,20.8-4,24.7-3.2,1.8.4,3,3.4,4.6,3.6,2.5.3,6.8-3.4,9.2-3.6,2.4-.2,4.6,2.4,7.3,2.6,4.7.5,11.5-2.5,17.8-1.6,2.9.4,1.9,3.2,2.9,3.1,2.2-.1,3.5-2.6,6-3,15-2.2,27.8,4.7,41.4,4.5,6.9,0,15.6-4.1,22.1,0,1.7,1.1,2.1,4.2,3.2,4.4,4,.7,5.4-3.9,7.5-4.3,1-.2,16.8,4.8,20.7,5.2,3.9.3,9-1.2,14.4-.8,10.2.9,10.7,7.9,17.9,8.8,9.3,1.1,13.1-6.7,21.5-3.1-4.5,14.5,6.1,1.5,8.1,1.3,7.1-.7,28.9,5.3,38.5,6.1,6.2.5,14.8,1.4,20.7,1.5,4.4,0,10.9-3.1,16.1-1.6s1.6,3.8,3.3,4.3c2.6.6,9.5-3.2,15.5-.5,3.6,1.6,1.2,5,1.5,5.1,2.4,1.6,7.5-6.7,11.5-7.2,2.8-.4,4.1,2,5.6,2,4.6.2,10.4-.7,14.8-.7,1.5,0,14.8,3.5,11.9-1.6-1.3-2.2-4.4,0-5.1-8.1-.8-8.8,5.3-20.9,5.3-25.2,0-3.1-4.3-5.1-5.1-7.7-3.3-11.3,4.5-34.2,3.8-44.6-.3-3.9-2.4-7.1-2.4-10,0-5.8,4.7-19.2,4.4-26.7-.4-8.4-5.9-1.8-12.9-.9-4.7.6-32.9.9-34.4-1.5-1-1.7.2-6.3-.2-8.7h-7.4s0,8.9,0,8.9c-.8.8-11.9-.8-13.8-1.8-2.9-1.5-2.7-5.2-6.2-5.7-5.7-.8-5.4,4.4-10.2,4.6-8.2.5-32.3-3.2-41.2-5-5.7-1.1-14.5-3.4-19.8-5.4-3-1.1-4.4-3.9-5.8-4.5-3.3-1.5-2.5,4.8-3.9,5.7ZM682.5,803.2c-3.3,2.4-3.3,7.8,0,10.3l6.6-6.6-6.7-3.6ZM701.2,819.4c3,1.1,3.9-2.8,5.8-3.7,1.6-.7,7.1,1.8,7.3-1.4.6-7.8-14.4-5.2-17.7,0l4.6,5.1ZM1200.3,813.5h-4.4v2.9h4.4v-2.9ZM667,877.3h-7.4c-.4,2.1.6,3.2,2.3,4.4h2.8l2.3-4.4ZM720.3,877.2c-10.5-.8-5.2,3.2-6,6.6-.8,3.4-4.7,5.9-2.2,9.7.4.6,4.2,2.9,4.5,2.9,2.5-.2,1-10.6,3.6-12.7v-6.6ZM707,883.2c-1.8-1.3-6.8,3.4-5.9,5.9h7.4s-1.5-5.9-1.5-5.9ZM730.7,893.5c1.5-1.5-2.9-5.9-4.4-4.4s2.9,5.9,4.4,4.4ZM690.7,892.1h-5.9s0,1.5,0,1.5l5.9,1.5v-2.9ZM754.4,903.9c.4-3.5.2-7.8-4.4-7.4l-1.5,7.4h5.9ZM1207.7,986.9h-26.7l-3-13.3c-5.3,1.1-7.6,3.8-9.5,8.8-.4,1,1,2.8.6,3.1-1.5.9-11.5-3.5-14-3.7-9.7-.7-24.4,6.4-34.1,5.9-1,0-3.5-.3-3.7-1.4l7.4-3.7c-4.1,1.3-9.6-1.5-12.7-1.4-4.7.3-3.4,5.5-7.3,5.9-17.7-.4-35.2-1.9-52.6-4.6,3.3-13.2-13.2-3.3-20-3.3-4.2,0-11.4-3-14.6-2.7-.8,0-6.5,8.7-14.2,2.9-1-1.4,2.3-6.6,1.4-9.4-1.1-3.3-5.9-.9-5.8-3.9,8.4-.9,14.7-1.9,20.7-8.2-9.2-1.5-5.5-7.7-5.9-8.1-3.2-3.5-17.3,3-23,3-6.2,0-12-2.7-17.8-3.1-3.2-.2-6.3,1.8-8.8,1.6-1.8-.2-14.6-5.8-19.3-6.1-4.6-.3-6.8,3.5-9.9,2.9-4.7-1-12.1-5.6-15.6-6.8-5.7-1.8-16.8-.9-23.3-.5-3.5.2-10,2.8-12.3,1.2-.6-.4-.2-2.4-.4-2.5-.3-.3-3.7,3-8.1,3.1-6.6,0-14.8-4.3-19.4-4.6-4.2-.3-7.9,3.3-13,0-1.6-1-1.3-4.3-4.7-4.6-2.9-.3-6.5,2.7-10.3,3.1-3.8.4-11-1.4-12-1.2-2.4.5-1.3,5.2-3.1,5.7-11.9,3.4-29.6-5.2-39.8-4.6-3.6.2-6.1,2.8-9,3-10.2.8-40.6-5.1-28.8,11.9-4.8-3-10.3,4-8.6,9.4,3.2,10.5,51.4,13.2,62,12.9l-1.5,2.9c9.1.3,18.3-.4,27.5,0,10,.4,16.6,0,26.5.2,83.3.9,176,13.8,258,22,31.9,3.2,68.4,1.3,96.4,18.4,1.1.7,1.6,3.6,2.7,3.9,5.2,1.4,2-5.6,2.2-5.8.6-.6,3.8.6,5.4-2.2,2.1-3.6-1.3-20.4,2-26ZM1016.6,945.4c-1.3-9.7-9.9-4.4-15.2-4.8-4-.3-10.7-4.9-13.7-5-.8,0-13.9,1.1-14.7,1.2-1.9.4-3,3.2-4.6,4.2-2,1.3-5,1.2-5.2,1.4-.8.7-.9,3.3,2.1,2.8,4.6-.6,6.3-.5,10.5-.6,1.2,0,2.4-2.1,4.1-1.9,10.2,1.5,15.2,7.1,28.1,4,1.2-.3,1.3-4.7,8.5-1.4ZM930.7,938l-8.9,1.5v1.4s8.9-1.5,8.9-1.5v-1.4ZM1056.6,954.3c-2.4-2.2-9.6,5.1-10.4,7.4,2.7,1.3,12.6-5.4,10.4-7.4ZM662.1,957.5c-4.1,1.2-3.6,6.7-5.5,8.1-1.3.9-6.8-2.2-7.4,1.4-1,5.4,14.2,6.6,14.9,6,1.6-1.3,1-4.8,2.2-6.7,1.2-1.9,5.8-2.4,5.1-5.2-2.2-2.5-6-4.5-9.3-3.5ZM714.3,964.8c-6.1-2.7-4.5,10.7,2.3,8.8,4.7-.9-1.8-8.6-2.3-8.8ZM1190,970.6c-3.9-4.8-17.9-6.7-9.5,1.3l9.5-1.3ZM1044.8,970.6h-8.9v1.5h8.9v-1.5ZM1109.9,970.6h-8.9v1.5h8.9v-1.5ZM1136.6,973.6c-2.8-.7-10.6-3.5-8.9.7,1.4,3.4,8.1,3.1,8.9-.7ZM1108.5,981l-.7-4.4-12.6,7.4c6.2,2.1,6.5-1.8,8.6-2.9,1.2-.6,4.3.3,4.8,0ZM858.1,979.5l-4.4,2.2,2.2,2.2,2.2-4.4ZM1219.6,994.3c-4.9-3.5-8.4,18.9.8,17.9,6.8-.7,1.6-5.1,1.2-7.2-.4-2-1.2-10.1-1.9-10.7ZM1172.2,1009.1l-5.9,1.5v1.4s3.7,1.5,3.7,1.5l2.2-4.4ZM812.2,1031.4c13.9,1.6,13.8-7.5,0-5.9v5.9ZM834.8,1047.3c-1.1-.6-2-5-4.8-6.3-3.6-1.6-10.6-.8-14.8-2.2l1.5,4.4c-4.8-.5-7.6.7-8.6,5.6-.3,16.7-.4,34.8-1.8,51.5-.6,7.9-4.5,17.8-4.5,25.2,0,5.7,2.9,11.8,3.1,17.7.6,14-1.1,28.6.2,42.1,58.5,2.6,117.1,6.9,175.2,13.7,5.3.6,11.3,3.2,16.9,3.9,19.3,2.3,38.6,4,58.1,4.9l-2.9,2.2c4.8,7.2,7.9,1.2,12.7.7,3.4-.3,6.6,1.6,10.2,1.5,4.8-.1,9.5-3,14.8-3.1,15.1,0,37.5,4.5,53.4,5.9,9.8.9,25.6-.5,34,1.6,3.4.8,4.7,3.9,6.2,4.2,2,.4,4.3-2.4,7.1-2.6,3-.1,7.3,2.2,10.7,2.2,5.1,0,11.3-1.9,16.8-.9,1.1-11.8-2.2-23.4-2.4-35.1-.6-34.2-.8-69.1,6.5-102.4-1.9-3.3.2-16.7-1-17.4-7.9-4.5-12.8,2.3-20,2.3-5.9,0-16.1-5-20.8-4.5-5.6.6-16.2,5.7-21.2,7-9.1,2.4-11.9-3.7-17.5-4.1-4.2-.3-7.9,3.3-13.1,2.9-3.9-.3-8.2-3.8-12.8-2.9l1.5-4.4h-11c0-.1-1.6,4.5-1.6,4.5-5.5-1.8-13.5,1.5-17.8,1.3-2.6-.1-5.7-4.3-8.9-5.7-12.7-5.4-27-6.5-40.6-7.6l3,5.9c-3.6-.9-8,1.8-11.1,1.5-6.1-.6-15.5-4.5-20.9-5.8-8.4-2.1-24.9-3.2-34.2-4-11.1-1-16.2.6-26.4,1-2,0-15-1.1-15.6-1.6-.8-.7,4.9-7.1-3.7-7.5-4-.2-6,2-8.8,2.4-3.7.5-9.6-3.7-7.4,2.2l-1.5,1.5c-7-4-11.6.8-17.7,1.5-11.6,1.4-30.3-4.6-41.8-4.4-4.2,0-9.6,5-16.4,1ZM724.5,1140.8c1.7-2.9-1.1-7.7-4.2-8.6,2.1,8.1-5.6,10.7-5.9,17.8,5.1,1.1,1.9-3.3,3.3-5.6.8-1.3,6.2-2.6,6.8-3.6ZM723.3,1178.1c1.5-4-3-8.3-2.9-11.1.1-2.4,3.2-3.4,2.4-6.7-3.2-12.9-17.1,0-12.6,6.5,3.2,4.6,9,2.6,2.8,11.3h10.4ZM707,1185.5c-10.1,2.1-15.5-3.5-23.7-5.9l-3,11.8c9.5-.6,20.2,3,26.7-5.9ZM724.8,1188.5h-4.4s0,7.4,0,7.4c4.5.4,4.8-3.7,4.4-7.4ZM1372.2,1191.4c-.8-2.9-3.2-3.3-5.9-2.9v4.4s5.9-1.5,5.9-1.5ZM818.1,1210.7c-.8-5.1-8.3-.9-5.9,1.5l5.9-1.5ZM701.1,1209.2h-19.3c-.7.7,1.2,18.3,1.7,19,.2.3,6.8,2.7,7.2,2.5l10.3-21.5ZM1195.9,1238.8c-31.8,2-63.7,1.9-95.6,1.4-9.1-.1-18.5.9-27.9,0-43.5-4.7-87.8-8-132-10.2l-155.5-16.4c-1.5.4-.6,3.3-1.6,4.5-3,4.1-34.7-1-41.8-.9-12.2.2-29.4,2.3-12.2,14.9,3.6,2.6,9.2,3.4,11.7,6.8-5.9,1.3-17.3-3.2-20.8,2.6-1.8,2.9-1.1,6.4,1.6,8.5,5.8,4.3,40.7,7.8,49.5,8.3,12.3.6,64,1.6,71.9-3.8,3.3-2.3,2.5-6.4,3.9-6.7,1.6-.4,11.8,1.8,16.2,1.7,7.1-.3,16.8-3.3,23.7-3,5,.2,14.5,3.9,16.2,3.8,44.5-2.7,94.3.5,139.1,5.2,28.6,3,60.7,2.9,89.6,9.7,3.5.8,5.4,5.1,13.1,4.5,19.8-1.5,24.7,1.2,42.8,3,4.8.5,12.2-1.1,17.6.5,3.6-1-4.4-5.9-5-6.9-5.1-7.9-5-18.2-4.6-27.2ZM1259.6,1222.5c-.9-3.3-4.6-3.2-7.4-2.9v1.4s7.4,1.5,7.4,1.5ZM1061.1,1225.5l-2.2-2.9-3.7,2.2,5.9.7ZM1216.6,1259.6c1.2-4.5-1.3-10-1-13.8,0-1.3,2.8-2.9,2.5-4.6-.6-3.7-13.3-1.9-16.3-2.2l14.8,20.7ZM886.3,1310c-3.3.1-10.3-.9-11.8,2.9,3.3-.1,10.3.9,11.8-2.9ZM698.1,1323.3l2.9-2.2-2.2-3.7-.7,5.9ZM806.3,1321.8l-4.4,2.2,2.9,6.7c3.4.3,1.8-8.5,1.5-8.9ZM1375.1,1433c-6.3,0-5.8,7.7,0,7.4v-7.4ZM662.6,1511.5c-8.8.1-15.7-2.6-24.5,0-1.6.5-4.8.2-2.2,2.9,1.4,1.5,10.7,1.7,13.3,1.5l-4.4-1.5c-.7-8,16.1,3.4,17.8,1.5v-4.4ZM1233.7,1516c-3.6.8-3.4,10.6,2.9,8.9,4.3-1.2.4-9.6-2.9-8.9ZM481.8,1529.3c-1.1-.9-5.9.7-5.9,2.2,0,4.5,8.8.3,5.9-2.2ZM1087.7,1572.3l-11.8-1.5c.7,3.5,10.5,4.6,11.8,1.5ZM1100.9,1573.9c-.3-.3-7.2-1.1-8.8-1.6,2.1,11.9,13.7,6.8,8.8,1.6ZM1123.3,1581.2c-6.4-3.1-27.2-10.6-13.3.8l13.3-.8ZM1581.1,1664.1c10-4.6,3-16.3,1.6-24.7-.5-2.9.9-5.7.5-8.1-3-19.3-28.5-34.8-45.2-42-8-3.5-16.6-6.2-25.1-8.2-2.4,2.2,13.2,11.1,14.8,12.6,12.8,11.1,42.4,38.5,46.7,54,1.1,4,.7,7.9.7,11.9l3.7-2.9,2.2,7.4ZM1591.4,1612.3c1.3-1.1-20.9-23-25.2-22.2,3,2.9,22.6,24.4,25.2,22.2ZM1485.8,1606.8c-9.5-2.3-17.4-1.5-26.6-5.2-5.9-2.4-12.2-9.4-15.2-10-6.1-1.2-12.3,2.3-18.5,1.5l46,25.8c6.6,8.5,14.1,16.1,18,26.5,4.1,11,.7,6.7-1.4,10.2-3.1,5,2.2,4.2,4.9,5,1.5.4,2.3,1.9,2.9,2.2,1.5.6,15.4-26.1,13.7-30.2l-23.8-25.7ZM1509.9,1621.2c2-2.3-8.1-16.9-13.3-14.8.9,1.7,11.4,16.9,13.3,14.8ZM1477.3,1661.2c1.5-14.8-1.6-35-17.8-40,1.9,4.6,5.9,6,7.1,11.4,1.9,9.3-.8,24.3,10.7,28.5ZM778.1,1625.6c-3.2-3.4-12.1-.5-10.4,5.9,5.5-.2,3-7.7,9.7-3,1.2.2.8-2.8.7-2.9ZM760.3,1647.8c2.2.5,9.9.3,8.9-3.7-1.3-5.4-9.1-.3-8.9,3.7ZM764.8,1661.2c-1.7-1.9-6.4,3.7-4.4,5.9,1.7,1.9,6.4-3.7,4.4-5.9ZM716.3,1758.5c-2.2-2-3.6-6.8-7.1-9.9-6-5.3-15.5-7.4-21.2-14.3-7.9-9.5-1.8-15.6-5.9-25.3-2-4.8-8.8-12.2-12.1-16.7-5.7,26-5.2,70.6,25.2,80.8,5.2,1.8,48.4,9.8,50.4,8.1.5-5.2-6-4.2-8.5-6.3-1.5-1.3-2.1-5-3.8-6.5-3-2.7-13.8-7.1-16.9-9.8ZM323.3,1713c1.9-1.7-3.7-6.4-5.9-4.4-1.9,1.7,3.7,6.4,5.9,4.4ZM1576.6,1716c3.3.6,6.3-.5,5.9-4.4l-5.9,4.4ZM436.9,1747.6c-1.8-1.4-6.3-2.2-8.4-4.9-.3,3.2-2.3,7.1-2.3,10.3,0,4.1,17.7,23.7,21.7,27.4,2,1.9,29.7,24.6,30.9,23.1.2-16-14.6-13.7-24.8-21.7-3.5-2.8-10.1-11.8-10.7-16.2-.4-3.4,1.6-10.3,1.3-10.8-.2-.4-3.2-1.1-4.4-2.3-1.4-1.5-2.2-3.9-3.4-4.8ZM739.6,1744.2c-9.2-1.6-1.8,6.4,0,4.4v-4.4ZM1326.2,1767.9l-7.4-3c-1.1,5.9,4.7,8.7,7.4,3ZM720.3,1793.1l-25.2-7.4,17.7,8.2,7.5-.8ZM787,1790.1c-.8-2.9-3.2-3.3-5.9-2.9.8,2.9,3.2,3.3,5.9,2.9ZM530.7,1834.5c-12.7-10.2-26.5-18.4-37-31.1.3,20.6,21.6,24.3,37,31.1ZM781.1,1810.9c-8.4-1.9-16.5-6.1-25.2-5.9,4.5,4.1,14.5,6.2,20.4,7,1.6.2,5.1,1.7,4.8-1.1ZM773.7,1822.7c-.6-3-3.1-2.4-5.2-2.9-8.5-2.2-17.2-4.6-25.9-5.9l21.8,10.1,9.3-1.2ZM877.4,1836c2.1-1.9-3-5.7-5.9-2.9,0,2.5,4.8,3.9,5.9,2.9ZM868.5,1834.6c-11.4-4-4.5,5.4,0,1.4.2-.2,0-1,0-1.4ZM616.6,1870.1c-1.3-3.4-5.6-4.6-8.9-4.4.9,2.5,6.5,4.1,8.9,4.4ZM862.6,1929.4c-4.6-1.6-11.3.1-15.2-.3-42.1-5.1-84.4-18.1-125.2-27.4-14.6-3.3-29.8-4.7-44.5-8.8-17.1-4.9-33.5-13.5-50.6-18.2l16.8,9.1c63.2,37.2,133.2,36,203.2,47.1l15.5-1.4ZM481.8,1887.9c-.9-.6-13.9,4.8-5.8,9.5,6.7,3.9,25.7,6.2,34,8.2-2-2.3-7.8-7.5-10.3-8.3-4.8-1.4-7.7,2.3-12.4-.7-3.4-2.1-5-8.4-5.4-8.7ZM468.5,1890.9c-11.2-3.1-12.6,2.4-2.2,3,3,.2,2.3-.4,2.2-3ZM565.8,1912.5c-6.1,3.6-6.1-.6-10.3-.5-2.7,0-6,2.5-9,2.2-3.4-.3-14.3-5.7-19.8-6.6-3.6-.6-7.2-.4-10.8-.3l73.4,22.2c4.5.2,1-1.6-.3-2.7-5.6-4.7-16.8-9.6-24.2-9.2,1-1.2,8-6.4,3.7-7.4-3.3-.7-1.9,1.9-2.7,2.4ZM901.1,1930.9c-11.4-2.3-22.6.5-34.1-1.5,7.4,7.3,22,4.6,32,4.2,2.5-.1,4.3-1,2.1-2.8ZM665.5,1936.8l-8.9-1.5c1.2,3.8,5.7,3,8.9,2.9v-1.4ZM686.3,1942.7c-2.3-2.4-6.8,2.1-4.4,4.4,2.3,2.4,6.8-2.1,4.4-4.4ZM750,1956.1c-13-.4-25.9-7-38.5-5.9-.8,4.6,1.3,2.3,3.6,3,8.7,2.5,19,4.1,28.1,4.5,1.6,0,7,1,6.7-1.5ZM782.6,1960.5l-31.1-3,21.5,4.4,9.6-1.4ZM872.9,1970.9c-5.7-2.3-10.7.3-17,0-12.6-.7-25.2-3.6-37.8-4.4l15.7,4.3c11.4.4,22.4,2.1,33.9,1.7,1.8,0,5.5,1.1,5.2-1.5ZM1100.3,1684c-1.6,1.7-5.4,4.4-5.8,5.3-3.7,7.4,3.1,15.8-7.1,21.2-15.6,8.3-27.5,6.7-42.6,9.4-4.4.8-10.5,6.6-15.9,7.6-20.2,3.7-44.6,0-59-15.9-8.6-9.5.7-9.9.9-11.4.2-1.9-2.1-4.7-1.5-7,2.1-8,43.9-6.2,53.1-12.2,9.2-6,5.1-24.2-5.8-28.1-6-2.2-14.9-1.2-20.9-2.8-4.2-1.1-7.1-4.7-11.1-5.3-10-1.4-19.5,7-28.7-5.2,3.1-3.1,7.4-5,11.8-5.2-13.8-19,12.5-8.3,20.3-7.7,5.3.4,11.8-1.8,18.8-1,23.8,2.7,66.8,22.2,85.9,37.1,2,1.5,9.1,8.7,10,10.8,3,7,1.3,6.4-2.4,10.4ZM846.7,1737.8c2.3,1.4,17.5,10.3,18.5,10.6,5.3,1.3,7.3-5.9,16.5-.4,5.6,3.3,6.2,11,7.5,16.9-10.9,6.8-16.5-6.3-22.2-8-3.3-1-8.9-.4-10.5-1.5-1.9-1.4-.7-5.2-1.6-6.5-1.1-1.6-15.4-3.9-13.1-15.1,3.6-1.1,3.5,3.2,4.8,4ZM1273.5,1665.1c.3.5,2.4.1,2.5,2.7.4,10.5-2.7,12.9-12.7,12.8-7.8-.1-8.8-.5-8.2-9,5.4-3.4,10.5,10.9,13.3,3.7,2.4-6.2-9.9-2.9-5.2-9.6,2-2.8,7.4-1.4,3.7-8.9,3.1-.2,5.6-.6,7.4,2.2-3.3,2.7-2.4,3.1-.8,6.1ZM1373.6,140.7c-1.5,1.8-13.5-10.1-11.8-11.8,4.2.2,15.7,7.3,11.8,11.8ZM1486.3,336.4l-1.5-12.6c8.4-3.5,6.8,9.7,1.5,12.6ZM1307,102.2c4.8,4.9-14.3,3-10.4-1.5,1.5-1.7,9.3.4,10.4,1.5ZM834.4,1730.8c.4.4,1.4,8.1-.7,8.9l-5.2-6.7c.9-1.9,4.9-3.1,5.9-2.2ZM698.1,838.7c-3.2,0-7.7.8-8.9-2.9,3.2,0,7.7-.8,8.9,2.9ZM847.7,1314.4v2.9c-2.8.2-5.7.3-7.4-2.2l7.4-.7ZM961.8,973.6c-.1,2.3-6.7,3-8.1,2.9-5-.1-11.1-2.4-16.3-2.9-8.6-.8-17.6-.9-26.1-1.9-1.6-.2-7.3-.4-7.2-2.5l57.8,4.4ZM985.5,976.6v1.5h-10.4v-1.5h10.4Z"/>
</svg>