<svg xmlns="http://www.w3.org/2000/svg" id="Layer_1" version="1.1" viewBox="0 0 2100 2100" class="mdl-js">
  <!-- Generator: Adobe Illustrator 29.6.1, SVG Export Plug-In . SVG Version: 2.1.1 Build 9)  -->
  <defs>
    <style>
      .st0 {
        fill: #252525;
      }
    </style>
  </defs>
  <path class="st0" d="M369.3,894.7c-1.4-4-3.4-5.8-3.3-10.5.3-10.5,4.1-44,6.7-53.5,1-3.9,4.2-5.1,4.7-7.1,1-3.9.3-31.3.8-37.8.3-4.2,4.9-10.7,5.7-17.4,3-24.4,3.9-49.6,9.1-74,4-18.8,14.2-42.1,20.7-59.2,3.1-8.1,19.2-47.7,23.7-51.3,1.5-1.2,2.3-2,4.3-2.3,20.5-3.7,40.2,1.7,60.1,4.8,22.3,3.5,43.1,6.1,64.9,13.4,22.2,7.5,46.4,22,66.3,33.6,10.6,6.1,20.7,16.5,28.2,21,8.2,4.9,19.3,9.7,28.7,15.5,6.4,3.9,18.4,9.3,22.4,12.6,2.5,2.1,19.6,24.1,23.4,20.8l20.5-75.3c24.9-56.9,47.8-116.2,75.8-172.3,13-26.1,29.5-47.5,42.9-72,1.8-3.3,1.9-8.6,2.7-9.8,1.7-2.4,12.4-2.7,14.3-4,1.4-1,14.8-26,18-29.5,6.7-6.1,14.4-19.1,22.4-22.6,12.3-5.5,19.1-2.3,31.7-.8l-1.7,8.3c5.7,2.5,14.9,1.7,19.9,4.3,9.8,5.2,23.9,20.6,32.8,25.5,26.4,14.5,36.9,26.6,59.8,41.8,8.8,5.8,25,11.1,31.5,20.1,1.6,2.2,1.7,7,2.9,7.9,1.7,1.3,7.9.4,10.8,2.5,7.4,5.2,16.9,22.4,21.2,26.2,11.2,9.9,19.4,11.5,28.2,26.7,5.4,9.5,4.5,13.6,12.4,20.8,17,15.5,13.9,15.7,25.2,33.2,5.2,8.1,14.6,17.3,19.3,27.3,1.9,4,1.9,9.8,3.3,11.8.9,1.3,3.5,1.4,3.9,1.8.3.5-2,4-1.2,6.9,1.1,4.1,7.6,11.1,8.1,18.9.3,4.4-2.7,9-1.4,12.8,1,2.9,6.1,3.5,7.3,6.1,2.2,4.6,1.6,15.7,2.9,20.7.5,2.1,3.5,2.2,4.7,3.9,5.1,7.3.3,7.8.2,12.9-.2,7.7,2.8,13.6,3.1,20.9h6.7s-1.1,22.9-1.1,22.9c-2,4.8-7,1.7-7.2,2l1.7,10c5-3.1,6.5-9.8,10-14.2,3.8-4.7,9.2-7.3,12.5-10.8,9.6-10.3,12.4-21.2,20.8-30.8,10.6-12.1,27.9-28.7,40-40,19.9-18.4,43.5-35.5,65.8-50.8l3.3,3.3c4.6-5.8,9.2-10.4,15.3-14.7,33.1-22.9,67.9-40.3,104.3-55.6,3-1.2,7.3-11.4,13.7-6.3.8,1.3-.7,4.6-.9,6.7-4.3,1.3-10,2.6-10,8.3h10c.2-2.7-.2-5.6,0-8.3,5.1-1.6,17.5-.2,14.1-10-4.3-.4-11,1.8-10.8-5,9.4-.2,21.1-11.4,29.2-11.8,4.8-.2,19.4,3.8,24.5,5.5,3.1,1.1,4.7,4.5,7.9,5.6,2.4.8,4.9-.7,6.7,0,7.1,2.6,12.1,11,16.6,16.5l-8.3,5c1.5,3.3,7.1,1.3,8.4,3.6,1.6,2.9,4,20,5.7,25.6,16.4,51.9,26.2,89.8,28.7,145.1.9,20.8,4.3,81.4-.2,98.2-1,3.8-6.7,2.5-3.9,10.3,1.1,3,4,3.2,4.8,8.6.5,3.4.5,13.4-.2,16.7-2.1,10.8-4.3,1.8-1.7,16.8,1.6,9.3,0,26.1-11.6,27.4,1.2,6.7,9.5,9.9,9.2,16.8-.2,5.3-6.5,25.1-8.8,31-1.2,3-6.6,14.9-7.9,17.1-1.7,2.9-6.6,3.6-7.3,6.1-1.4,4.7,7.2,7.9-.1,16.5l-9.2,10.7c-3.1.7-11.7-17.2-12.1,1.4,6.4,2.9,10.6,6.9,9.8,14.5s-12.1,11.3-13.2,15.3c-1.4,4.7,3.1,10.7.7,13.9l-15.3,3.1c-3.3,2.5,1.2,10.1-6.5,13.4-1.4-3.9-3.4-4.4-7.5-5.1l1.6-9.9c-12.5-2.5-17.2,14.6-3.3,6.7l-4.7,23.1c17.1,5.5-3.1,6.5-4.6,8.5.8,7.7,0,14.2-9,15.1l3.2,5.6-5.7,6-4.2-4.2-6.6,15.8c20.9-4.5,41.9-9.4,62.9-12.8,50.3-8.1,100.2-11.4,150.6-12.5,33.6-.8,67.3-3.6,100.3,5.5l.9-3.4,4.1,3.3c1.9-1.2,2.5-4.8,4.2-5.8,2.6-1.7,26.9,2.2,31,3.9,3.3,1.3,3,4.5,5,5.2,2.7.9,8.9-1.9,14.3-1.2,5.8.8,13.3,6.2,14.1,6.3,5.9,1.2,12.9-3.9,17.9-3.3,2.7.3,21.1,6.2,23.7,7.8,3,1.8,5.7,6.7,8.3,8.9,1.5,1.2,4.9,1.2,5.4,1.8.5.6-1.3,3.5-.8,5,.9,2.8,7.8,13.9,7.4,15.5-.4,1.7-11.2,6.5-8.3,9.3,1.6,1.6,6.6-.8,6.7-4.1,1.6-2.4,1.9-.2,1.6,1.5-1,4.8-3.8,9.1-3.3,14.3l-5-1.7c1.8,5.2-3,10.2-3.1,14.1-.8,23.4-5.4,20.6-15.9,39.4-2,3.5-1.9,10-5.2,13.1-2.9,2.7-8.2,2.2-10.8,5.9,10.5,3.3,1.1,16.4-5,9.2-1.9,6.5-4.7,17.3-8,22.9-1.8,3-9.8,8.3-10.1,9.1-.8,1.6,1.7,4.6,1.5,6.9,0,1-2.5,1.1-3.2,2.4-9.6,17.9-31.1,54.1-45.2,67.6-3.3,3.1-8.4,4.3-11.6,8.4-5.4,6.8-19,31.1-23.7,35.4-1.9,1.7-5.5,1.1-7.5,2.5-4.6,3.5-17.9,22-22.6,25.7-6.9,5.4-12,7.7-18.7,15.4-3.5,4-6.6,11.5-10.7,14.3-3.5,2.5-6.6,1.8-8.1,2.7-1.1.7-3,8.3-6.2,11.3-3.8,3.6-12.3,6.2-16.7,10-5,4.2-5.9,9-9.3,12.4-2.9,2.8-7.3,3.2-9.3,4.8-7.5,6.3-15.2,21.8-24.7,29.5-7.5,6-16.1,11-25.7,8.5-.9,14.8-8.9,14.3-16.7,20.8-7.3,6.1-22.3,21.4-30.6,24.5-4.5,1.7-8.3-1.2-12.8-.4l5,4.1c-2.4,6.4-9.2,4.2-9.7,4.5-.4.3-2.5,5.2-6.4,7.7-5.2,3.4-8.8,2.3-12.7,4-1,.4-9.5,6.3-13.1,8.1-5.1,2.7-5.7,9-12.2-1.8-.7,0-4.8,5.1-5.1,6.5-.5,2.5,3.3,2.7,1.1,5.9-2.8,4.2-13.4,9.6-18.5,10.8.7,2.2,8,3.8,10,4.3,24.2,4.8,32.1,9.8,52.1,22.8,4.2,2.7,33.7,19,29.5,24.6-4.7,1.7-10.3.2-14.9,2.6-8.2,4.4-22.1,23.4-31.9,29.8-22.4,14.7-50.4,26.7-72.7,38.9-9.2,5-22,15.7-30.9,19-12.4,4.7-29.8,6.6-42.1,11.2-28.8,10.6-49.9,21.6-81.1,28.8-65.1,15.1-152.6,19.7-218.8,6.4-61.5-12.4-123.5-39.1-178.7-67.8-13.9-7.2-33.4-23.3-45.2-27.3l-5-6.7,2,6.4c1,.8,2.4,0,3,.3-.5,3.9-17.3,8-21.6,8.4,0-3,.4-7.4-3.3-8.4-.8,5.9-4.9,10.1,0,15h-9.9s-2.6-6.6-2.6-6.6l-2.5,10-8.3-1.7v3.8c-5.3,4.9-3.8-3.7-8.3-2.1.8,10-21.2,11.1-29.4,11.5-2.7.1-6.8-1.5-7.1-1.3-.8.5-.6,4.1-5.1,5.7-24.4,8.6-79.4,17.1-105.9,19-54.1,4-106,1.3-159.5-8.7-54.3-10.1-105.7-31-158.2-46.7-11.2-3.3-11.4-6.4-18-10.4-4.7-2.8-15.7-3-23.1-8.6-4.3-3.2-6.2-8.8-9.3-10.9-3-2-5.1.4-7.5-.6-3.4-1.4-5.3-7.3-7.2-8.7-4.4-3.2-8-2.1-13.7-8.8-3.7-4.4-7-13.7-10-16.6-3.2-3.1-14.3-7.8-16.6-13.4-.9-2.2,1.2-4.8.1-6.6-1-1.7-5.5-2.6-7.4-6-3-5.3-2.9-17.5-9-23.5-1.1-1.1-4.3-.9-6.3-2.8-3.5-3.3-8.2-8.8-11.8-12.4l-4.7,1.5c-1.6-1.6,11.2-20.8,15-21.6l-1.6,6.7c8.3-1.3,4.9-8.8,7.5-13.3,2-3.4,28-20.5,30.8-18.4l-1.4,10.6c1,1.9,3.2,4.8,5.6,4.4,5-.9-2.1-5.3,1-9,2.3-2.7,4.9-2,6.1-3.2.7-.7.1-3.1,1.5-4.6,3.6-3.8,9.4-2.7,13.9-4.1-2.8-1.5-4.5-9.8-5.3-10.5-.9-.7-6.1-.8-9.6-2.9-6.1-3.7-9.7-13.4-11.8-14.9-28.1-20.4-44.5-29-68.8-56.9-9.4-10.7-13.5-15.8-24.5-26.3-9.2-8.9-10.6-21.8-16.5-29.8-1.1-1.5-3.6-.6-5.2-2.1-3.3-3.3-4.3-11.8-6.8-16.2-8.1-13.8-23.8-28.9-31.1-42.2-3-5.4-.1-8.7-1.1-12.3-1-3.8-5.8-6-6.7-8.2-.7-1.7,1-4.5-.5-7.9-2.3-5.5-11.7-12.1-14.3-19.3-4.5-12.9-8.4-28.1-13.7-41.2-1.6-3.9-5.7-6.4-6.8-9.8-11.1-35.3-25.1-71.5-25.2-108.8-.2-53.1,14.3-71.3,63.6-87.9,47.7-16,109.6-29.3,158.8-15.4,13.3,3.8,40,20.2,52,13l-6.6-30.1c-1.9-20.8-5.9-42-3.5-63.2.4-3.9,1.8-10.4,5-12.5,1,2.9,2.3,4.8,3.4,7.5l-5,3.4c5.3,5.1.7,7,0,12.5,5.1-1.3,6.7-10,10-.8-15.1,5.2.7,5-1.6,13.3l-6.7,3.4c2.2,6.7,3.3,5.9,0,12.5l9.8-1.7,2.6-6.6,5.8,3.3-1.7-9.1,3.4-4.3-5,1.7c-1.1-9.3,1.5-14.4,6.6-21.6l-5,1.6c.4-4.5,1.2-18.2-.8-21.7-2.8-4.8-3.4,5.7-7.5,3.3l-.9-5,4.2-3.3-6.3,2.7,2.2,10.6-4.2,1.7v-5c-.2-.3-2.7,1.3-3.3,1.7ZM947.3,478.3c.5-3.6-.4-7.9,0-11.7-6.4,0-8.3,4.2-8.3,10-3.3.8-4.7-3.4-7.5-3.4-2.4,0-4.2,3.4-6.7,3.4-3.1,0-9.4-7.7-14.1-.8l1.6,5c7.7-2.9,4.1,5.5,11.7,8.3-1.4,6.4-10,9-6.7,15.8l15-8.3-5,16.6c3.6-2.4,11.6,5.1,13.3-1,.9-3.2-3.1-6.7-3.3-10-.3-4,2.8-6.1,3-8.5.2-1.9-2.4-3.1-2-6.8.8-6.5,3.2-7.1,9-8.7-1.7,11.8-1.3,16.1.1,29.1.3,3.1,4.3,5.9,1.4,10.7l-6.3.3c-2,13.8-8.8,23.4-23.5,19.8.5,3.7,8.6,12.1,2.5,15l-2.5-5c-11.1-.4-3.3,5-1.8,8,.9,1.7,1.5,6.8,1.8,7,1.7,1.3,12.2-5,14.9.8-3.6,4.6-9.3,30.4-11.5,31.6-7.2,4-13.7-7.4-19.5-10.5-9.1-1.8-13,24.2-1.5,26.3,5.6-2.3,10.4-22.5,18.9-9.5l-3.1,12.9-5.8-3.3c-2.7,3.6-3.8,7-9,6.8l1.3,13.7-16.3,14.4c-.8-5.9-5.2-5.2-10.1-4.9l-3.4,15.7c3,2.3,6.3,3.4,8.3,7.1,1.8,3.4-1.1,6.4,2.6,8.8,3.2-3,7.3-5.8.8-7.4,2.5-11.7,8-9,16.6-14.2.8,1-7.5,20-8,24.6-.8,7.8,6.2,13.1-8.6,12.1v5c3.6-.5,5.8-3.2,8.3.8-6,6.7.2,14.1-2,22.9-1.9,7.4-10.9,9.2-13.2,16.1-15.6-4.2-18.2,13.7-26.2,23-.8,5.6,8.3,5.4,11.5,3,2.9-2.1,2.3-16.3,9.9-15.8l9.7,17.2-3.8,7.8-3.3-5-2.5,10,6.6-3.3c2.5,2.1-.4,14.3-2,17.2-2.8,5.2-13.1,8.7-8.1,18.7l6.7.8-1.7,11.6c-7.2-5.9-21.2,13.9-17.6,18.5l6.1,2.5c1.8,6.1-3.5,11.3-3.4,14.8.1,5.4,3.1,8.6-.2,17.9-.7,1.9-8.6,6-6.5,11.3l13.3-5-1.7,16.6c-11.2-2.8-22.2-6.7-20,10h-10c-3.1,3,12,16.9,12.6,19.8,1.5,7.7-9.9,17.2,1.5,23.4l4.2-13.3c2.9-3.7,4.8,20.4,5.4,22.1,1,3.1,4.5,3.5,4.8,8.7.3,4.7-3.1,10.6-1.8,15.9h-5.8c0,0-2.8,18-2.8,18l-4.7,1.9c1.2-9-3.8-9.3-11.5-8.1l-3.5,14.8c9.4-3.3,13,4,20,9.2-3.5,2.2-6,2.3-5,7.5h6.7s3.3,16.7,3.3,16.7c-4.1-1.7-8.2.5-11.7,2.8,1.5,9.8-8.4,15.6,3.5,21.7l-1.8,10.6-8.4-1-1.6,12.6c-4.4-.7-13.5-.2-13.4,5.9,0,3.6,11.3,6.4,3.5,15l2.6,2.4,4.9-1,2.4,2-1,10.9,9.2,1.6,2.6,8.2c6-8,7.7,4.3,4.3,9-1,1.4-3.7.7-4.5,1.5-6.6,6.4-.6,11.9-3.9,19.5l14-5.1c13.1,14.8-11.2,9.8-7.2,25l9.8,1.8c-1.8,3.9-5.5,7-10,6.7,1,5.7,7.3,12.8,4.2,18.3-1.5,2.7-3.2,1.1-3.8-1.3-4.9-5.3-1.8-26-10.9-18.3-11.6,9.7-8.6,21.9,1.4,7.9,9.6,11.6-4.1,22.8-4.2,34.9,8.9-2.7,5.2-15.1,18.2-7.4,9,5.3.2,28.2,1.7,36.5,1.1,6.1,12.4,15,13,17,.3.9,1.6,16.9,1.5,17.7-3.8,24.4,2.9,21.8,6.7,40.5,3.3,16.2-.3,12.1,10.3,26.6,7,9.7,2.2,19.4,3.6,27.9.7,4.6,5.9,10.5,3.3,17.6l4.9-1.7c1.3,9.4,8.2,18.9,10.6,27.1.9,2.9-.7,5.9.2,7.9,1.1,2.5,5.1,3.2,5.8,7.6.9,5.2-.2,10.3-6.7,9.1-1-5.1-1-10.8-1.7-15.8-.3-2.2-1-5.5-3.3-2.5.2,5.3-.7,10.3-6.4,11.9l-.3,2.2c1.5,10.7,13.9,11.9,16.3,14.6,2.8,3.1.2,9.7.7,13.3,1.7,11.6,11.4,12.1,12.7,20.9,1.2,8.5-5.6,12.5.4,20.4,2.1-.5,4.5-7.5,7.4-3.3,1.6,2.2,3.6,9.2,4.5,12.2.4,1.4,1.8,16.4,4.7,14.4,4.2-6.4,27.4-39.6,32.4-39.9,1.8,0,5.2,2.1,5.9,1.5,1.9-4.1-2.7-2.9-3-4.1-.3-1.2.9-6.2,3-5.8-1.2,6.1,2.2,4.7,6.7,6.7v-6.7s3.1,1.5,3.1,1.5c2.6-7.8,9.5-8.4,6.9-18.1,3.4.6,5.8,3.1,8.3-.9l-2.5-5.8-3.4,3.4-5.7-2.6,13.3-15.1,5,2.6c-6.5-15.4,8.5-18.7,13.2-26.1,1.4-2.2.2-5,1.6-8.1,1.2-2.5,9.8-14.7,12.1-18,4.1-5.9,9.6-10.9,12.3-17.8h5.8c-4.5-11.1,5.6-16.8,9.8-24.3,24.6-44.2,51.4-97.4,70.5-144.3,8.1-19.9,15.6-55.2,25-71.7,1.3-2.3,4.6-2.6,4.8-3.9.6-4.6-.8-11.8,1-18.5,17.3-64.1,31-130.4,38-195.4,1-9,5.7-26.2,5.7-34.1,0-24.8-11.3-61.4-15.9-87.1-8-44.6-13.9-71.6-26.7-114.9-6.7-22.7-8.7-43.7-18.1-65.2-4.8-11.1-18.3-24.9-9.1-37.6-10.5-3.6-10.7-14.2-15.2-23.1-8.2-16.1-15.6-33.8-24.5-48.8-10.7-18-23.7-29.3-35.9-45.7-10.2-13.7-19-28.4-31.1-40.6-5.3-5.3-41.8-36.3-46.1-37.3-4-1-8.7,3.2-13-1.7-2.8.2-5.8,18-6.9,21.2-2.3,6.4-6.1,13.1-8.4,19.9-4.2,12.3-5,24.7-12.1,36.3-1.9,1.5-5.1.3-6.7.7ZM895.7,501.6c1.5-1.1,2.6-9.2-2.5-8.3-5.6,2.7-.6,10.5,2.5,8.3ZM894,506.6c-9.5-.8-12.9,9.7-3.8,5.4,2.3-1.1,4.4-2.4,3.8-5.4ZM1608.6,518.3c2.5,1.2,8.2-4.7,6.6-6.7-2.9,1.5-7.3,2.6-6.6,6.7ZM892.7,531.3l2.9-13.7c-2.8-3.9-3.8-3.2-6.6-.1-7.1,7.7-5.7,17.4-8.7,26.3-1.1,3.4-4,5.4-4.6,7-2.3,5.8,5.5-.3,6.1-.5,5.1-1.2,7.6,5.4,7.2,9.6,5.1.2,5.2-3.1,4.7-7-.3-2.3-1.6-5.3-3-7.3-1.6-1.1-7.4,4-6.8-6.5.4-5.7,7.5-4.1,11.7-4.2.5-3.4.2-3.3-3-3.6ZM930.6,526.6l1-8.3-7.6-3.3c-.7,2.1,3.3,14.7,6.6,11.6ZM1556.7,515.2l-6.4-.2,1.7,8.3h6.6s-1.9-8.1-1.9-8.1ZM1601.9,515c-3.1-.4-5.8,0-6.7,3.3l6.6,1.7v-5ZM914,516.6h-3.3s0,6.7,0,6.7c3.3-.9,3.7-3.5,3.3-6.7ZM917.3,540c-1.1-1-6.6.8-6.6,2.5,0,5,9.8.5,6.6-2.5ZM1575,673.4c-14.5-1.6-.2-12.3.3-17.8.4-4.9-4.5-5.9-5.1-9.9-.7-4.8,2.7-8.2,2.9-11.8.3-4.7-4.2-9.1-4.5-13.2-.2-4,2.6-7,2.9-10.3,1.1-14.1-3.2-26.4-6.4-39.6-1.2-4.9,2.1-12.6-4.9-13.5l-23.1,14.5,1.4,7c-10.9,11.4-26.9,18.3-39.7,27.1-24.8,17.1-47.1,35.5-69.2,54-10.8,9.1-8.9,6.2-17.5,17.6-15.7,20.6-44.8,39.7-59.5,59.6-1.4,1.9-.8,5.1-2.6,7.4-3,3.8-10.5,6.6-15.4,7.1-2.2,3.8,6,17.3-10.8,10.1.8,15.5-13.8,27.1-20.3,40.5-7.6,15.7-12.2,28.7-13.2,45.5-.2,2.9-1.6,17.1-1.3,17.9.7,2.3,4.7,2.1,4.7,3.4,0,1-1.7,3.1-1.6,5.1.7,12.5,0,5.6-2.9,13.7-2.7,7.3,6.7,5,4.8,12.8-8.4,3.5-.4,3.3,0,6.7.3,1.8-.3,4-.2,5.9l-1.7-3.3c-5.8,2.3-1,3.5-.6,6.6.3,2.6-.7,7.1,0,8.5,2.3,5.4,5.9,1.9-1,11.5l4.9,2.5c-3.8,6-4.7,13-5.8,20-.7,4.7-.3,25.1-1.1,28-.7,2.3-3.8,3.5-4.5,5.7-1,3.7,2.3,8.3,1.5,12.9-.6,3.5-3.8,4.5-4.7,7.1-.7,2.3.9,7.2.3,10.6-1.1,6.6-7.7,42-11,44.5-5.8,4.4-21.5-.9-20.5-9.7-5.1,3.4-.2,9.3-2.3,12.5-1.8,2.8-6.7,4.1-8.6,6.5-4.4,5.6-.2,10-11.6,10.9-.9-1.3-.2-33.3-5-30-1.6,5.7-9.5,12.8-8.4,19,.2,1.2,5,.4,3.4,5.2l-6.6.9,1.5,4.3c-8.3,2.6,1.1,6.6,6.5,7,5.7.4,11.6-2.5,17.6-1.4l3.5,6.7c3.4,1.1,1.9-2.8,3.5-3.2,1.5-.3,7.8-1.8,8.2-1.8,4.4-.4,5.1,3.7,9,3.3l-8.3-11.6-1.7,3.3c-9.4-6.2,4.4-7,10-8.4-.8-4.2-9.8-2.8-8.3-8.3l9.7.2c4.4,3.6-2.6,10.3-1.4,11.4,3.2,3,4.8-3,6.6-3.3-2.6,19-7,38-12.8,56.3-2.2,7.1-6.6,13.5-7.1,22,7.4-.9,12.4-6.5,17.7-9.7,24.4-14.7,44.6-25.8,70-38.3,2.6-1.3,4.8-4.6,6.7-5.1,3.8-1,8,2.4,11.1,1.3,2.9-1,1.9-5,3.8-6.7,5.2-4.4,21.7-8.8,28.7-12.5,4.9-2.6,4.8-8.3,13.5-4-2.2-11,5-14.3,10.8-21.6.9,1.9,8.5,8.1,8.7,8.7,1.3,2.9-1.4,7,2.9,6.2,2.2-4.5,2.5-6.6,7.5-9.2l-8.3-2.5,6.7-20-5-.8c6.3-4.4,6.1-12.7,9.2-17.4,1.7-2.6,5.1-3.2,6.5-5.2,2.4-3.4,13.4-23.2,15.1-23.2,4.9,4,7.8,7,4.2,13.3,4.7.9,2.7-3.1,7.4-5.2,3.7-1.6,13.1.1,15.2-3,0-2.8,3.4-13.9-.1-15.1-2.9-1-5.3,7.3-8.2,8.4l-2.6,6.6c-6.5-2.8-8.9-5.8-5.5-13,1.6-3.4,4.5-1.2,7.1-2.8,6.5-3.9.9-24.5,6.7-32.9,1.1-1.6,4.9-2.6,5-3.7,0-.4-4.6-3.8-1.4-7.3,8.7,2,12.9-7.4,19.6-9.3,1.6-.5,4.5,1.2,5,.8,4-3.1-.5-10.9-5.7-11.7-2.2-.3-8.2,9.8-12.4,10.1-1.1-8.3,6.1-10.2,9.9-14.3,3.3-3.4,1.6-8.1,9.3-9.1,5.4-.7.5,9.2,3.3,11.7l9.2-15c-6.6.2-9-3.7-8.3-10l-8.3,3.3c3-7.9,6.6-22.3,11.9-28.9,2.6-3.2,6.8-4.2,8.5-8.2,1.3-3-.3-6.7.9-10.4.9-2.9,6.3-5.5,6.5-6.1,1.1-3.1,0-6.4,1.3-9.6,1.3-2.9,8-6.6,9.7-10,1.2-2.4.2-7.2,1.5-10.4,6-15.1,11.8-31.8,18.4-46.7,3.2-7.2,5.7-36.5,7.9-47,.8-3.6,4.4-6.1,4.6-8.7.2-2.5-2.6-5.2-2.9-8.2-1.3-13.8,4.1-21.2,4.7-33.9ZM912.3,559.9l-6.6,2.5,4.1,2.5,2.5-2.5v-2.5ZM453.3,607.5c-.7-.7-.9-1.6-.8-2.6l-3.3,5h6.7s0-1.6,0-1.6c-.9.2-1.9,0-2.6-.7ZM889,611.6h-6.6s1.7,14.9,1.7,14.9c4.3.9,7.3-.6,9.9-4.1l-6.6-2.5,1.7-8.3ZM769.9,614.9l-4.1,5.8c3.3,4.8,7.2,1.8,6.6-3.3l-2.5-2.5ZM535.9,628.2h-2.5c-3.2-3.7-16-13.4-20.1-10.2-5.5,4.4.2,7,.8,11.1,1.8,11.4-1.7,30-1.7,41.6,0,18.8,3.7,48.6,0,66.6-.8,3.8-4.5,5.2-4.8,6.9-.2,1,4.7,13.4,4.9,19.7,1.2,52.9,1.2,95.6,12,147.9.8,3.8,4.5,8.2,5.6,12.8.6,2.4-1.4,5.4-.7,6.4,8.2,13.6,21.7,36,24.6,52.9,1,6.1-1,17.7,3.2,23.1,1.5,1.9,4.2.4,5.6,1.1,1.6.8,1.3,3,2.3,3.2,41.8,5,92.3,39.2,127.1,62.5,2.3,1.6,13.2,12.4,14.3,12.5,5.5-3.9-.2-7.9-.7-12.6-2.8-24.4-.5-49-.8-73.4-.3-28.3-2.4-58.2-2.1-86.1.6-45.5,10.5-89.2,14.4-133.5.5-5.4,2.4-11.1,3-16.6-.8-3.5-10.5-4.7-12.2-7.6-2.1-3.6.9-9.2-2.4-12.5-2.8-2.8-16.6-8.9-20.8-12.5-9.3-7.8-22.5-23.2-31.9-29.7-5.8-4-14-5.6-19.5-8.8-14-8.3-20.7-17.1-36.1-23.9-16.9-7.5-24-14.3-37.4-25.9-6.5-5.6-19.8-9.1-22.5-18.3l-1.7,3.3ZM592.5,624.9l-6.6,2.5,4.1,2.5,2.5-2.5v-2.5ZM604.2,639.9c.4-4.2-2.7-5.6-6.6-5v3.3s6.6,1.7,6.6,1.7ZM872.4,634.9c-1,1.1.8,6.6,2.5,6.6,5,0,.5-9.8-2.5-6.6ZM857.3,643.2c-13.4.3-6.9,17-4.2,25,14,5.8,4.5-4,4.2-9.3-.3-4.7,3.5-10,0-15.7ZM865.7,676.5c-3-2.6-2.8.8-3.5,2.3-3.8,8.2-1.3,12.7.2,21,8.2,2.1,5.4-7.2,8.2-9.3,1.7-1.3,6.7,2.7,8.4-1.5,3-7.3-6.7-2.3-8.4-3.3-2.3-1.3-4.4-8.7-5-9.2ZM849,678.2h-3.3s-1.7,8.3-1.7,8.3c3.5-1.4,5.6-4.5,5-8.3ZM669.1,693.2l-11.6-3.3c.3,2.3,11.1,7.3,11.6,3.3ZM845.7,703.2h-3.3s0,6.6,0,6.6h1.6s1.7-6.6,1.7-6.6ZM847.4,726.5l-1.7-10h-1.6s0,10,0,10h3.3ZM844.1,734.8l-1.6,5.9c0,6.5,8.7,3.8,11.6-.1-2.9-3-5.1-6.7-9.9-5.8ZM1641.8,741.5h-3.3c-.3,3.2-.3,6.3,2.5,8.3l.8-8.3ZM864,766.5c-5.3-1.3-15.2,8.5-9.2,13.3l2.5-10c1-1.1,8.3,2.6,6.7-3.3ZM490.9,768.1c-2.6-2.6-7.6,2.3-5,5,2.6,2.6,7.6-2.3,5-5ZM865.7,793.1c-9.1,1.8-10.5,10.7-11.6,18.3,5.2,4.5,13.2-16.6,11.6-18.3ZM839,816.4c-10.3-1.8-2.1,7.2,0,5v-5ZM842,844.4c.8-1.3,1.1-6.8-.5-8l-7.5,9.2c1,4,7.4-.3,7.9-1.2ZM859,853.1c-9.5-2.4-10.8,9.1-11.7,9.9-.5.4-10.8-3.1-9.9,4.2.7,5.4,6.8-2.3,8.3-.8-.3,3.7,1.4,8.1,5.8,6.7,3.8-1.3,3-13.7,4.2-17.1.8-2.2,3.9,0,3.3-2.8ZM822.4,873.1c5.5-4.4,10.1-20.9-1.2-12.6l1.2,12.6ZM1264.5,874.3c-.6-1.2.9-2.8-.7-3.7l-3.3,1.7,1.7,9.1c5,.8,6.3-.3,4.9-5.5-.3-1.1-2.4-1.2-2.6-1.6ZM1248.8,874.7c-5.7-1.1-1.7,3.3-3,6.4l6.4,1.9-3.4-8.3ZM1258.7,879.7c-10.3.1.9,12.5,3.4,10l-3.4-10ZM1247,884.8h-4.9c0-.1-.1,7.2-.1,7.2l6.8,2.7-1.8-9.9ZM1640,893.3l-4.7-1.9c-.4,3.1-.1,4.9,2.5,6.6h2.5s-.2-4.8-.2-4.8ZM1255.4,893.1c-7.8,0-1.7,6.3,1.7,7.5-4.2,1.5-3.6,11-1.5,12.3,7,4.5,1.6-7.1,7.3-9.8l3.3,8.3,2.4-8.2-9.7-.2-3.5-9.9ZM795.7,899.7l-2.5-3.3-4.1,2.5,2.5,2.5,4.2-1.6ZM1248.8,903.1c.4-3,.1-4.9-2.5-6.6l-4.2,1.6v1.6s6.6,3.4,6.6,3.4ZM1530.3,906.4h-5v3.3h5v-3.3ZM827.4,916.4l-8.3.8c3.6,5,7.8,6,8.3-.8ZM1266.8,916.6l-8.1-.2,1.8,4c-7.6-.5,2.3,15.2,4.1,15.9,6.5,2.6-1.4-12.8-.9-13.3h5s-1.9-6.4-1.9-6.4ZM1623.5,924.7c-5.1-.5-5.4,4.2-5,8.3h3.3s1.7-8.3,1.7-8.3ZM825.7,938c.2-3.9,1-10.4-5-10v10s5,0,5,0ZM1576.9,938c-3.8-.6-7.1.7-6.6,5,1.3-.8,8.2-4.2,6.6-5ZM1268.8,946.3l-5-5v5s5,0,5,0ZM1596.9,943l-11.6-1.7c-2.3,5.2,11.3,4.4,11.6,1.7ZM391,948c-8.4-4.4-11.3.9-20,0,.8,3.1,5.3,3.1,6.4,6.1,2.8,7.4-2.5,7.1-2.7,7.5-1.9,3.9,5.5,7.6,5.9,8.5.7,1.4-1.7,5.4,2,7.1.1,2.2-11.7,1.1-4.1,7.5l11.1-11.4,11.4,4.8-1.9-13.1-9.8-1.9,1.6-5.7-4.9-2.6,5-6.6ZM857.4,961.4h-5c0,6.1,5,6.1,5,0ZM835.7,963l-14.9,10.9c-1.9,3.5-3.4,7.9.7,10.7,2.9-1.4,3-6.6,4.6-7.9,4.3-3.5,11.8.2,9.6-13.7ZM1550.1,987.9c.4-.4,0-3.3,1-4.8,3.1-4.2,12.3-6.5,10.7-15.2-4.6,1.7-9.8,11-13.4,12.5-3.2,1.3-9-3.2-10,5.8l-4.9-3.3c-2,7.3,4.7,5.6,3.3,12.4l-8.3,14.2c4.8.7,7.6,1.1,6.7,6.7,5.7-2.8,1.4-11.2,1.8-15.6.4-3.5,2.2-6.6,3-10.1,4.9.2,6.6-3.4,7.3-3.8.8-.4,2.6,1.3,2.8,1.1ZM764.1,979.7v-10s-1.6,0-1.6,0l-1.7,10h3.3ZM1508.6,981.3c2.5,1.2,8.2-4.7,6.6-6.7-2.9,1.5-7.3,2.6-6.6,6.7ZM1513.6,989.7l-6.7-1.7c-.1,6.7,1.4,14.5,8.3,7.5l-3-1,1.4-4.8ZM276.1,996.3c-.6-3.4-3.5-2.7-5.8-3.3-17.8-4.6-63.8,6.4-82.1,12.9-2.7.9-4.5-.9-3.6,3.8,29.8-8.5,60.5-13.1,91.6-13.3ZM832.4,993c-19.3-.3-12.4,3.2-13.2,14.1-.3,4.9-3.8,7.6-3.4,13.1.2,2.7,7.6,18.7,9.3,19.1,1.7.4,7.4-2.2,10.7.3l3.3-10.7c-8.8-6.9-16-10.2-12.9-23.1,1.2-5.2,7.3-7,6.3-12.8ZM1564.9,1007.7c1.5-2.4.7-7.9-2.1-9.6-4.6,6-7.3,12.6-15,6.6l-2.6.8-3.2,10.9c.7.6,7.7-.7,9.4-1.4,3.4-1.3,1-4.7,5.6-3.6l.8,8.3c4.1-2.2.4-6.1,1.6-8.3,1.1-2.3,5-2.7,5.6-3.6ZM254.4,1006.3l-15,.8c2.8,4,12.4,2.9,15-.8ZM237.8,1008c-16.1.2-34.1,4.6-49.4,9.8-2.2.7-5.1.5-5.6,3.5,10.8-.4,21.6-3,31.3-7.9l23.7-5.4ZM1482,1009.7c-5.9-.1-6.9,7.2-6.6,11.6,3.3-.2,7.8-10.4,6.6-11.6ZM1528.6,1013l-5.1,1-1.5,7.3,5.9-1.6.8-6.7ZM1462,1024.6l.9-6.7c-8.5-4.8-4.2,5.2-4.6,7.3-.4,2.3-7.4,6.6-4.6,12.7l5.8-3.3c3.5,4.9-10.8,9.7-12.1,12-1.1,2-2.1,13.6-.4,16.3l-8.3,1.7,2.5,5-14.2,6.6c3.1-.6,11.1,1.1,13.1-.2,1-.7.7-4.8,2.3-6.1,1.8-1.5,6.8-.8,9.1-2.5.6-.4,9.2-10.6,9.6-11.2,2.2-3.8,2.3-12.9,4.7-16.1,1.6-2.1,7.8-3.5,8.1-8.6l8.1,1.5-1.7-10c-6.8,8.2-9-.2-18.3,1.7ZM759.1,1564.3c0-2.8,1.9-1.5,4.1-1.7,3.8-.3,7.7-.2,11.5.2l2.2,2.3-1.1,4.2c11.2-1.7,14-4,20.8,6.4l7.5-3c-2.6,8.1,2,11.2,10,10l-3.3-10c2.5,0,5-.2,7.6,0,5.5.3,21.3,2.2,26.2,3.4,1.9.5,1.1,4.2,5.3,5.1,5.5,1.1,14.1-2.2,16.5-1.5,2.3.6,2.1,5.6,7.2,6.1,4.9.5,9.8-3.2,12.9-3.1.4,0,2.9,8.6,4.2,1l-14.9-23.4c-4.8-2.9-25.2,3.6-29.6-4.5-1-1.8,0-5.2-1.2-7.9-1.1-2.3-5.8-3.8-5.1-6.8,1.6-7.2,14.7-3,12.9-14.7,11.4-.8,1.7-5.3-.3-8.1-6.8-9.4-12-21.1-18-31.5-22.9-39.8-50.7-78.2-60.2-124.3-.3-1.3-2.9-1.1-3.8-3.2-5-11.5-11.2-24.2-12.9-36.2l-3.3,1.7c.9-13.6-6.6-5.9-12.1-7-5.4-1.1-15.7-10-16.2-16.3,3.6-.2,5.9,3.1,8.3-.9l-3.2-10.1c-2.8-2.2-12.8,7.3-13.4-4l6.6,3.3c1.3-11.1-4.2-6.9-10.5-8.4-1.1-.3-1-2.3-2.5-3.1-5.2-2.6-7.5-2.1-11.9-8.1-12.2-16.6-29.8-28-41.7-44.5-6.1-8.4-12.2-15.3-17.5-22.5-5.2-7-6.1-22.2-19.9-16.8l-2.5-7.4c-9.8-.5-18.4-3.1-26.6-8.4-8.1-5.3-15.1-11.7-11.8-22.3-3.5.2-15.9-1.9-18-3.7-2.5-2.2,0-9.9-8.5-9.8,1.7-12.3-12.2-18.1-17.7-28.1-3.4-.7-2.9,1.4-2.2,3.9,1.5,5,7.4,9.7,6.4,16.1l-9.1-1.6c-2.1-12-16.2-11.9-9.2-28.4h-8.3s1.7,5,1.7,5h-6.5c-2.8-4.2,3.2-8.2-1.2-11.7-5.3,1.6-9.4,2.4-14.7.2l-2.6,4.8h-2.4c-3-2.2-5.4-6.3-8.3-8.4-6.1-4.4-14.2-6.3-20.5-9.5-6.9-3.5-17.9-9.9-22.8-15.5-1.6-1.9-1.8-5.5-3.7-6.7-4.6-2.9-19.5-4.1-22.8-6.4-3.3-2.3-.9-13.4-5.4-15-7.8-2.7-16.1,6.3-27.7,1.1-10.7-4.9-8.5-2.5-18.4-4.6-1.3-.3-1.3-2.9-2.3-3.3-14.8-6.3-68.6-7.6-86.3-6.8-23.2,1.2-44.5,7.2-66.9,11.3-5,.9-10.5-.4-15.2,2.3l-1.8,18.8,3.3,1.9,6.7-7.6c10.2,5.4,10.7,20,20.8,26.7l-2.7,9c4.6,2.4,6,3.6,5.1,9.2l-14.2-6.6c.2,17.9,12.4,9,21.3,13.6,7.8,4,2.9,13.1-1.3,18l-5.8-3.3-.9,6.6c3.8,6.4,11.3,4.8,17.5,6.7l-3.3-15c1.3-1.5,6.9,4.6,7.3,5.1,3.1,4.6,4.8,12,9.4,16.5-4.7.6-6.9-7.7-11.7-4.2-3.2,2.3-1,13.5-1.6,17.6l1.7-6.7c5.1-.6,2.9,4.7,9.6,6.3,5.8,1.4,5-.5,7.9-4.6,1,0,10.8,14.7,11.4,16.9,1.6,6.6-4.6,13.3,3.6,19.8,5.1,4,13.6,9.3,18.4,14.9,1.8,2.1,14.4,18.9,14.9,20.1,2.9,7.1-1.3,11.7-2.4,18.2,1.1,1,10.8-4.1,11.5.8.5,3.6-6.8,7.2-4.9,9.2,6.3-4,7,1.1,11.3,3,4.2,1.9,11.2.8,16.1,5.3.8.7,9,10.2,9.3,10.9,1.5,3.8-5.7,2-6.6,5,7.1,4.5,4,12.1,6.6,19.1l4.6-2.7,1.2-12.3c9.6,8.4,9,15.6,2.5,25.8l15.8,5.9,2.5-5c3.2,7.3-6,7.7-6.5,11-.4,2.2,3.8,4.8,4.2,8.1.8,6.1-4.9,4.5-4.3,9.2h5s.8,6.6.8,6.6c11.5-5.2-2-17.9,9.2-19.9-4.1,11,11.1.7,11.8,14.9,1.5,1.1,8.5-2.5,12-1.7,1.7.4,2,4,3.6,5.1,2.6,1.9,8,3.6,9.4,5.7,4.7,6.7-.3,2.7,7.4,9.2,7.8,6.6,3,13.1,4.2,15l9.9,1.8c-4,10.8,7.1,18.1,16.6,20l-.8-8.3c4.9,5.6,15.8,4.2,15.5,12.5l-3.1,1.6,2.6,4.2c8.4-6.4,8.9-1.2,15.4,1.2,2.5.9,5.5.5,8.3,1.7,4.7,2.2,10.2,10,17.1,10.4-8.3,10.7,7.5,6.3,13,7.7,4.8,1.2,11,6.9,16.1,9,11,4.4,16.3,1.4,25,11.7,1.5,1.8,2.2,6,2.7,6.4,1.8,1.3,7.1-1.6,10.3-1.2,1.9.2,3.8,2.4,5.7,2.6,5.4.7,9.5-.1,15,1.6,4.8,1.6,14.9,9.7,3.8,8.7,5,14.3,22.9.1,30.4,2,3.5.8,7.4,6,10.7,7.8,8.5,4.4,20.7,7.7,27.9,13.8,2.8,2.4,2.2,5.6,3.7,6.6,4.1,2.9,17.5,2.9,21.7,9.6,5,1.8,2.7-3.2,6.3-3.2,5.5,0,7.4,4.1,10.5,4.9,6.7,1.6,10.4-5.2,14.6,7l9.8-3.4c8.4,5.2,7.2,8.6,17.6,3.4l1.9,9.8,7.3,1.5,6.6-9.6c7.5,2.9,3.9,13.6,4.9,15,1.4,2.1,13,4.4,14.3,3.3l-6.7-10.8,6.7-2.5c-3.5,16.6,13.8,12.1,25,13.3l.8-5c1.6,1.2,3.6,1.9,5,3.3,1.9,1.8,3.1,5.9,5.2,6.5,2.2.6,8.2-2.1,12.9-1.5,3.1.4,14.7,6.4,11,10-9.7-3.1-11,6.4-14.5,8.4-4.4,2.6-10.3-.2-13.8,4.1,5.8,5.9,16.4-1.7,19.9,7.5-12.3,6-19.1-5.5-30-5-.9-4.5,1-2.4,3.3-4.1-13.2-17.5,21.3.2,10.8-15.8-5.2,6.8-10.7-1.1-14.7,0-3.5,1-9.7,14.8-11,15.7-3.8,2.6-16.5-.9-21.4-2.1-11.8-3-25.4-10.7-36.6-13.3-25.3-5.9-57.7-7.6-82-19.6-3.4-1.7-6.7-4-8.3-7.5,10.1.3,21.7,13.1,31.6,5.8-3.9-2.8-2.9-5.2-1.6-9.2-6.4-1.6-13.8,4.7-18.3-.9,4.3-5.9,2.3-6.1,1.7-10.8,3.5-.2,7.1-.2,6.7-5h-6.6c.1,1.6-.2,3.4,0,5-2,.1-5.6-1.6-6.7-.9-3.2,3.9-1.7,8.6-8,7.7l-.2,8.2-20-5c.6-3,2.4-4.6-.9-6.7-12.1,9.7-14.4-4.5-20.3-6.3-6.5-2-14.1-4-20.8-5.9-8.4-2.4-24.7-1-24.7-11.1l5-.8c-9.3-3.4-2.3-20.5-16.6-15l10,15.8c-4.3.4-7.5,2.1-12.1,1.4-4.4-.7-4.1-4.1-5.8-4.6-15.5-5-31.6-13.9-46.9-21-7.4-3.4-22.9-17-29.4-19-.9-.3-2.7-.5-2.5.8,5.3,10.3,15.6,16.9,25.2,23.1,6.2,4.1,12.2,7.8,18.2,11.8,14.3,9.4,21.5,10.4,34.8,16.8,2.4,1.2,4.1,5,7.2,6.2,2.7,1,8.4-1.1,10.9,1.5.2.2-.9,2.3.2,3.9,6.3,8.8,8.7,3.9,14.3,5,6.2,1.1,35.8,11,39.8,14.4,2.8,2.4,2.2,6.2,3.7,6.6,2.3.6,6.1-.6,9.4.3,17.5,4.4,33.4,15.4,49.9,20,6.5,1.8,13.1,4.2,19.6,6.3-4.6-2.4-3.9,7.8-5,9.9l8.3,3.4c.6-3.5,0-11.6-3.3-13.3,2,.6,5.4.1,7.2,1.5,2,1.5,1.4,7.3,5.6,8.3l7.2-3.2c-1.7,4.8,3.1,4.8,3.4,5.8,1.2,4.3-4.8.4-3.3,5.8,3.3.6,4.4-3,7.5-3.3,13.5-1.4,24.6,7.3,35.8,10,0,4.5,3.9,7.4,8.3,6.7,1.1-8.3-4.1-5.6-8.3-6.7ZM1536.9,1039.6l-5.9-6.6h-2.5c0,2.4-.6,4.5,1.6,5.9l6.7.8ZM1510.3,1034.6c-3.2-.6-4.6,2.2-6.6,4.2v2.5s4.8-.2,4.8-.2l1.8-6.5ZM814.1,1041.3c1,1,5-1.4,5-2.5,0-4.6-7.5,0-5,2.5ZM1472,1049.6c4.3-2.7,7.4-8.2,6.6-13.3l-6.6,13.3ZM1546.5,1040.1c-3.3-4.1-9.4-1.6-7.9,4.5l5.9-1.5,4,3.2c-1.1-1.7-1.2-5-2.1-6.2ZM1566.9,1046.3l-6.6-6.6,1.7,8.3,5-1.7ZM157.8,1041.3l-7.2,1.6-1.1,5,8.3-6.7ZM844,1047.9l-2.5-6.7-9.1,3.4,2.4,6.5c2.3-3,5.6-3.6,9.2-3.3ZM1496.9,1052.9c3.9,2.8,10-5,4.2-6.6-5.9-1.6-6.1,5.2-4.2,6.6ZM142.8,1061.3c-.1-2.6-2.1-10.7-5.8-10-5.8,1.2-.5,12.4,5.8,10ZM774.1,1064.6l-6.6-13.3c-1.3,4.4-2.4,7.9-.2,12.3l6.8,1ZM1525.3,1059.6l-1.6-7.6-10.1-.7,3.2,9.2,8.4-.9ZM1533.6,1066.3c-1-1-5,1.4-5,2.5,0,4.6,7.5,0,5-2.5ZM1536.9,1077.9h-8.3c-.1,6.8,8.5,6.8,8.3,0ZM754.1,1096.3c5.8-.4,9.3-6.3,8.3-11.7-5.3,1.8-8.8,5.7-8.3,11.7ZM114.5,1086.3l-8.3.8,4.1,5.8,4.2-6.6ZM1931.7,1099.6c-23.7-1.2-46.9-8.5-70.8-10-133.1-8.2-267.8,18.7-393.6,59.4-81.7,26.4-159.9,65.3-225.2,119.5-2.7,2.2-3.5,6.4-7.1,8.1-4.8,2.2-12.3-9.6-14.5-7.1-4,4.5,7.2,8.7,5,13.3-4.5,1.6-2.9-2.8-3.5-3.1-6.9-4.5-3.4,11.4-3.6,12.1-.5,2.7-32.6,35.7-37.1,39.3-3.2,2.6-7.9,2.7-9.9,5.1-14,15.8-32.3,53.8-44.9,73.3-23.9,36.8-49.6,74.4-77.6,107.7-4,4.8-8.6,13.5-13.3,17.9-3.4,3.1-10.9,5.7-11.3,6.2-1,1.2-.3,5.1-1.6,7.5-4.6,8.2-12.4,19.2-18,27-4.4,6.1-20.5,22.8-22.4,27.6-3.3,8.6,10.5-7.1,11.6-5.8.7,4.8-.8,8.5-5.4,10.4-4.1,1.7-11.2-.6-11.2,3.7,3.3,4.1,8.8,2.2,13.3,2.5l-1.7-5c6.3,1.6,15.4-1.6,20.7,1.8,3.4,2.2,2.1,6.3,8.5,6.7,8.2.5,9.4-7.3,15.4-8.2,4.6-.7,9,3.8,13.7,3-1.7-4,3.5-5.4,3.5-5.8,0-4.2-5.5-9.5-10.1-7.4l1.7,6.6c-7.4,3.6-14.3-4.8-17.4-4.9-4.6-.3-12.7,7.5-17.6.7,1.9-14.2,12.2-8.1,20-15l-8.3-3.3c7.2-3.4,9-3.2,12.7-10.7l11.5,3.3c4.3-.1,2.9-7.1,9.1-5l-1,6.7c13.5,2.1,18.5,6.7,11,19.9,4.5.5,9.2,0,11.8-4.1,2-3.2-.4-5.5.6-7.5,1.8-3.6,10.7-4,7.6-13.3,8.6-2.1,2.6,8.7,11.5,10,5.5-7.2,5.6-15.5,14.3-18.2,5.2,4.1-3.7,10.1-.8,16.6,8.1,1.3,9.3-9.7,15.8-11.6l2.5,8.3,13.9-1.9c8.8-14.1,20.7-28.6,36-12.3-4.7,5-16.4,1.2-14.9,10.8l28.3-5,4.3,11.6c8.7.3,6-11.7,11.1-13.8,10.4-4.4,19.1,6.4,26.8,3.7,2.4-.9,2.7-4.3,4.5-5.5,4-2.6,20.4-11.8,24.1-12.5,2.4-.5,5-.1,7.4,0l2.7,11.7,5.5-.3,1.9-9.7c6.4-1.4,9.9,4.8,15.9,6.5v8.4c8.6-3.3,7-16.3,9.4-19.6,2.2-3,7.1-3.5,7.2,3,0,1.4-1.5,3.2-.8,5.5,1.1,3.6,10.6,3.6,4.9,14.4l24.9-6.7c0-3.5-.3-5.9,1.6-9.2,3.7-6.4,19.4-4.6,7.1-11.1l-.4-6.3c-5.8-1.6-5.5,5.8-11.6,5l1.7-8.3h-11.7c-1.2-6.9,3.6-11.9,10.7-9.9,4.2,1.2-1.3,5.1,3.3,4.7,4.3-.3,12.9-1.2,12.7-6.5h3.3s-1.4,3-1.4,3c4.8,1.1,5.2,4,4.7,8.6,7.2-2.1,10.6-7.6,18.3-2.4,3.9-2.7,2.9-5.3,2.5-9.4l7.4-3.4c-1.6-8.1-1-11.4,5.1-17.4v-1.6c0,0-3.3-.8-3.3-.8,4.4-8,5.2,0,6,.2,2.1.2,4.5-1.7,6.6-1.7,2.8,0,5.3,4.3,9.1,3.2-2.8-6.2.6-15.6,7.6-16.7,6.4-.9,17.5,6,17.4-6.6h-8.3c2.1-8.5,9.8-6.6,16.5-9.3,4.1-1.7,8.2-8.2,13.5-4.8l-8.3,9.1,6.6,3.3-10.9,3.3c-11.4,36.2,14.8,25.4,34.2,11.7l-3.3-5.8c10.9-8.4,10.5-24.7,28.3-20.8,1.1.9-4.7,7.6.8,6.7,8.3-1.5,14.4-7.4,20.4-11.6,4-2.8,12.2-2.8,10.2-9.8l-3.9-1.8-.6-4,9-9.4c4.2-1,1.5,3.1,2.8,4.5.4.4,8.6,5,9.1,5.1,8.2,1.9,16.3-21.8-4.4-13-1.5-6.1-1.9-10,3.3-14.3l8.9,2.5c6-4.9,6.3-12,16.1-9.9.7,5.8-4.4,10.1-10,10-.7,4.2,3.4,5.1,6.7,5-.5,3.9-3.5,7.1.8,9.9,2.5-3.7,20.5-9.7,20.8-10.8,1.9-7-11.2-6.6-6.7-14l-6.6-3.4c7.5-.6,14.8,2.6,20-4.2,2.7-3.5,1.5-9,8.3-7.5l.5,5.2,5.3,9.7c1.2-3.2,6.3-8.7,7-11.1.6-2.1-1.3-5.3,0-8.9,1.6-4.4,6.5-9.9,8.8-14.2-7.6-4.4-6.7,6.6-15,4.2,0-2.9,4.3-2,5.9-5,1-1.9.8-4.5.8-6.7,7.7,5.1,11.1-7.1,17.4-6.7.5,0,1.8,6,7.5,3.4l-13.3,5,.7,5.1,6.4,1.6,1.2,4.1c-12.3,3.6-6,3.4-7.6,7.5-1.3,3.2-9.7,5.3-3.3,9.9,5.5-2.6,15.8-14.4,21.5-13.4.5,0,2.9,8.3,6.7,0,1.2-2.6.4-6,1.7-8.2,1-1.7,5.7-2.8,5.7-4.2,0-.5-2.5-1.8-2.6-3.3-1.1-11.5,20.8-8,24.3-20,1.6-5.5-5.7,0-7.4.2-2.9.4-6.2-1-9.2-1-1.2-9,7.7-7.9,1.7-16.6,1.5-2.2,15.5-5.7,18.2-7.6,4.2-3,10.2-13.7,15.9-17.4,8.8-5.7,11.3-.3,14.9-15.2l9.4-.5c1.1-11.9,6.8-10.2,11.7-15.1,2.2-2.2,2.4-6.5,5-8.3,2.7-2,8.2-1.6,9.5-3,1-1,.3-4.1,3-6.1,6.3-4.7,10.4,1.4,12.5.8,3.3-.8,6.2-6.1,12.2-4.4,1.1.3,2.9,13.1,10.3,6.9,6-5.1-1.1-18.3-.9-25l9.9-3.4.9,10,11.6-6.8,1.7,3.4c2.8-2.7,6.6-4.9,1.7-8.1l-12.5,1.4,1.7-11.6,9.3-1.5c3.5-2.7,1.4-7.4,2.7-9.8.6-1.1,13.3-9.3,15.3-8.7,1.8.6,3.7,8.5,12.6,4.9l-3.3-9.1c6.6-4.2,15.3-1.5,18.3-11.7-5.9-.1-10.4,2.4-15-3.3,9.8-8.6,18-16.8,31.5-19.3v-4.8c.1,0-6.5,3.3-6.5,3.3-1.2-6.6,2.6-9.9,9-9.9l3.5,6.6c8.8-6.9,10.4-16.2,12.7-26.4,15.4,2.6,15.3-13.7,2.3-3.5-1.6-5.5,6.3-13.1,12.3-13.5l-1.4-13c11.6-4.3,6.5-.2,8.6,2.7,3.7,5.2,10.3-.8,9.7-6.2ZM675.8,1109.6c-2.1-2.3-3.4-12.5-7.5-11.6-1.8.4-3.1,2.7-1.5,5,.7,1,7.5,8.1,9,6.7ZM1214.3,1102.3c-1.1-.7.4-3.4-2.2-2.7,0,4.5-1.8,9.1-6.7,6.7l1,8.5c10,6.3,14.4-2.4,24,1.5l1.6-3.3,4.2,10c4.8-5.5,9.2-5.6,15.8-3.3-2.2-10.8-8.5-5.2-15-3.3l1.6-10c-5.6,0-9.9,1.3-14.2,4.9-2.9-6.1-5.9-6.1-10.3-8.9ZM550.9,1107.9c-.3-1.8-8-7.1-8.3-6.6l1.9,6.4,6.4.3ZM1213.8,1132.9l-1.6-5.9-2.5-.8c-6.6,2.7-11.5,2-12.6,10l13.3,5-3.3-10,6.6,1.7ZM1233.8,1126.3c-4.7-1.6-3.2,3.7-5.8,5l-3.3-3.3-9.2,8.3,15-1.6-1.6,6.6,13.3-1.7c-1-5.9-5.9-4.6-9.3-8.3l1-5ZM844,1137.9l-11.7,3.3c-.5,4.7,3.1,8.3,5.8,11.6,2-2,.2-6.2.8-8.8.5-2.3,6.3-1.8,5-6.2ZM1203.8,1139.6c-3.1-.5-5.5,1.9-5,5l6.6,1.7-1.7-6.6ZM1225.4,1139.6c-3.7-4.6-5.1,12.3,1.7,10l-1.7-10ZM1180.5,1151.2c-2.6-2.6-7.6,2.3-5,5,2.6,2.6,7.6-2.3,5-5ZM171.1,1191.2h-3.3v5h3.3v-5ZM1841.7,1216.2c-4-.7-8.6,2.1-8.3,6.6h2.5s5.9-6.6,5.9-6.6ZM327.2,1250c-1.3-1.2-3.6-1.7-5.3-2.1l-2.5,4.1c5,8.5,14.6,4.5,7.9-2ZM1170.5,1266.2h-3.3c-.4,3.1,0,4.8,2.5,6.6l.8-6.6ZM1773.4,1266.2h-3.3v5h3.3v-5ZM327.7,1274.5l-6.7-1.7v2.5s2.5,2.5,2.5,2.5l4.1-3.3ZM1751.8,1301.1c10,1.7,4-11.8,6.5-18.9l-11.5-4.4-1.6,7.2c8.1,4.7,5.6,8,6.5,16.1ZM1860,1287.8l1.2-7.6c-3.9-5.6-7.6-1-9.5,3.4l8.2,4.1ZM1867.7,1281.9c-.8-.5-4-2.9-4.3-2.4,1.6,8.5-2.9,13.3-6.7,20l8.1-1.9c-.8-11,1.6-6.4,4.7-8.5,3.6-2.5.9-5.4-1.8-7.2ZM337.7,1299.4c-.9-1.7-6-10.5-8.3-8.3.9,1.7,6,10.5,8.3,8.3ZM1848,1293.3c-.8-1-2.6-1.2-3.8-1.7-5.1,2.9-6,5.6-3.9,11h3.9c0,0,5,11.8,5,11.8l3.9-7.2-4.7-7.7,3.3-.8c-4.1-.8-2.8-4.1-3.7-5.3ZM1837.3,1310.7c-.5-1.1,2.3-4.4-1.4-6.3l-10.3,7.4c.1,8.4,6.5,4.3,11.1,10.1l-1.7,4.2-2.4-1.3-.8,4.6,11.4-9.5c1.8-3-4.9-7.2-5.9-9.2ZM1727.2,1314.2c-1.4-1-4-10.3-8.7-7.3-3.6,2.3-1.1,11.3-10,15.1-1.3.6-6.5-4.7-9.9,1.6,5.8,1.8.7,13.5-1.7,15.2-2.1,1.5-5.5-2.6-7.6.7l.9,5c13-8.2,30.5-6.7,35-25l8.1,3.1,3.5-5.6c-1.8-4.8-8.8-2.2-9.6-2.7ZM346,1316.1c1.7-1.7-3.3-6.7-5-5-1.7,1.7,3.3,6.7,5,5ZM1830.1,1326.1l-7.5-8.3-10.8,13.3c4.3-4.3,7.9-1.3,13.3-1.7l-1.7-3.3h6.7ZM384.3,1329.4l-2.5-5-4.1,3.4v1.6s6.6,0,6.6,0ZM872.3,1344.4c-.1-5.9,3.7-12.7-5-13.3,1.3,3.7-1.5,14.3,5,13.3ZM1825.1,1341.1h-5c1.8,3.5-.2,6.7-1.7,10,5.6.1,7.4-5.3,6.7-10ZM1810.1,1354.4c.6-4.8-5.2-5.6-8.2-7.6l-5.1,3.5,13.3,4.2ZM1801.7,1352.8l-9.8.2-1.9,11.4-3.3-5c1.6,7.6-6.5,4.1-8.4,10.8l3.3,2.5c-7.9-1.7-9.1,9.1-12,11.2-.5.4-4.9-1-7.5.9-.8.6-6.4,8.5-5.5,9.5,2.4-3,10.2-3.3,11.7-4.3,5.8-3.8,9.7-9.1,13.9-14.1,2.7-3.2,7.2-3.6,8.8-5.4,1.1-1.2,3.4-8.1,5-10.7,1.7-2.7,4.5-1.4,2.5-5.2l3-1.9ZM880.7,1359.4h-5s-1.4,9.7-1.4,9.7l9.7,6.9-3.3-16.7ZM1803.4,1366.1c-4.2-1.2-15.7,12.7-13.3,15l6.5-.2,1.1-4.9,5.7.2v-10ZM426,1391c13.4,4.4,18.8-10,3.3-11.6l1.3,5.9-4.6,5.7ZM1786.8,1384.4c-3.5-3.5-9.2,5.5-4.1,6.6,3.5.8,5.3-5.4,4.1-6.6ZM419.3,1394.4l-8.3-3.4c-2.8,9.2,12.4,7.5,8.3,3.4ZM1751.8,1407.7l-.8-10c-4,3.7-6.7,9.7.8,10ZM439.3,1401.1c-.7-.7-6.6-1.8-8.3-1.7,1.1,3.8,5.3,3.5,8.3,3.3,0-.5.2-1.4,0-1.6ZM465.9,1399.4h-5v3.3h5v-3.3ZM452.1,1413.2c.9.5,1.4,2.7,2.1,3.7l3.4-1.7c-2.4-12.7-9.9-5.4-16.6-10.8-1.6,8.3,6.8,6.2,11.2,8.8ZM1645.2,1412.7c-5.7-.6-9.3.5-8.3,6.7,3.2-1.7,9-1.8,8.3-6.7ZM1048.9,1419.4c-8.4.1-3.1,2.5-5.8,6.7-1.1,1.8-4.7.7-4.2,3.3,7.4,2,8.6-4,10-10ZM1728.5,1426.1c-4-.7-5.2,3.8-6.7,6.6,3.2.6,4.6-2.2,6.6-4.2v-2.5ZM542.6,1432.7v-2.5s-2.5-2.5-2.5-2.5l-5.8,4.1,8.3.8ZM525.7,1432.9l-4.8-.2v3.3s6.7,1.7,6.7,1.7l-1.9-4.7ZM1591.9,1441.1l-13.3.8c3.8,1.5,4.8,6.9,9.1,5.9,3.6-.8,5.9-4.2,4.2-6.7ZM544.2,1441c-1.2-1-5.7.4-6.6,2.5l5.8,7.5c2.4-.9,1.3-9.6.8-10ZM589.7,1458.2c1.7-1.2,4.7-.6,6.1-3l-9.1-7.5c-2.5.2-7.6,15.3,0,15,1.3-.3,1.8-3.5,3-4.5ZM1593.6,1452.7c-4.6-.7-8.1,3-10,6.6,1.7,1.4,9.6-4,10-6.6ZM1720.1,1457.7l-2.5-5-2.5,2.5v2.5s5,0,5,0ZM1575.2,1456c-6-5.4-7,10.9-.8,3.3.9-1.1,1.3-2.9.8-3.3ZM635.8,1461l-11.6-3.3c-1.7,7.8,8.5,9.4,11.6,3.3ZM1715.1,1462.7l-8.3-1.7-1.7,6.7,10-5ZM612.5,1467.7l-8.3.8,4.2,2.6,4.2-3.4ZM630.8,1477.7c-.9-3.3-3.5-3.7-6.7-3.3v3.3s6.7,0,6.7,0ZM1695.2,1474.4c-1,1,1.4,5,2.5,5,4.6,0,0-7.5-2.5-5ZM1691.8,1477.7h-3.3s0,8.3,0,8.3h2.5s2.3-2.7,2.3-2.7l-1.5-5.6ZM679.1,1491l-5-1.7c-.6,2.5.7,3.5,2.5,5h2.5s0-3.3,0-3.3ZM1018.9,1494.3c1.2-1.5-7.5-6.2-10-5l4.2,10,5.8-5ZM1578.6,1489.3c-6-5.4-7,10.9-.8,3.3.9-1.1,1.3-2.9.8-3.3ZM702.5,1496l-8.3.8c2.3,2.8,4.4,4.9,8.3,4.2v-5ZM717.4,1497.7h-5v3.3h5v-3.3ZM1431.9,1505.9c.8-2.9.4-8.4-3.8-8-2.6.3-13.3,9.4-11.1,11.4l14.8-3.5ZM1007.3,1501l-8.3-1.7c-1.5,2.3-.1,6.4-.4,7.5-.1.5-7.5,6.1-.4,7.5,2.9.6,10.2-10,9.1-13.3ZM717.4,1506c6.7-.4,10.8,11.3,16.6,4.2-4.5-4-7.8-10.9-14.7-9l-1.9,4.8ZM702.4,1516l-7.5-11.6-9.2,7.4c7.2,1.6,11.2-2.8,16.6,4.2ZM744.1,1516c2.6,3.3,14.1-11.8-1.7-10l1.7,10ZM1404.4,1517c-2.1-2.5-3.3-6.6-7.4-6-.7,9.5,1.5,6.6,4.8,11,5.5,7.3-6,11.4-12.2,12.2-7,10.8,15.3,0,16.9-1.9,4.6-5.6,1.4-11-2.2-15.2ZM993.9,1512.7c-5.4-1.4-2,3.5-4.3,5.2-1.3.9-4,1.1-5.7,1.5l1.7,8.3c4.5-1.5,3.3-5.1,1.6-8.3,4.8.1,7.6-1.2,6.7-6.7ZM1422,1524.3l-2.5-6.6c-3.1,6.1-10.9,7.2-9.2,15l11.7.9,1.6-4.2-8.3,1.7v-4.2s6.6-2.5,6.6-2.5ZM388.8,1526.5c-2.2-2.4-16-6.8-19.1-6.1-9,2.2-27.5,15.1-33.7,22.2,16.6-5.9,23.3,18,31.8,25.7,4.4,4,20.3,17.1,24.9,20,5.8,3.6,13,4.5,18.8,9.5,2.9,2.5,6.7,9.5,9.3,10.5,1.9.7,5-1.2,8.5-.1,4.3,1.3,20.6,13,24.5,14,18.5,4.8,35.9,3.7,55,11.5,2.2.9,2,3.3,4.2,4.3,7.5,3.3,46.2,12.2,53.8,12,14.4-.4,13.7,1.1,26.6,2.5,24.5,2.5,50.3-.8,74.9,3.4h44.2c-5.8-9.5-19.4-.9-25.8-10.1-5.3,10.6-18.8,1.4-27.1-1.2-3.8-1.2-12-.2-14.5-3.9-1-1.5-.6-4.6-.9-4.9-1.6-1.6-7.2,2.8-10.1,2.5-8.2-.7-15.1-11.1-19.4-12.3s-9,2.2-14.2,1.1c-4.2-.8-6.2-5.2-9.1-6-11.3-3.4-21.5-2.8-33.6-8-1.7-.7-2.9-3.3-4.7-3.8-3.8-1-7.6,2.4-11,1.3-3-1-3.8-8.6-12.4-9.6-5.4-.6-7.3,3.2-9.3,2.9-4.1-.6-13.1-19.5-17.1-21.2-1-.4-3.9-.9-3.9.6,8.8,6.2,9.7,15.3-3.4,11.7-1.6-.4-14.8-7.8-15-8.7-.4-1.5-.3-5.5.4-6.9.6-1,11.4-4.2,8-7-2.5-2.1-12.2,7.4-16.6,5l2.5,8.3c-3-3.1-6.5-5.9-10.3-8-15.1-8.3-31.5-16.5-45.1-24.9-16.9-10.4-18.5-13-30.9-26.6ZM804.1,1524.3l-8.3-1.7v6.6c2,.6,11.3-1.7,8.3-5ZM1465.3,1522.7c-3.1-.5-5.5,1.9-5,5h5s0-5,0-5ZM1521.9,1529.3c.5-2.4-.7-3.5-2.5-4.9l-5.8,4.1,2.5,2.5,5.8-1.7ZM1586.9,1534.3l4.9-4.2c-3.1-4.6-5.6-.6-4.9,4.2ZM657.5,1532.6c-.9-3.3-3.6-3.7-6.7-3.3.9,3.3,3.6,3.7,6.7,3.3ZM993.9,1541c0-6.1-5-6.1-5,0h5ZM1377,1539.3c-6.7,2.1-18.6.3-21.6,6.6,3.6,0,6.8-2.8,10.6-1.5,2.9,1,1.6,6.1,5.1,4.8,3.1-2.8,6.7-5.2,5.9-10ZM1418.7,1547.6c8.9.8,8.8-7.4,0-6.6v6.6ZM1600.2,1562.6c-.2-10.7-5.9-5.8-6.7,1.7l6.7-1.7ZM1372,1562.6c-3.1-.4-4.9-.1-6.6,2.5v2.5s2.5,0,2.5,0l4.2-5ZM989,1576c.9.9,12.5-7.2,5.8-8.3-3.3-.6-6.7,5.1-5.8,8.3ZM759.1,1569.3h-6.6s0,1.6,0,1.6l6.6,1.7v-3.3ZM1223.8,1585.9c4.4.4,11.1-.8,11.7-5.8,1.4-12.7-15.4,2.2-11.7,5.8ZM1292.1,1579.3l-6.6,1.7v1.6s6.6,0,6.6,0v-3.3ZM1048.9,1581l-18.2,5.1,1.6,9.9c7,1,10.1-7.5,10-13.2l6.6-1.7ZM1218.8,1589.3c-6.9-2.2-15.2-2-16.7,6.6l7.3,1.3,9.4-7.9ZM527.3,1591.2c-3.9-1-10.2-.9-9.8,4.7l11.6,3.3-1.9-8.1ZM1210.9,1603.1c3-2.4,27.8-5,27.8-8-9.6-12.3-17.5,2.3-22.8,3.8-3.3.9-7.9-.6-10.2.7-1.5.8-6.8,10.2-5.3,13,2.6,3,9.6-8.8,10.5-9.5ZM893.2,1594.3l-2.5,2.5,4.1,2.5,2.5-2.5-4.1-2.5ZM1463.6,1600.9l-13.3,5.1c4.6,5.6.8,15.4,1.6,18.8.2.8,11.7,6.5,0,11.9-4.2,2-32.6,10-35.5,9.3-1.2-.3-1.1-3.3-2.1-3.4-4.2-.6-6.9,3.5-10.3,4.7-3.3,1.1-7.8,0-11.1,2.2-2.8,2-1.6,5.7-4.6,7.1-5.2,2.4-11.8,1.2-16.4,2.1-28.9,6.2-58.2,12.5-87.2,17.4-7.5,1.3-15.7,5.7-24.7,3.3-1.9-.5-1.8-4.3-3.5-4.6-2.2-.4-10.8,3-15.1,3-4,0-7.7-1.9-11.6-1.9-5.9,0-11,3.6-17.5.1l-.9,5.1-15.8-1.8,1.7-3.3c-7.2,1.7-18.8,5.3-25.9,5.1-3.9-.1-5.9-3.3-9.9-3.6-4.2-.3-9.6,2-15,1.9-13.5-.3-29-2.1-41.6-6.8-3.3,2.7,8.2,9.1,11.3,10.4,4.9,2.1,9.9,1.3,15.1,4.9,3,2.1,3.9,5.6,5.7,6.4,13.3,5.7,84.6,26,97.7,26.6,31.1,1.3,72.2-5.7,103.3-9.9,15.2-2,36.8-3.1,51.3-6.6,1.5-.4,1.7-3.5,4-4.7,30.4-16.2,80.9-22.1,115.4-34.5,13.7-4.9,33.6-20.4,47.9-27,7.6-3.5,15.9-5.7,23.7-8.8.6-7.5-8.7-1.8-13.3-4.1-1-.5-7.8-8.9-11.8-11.6-6.5-4.4-14.5-7.1-20.7-12.7-10,5.6-24.1,3.9-28.5,14.9-9.5-1.8-18.8,3.1-25.6-4.8,4.5,8.7,2.6,16-8.4,16.6l1.3-3-7.9-6.5-1.7-17.1ZM1182.1,1605.9c-5.3-.1-13.5-.5-16.6,5,2.8.5,5.3-.6,8-1.2,2-.5,8.4-1.6,8.7-3.8ZM1195.5,1607.6l-8.3-1.7v3.3s8.3,0,8.3,0v-1.6ZM1060.6,1612.6c-4.6,0-7-4.2-11.5-1.5v6.5c.6.8,11.3-1.6,11.5-5ZM1443.7,1610.9c-3-.6-5.5,1.8-5,5h3.3s1.7-5,1.7-5ZM1445.3,1620.9c-6.1-1.3-1.2,5.1-3.3,8.3l3.8-2.1-.5-6.2ZM1430.3,1624.3l-6.7-1.7v13.4c5.6-1.4,10,.5,11.6-6.7h-6.7s1.7-5,1.7-5ZM684.1,1637.6l-8.3,4.2,10,2.5-1.7-6.6ZM992.3,1652.6l-5.9-2.9c-8.9,4.9,1.9,10,5.9,2.9ZM729.1,1655.9c-1.8-5.1-6-2.7-10-1.6v1.6s10,0,10,0ZM1095.5,1674.2l-8.3-1.7c1.6,5.2,2.7,5.7,8.3,5v-3.3ZM864,918l-2.6-3.4-12.2,1.5c-2.6-6.7-5.2-10.5,2.5-14.4,8.6.4,13.3,8.2,12.3,16.3ZM862.4,1076.3l-4.1,14.9-9.1-9.1c2.2-3.6,5.8-1.8,8.8-2.5,1.9-.4,0-4.9,4.5-3.3ZM937.3,554.9c-3.4,3.8-6.4-11.7-2.5-13.3,5,3.9,3.5,8,2.5,13.3ZM1000.6,1489.3c-8.6.8-11.1-3.2-4.2-8.3l4.2,8.3ZM1323.7,1531c-5.4,14.1-2,18,13.3,16.6.4,6.1,1.1,11.1-5.9,13l-6.9-7.9-8.3,3-3.9-2.3,3.4-8.3-4.9-2.7c-2.3-3.4,8.6-13,13.2-11.5ZM1382,1506c1.5,5.7-5,7.3-6.3,11.2-1.3,4,1.5,10.9-5.3,10.5,1.4-6.5-3.1-4.1-6.6-7.5,3.6-1.3,15.5-17,18.3-14.1ZM1305.4,1534.3l-7.5,18.3-9.1-5c-.9-5.1,5.2-4,7.4-6.7,2.6-3.2.4-8.4,9.2-6.6ZM1603.6,1391.1l.3-10.6c11.3-8.9,7.7,7.7-.3,10.6ZM1666.8,1352.8c-.2,6.6-8.3,7.3-10,.8l10-.8ZM1600.2,1387.7c.6,4.4-.7,8.3-5,10-.3-4.5-.9-10.4,5-10ZM1473.6,1471v5h-6.7v-5h6.7ZM1483.6,1456v3.3s-8.3,1.7-8.3,1.7c-.5-5.1,4.2-5.4,8.3-5ZM1458.6,1487.7c-1.7,4.3-5.6,5.5-10,5,1.4-3.7,6.3-5.2,10-5ZM1287.1,1539.3v3.3s-8.3,1.7-8.3,1.7c-1.1-.9,6-6,8.3-5ZM1790.1,1246.2v3.3h-5v-3.3h5ZM1460.3,984.7l8.3-6.7-5,9.2-3.3-2.5ZM379.3,899.7v5c-6.1,0-6.1-5,0-5ZM397.6,973l-8.3-1.7v-2.5s2.5-2.5,2.5-2.5c2.5,2,6.6,2.6,5.8,6.6ZM387.7,956.4v2.5c-1.8,2.6-3.6,2.9-6.6,2.5v-3.3s6.6-1.7,6.6-1.7Z"/>
</svg>