<svg width="35" height="34" xmlns="http://www.w3.org/2000/svg" version="1.1" viewBox="-5.0 -18.0 110.0 135.0">
 <path d="m65.281 83c9.7891 0 17.719-7.9414 17.719-17.719v-30.551c0-9.7891-7.9414-17.719-17.719-17.719h-30.551c-9.7891 0-17.719 7.9414-17.719 17.719v30.551c0 9.7891 7.9414 17.719 17.719 17.719zm-32.281-33c0-1.6602 1.3398-3 3-3h11v-11c0-1.6602 1.3398-3 3-3s3 1.3398 3 3v11h11c1.6602 0 3 1.3398 3 3s-1.3398 3-3 3h-11v11c0 1.6602-1.3398 3-3 3s-3-1.3398-3-3v-11h-11c-1.6602 0-3-1.3398-3-3z"/>
</svg>