<svg width="25" height="24" xmlns="http://www.w3.org/2000/svg" version="1.1" viewBox="-5.0 -10.0 110.0 135.0">
 <path d="m29.125 44.793h-4.207l2.332 36.25c0.20703 3.582 3.207 6.375 6.793 6.375h31.918c3.582 0 6.582-2.793 6.793-6.375l2.332-36.25zm28.168 7.2891c0.042969-1.168 0.95703-2.082 2.168-2 1.168 0.042969 2.043 1.043 2 2.168l-1.082 22.332c-0.042968 1.082-0.95703 1.957-2.082 1.957h-0.082031c-1.168-0.042968-2.043-1.043-2-2.168zm-16.75-2c1.332-0.125 2.125 0.83203 2.168 2l1.082 22.293c0.042969 1.125-0.83203 2.125-2 2.168h-0.082031c-1.125 0-2.043-0.875-2.082-1.957l-1.082-22.332c-0.046875-1.1289 0.82812-2.1289 1.9961-2.1719z"/>
 <path d="m70.918 22.957h-5.207v-4.168l-0.003907-0.20703c0-3.332-2.707-6-6-6h-19.414c-3.293 0-6 2.668-6 6v4.375h-5.2109c-4.75 0-8.625 3.875-8.625 8.625v4.793c0 2.332 1.875 4.207 4.207 4.25h50.668c2.332-0.042969 4.207-1.918 4.207-4.25l0.003907-4.793c0-4.75-3.875-8.625-8.625-8.625zm-32.461-4.1641v-0.21094c0-1 0.83203-1.832 1.832-1.832h19.418c1 0 1.832 0.83203 1.832 1.832v4.375h-23.082z"/>
</svg>