<svg width="19" height="18" viewBox="0 0 19 18" fill="none" xmlns="http://www.w3.org/2000/svg">
<path d="M12.6425 1.5H6.3575C3.6275 1.5 2 3.1275 2 5.8575V12.135C2 14.8725 3.6275 16.5 6.3575 16.5H12.635C15.365 16.5 16.9925 14.8725 16.9925 12.1425V5.8575C17 3.1275 15.3725 1.5 12.6425 1.5ZM8.7125 13.1325C8.495 13.35 8.0825 13.56 7.7825 13.605L5.9375 13.8675C5.87 13.875 5.8025 13.8825 5.735 13.8825C5.4275 13.8825 5.1425 13.7775 4.94 13.575C4.6925 13.3275 4.5875 12.9675 4.6475 12.57L4.91 10.725C4.955 10.4175 5.1575 10.0125 5.3825 9.795L8.7275 6.45C8.7875 6.6075 8.8475 6.765 8.93 6.945C9.005 7.1025 9.0875 7.2675 9.1775 7.4175C9.2525 7.545 9.335 7.665 9.4025 7.755C9.485 7.8825 9.5825 8.0025 9.6425 8.07C9.68 8.1225 9.71 8.16 9.725 8.175C9.9125 8.4 10.13 8.61 10.3175 8.7675C10.37 8.82 10.4 8.85 10.415 8.8575C10.5275 8.9475 10.64 9.0375 10.7375 9.105C10.8575 9.195 10.9775 9.2775 11.105 9.345C11.255 9.435 11.42 9.5175 11.585 9.6C11.7575 9.675 11.915 9.7425 12.0725 9.795L8.7125 13.1325ZM13.5275 8.3175L12.8375 9.015C12.7925 9.06 12.7325 9.0825 12.6725 9.0825C12.65 9.0825 12.62 9.0825 12.605 9.075C11.0825 8.64 9.8675 7.425 9.4325 5.9025C9.41 5.82 9.4325 5.73 9.4925 5.6775L10.19 4.98C11.33 3.84 12.4175 3.8625 13.535 4.98C14.105 5.55 14.3825 6.0975 14.3825 6.6675C14.375 7.2075 14.0975 7.7475 13.5275 8.3175Z" fill="#292D32"/>
</svg>
