<svg width="300" height="296" viewBox="0 0 300 296" fill="none" xmlns="http://www.w3.org/2000/svg">
<path d="M262.867 191.756C237.906 249.769 172.017 274.687 120.392 270.438C106.297 269.279 77.936 266.944 55.7914 246.121C13.265 206.133 19.8139 122.545 60.5242 73.3341C65.7668 66.9975 102.056 24.5377 158.606 25.1052C200.008 25.5217 229.068 48.7765 232.602 51.6738C237.066 55.3336 246.912 64.0308 255.785 77.8276C276.634 110.246 278.466 155.504 262.868 191.756H262.867Z" fill="#E0EAFF"/>
<path d="M58.1891 153.984C58.1891 153.984 58.8309 126.965 46.4033 119.734C33.9756 112.503 10.3472 107.982 9.46151 69.1849C8.94288 46.4717 8.38212 36.5408 8.0053 32.2108C7.85863 30.5213 9.35779 29.158 11.0215 29.472C22.7911 31.6922 61.0262 40.8311 69.0431 66.9647C78.5461 97.9461 58.1891 153.984 58.1891 153.984Z" fill="#8098F9"/>
<path d="M20.1248 40.2669C33.0443 51.8053 47.9841 72.2261 55.9467 92.647C56.9685 96.0122 59.9587 103.169 61.2569 115.886C62.4166 126.491 61.8404 137.699 60.4336 145.117C60.3445 145.586 59.8931 145.895 59.4247 145.805C58.6192 145.652 58.7262 144.785 58.7335 144.812C60.3396 132.138 59.6727 116.362 55.9929 102.128C51.292 84.6507 40.8067 67.7054 29.9609 53.3333L28.8451 51.9181C20.4425 41.1125 18.6735 41.0329 19.4595 40.2799C19.6451 40.1022 19.9352 40.1006 20.124 40.2685L20.1248 40.2669Z" fill="#BDD0FB"/>
<path d="M78.159 205.932C79.8405 206.757 62.2412 184.596 56.7283 149.79C54.1303 133.388 54.0963 112.838 44.7666 104.919C37.0018 98.3285 10.5777 102.49 1.93114 104.07C0.850932 104.268 0.487082 105.635 1.32823 106.342C5.47483 109.829 14.3442 118.054 16.6553 126.342C19.7015 137.268 30.074 144.218 39.3607 146.098C48.6474 147.979 53.8127 149.804 58.3369 164.675C62.8611 179.546 73.382 203.585 78.1599 205.931L78.159 205.932Z" fill="#8098F9"/>
<path d="M14.0914 108.687C25.1219 109.149 36.9629 114.189 42.9717 123.64L43.5389 124.541C44.8485 126.656 52.2722 141.69 56.3953 154.153C56.4463 154.308 56.3629 154.476 56.2073 154.528C55.9439 154.616 55.8118 154.325 55.8369 154.35C52.9642 147.31 48.8387 138.384 45.5527 131.709C42.0284 124.425 39.5625 119.492 31.5246 114.768C22.5782 109.679 14.0314 109.156 14.0565 109.161C13.926 109.148 13.8312 109.031 13.8442 108.9C13.8572 108.774 13.9658 108.682 14.0906 108.687H14.0914Z" fill="url(#paint0_linear_800_17367)"/>
<g clip-path="url(#clip0_800_17367)">
<path d="M203.939 105.186L226.099 219.12L229.001 234.036L81.0625 233.309C74.4257 233.277 68.541 227.38 66.404 218.625L40.1704 111.058C38.5473 104.409 42.1069 97.4966 47.1456 97.4966L196.876 97.6533C200.185 97.6533 203.074 100.743 203.939 105.186Z" fill="#A4BCFD"/>
<g opacity="0.5">
<path d="M203.939 105.186L226.099 219.12L229.001 234.036L81.0625 233.309C74.4257 233.277 68.541 227.38 66.404 218.625L40.1704 111.058C38.5473 104.409 42.1069 97.4966 47.1456 97.4966L196.876 97.6533C200.185 97.6533 203.074 100.743 203.939 105.186Z" fill="#3941AB"/>
</g>
<path d="M95.2509 211.399L110.912 85.1756C111.558 80.0053 115.675 76.1448 120.538 76.1636L154.887 76.2764C157.432 76.2827 159.87 77.3669 161.675 79.2846L177.981 96.6191L273.509 97.1205C279.343 97.1518 283.83 102.673 283.06 108.884L268.514 225.544C267.868 230.708 263.757 234.562 258.9 234.55L92.4182 234.224C73.8742 234.606 72.1069 229.135 72.1069 229.135C93.3582 233.841 95.2509 211.418 95.2509 211.406V211.399Z" fill="#A4BCFD"/>
<g opacity="0.5">
<path d="M167.033 186.137L172.648 192.166L215.89 153.267L210.275 147.238L167.033 186.137Z" fill="white"/>
<path d="M175.004 145.896L168.794 151.48L207.925 193.507L214.129 187.923L175.004 145.896Z" fill="white"/>
</g>
</g>
<defs>
<linearGradient id="paint0_linear_800_17367" x1="65.2403" y1="48.2373" x2="-22.5914" y2="290.684" gradientUnits="userSpaceOnUse">
<stop stop-color="#DAE3FE"/>
<stop offset="1" stop-color="#E9EFFD"/>
</linearGradient>
<clipPath id="clip0_800_17367">
<rect width="243.372" height="158.386" fill="white" transform="matrix(-1 0 0 1 283.141 76.1636)"/>
</clipPath>
</defs>
</svg>
