<svg width="300" height="296" viewBox="0 0 300 296" fill="none" xmlns="http://www.w3.org/2000/svg">
                    <path d="M262.867 191.756C237.906 249.769 172.017 274.687 120.392 270.438C106.296 269.279 77.9355 266.944 55.7909 246.121C13.2645 206.133 19.8134 122.545 60.5237 73.3341C65.7663 66.9975 102.056 24.5377 158.605 25.1052C200.008 25.5217 229.067 48.7765 232.602 51.6738C237.065 55.3336 246.911 64.0308 255.784 77.8276C276.633 110.246 278.466 155.504 262.868 191.756H262.867Z" fill="#E0EAFF"/>
                    <g clip-path="url(#clip0_4295_5021)">
                    <path d="M203.939 105.187L226.099 219.121L229.001 234.036L81.0627 233.309C74.426 233.278 68.5413 227.381 66.4043 218.626L40.1707 111.059C38.5475 104.41 42.1072 97.4971 47.1458 97.4971L196.876 97.6537C200.185 97.6537 203.074 100.743 203.939 105.187Z" fill="#A4BCFD"/>
                    <g opacity="0.5">
                    <path d="M203.939 105.187L226.099 219.121L229.001 234.036L81.0627 233.309C74.426 233.278 68.5413 227.381 66.4043 218.626L40.1707 111.059C38.5475 104.41 42.1072 97.4971 47.1458 97.4971L196.876 97.6537C200.185 97.6537 203.074 100.743 203.939 105.187Z" fill="#3A86FE"/>
                    </g>
                    <path d="M95.2514 211.4L110.913 85.1761C111.558 80.0058 115.675 76.1453 120.539 76.1641L154.888 76.2769C157.432 76.2832 159.87 77.3674 161.675 79.2851L177.982 96.6196L273.509 97.121C279.344 97.1523 283.831 102.674 283.06 108.884L268.514 225.544C267.869 230.708 263.758 234.563 258.901 234.55L92.4187 234.224C73.8747 234.607 72.1074 229.135 72.1074 229.135C93.3587 233.842 95.2514 211.419 95.2514 211.406V211.4Z" fill="#A4BCFD"/>
                    <g opacity="0.5">
                    <path d="M167.033 186.138L172.648 192.166L215.891 153.267L210.275 147.238L167.033 186.138Z" fill="white"/>
                    <path d="M175.005 145.897L168.795 151.481L207.926 193.508L214.13 187.924L175.005 145.897Z" fill="white"/>
                    </g>
                    </g>
                    <defs>
                    <clipPath id="clip0_4295_5021">
                    <rect width="243.372" height="158.386" fill="white" transform="matrix(-1 0 0 1 283.142 76.1641)"/>
                    </clipPath>
                    </defs>
                    </svg>