<svg width="16" height="16" viewBox="0 0 16 16" fill="none" xmlns="http://www.w3.org/2000/svg">
<g clip-path="url(#clip0_6003_89390)">
<g clip-path="url(#clip1_6003_89390)">
<circle cx="8" cy="8" r="8" fill="#2196F3"/>
<path d="M5.06706 7.06706V12.4004C5.06706 12.5772 4.99682 12.7468 4.87179 12.8718C4.74677 12.9968 4.5772 13.0671 4.40039 13.0671H3.06706C2.89025 13.0671 2.72068 12.9968 2.59565 12.8718C2.47063 12.7468 2.40039 12.5772 2.40039 12.4004V7.73372C2.40039 7.55691 2.47063 7.38734 2.59565 7.26232C2.72068 7.1373 2.89025 7.06706 3.06706 7.06706H5.06706C5.7743 7.06706 6.45258 6.78611 6.95267 6.28601C7.45277 5.78591 7.73372 5.10763 7.73372 4.40039V3.73372C7.73372 3.3801 7.8742 3.04096 8.12425 2.79091C8.3743 2.54087 8.71343 2.40039 9.06706 2.40039C9.42068 2.40039 9.75982 2.54087 10.0099 2.79091C10.2599 3.04096 10.4004 3.3801 10.4004 3.73372V7.06706H12.4004C12.754 7.06706 13.0931 7.20753 13.3432 7.45758C13.5932 7.70763 13.7337 8.04677 13.7337 8.40039L13.0671 11.7337C12.9712 12.1427 12.7893 12.4939 12.5488 12.7344C12.3083 12.9748 12.0223 13.0916 11.7337 13.0671H7.06706C6.53662 13.0671 6.02792 12.8563 5.65284 12.4813C5.27777 12.1062 5.06706 11.5975 5.06706 11.0671" fill="white"/>
<path d="M5.06706 7.06706V12.4004C5.06706 12.5772 4.99682 12.7468 4.87179 12.8718C4.74677 12.9968 4.5772 13.0671 4.40039 13.0671H3.06706C2.89025 13.0671 2.72068 12.9968 2.59565 12.8718C2.47063 12.7468 2.40039 12.5772 2.40039 12.4004V7.73372C2.40039 7.55691 2.47063 7.38734 2.59565 7.26232C2.72068 7.1373 2.89025 7.06706 3.06706 7.06706H5.06706ZM5.06706 7.06706C5.7743 7.06706 6.45258 6.78611 6.95267 6.28601C7.45277 5.78591 7.73372 5.10763 7.73372 4.40039V3.73372C7.73372 3.3801 7.8742 3.04096 8.12425 2.79091C8.3743 2.54087 8.71343 2.40039 9.06706 2.40039C9.42068 2.40039 9.75982 2.54087 10.0099 2.79091C10.2599 3.04096 10.4004 3.3801 10.4004 3.73372V7.06706H12.4004C12.754 7.06706 13.0931 7.20753 13.3432 7.45758C13.5932 7.70763 13.7337 8.04677 13.7337 8.40039L13.0671 11.7337C12.9712 12.1427 12.7893 12.4939 12.5488 12.7344C12.3083 12.9748 12.0223 13.0916 11.7337 13.0671H7.06706C6.53662 13.0671 6.02792 12.8563 5.65284 12.4813C5.27777 12.1062 5.06706 11.5975 5.06706 11.0671" stroke="#2196F3" stroke-width="1.4" stroke-linecap="round" stroke-linejoin="round"/>
</g>
<path d="M5.06706 7.06706V12.4004C5.06706 12.5772 4.99682 12.7468 4.87179 12.8718C4.74677 12.9968 4.5772 13.0671 4.40039 13.0671H3.06706C2.89025 13.0671 2.72068 12.9968 2.59565 12.8718C2.47063 12.7468 2.40039 12.5772 2.40039 12.4004V7.73372C2.40039 7.55691 2.47063 7.38734 2.59565 7.26232C2.72068 7.1373 2.89025 7.06706 3.06706 7.06706H5.06706C5.7743 7.06706 6.45258 6.78611 6.95267 6.28601C7.45277 5.78591 7.73372 5.10763 7.73372 4.40039V3.73372C7.73372 3.3801 7.8742 3.04096 8.12425 2.79091C8.3743 2.54087 8.71343 2.40039 9.06706 2.40039C9.42068 2.40039 9.75982 2.54087 10.0099 2.79091C10.2599 3.04096 10.4004 3.3801 10.4004 3.73372V7.06706H12.4004C12.754 7.06706 13.0931 7.20753 13.3432 7.45758C13.5932 7.70763 13.7337 8.04677 13.7337 8.40039L13.0671 11.7337C12.9712 12.1427 12.7893 12.4939 12.5488 12.7344C12.3083 12.9748 12.0223 13.0916 11.7337 13.0671H7.06706C6.53662 13.0671 6.02792 12.8563 5.65284 12.4813C5.27777 12.1062 5.06706 11.5975 5.06706 11.0671" fill="white"/>
<path d="M5.06706 7.06706V12.4004C5.06706 12.5772 4.99682 12.7468 4.87179 12.8718C4.74677 12.9968 4.5772 13.0671 4.40039 13.0671H3.06706C2.89025 13.0671 2.72068 12.9968 2.59565 12.8718C2.47063 12.7468 2.40039 12.5772 2.40039 12.4004V7.73372C2.40039 7.55691 2.47063 7.38734 2.59565 7.26232C2.72068 7.1373 2.89025 7.06706 3.06706 7.06706H5.06706ZM5.06706 7.06706C5.7743 7.06706 6.45258 6.78611 6.95267 6.28601C7.45277 5.78591 7.73372 5.10763 7.73372 4.40039V3.73372C7.73372 3.3801 7.8742 3.04096 8.12425 2.79091C8.3743 2.54087 8.71343 2.40039 9.06706 2.40039C9.42068 2.40039 9.75982 2.54087 10.0099 2.79091C10.2599 3.04096 10.4004 3.3801 10.4004 3.73372V7.06706H12.4004C12.754 7.06706 13.0931 7.20753 13.3432 7.45758C13.5932 7.70763 13.7337 8.04677 13.7337 8.40039L13.0671 11.7337C12.9712 12.1427 12.7893 12.4939 12.5488 12.7344C12.3083 12.9748 12.0223 13.0916 11.7337 13.0671H7.06706C6.53662 13.0671 6.02792 12.8563 5.65284 12.4813C5.27777 12.1062 5.06706 11.5975 5.06706 11.0671" stroke="#2196F3" stroke-width="1.4" stroke-linecap="round" stroke-linejoin="round"/>
</g>
<defs>
<clipPath id="clip0_6003_89390">
<rect width="16" height="16" fill="white"/>
</clipPath>
<clipPath id="clip1_6003_89390">
<rect width="16" height="16" fill="white"/>
</clipPath>
</defs>
</svg>
