<svg width="19" height="18" viewBox="0 0 19 18" fill="none" xmlns="http://www.w3.org/2000/svg">
<path d="M9.50375 13.0114C10.1789 13.0114 10.7262 12.4641 10.7262 11.7889C10.7262 11.1137 10.1789 10.5664 9.50375 10.5664C8.82858 10.5664 8.28125 11.1137 8.28125 11.7889C8.28125 12.4641 8.82858 13.0114 9.50375 13.0114Z" fill="#292D32"/>
<path d="M14.21 7.1475V6.21C14.21 4.185 13.7225 1.5 9.5 1.5C5.2775 1.5 4.79 4.185 4.79 6.21V7.1475C2.69 7.41 2 8.475 2 11.0925V12.4875C2 15.5625 2.9375 16.5 6.0125 16.5H12.9875C16.0625 16.5 17 15.5625 17 12.4875V11.0925C17 8.475 16.31 7.41 14.21 7.1475ZM9.5 14.055C8.2475 14.055 7.235 13.035 7.235 11.79C7.235 10.5375 8.255 9.525 9.5 9.525C10.745 9.525 11.765 10.545 11.765 11.79C11.765 13.0425 10.7525 14.055 9.5 14.055ZM6.0125 7.08C5.9525 7.08 5.9 7.08 5.84 7.08V6.21C5.84 4.0125 6.4625 2.55 9.5 2.55C12.5375 2.55 13.16 4.0125 13.16 6.21V7.0875C13.1 7.0875 13.0475 7.0875 12.9875 7.0875H6.0125V7.08Z" fill="#292D32"/>
</svg>
