<svg width="16" height="16" viewBox="0 0 16 16" fill="none" xmlns="http://www.w3.org/2000/svg">
<path d="M3.35938 3.85254C6.85961 3.49725 10.4159 3.63399 13.9971 3.98535L13.998 3.98633V3.98828H13.9678C10.4324 3.63536 6.88668 3.50056 3.36523 3.85742L2.00684 3.99023C2.00393 3.99037 2.00244 3.99038 2.00195 3.99023L2 3.98926V3.98535L3.35742 3.85254H3.35938Z" fill="#E81A1A" stroke="#E81A1A"/>
<path d="M5.67578 3.31543L5.6748 3.31445L5.67578 3.31543ZM6.33008 1.4707C6.26896 1.5027 6.20844 1.54222 6.15234 1.59473C6.00526 1.7324 5.93884 1.89921 5.90137 2.03027C5.86562 2.15531 5.84143 2.30448 5.81836 2.44141L5.66602 3.30469H5.66504L5.81055 2.44141L5.81152 2.44043C5.86821 2.10036 5.919 1.85325 6.06738 1.66992C6.12033 1.60451 6.20018 1.53213 6.33008 1.4707ZM7.125 1.33203H8.87109C8.97576 1.33203 9.07046 1.33825 9.15625 1.34668C9.06722 1.34071 8.97386 1.33887 8.87793 1.33887H7.13086C6.98746 1.33887 6.84991 1.34468 6.72461 1.35938C6.83856 1.3426 6.97114 1.33203 7.125 1.33203ZM9.86816 1.6123C9.8922 1.63528 9.91309 1.65764 9.93066 1.67969C9.93523 1.68542 9.93897 1.69239 9.94336 1.69824C9.92084 1.66901 9.89644 1.6399 9.86816 1.6123ZM9.79297 1.5498C9.80966 1.56187 9.82454 1.57467 9.83887 1.58691C9.82387 1.57363 9.80844 1.5616 9.79297 1.5498Z" fill="#FFE0E0" stroke="#E81A1A"/>
<path d="M4.30566 14.25C4.28179 14.2268 4.25845 14.2026 4.23633 14.1768C4.06444 13.9762 3.98733 13.7417 3.94434 13.5254C3.9884 13.7483 4.05652 13.941 4.17285 14.1035C4.19705 14.1373 4.22488 14.1712 4.25684 14.2051L4.30566 14.25ZM4.30566 14.25C4.32702 14.2698 4.34824 14.2913 4.37305 14.3105C4.34987 14.2914 4.32743 14.2712 4.30566 14.25ZM11.7471 14.1934C11.7417 14.1993 11.7361 14.2051 11.7305 14.2109C11.736 14.2051 11.7417 14.1994 11.7471 14.1934ZM11.8232 14.1035C11.8137 14.1169 11.8007 14.1282 11.79 14.1416C11.809 14.1177 11.8272 14.094 11.8438 14.0693C11.8364 14.0804 11.831 14.0927 11.8232 14.1035ZM11.9307 13.9092C11.9164 13.9405 11.9024 13.9714 11.8857 14.001C11.9029 13.971 11.9163 13.9397 11.9307 13.9092ZM3.43164 6.0957L3.86523 12.8066V12.8105C3.88089 13.0268 3.89732 13.2461 3.92969 13.4424C3.9165 13.3636 3.90469 13.2813 3.89551 13.1953L3.86328 12.8057L3.42969 6.0957L3.43066 6.09473L3.43164 6.0957ZM12.5635 6.09766L12.1318 12.8057C12.126 12.8891 12.1181 12.9698 12.1113 13.0479C12.1174 12.9682 12.1246 12.8877 12.1299 12.8076V12.8066L12.5625 6.09863L12.5635 6.09766Z" fill="#FFE0E0" stroke="#E81A1A"/>
<path d="M9.10281 11.5H6.88281C6.60948 11.5 6.38281 11.2733 6.38281 11C6.38281 10.7267 6.60948 10.5 6.88281 10.5H9.10281C9.37615 10.5 9.60281 10.7267 9.60281 11C9.60281 11.2733 9.37615 11.5 9.10281 11.5Z" fill="#E81A1A"/>
<path d="M9.66927 8.83203H6.33594C6.0626 8.83203 5.83594 8.60536 5.83594 8.33203C5.83594 8.0587 6.0626 7.83203 6.33594 7.83203H9.66927C9.9426 7.83203 10.1693 8.0587 10.1693 8.33203C10.1693 8.60536 9.9426 8.83203 9.66927 8.83203Z" fill="#E81A1A"/>
</svg>
