<svg width="24" height="24" viewBox="0 0 24 24" fill="none" xmlns="http://www.w3.org/2000/svg">
<path d="M18.1875 9.07812H9.07654V5.5448C9.07654 3.9865 10.3873 2.71875 11.9984 2.71875C13.6095 2.71875 14.9203 3.9865 14.9203 5.5448V7.1875H16.639V5.5448C16.639 3.03878 14.5572 1 11.9984 1C9.43958 1 7.35779 3.03878 7.35779 5.5448V9.07812H5.8125C4.39092 9.07812 3.23438 10.2347 3.23438 11.6562V20.4219C3.23438 21.8435 4.39092 23 5.8125 23H18.1875C19.6091 23 20.7656 21.8435 20.7656 20.4219V11.6562C20.7656 10.2347 19.6091 9.07812 18.1875 9.07812ZM19.0469 20.4219C19.0469 20.8957 18.6614 21.2812 18.1875 21.2812H5.8125C5.33864 21.2812 4.95312 20.8957 4.95312 20.4219V11.6562C4.95312 11.1824 5.33864 10.7969 5.8125 10.7969H18.1875C18.6614 10.7969 19.0469 11.1824 19.0469 11.6562V20.4219Z" fill="black"/>
<path d="M12 13.2891C11.1219 13.2891 10.4102 14.0008 10.4102 14.8789C10.4102 15.4396 10.7006 15.9321 11.139 16.2151V18.1016C11.139 18.5762 11.5238 18.9609 11.9984 18.9609C12.473 18.9609 12.8578 18.5762 12.8578 18.1016V16.2172C13.298 15.9344 13.5898 15.4409 13.5898 14.8789C13.5898 14.0008 12.8781 13.2891 12 13.2891Z" fill="black"/>
</svg>
