<svg width="301" height="260" viewBox="0 0 301 260" fill="none" xmlns="http://www.w3.org/2000/svg">
<g clip-path="url(#clip0_5801_64016)">
<path d="M88.4581 256.797C93.2901 252.693 96.2251 246.209 95.4554 239.898C94.6856 233.586 89.9183 227.784 83.7344 226.444C77.5505 225.104 70.5013 228.814 68.623 234.886C67.5893 223.179 66.3982 210.982 60.2062 201.012C54.5996 191.985 44.8888 185.526 34.3644 184.371C23.8401 183.215 12.7593 187.58 6.19565 195.929C-0.367993 204.279 -1.97507 216.418 2.62194 226.004C6.00839 233.066 12.2474 238.322 18.7844 242.597C39.9077 256.297 65.2423 261.868 90.1268 258.285" fill="#E0EAFF"/>
<path d="M16.6005 187.822C25.2843 194.931 33.2509 202.883 40.3849 211.562C51.5495 225.097 60.5841 240.273 67.1738 256.561C67.6562 257.749 65.7367 258.266 65.2597 257.091C61.0691 246.794 55.8846 236.933 49.7804 227.652C40.2616 213.154 28.5998 200.198 15.1968 189.233C14.2058 188.421 15.6177 187.017 16.6005 187.822Z" fill="white"/>
<path d="M91.7951 256.797C86.9631 252.693 84.0281 246.209 84.7978 239.898C85.5675 233.586 90.3349 227.784 96.5188 226.444C102.703 225.104 109.752 228.814 111.63 234.886C112.664 223.179 113.855 210.982 120.047 201.012C125.654 191.985 135.364 185.526 145.889 184.371C156.413 183.215 167.494 187.58 174.058 195.929C180.621 204.279 182.228 216.418 177.631 226.004C174.245 233.066 168.006 238.322 161.469 242.597C140.346 256.297 115.011 261.868 90.1263 258.285" fill="#E0EAFF"/>
<path d="M163.65 187.822C154.967 194.931 147 202.883 139.866 211.562C128.701 225.097 119.667 240.273 113.077 256.561C112.595 257.749 114.514 258.266 114.991 257.091C125.773 230.621 142.986 207.29 165.054 189.233C166.045 188.421 164.633 187.017 163.65 187.822Z" fill="white"/>
<path d="M106.135 84.9717C114.795 84.9717 121.82 92.0295 121.82 100.741C121.82 109.453 114.795 116.511 106.135 116.511C97.4743 116.511 90.4492 109.453 90.4492 100.741C90.4492 92.0295 97.4743 84.9717 106.135 84.9717Z" fill="#666666" stroke="#CBC7C7"/>
<path d="M56.23 44.6572H167.745V50.7899H70.4658C64.7462 50.7899 59.0826 51.9223 53.7984 54.1225C48.5141 56.3226 43.7127 59.5474 39.6683 63.6127C35.624 67.6781 32.4158 72.5043 30.227 77.8159C28.0382 83.1276 26.9116 88.8205 26.9116 94.5698V164.245H14.7095C14.1701 164.245 13.6528 164.029 13.2714 163.646C12.8901 163.262 12.6758 162.742 12.6758 162.2V88.4371C12.6758 82.6878 13.8023 76.9949 15.9911 71.6832C18.18 66.3716 21.3881 61.5454 25.4325 57.48C29.4769 53.4147 34.2783 50.1899 39.5625 47.9897C44.8468 45.7896 50.5104 44.6572 56.23 44.6572Z" fill="#3941AB"/>
<path d="M77.6797 257.138V163.982H104.83V257.138C104.829 257.765 104.581 258.365 104.141 258.808C103.7 259.25 103.103 259.499 102.48 259.5H80.0292C79.4063 259.499 78.8091 259.25 78.3686 258.808C77.9282 258.365 77.6804 257.765 77.6797 257.138Z" fill="#3941AB"/>
<path d="M166.72 41.4111V164.27H9.54102C9.05186 164.269 8.57972 164.098 8.2041 163.788L8.0498 163.647C7.70317 163.299 7.48895 162.841 7.44043 162.354L7.42969 162.145V86.3955L7.44434 85.2793C7.73164 74.1286 12.1272 63.48 19.7764 55.4004L20.5527 54.6006C28.6802 46.4312 39.6086 41.7241 51.0693 41.4258L52.1797 41.4111H166.72ZM52.1787 41.4609C40.3256 41.4744 28.9617 46.2136 20.5811 54.6377C12.4626 62.7984 7.78585 73.7716 7.48926 85.2793L7.47363 86.3945V162.146L7.48438 162.351C7.52494 162.757 7.68352 163.143 7.94141 163.459L8.0791 163.61C8.4177 163.951 8.8618 164.161 9.33496 164.209L9.54004 164.22H166.676V41.4609H52.1787Z" fill="#3F3D56" stroke="#CBC7C7"/>
<path d="M106.135 109.138C103.643 109.135 101.254 108.139 99.4926 106.368C97.7307 104.597 96.7396 102.196 96.7368 99.6915V31.9894C96.7364 31.5719 96.5712 31.1717 96.2776 30.8765C95.9839 30.5814 95.5858 30.4153 95.1705 30.4149H58.6223C57.9302 30.4141 57.2666 30.1374 56.7772 29.6454C56.2878 29.1535 56.0125 28.4865 56.0117 27.7908V3.12411C56.0125 2.4284 56.2878 1.76141 56.7772 1.26947C57.2666 0.77753 57.9302 0.500806 58.6223 0.5H112.922C113.615 0.500796 114.278 0.77752 114.768 1.26946C115.257 1.76141 115.532 2.4284 115.533 3.12411V99.6915C115.53 102.196 114.539 104.597 112.777 106.368C111.015 108.139 108.627 109.135 106.135 109.138Z" fill="#3941AB"/>
<path d="M171.401 39.8614C179.278 39.8448 186.838 42.974 192.419 48.5607C198.001 54.1473 201.145 61.7338 201.162 69.6511V155.884H259.639C261.988 155.88 264.243 156.813 265.908 158.479C267.572 160.145 268.51 162.408 268.515 164.769H141.641V69.6511C141.657 61.7338 144.802 54.1473 150.383 48.5607C155.964 42.974 163.525 39.8448 171.401 39.8614Z" fill="#3941AB"/>
<path d="M211.989 22.2285C212.317 22.1494 212.663 22.1902 212.964 22.3438V22.3447L282.646 58.6104L282.764 58.6719L282.896 58.667C283.026 58.6619 283.156 58.6746 283.282 58.7061L283.406 58.7441L283.41 58.7451C283.577 58.8028 283.732 58.8918 283.865 59.0068L283.991 59.1299C284.11 59.2616 284.203 59.4143 284.266 59.5801L284.317 59.75V59.751L290.363 84.8545L170.787 113.951L164.743 88.8506C164.656 88.4891 164.714 88.1066 164.904 87.7881L165.006 87.6182L164.984 87.5234L177.589 69.8516L211.17 22.7803C211.344 22.5385 211.588 22.3591 211.867 22.2646L211.989 22.2285Z" fill="white" stroke="#DDDDDD"/>
<path d="M164.475 87.532C164.481 87.5653 164.494 87.5971 164.512 87.6255C164.53 87.654 164.554 87.6786 164.581 87.6978C164.614 87.7203 164.651 87.7359 164.69 87.7436C164.729 87.7513 164.769 87.751 164.808 87.7427C164.871 87.7258 164.926 87.6873 164.964 87.6339L165.007 87.5734L165.666 86.6468L177.638 69.8712L211.21 22.8087C211.402 22.542 211.682 22.3531 212 22.2765C212.319 22.1998 212.654 22.2403 212.945 22.3908L282.086 58.3761L282.707 58.6998C282.732 58.7104 282.758 58.7195 282.784 58.7269C282.83 58.7184 282.878 58.7138 282.925 58.7133C282.99 58.6914 283.044 58.6455 283.077 58.5848C283.094 58.5529 283.104 58.5179 283.107 58.4819C283.111 58.4459 283.107 58.4096 283.096 58.375C283.086 58.3405 283.068 58.3084 283.045 58.2806C283.023 58.2527 282.994 58.2297 282.962 58.2129L282.877 58.1671L213.196 21.9008C212.787 21.6912 212.318 21.6353 211.872 21.743C211.426 21.8507 211.033 22.115 210.764 22.4882L177.182 69.5616L164.522 87.3125C164.499 87.3436 164.483 87.3793 164.475 87.4172C164.467 87.4551 164.467 87.4942 164.475 87.532Z" fill="#3941AB"/>
<path d="M200.677 90.1413L203.361 90.4405L223.275 92.6581L236.478 94.1272L237.257 94.2143L253.731 81.2802L254.362 80.7848L258.253 77.7302L272.097 66.8631L272.18 66.0998L277.103 21.4299C277.171 20.8148 276.992 20.1981 276.608 19.7149C276.223 19.2317 275.664 18.9215 275.052 18.8523L209.341 11.5353C208.729 11.4681 208.115 11.6474 207.635 12.0339C207.154 12.4204 206.845 12.9827 206.776 13.5974L203.304 45.1065L201.378 62.5757L199.655 78.2041L198.856 85.462L198.623 87.5643C198.557 88.1796 198.735 88.7963 199.12 89.2794C199.505 89.7624 200.065 90.0723 200.677 90.1413Z" fill="#E0EAFF"/>
<path d="M218.737 50.9864L247.201 54.1553L257.295 55.2788C257.741 55.3284 258.192 55.2893 258.623 55.1637C259.053 55.0381 259.455 54.8285 259.805 54.5468C260.155 54.2651 260.447 53.9169 260.663 53.522C260.879 53.1271 261.015 52.6933 261.065 52.2453C261.114 51.7973 261.075 51.3439 260.95 50.9111C260.825 50.4782 260.617 50.0743 260.337 49.7225C260.056 49.3706 259.71 49.0777 259.317 48.8604C258.924 48.6431 258.493 48.5058 258.047 48.4561L245.492 47.0584L219.491 44.1604C218.59 44.0605 217.687 44.3239 216.98 44.8929C216.273 45.4619 215.82 46.2899 215.72 47.1948C215.62 48.0996 215.882 49.0073 216.447 49.7184C217.013 50.4294 217.837 50.8855 218.737 50.9864Z" fill="white"/>
<path d="M217.113 63.6438C217.187 63.657 217.26 63.6702 217.335 63.6775L250.377 67.357L255.894 67.9725C256.795 68.0726 257.698 67.8091 258.405 67.2399C259.112 66.6707 259.565 65.8425 259.665 64.9374C259.764 64.0323 259.502 63.1245 258.936 62.4137C258.37 61.7029 257.546 61.2473 256.645 61.1472L248.668 60.2601L222.494 57.3448L218.09 56.8542C217.209 56.7554 216.324 57.0048 215.623 57.5497C214.922 58.0946 214.459 58.8923 214.332 59.774C214.205 60.6558 214.425 61.5526 214.944 62.2748C215.463 62.9969 216.241 63.4879 217.113 63.6438Z" fill="white"/>
<path d="M213.374 74.866C213.645 75.3179 214.015 75.7009 214.457 75.9854C214.899 76.2699 215.401 76.4481 215.922 76.5063L229.465 78.014L253.585 80.7L253.591 80.6987L254.362 80.7851L258.253 77.7306C258.277 77.4985 258.277 77.2646 258.254 77.0326C258.172 76.2534 257.827 75.5257 257.278 74.9699C256.729 74.4141 256.007 74.0635 255.232 73.9761L251.882 73.6019L238.59 72.1234L229.026 71.0572L216.673 69.681C216.04 69.6106 215.4 69.7195 214.825 69.9956C214.251 70.2716 213.764 70.7038 213.421 71.2431C213.078 71.7825 212.891 72.4076 212.883 73.0478C212.875 73.688 213.045 74.3178 213.374 74.866Z" fill="white"/>
<path d="M232.397 35.5162L239.479 36.3046L242.607 36.6539L247.333 37.1795C248.233 37.2796 249.136 37.0161 249.843 36.4469C250.55 35.8777 251.004 35.0494 251.103 34.1443C251.203 33.2392 250.941 32.3315 250.374 31.6207C249.808 30.9099 248.984 30.4543 248.084 30.3542L233.152 28.6929C232.251 28.5923 231.348 28.8553 230.641 29.424C229.934 29.9927 229.48 30.8205 229.38 31.7253C229.28 32.6302 229.542 33.5379 230.108 34.2488C230.673 34.9597 231.497 35.4156 232.397 35.5162Z" fill="white"/>
<path d="M174.487 54.5207L183.121 90.3733L197.532 93.1277L210.863 95.6788L225.166 98.4144L229.736 99.2885C230.003 99.3394 230.278 99.3324 230.543 99.268C230.808 99.2036 231.056 99.0833 231.27 98.9151L234.937 96.0367L237.258 94.2145L253.732 81.2804L243.257 37.7864C243.154 37.3537 242.928 36.9602 242.608 36.6533C242.327 36.3817 241.982 36.1856 241.606 36.0831C241.229 35.9807 240.833 35.9751 240.454 36.067L176.197 51.7028C175.599 51.8488 175.083 52.2276 174.762 52.7559C174.441 53.2843 174.342 53.919 174.487 54.5207Z" fill="#E0EAFF"/>
<path d="M194.287 83.0434C194.5 83.9279 195.055 84.6908 195.828 85.1649C196.6 85.639 197.529 85.7854 198.409 85.572L236.114 76.3973C236.993 76.1819 237.752 75.6248 238.223 74.848C238.695 74.0712 238.841 73.1381 238.629 72.2534C238.619 72.2095 238.607 72.1663 238.592 72.1239C238.352 71.2709 237.792 70.5447 237.03 70.0975C236.268 69.6502 235.364 69.5167 234.507 69.7248L196.802 78.8995C195.922 79.1144 195.163 79.6715 194.692 80.4484C194.22 81.2254 194.074 82.1587 194.287 83.0434Z" fill="white"/>
<path d="M197.531 93.1282L210.862 95.6793L239.1 88.8079C239.981 88.5937 240.74 88.0368 241.212 87.2597C241.684 86.4826 241.829 85.5489 241.616 84.664C241.403 83.7792 240.849 83.0157 240.076 82.5415C239.303 82.0673 238.374 81.9212 237.493 82.1354L199.789 91.3102C199.001 91.5004 198.307 91.968 197.832 92.6283C197.718 92.7861 197.617 92.9533 197.531 93.1282Z" fill="white"/>
<path d="M225.164 98.4148L229.734 99.289C230.002 99.3398 230.277 99.3328 230.542 99.2684C230.806 99.204 231.054 99.0837 231.269 98.9155L234.935 96.0371L225.164 98.4148Z" fill="white"/>
<path d="M201.885 63.8186C202.099 64.703 202.653 65.466 203.426 65.9401C204.199 66.4142 205.127 66.5606 206.007 66.3472L220.611 62.7936C221.491 62.5782 222.249 62.0211 222.721 61.2443C223.193 60.4675 223.338 59.5344 223.127 58.6497C223.013 58.1743 222.798 57.7292 222.498 57.3449C222.094 56.8254 221.549 56.4337 220.93 56.2167C220.31 55.9997 219.642 55.9665 219.004 56.1211L204.4 59.6747C203.52 59.889 202.761 60.446 202.289 61.223C201.817 62.0001 201.672 62.9338 201.885 63.8186Z" fill="white"/>
<path d="M282.891 58.667H282.896C283.026 58.6619 283.156 58.6755 283.282 58.707L283.406 58.7441L283.41 58.7451C283.633 58.8219 283.833 58.9544 283.991 59.1299C284.11 59.2617 284.203 59.4151 284.266 59.5811L284.317 59.751V59.752L300.459 126.775V126.776C300.536 127.098 300.5 127.435 300.358 127.73L300.291 127.854C300.12 128.135 299.858 128.347 299.552 128.455L299.418 128.495L182.589 156.924C182.226 157.012 181.843 156.951 181.523 156.755C181.244 156.583 181.033 156.32 180.925 156.011L180.885 155.876L164.743 88.8506C164.656 88.4902 164.713 88.1099 164.902 87.792C164.931 87.7452 164.961 87.6999 164.994 87.6562L165.1 87.5303C165.286 87.3348 165.524 87.197 165.785 87.1328L165.784 87.1318C165.93 87.0962 166.08 87.0856 166.229 87.0986L166.376 87.1201L166.38 87.1211L197.738 93.1191L210.754 95.6074L210.769 96.1699L225.073 98.9062L229.643 99.7803L229.645 99.7812C229.897 99.8286 230.155 99.8356 230.409 99.8018L230.661 99.7539C230.911 99.6931 231.15 99.5933 231.367 99.458L231.578 99.3105L231.579 99.3096L235.248 96.4307L235.002 95.9238L236.788 94.5186L236.789 94.5195L253.287 81.5723L253.427 82.1514L254.039 81.6729L254.673 81.1777L255.646 80.417L254.862 80.333L258.564 77.4277L272.489 66.4932L282.077 58.9678L282.08 58.9658C282.148 58.9117 282.222 58.8656 282.301 58.8281L282.32 58.8184C282.453 58.7482 282.595 58.701 282.742 58.6797L282.891 58.667Z" fill="white" stroke="#DDDDDD"/>
<path d="M210.863 95.6788L225.168 98.415L229.736 99.2896C230.004 99.3398 230.279 99.3325 230.543 99.2681C230.808 99.2038 231.055 99.0839 231.27 98.9163L234.939 96.0372L233.652 96.3505L230.934 98.4818C230.78 98.6015 230.603 98.6872 230.414 98.7331C230.226 98.7791 230.029 98.7843 229.838 98.7485L226.455 98.1017L212.15 95.3655L210.863 95.6788ZM253.591 80.7009L253.731 81.2791L254.365 80.7833L253.591 80.7009ZM210.863 95.6788L225.168 98.415L229.736 99.2896C230.004 99.3398 230.279 99.3325 230.543 99.2681C230.808 99.2038 231.055 99.0839 231.27 98.9163L234.939 96.0372L233.652 96.3505L230.934 98.4818C230.78 98.6015 230.603 98.6872 230.414 98.7331C230.226 98.7791 230.029 98.7843 229.838 98.7485L226.455 98.1017L212.15 95.3655L210.863 95.6788ZM210.863 95.6788L225.168 98.415L229.736 99.2896C230.004 99.3398 230.279 99.3325 230.543 99.2681C230.808 99.2038 231.055 99.0839 231.27 98.9163L234.939 96.0372L233.652 96.3505L230.934 98.4818C230.78 98.6015 230.603 98.6872 230.414 98.7331C230.226 98.7791 230.029 98.7843 229.838 98.7485L226.455 98.1017L212.15 95.3655L210.863 95.6788ZM165.007 87.5738L165.077 87.6273C165.089 87.6077 165.11 87.5902 165.126 87.5697C165.284 87.4043 165.481 87.2808 165.698 87.2105C165.915 87.1402 166.146 87.1251 166.371 87.1668L197.534 93.1256L210.863 95.6788L225.168 98.415L229.736 99.2896C230.004 99.3398 230.279 99.3325 230.543 99.2681C230.808 99.2038 231.055 99.0839 231.27 98.9163L234.939 96.0372L233.652 96.3505L230.934 98.4818C230.78 98.6015 230.603 98.6872 230.414 98.7331C230.226 98.7791 230.029 98.7843 229.838 98.7485L226.455 98.1017L212.15 95.3655L197.833 92.6282L166.474 86.6296C166.206 86.5763 165.931 86.5823 165.666 86.6472L165.007 87.5738ZM164.257 88.968L180.399 155.993C180.518 156.488 180.829 156.916 181.262 157.181C181.695 157.447 182.215 157.529 182.707 157.409L299.537 128.981C300.03 128.86 300.455 128.548 300.719 128.113C300.983 127.678 301.065 127.156 300.946 126.66L284.804 59.6348C284.729 59.3219 284.578 59.0331 284.362 58.795C284.147 58.5569 283.876 58.3773 283.573 58.2729C283.349 58.1939 283.113 58.1581 282.876 58.1675C282.6 58.1755 282.33 58.247 282.086 58.3765C281.973 58.4303 281.867 58.4967 281.769 58.5744L272.181 66.1003L258.256 77.0341L253.591 80.6969L253.591 80.7009L253.587 80.7018L236.48 94.1257L233.652 96.3505L230.934 98.4818C230.78 98.6015 230.603 98.6872 230.414 98.7331C230.226 98.7791 230.029 98.7843 229.838 98.7485L226.455 98.1017L212.15 95.3655L197.833 92.6282L166.474 86.6296C166.206 86.5763 165.931 86.5823 165.666 86.6472C165.309 86.7347 164.985 86.9234 164.732 87.1908C164.635 87.2958 164.549 87.4103 164.475 87.5324C164.217 87.9635 164.139 88.4793 164.257 88.968ZM164.789 88.8384C164.742 88.6409 164.738 88.4351 164.78 88.2362C164.822 88.0373 164.907 87.8502 165.03 87.6888C165.041 87.6651 165.057 87.6441 165.077 87.6273C165.089 87.6077 165.11 87.5902 165.126 87.5697C165.284 87.4043 165.481 87.2808 165.698 87.2105C165.915 87.1402 166.146 87.1251 166.371 87.1668L197.534 93.1256L210.863 95.6788L225.168 98.415L229.736 99.2896C230.004 99.3398 230.279 99.3325 230.543 99.2681C230.808 99.2038 231.055 99.0839 231.27 98.9163L234.939 96.0372L237.26 94.215L253.731 81.2791L254.365 80.7833L258.253 77.7301L272.099 66.8613L282.108 59.0039C282.261 58.8847 282.436 58.7993 282.624 58.7536C282.676 58.7407 282.729 58.7319 282.783 58.7273C282.83 58.7188 282.877 58.7142 282.925 58.7137C283.085 58.7121 283.244 58.7382 283.395 58.7908C283.611 58.8663 283.804 58.9948 283.958 59.1647C284.112 59.3346 284.221 59.5403 284.275 59.7634L300.417 126.789C300.46 126.964 300.467 127.147 300.44 127.325C300.412 127.504 300.349 127.675 300.256 127.829C300.162 127.984 300.039 128.118 299.894 128.224C299.748 128.331 299.584 128.407 299.409 128.45L182.58 156.878C182.227 156.963 181.855 156.904 181.546 156.714C181.237 156.524 181.016 156.218 180.931 155.864L164.789 88.8384ZM210.863 95.6788L225.168 98.415L229.736 99.2896C230.004 99.3398 230.279 99.3325 230.543 99.2681C230.808 99.2038 231.055 99.0839 231.27 98.9163L234.939 96.0372L233.652 96.3505L230.934 98.4818C230.78 98.6015 230.603 98.6872 230.414 98.7331C230.226 98.7791 230.029 98.7843 229.838 98.7485L226.455 98.1017L212.15 95.3655L210.863 95.6788ZM210.863 95.6788L225.168 98.415L229.736 99.2896C230.004 99.3398 230.279 99.3325 230.543 99.2681C230.808 99.2038 231.055 99.0839 231.27 98.9163L234.939 96.0372L233.652 96.3505L230.934 98.4818C230.78 98.6015 230.603 98.6872 230.414 98.7331C230.226 98.7791 230.029 98.7843 229.838 98.7485L226.455 98.1017L212.15 95.3655L210.863 95.6788ZM210.863 95.6788L225.168 98.415L229.736 99.2896C230.004 99.3398 230.279 99.3325 230.543 99.2681C230.808 99.2038 231.055 99.0839 231.27 98.9163L234.939 96.0372L233.652 96.3505L230.934 98.4818C230.78 98.6015 230.603 98.6872 230.414 98.7331C230.226 98.7791 230.029 98.7843 229.838 98.7485L226.455 98.1017L212.15 95.3655L210.863 95.6788Z" fill="#3941AB"/>
<path d="M269.087 115.813C268.824 114.715 269.005 113.556 269.59 112.592C270.175 111.628 271.117 110.936 272.209 110.669L286.955 107.081C288.046 106.82 289.196 107.003 290.152 107.592C291.109 108.181 291.794 109.127 292.058 110.223C292.322 111.319 292.143 112.476 291.56 113.439C290.978 114.403 290.039 115.095 288.95 115.364L274.204 118.952C273.112 119.216 271.959 119.034 271 118.446C270.04 117.858 269.352 116.911 269.087 115.813Z" fill="white"/>
<path d="M106.131 103.365C108.15 103.365 109.786 101.72 109.786 99.6913C109.786 97.6624 108.15 96.0176 106.131 96.0176C104.113 96.0176 102.477 97.6624 102.477 99.6913C102.477 101.72 104.113 103.365 106.131 103.365Z" fill="white"/>
</g>
<defs>
<clipPath id="clip0_5801_64016">
<rect width="301" height="259" fill="white" transform="translate(0 0.5)"/>
</clipPath>
</defs>
</svg>
