<svg width="24" height="25" viewBox="0 0 24 25" fill="none" xmlns="http://www.w3.org/2000/svg">
<path d="M8.71306 12.0278H3.7177C3.05868 12.0147 2.43106 11.7437 1.96966 11.273C1.50825 10.8022 1.24987 10.1693 1.25 9.51016V4.5148C1.26049 3.85403 1.53037 3.22387 2.00139 2.76033C2.47241 2.29679 3.1068 2.03703 3.76766 2.03711H8.76301C9.42379 2.0476 10.0539 2.31748 10.5175 2.7885C10.981 3.25952 11.2408 3.89391 11.2407 4.55477V9.55012C11.2302 10.2126 10.9589 10.8443 10.4858 11.3081C10.0126 11.7719 9.37564 12.0305 8.71306 12.0278ZM3.7177 3.53572C3.45273 3.53572 3.19862 3.64097 3.01126 3.82834C2.82389 4.0157 2.71863 4.26982 2.71863 4.53479V9.53014C2.71863 9.79511 2.82389 10.0492 3.01126 10.2366C3.19862 10.424 3.45273 10.5292 3.7177 10.5292H8.71306C8.97803 10.5292 9.23214 10.424 9.41951 10.2366C9.60687 10.0492 9.71213 9.79511 9.71213 9.53014V4.53479C9.71213 4.26982 9.60687 4.0157 9.41951 3.82834C9.23214 3.64097 8.97803 3.53572 8.71306 3.53572H3.7177ZM20.2323 12.0278H15.237C14.5727 12.0225 13.9375 11.755 13.4696 11.2834C13.0018 10.8118 12.7393 10.1744 12.7393 9.51016V4.5148C12.7497 3.85747 13.0168 3.23029 13.4836 2.7673C13.9503 2.30431 14.5796 2.04224 15.237 2.03711H20.2323C20.9001 2.03711 21.5404 2.30236 22.0126 2.77451C22.4847 3.24667 22.75 3.88704 22.75 4.55477V9.55012C22.7395 10.2109 22.4696 10.8411 21.9986 11.3046C21.5276 11.7681 20.8932 12.0279 20.2323 12.0278ZM15.237 3.53572C14.972 3.53572 14.7179 3.64097 14.5305 3.82834C14.3432 4.0157 14.2379 4.26982 14.2379 4.53479V9.53014C14.2379 9.79511 14.3432 10.0492 14.5305 10.2366C14.7179 10.424 14.972 10.5292 15.237 10.5292H20.2323C20.4973 10.5292 20.7514 10.424 20.9388 10.2366C21.1262 10.0492 21.2314 9.79511 21.2314 9.53014V4.53479C21.2314 4.26982 21.1262 4.0157 20.9388 3.82834C20.7514 3.64097 20.4973 3.53572 20.2323 3.53572H15.237ZM8.69308 23.5171H3.69772C3.04219 23.4989 2.41964 23.2256 1.96251 22.7554C1.50538 22.2853 1.24975 21.6553 1.25 20.9995V16.0041C1.25 15.3364 1.51525 14.696 1.98741 14.2239C2.45956 13.7517 3.09993 13.4865 3.76766 13.4865H8.76301C9.09365 13.4917 9.42002 13.562 9.72348 13.6933C10.027 13.8247 10.3016 14.0145 10.5317 14.252C10.7617 14.4895 10.9428 14.77 11.0644 15.0775C11.1861 15.385 11.246 15.7134 11.2407 16.0441V21.0394C11.2302 21.7019 10.9589 22.3336 10.4858 22.7974C10.0126 23.2612 9.37564 23.5198 8.71306 23.5171H8.69308ZM3.69772 15.025C3.43275 15.025 3.17864 15.1303 2.99127 15.3176C2.80391 15.505 2.69865 15.7591 2.69865 16.0241V21.0195C2.69865 21.2844 2.80391 21.5385 2.99127 21.7259C3.17864 21.9133 3.43275 22.0185 3.69772 22.0185H8.69308C8.95805 22.0185 9.21216 21.9133 9.39952 21.7259C9.58689 21.5385 9.69215 21.2844 9.69215 21.0195V16.0241C9.69215 15.7591 9.58689 15.505 9.39952 15.3176C9.21216 15.1303 8.95805 15.025 8.69308 15.025H3.69772ZM21.9707 20.44C21.9681 20.2421 21.8884 20.053 21.7484 19.913C21.6084 19.7731 21.4193 19.6933 21.2214 19.6907H14.2379C14.0392 19.6907 13.8486 19.7696 13.7081 19.9102C13.5676 20.0507 13.4886 20.2413 13.4886 20.44C13.4886 20.6387 13.5676 20.8293 13.7081 20.9698C13.8486 21.1103 14.0392 21.1893 14.2379 21.1893H21.2314C21.4284 21.1867 21.6164 21.1066 21.7548 20.9663C21.8932 20.8261 21.9707 20.637 21.9707 20.44ZM21.9707 16.6036C21.9707 16.4048 21.8918 16.2142 21.7513 16.0737C21.6107 15.9332 21.4201 15.8543 21.2214 15.8543H14.2379C14.0392 15.8543 13.8486 15.9332 13.7081 16.0737C13.5676 16.2142 13.4886 16.4048 13.4886 16.6036C13.4886 16.8023 13.5676 16.9929 13.7081 17.1334C13.8486 17.2739 14.0392 17.3529 14.2379 17.3529H21.2314C21.4276 17.3477 21.6142 17.2668 21.752 17.1271C21.8898 16.9874 21.9682 16.7998 21.9707 16.6036Z" fill="white"/>
</svg>
