<?xml version="1.0" encoding="iso-8859-1"?>
<!-- Uploaded to: SVG Repo, www.svgrepo.com, Generator: SVG Repo Mixer Tools -->
<svg height="800px" width="800px" version="1.1" id="Layer_1" xmlns="http://www.w3.org/2000/svg" xmlns:xlink="http://www.w3.org/1999/xlink" 
	 viewBox="0 0 512 512" xml:space="preserve">
<path style="fill:#FFDAAA;" d="M322.783,512c-2.56,0-5.114-0.587-7.467-1.761L256,480.581l-59.315,29.658
	c-4.707,2.347-10.228,2.347-14.935,0l-59.315-29.658L63.12,510.239c-5.185,2.576-11.332,2.31-16.245-0.733
	c-4.924-3.044-7.918-8.413-7.918-14.201V16.696C38.957,7.473,46.429,0,55.652,0h400.696c9.223,0,16.696,7.473,16.696,16.696v478.609
	c0,5.788-2.994,11.157-7.918,14.201c-4.919,3.043-11.065,3.316-16.245,0.733l-59.315-29.658l-59.315,29.658
	C327.897,511.413,325.343,512,322.783,512z"/>
<path style="fill:#FFC477;" d="M456.348,0H256v480.581l59.315,29.658c2.353,1.174,4.907,1.761,7.467,1.761s5.114-0.587,7.467-1.761
	l59.315-29.658l59.315,29.658c5.179,2.581,11.326,2.31,16.245-0.733c4.924-3.044,7.918-8.413,7.918-14.201V16.696
	C473.043,7.473,465.57,0,456.348,0z"/>
<path style="fill:#EE8700;" d="M189.217,300.522c-27.619,0-50.087-22.468-50.087-50.087s22.468-50.087,50.087-50.087
	s50.087,22.468,50.087,50.087S216.836,300.522,189.217,300.522z M189.217,233.739c-9.206,0-16.696,7.49-16.696,16.696
	s7.49,16.696,16.696,16.696s16.696-7.49,16.696-16.696S198.423,233.739,189.217,233.739z"/>
<path style="fill:#CC7400;" d="M322.783,434.087c-27.619,0-50.087-22.468-50.087-50.087c0-27.619,22.468-50.087,50.087-50.087
	S372.87,356.381,372.87,384C372.87,411.619,350.402,434.087,322.783,434.087z M322.783,367.304c-9.206,0-16.696,7.49-16.696,16.696
	c0,9.206,7.49,16.696,16.696,16.696c9.206,0,16.696-7.49,16.696-16.696C339.478,374.794,331.989,367.304,322.783,367.304z"/>
<g>
	<path style="fill:#EE8700;" d="M185.163,404.755c-4.272,0-8.544-1.631-11.804-4.892c-6.521-6.516-6.521-17.092,0-23.609
		l141.668-141.668c6.521-6.521,17.087-6.521,23.609,0c6.521,6.516,6.521,17.092,0,23.609L196.967,399.863
		C193.706,403.125,189.434,404.755,185.163,404.755z"/>
	<path style="fill:#EE8700;" d="M389.565,100.174H189.217c-9.223,0-16.696-7.473-16.696-16.696s7.473-16.696,16.696-16.696h200.348
		c9.223,0,16.696,7.473,16.696,16.696S398.788,100.174,389.565,100.174z"/>
	<path style="fill:#EE8700;" d="M389.565,166.957H189.217c-9.223,0-16.696-7.473-16.696-16.696s7.473-16.696,16.696-16.696h200.348
		c9.223,0,16.696,7.473,16.696,16.696S398.788,166.957,389.565,166.957z"/>
	<circle style="fill:#EE8700;" cx="122.435" cy="83.478" r="16.696"/>
	<circle style="fill:#EE8700;" cx="122.435" cy="150.261" r="16.696"/>
</g>
<g>
	<path style="fill:#CC7400;" d="M315.027,234.587L256,293.614v47.217l82.636-82.636c6.521-6.516,6.521-17.092,0-23.609
		C332.114,228.065,321.549,228.065,315.027,234.587z"/>
	<path style="fill:#CC7400;" d="M389.565,133.565H256v33.391h133.565c9.223,0,16.696-7.473,16.696-16.696
		S398.788,133.565,389.565,133.565z"/>
	<path style="fill:#CC7400;" d="M389.565,66.783H256v33.391h133.565c9.223,0,16.696-7.473,16.696-16.696
		S398.788,66.783,389.565,66.783z"/>
</g>
</svg>