<svg width="24" height="25" viewBox="0 0 24 25" fill="none" xmlns="http://www.w3.org/2000/svg">
<path d="M17.4528 17.353V10.6121C17.4501 9.75962 17.1103 8.94286 16.5075 8.34008C15.9048 7.73731 15.088 7.39749 14.2356 7.39479H5.04338V6.52664C5.04336 5.27234 5.53952 4.06896 6.42357 3.17917C7.30762 2.28938 8.50776 1.78544 9.76204 1.77734H18.178C19.4376 1.77734 20.6456 2.27771 21.5363 3.16838C22.4269 4.05905 22.9273 5.26705 22.9273 6.52664V12.6548C22.9247 13.9038 22.4301 15.1015 21.5508 15.9885C20.6714 16.8755 19.478 17.3804 18.2291 17.3939L17.4528 17.353ZM14.2356 5.86276C15.4952 5.86276 16.7032 6.36313 17.5938 7.2538C18.4845 8.14446 18.9849 9.35247 18.9849 10.6121V15.7188C19.6666 15.5423 20.2716 15.147 20.707 14.5935C21.1424 14.04 21.3842 13.3589 21.3953 12.6548V6.52664C21.3926 5.6742 21.0527 4.85744 20.45 4.25467C19.8472 3.65189 19.0304 3.31207 18.178 3.30938H9.76204C9.02251 3.30847 8.30539 3.56317 7.73212 4.03035C7.15884 4.49753 6.76464 5.14848 6.61627 5.87297L14.2356 5.86276ZM10.0276 23.7773C9.6939 23.779 9.3649 23.6988 9.06934 23.5439C8.77378 23.389 8.52067 23.1641 8.33214 22.8887L7.41292 21.5916C7.38108 21.5426 7.33703 21.5027 7.2851 21.4758C7.23317 21.449 7.17515 21.4361 7.11673 21.4384H5.87068C5.24271 21.4452 4.61963 21.3273 4.03751 21.0917C3.4554 20.856 2.92579 20.5073 2.47936 20.0656C2.03292 19.6239 1.67852 19.098 1.43665 18.5185C1.19479 17.9389 1.07028 17.3171 1.07031 16.6891V10.6121C1.07028 9.98405 1.19479 9.36227 1.43665 8.78271C1.67852 8.20314 2.03292 7.6773 2.47936 7.23561C2.92579 6.79393 3.4554 6.44517 4.03751 6.20952C4.61963 5.97387 5.24271 5.85601 5.87068 5.86276H14.2866C15.5462 5.86276 16.7542 6.36313 17.6449 7.2538C18.5356 8.14446 19.0359 9.35247 19.0359 10.6121V16.6891C19.0359 17.9487 18.5356 19.1567 17.6449 20.0474C16.7542 20.938 15.5462 21.4384 14.2866 21.4384H12.9385C12.8802 21.437 12.8225 21.4504 12.7708 21.4771C12.719 21.5039 12.6748 21.5433 12.6423 21.5916L11.723 22.8887C11.5345 23.1641 11.2814 23.389 10.9858 23.5439C10.6903 23.6988 10.3613 23.779 10.0276 23.7773ZM5.87068 7.39479C5.44427 7.38939 5.02102 7.46855 4.62539 7.62769C4.22976 7.78682 3.86958 8.02279 3.56568 8.32194C3.26177 8.6211 3.02017 8.97751 2.85482 9.37059C2.68947 9.76367 2.60366 10.1856 2.60234 10.6121V16.6891C2.59957 17.1177 2.68244 17.5424 2.84609 17.9385C3.00974 18.3346 3.25087 18.694 3.55533 18.9956C3.85979 19.2972 4.22143 19.5349 4.61904 19.6948C5.01664 19.8548 5.44218 19.9336 5.87068 19.9268H7.11673C7.42153 19.9253 7.72213 19.998 7.99259 20.1386C8.26304 20.2791 8.49525 20.4834 8.66919 20.7337L9.57819 21.9695C9.62885 22.0418 9.6961 22.1008 9.77429 22.1417C9.85249 22.1826 9.93935 22.2041 10.0276 22.2044C10.1158 22.2041 10.2027 22.1826 10.2809 22.1417C10.3591 22.1008 10.4263 22.0418 10.477 21.9695L11.386 20.6724C11.5666 20.4334 11.8017 20.241 12.0718 20.1113C12.3418 19.9816 12.639 19.9184 12.9385 19.9268H14.2356C15.0888 19.9268 15.9072 19.5879 16.5105 18.9845C17.1139 18.3811 17.4528 17.5628 17.4528 16.7095V10.6121C17.4501 9.75962 17.1103 8.94286 16.5075 8.34008C15.9048 7.73731 15.088 7.39749 14.2356 7.39479H5.87068ZM6.46306 12.7773C6.27318 12.7773 6.08756 12.8336 5.92968 12.9391C5.77179 13.0446 5.64874 13.1946 5.57607 13.37C5.50341 13.5454 5.48439 13.7385 5.52144 13.9247C5.55848 14.1109 5.64992 14.282 5.78419 14.4163C5.91846 14.5505 6.08953 14.642 6.27576 14.679C6.462 14.7161 6.65504 14.6971 6.83047 14.6244C7.0059 14.5517 7.15584 14.4287 7.26134 14.2708C7.36683 14.1129 7.42314 13.9273 7.42314 13.7374C7.42048 13.4836 7.31848 13.2409 7.139 13.0615C6.95952 12.882 6.71687 12.78 6.46306 12.7773ZM10.0378 12.7773C9.84979 12.7737 9.66485 12.8254 9.50594 12.926C9.34704 13.0265 9.22116 13.1715 9.14395 13.343C9.06673 13.5145 9.04157 13.7048 9.07158 13.8905C9.1016 14.0761 9.18548 14.2489 9.3128 14.3873C9.44012 14.5256 9.60528 14.6236 9.78778 14.669C9.97028 14.7143 10.1621 14.7051 10.3394 14.6424C10.5167 14.5797 10.6717 14.4663 10.7851 14.3163C10.8985 14.1664 10.9654 13.9864 10.9775 13.7987C10.9843 13.6696 10.9653 13.5404 10.9215 13.4187C10.8778 13.2971 10.8101 13.1854 10.7226 13.0902C10.6351 12.9951 10.5294 12.9184 10.4118 12.8647C10.2942 12.8109 10.167 12.7812 10.0378 12.7773ZM13.6023 12.7773C13.4124 12.7773 13.2268 12.8336 13.0689 12.9391C12.9111 13.0446 12.788 13.1946 12.7153 13.37C12.6427 13.5454 12.6237 13.7385 12.6607 13.9247C12.6978 14.1109 12.7892 14.282 12.9235 14.4163C13.0577 14.5505 13.2288 14.642 13.415 14.679C13.6013 14.7161 13.7943 14.6971 13.9697 14.6244C14.1452 14.5517 14.2951 14.4287 14.4006 14.2708C14.5061 14.1129 14.5624 13.9273 14.5624 13.7374C14.5597 13.4836 14.4577 13.2409 14.2783 13.0615C14.0988 12.882 13.8561 12.78 13.6023 12.7773Z" fill="white"/>
</svg>
