<svg width="24" height="25" viewBox="0 0 24 25" fill="none" xmlns="http://www.w3.org/2000/svg">
<path d="M20.29 23.0273H12.21C11.8869 23.0273 11.5671 22.9637 11.2686 22.8401C10.9701 22.7165 10.6989 22.5353 10.4705 22.3068C10.2421 22.0784 10.0609 21.8072 9.93726 21.5087C9.81363 21.2103 9.75 20.8904 9.75 20.5673V4.98734C9.75 4.33491 10.0092 3.7092 10.4705 3.24786C10.9319 2.78652 11.5576 2.52734 12.21 2.52734H20.29C20.9424 2.52734 21.5681 2.78652 22.0295 3.24786C22.4908 3.7092 22.75 4.33491 22.75 4.98734V20.5673C22.75 20.8904 22.6864 21.2103 22.5627 21.5087C22.4391 21.8072 22.2579 22.0784 22.0295 22.3068C21.8011 22.5353 21.5299 22.7165 21.2314 22.8401C20.9329 22.9637 20.6131 23.0273 20.29 23.0273ZM12.21 4.02734C11.9448 4.02734 11.6904 4.1327 11.5029 4.32024C11.3154 4.50777 11.21 4.76213 11.21 5.02734V20.5673C11.21 20.8326 11.3154 21.0869 11.5029 21.2745C11.6904 21.462 11.9448 21.5673 12.21 21.5673H20.29C20.5552 21.5673 20.8096 21.462 20.9971 21.2745C21.1846 21.0869 21.29 20.8326 21.29 20.5673V4.98734C21.29 4.72213 21.1846 4.46777 20.9971 4.28024C20.8096 4.0927 20.5552 3.98734 20.29 3.98734L12.21 4.02734ZM5.86 23.0273H3.68C3.36089 23.0273 3.0449 22.9645 2.75008 22.8424C2.45526 22.7203 2.18738 22.5413 1.96173 22.3156C1.73608 22.09 1.55709 21.8221 1.43497 21.5273C1.31285 21.2324 1.25 20.9165 1.25 20.5973V4.95734C1.25 4.31287 1.50602 3.69479 1.96173 3.23907C2.41744 2.78336 3.03552 2.52734 3.68 2.52734H5.86C6.50448 2.52734 7.12256 2.78336 7.57827 3.23907C8.03398 3.69479 8.29 4.31287 8.29 4.95734V20.5973C8.29 20.9165 8.22715 21.2324 8.10503 21.5273C7.98291 21.8221 7.80392 22.09 7.57827 22.3156C7.35262 22.5413 7.08474 22.7203 6.78992 22.8424C6.4951 22.9645 6.17911 23.0273 5.86 23.0273ZM3.68 4.02734C3.43335 4.02734 3.1968 4.12533 3.02239 4.29973C2.84798 4.47414 2.75 4.71069 2.75 4.95734V20.5973C2.75 20.844 2.84798 21.0805 3.02239 21.255C3.1968 21.4294 3.43335 21.5273 3.68 21.5273H5.86C6.10665 21.5273 6.3432 21.4294 6.51761 21.255C6.69202 21.0805 6.79 20.844 6.79 20.5973V4.95734C6.79 4.71069 6.69202 4.47414 6.51761 4.29973C6.3432 4.12533 6.10665 4.02734 5.86 4.02734H3.68Z" fill="white"/>
</svg>
