<svg width="24" height="25" viewBox="0 0 24 25" fill="none" xmlns="http://www.w3.org/2000/svg">
<path d="M18.001 23.4952C16.9036 23.4952 14.4593 23.4952 12.015 23.4952H6.02895C5.40529 23.4998 4.78692 23.3804 4.20975 23.1441C3.63258 22.9077 3.10811 22.5591 2.6668 22.1184C2.21532 21.6873 1.85676 21.1684 1.61313 20.5936C1.36951 20.0189 1.24597 19.4004 1.2501 18.7762V13.1293C1.26041 12.0807 1.49551 11.0465 1.93954 10.0965C2.38358 9.14644 3.02621 8.3027 3.8241 7.62218L8.91223 3.22245C9.78652 2.47029 10.9016 2.05664 12.0549 2.05664C13.2082 2.05664 14.3233 2.47029 15.1976 3.22245L20.2558 7.66209C21.0429 8.35332 21.6728 9.20518 22.103 10.1603C22.5332 11.1154 22.7538 12.1516 22.7499 13.1992V18.8061C22.7505 19.423 22.6262 20.0336 22.3844 20.6012C22.1427 21.1687 21.7885 21.6814 21.3432 22.1084C20.9051 22.5485 20.3842 22.8976 19.8106 23.1356C19.237 23.3736 18.622 23.4958 18.001 23.4952ZM15.008 21.9986H18.001C18.8579 22.0017 19.6818 21.6686 20.2957 21.0708C20.5956 20.7789 20.834 20.4299 20.9968 20.0444C21.1595 19.6588 21.2434 19.2446 21.2435 18.826V13.2191C21.2442 12.3858 21.0666 11.562 20.7224 10.8031C20.3782 10.0442 19.8755 9.3678 19.2481 8.81939L14.2099 4.37975C13.6099 3.86092 12.8431 3.5754 12.0499 3.5754C11.2567 3.5754 10.49 3.86092 9.88995 4.37975L4.80182 8.79944L4.31296 8.23076L4.80182 8.79944C4.17517 9.34632 3.67288 10.021 3.32871 10.7782C2.98454 11.5354 2.80647 12.3575 2.80647 13.1892V18.836C2.80368 19.2546 2.88429 19.6696 3.0436 20.0567C3.2029 20.4438 3.4377 20.7954 3.73431 21.0908C4.35356 21.6767 5.17649 21.9987 6.02895 21.9887H15.008V21.9986ZM12.7632 19.8736V17.0203C12.7632 16.8218 12.6844 16.6315 12.5441 16.4912C12.4038 16.3508 12.2134 16.272 12.015 16.272C11.8165 16.272 11.6262 16.3508 11.4859 16.4912C11.3456 16.6315 11.2667 16.8218 11.2667 17.0203V19.8736C11.2667 20.0721 11.3456 20.2624 11.4859 20.4027C11.6262 20.543 11.8165 20.6219 12.015 20.6219C12.2134 20.6219 12.4038 20.543 12.5441 20.4027C12.6844 20.2624 12.7632 20.0721 12.7632 19.8736Z" fill="white"/>
</svg>
