<svg width="24" height="25" viewBox="0 0 24 25" fill="none" xmlns="http://www.w3.org/2000/svg">
<path d="M22 8.54734V4.50734C22 2.91734 21.36 2.27734 19.77 2.27734H15.73C14.14 2.27734 13.5 2.91734 13.5 4.50734V8.54734C13.5 10.1373 14.14 10.7773 15.73 10.7773H19.77C21.36 10.7773 22 10.1373 22 8.54734Z" stroke="white" stroke-width="1.5" stroke-linecap="round" stroke-linejoin="round"/>
<path d="M10.5 8.79734V4.25734C10.5 2.84734 9.86 2.27734 8.27 2.27734H4.23C2.64 2.27734 2 2.84734 2 4.25734V8.78734C2 10.2073 2.64 10.7673 4.23 10.7673H8.27C9.86 10.7773 10.5 10.2073 10.5 8.79734Z" stroke="white" stroke-width="1.5" stroke-linecap="round" stroke-linejoin="round"/>
<path d="M10.5 20.0473V16.0073C10.5 14.4173 9.86 13.7773 8.27 13.7773H4.23C2.64 13.7773 2 14.4173 2 16.0073V20.0473C2 21.6373 2.64 22.2773 4.23 22.2773H8.27C9.86 22.2773 10.5 21.6373 10.5 20.0473Z" stroke="white" stroke-width="1.5" stroke-linecap="round" stroke-linejoin="round"/>
<path d="M15 15.7773H21" stroke="white" stroke-width="1.5" stroke-linecap="round"/>
<path d="M15 19.7773H21" stroke="white" stroke-width="1.5" stroke-linecap="round"/>
</svg>
