<svg width="24" height="25" viewBox="0 0 24 25" fill="none" xmlns="http://www.w3.org/2000/svg">
<path d="M22.1676 11.0861C22.1676 10.986 22.2277 10.8958 22.2477 10.7956C22.2953 10.6318 22.3288 10.4642 22.3479 10.2947V10.0642C22.373 9.81106 22.373 9.55602 22.3479 9.30283L21.9672 6.29724C21.8657 5.41453 21.5186 4.578 20.9653 3.88275C20.5097 3.30633 19.9298 2.84027 19.2688 2.51933C18.6079 2.1984 17.883 2.03089 17.1482 2.0293H6.86911C5.66891 2.0334 4.51179 2.47704 3.61647 3.27636C2.72116 4.07568 2.14968 5.1753 2.01007 6.36737L1.65942 9.53326C1.63436 9.7764 1.63436 10.0215 1.65942 10.2646V10.485C1.67737 10.6416 1.71094 10.796 1.75961 10.9459C1.78035 11.0443 1.80711 11.1413 1.83976 11.2364C1.83976 11.3466 1.92992 11.4468 1.98002 11.557C2.03011 11.6672 2.06017 11.7674 2.12028 11.8676V18.019C2.12293 19.4796 2.70432 20.8797 3.73712 21.9125C4.76992 22.9453 6.16993 23.5266 7.63053 23.5293H16.3367C17.0603 23.5293 17.7769 23.3868 18.4454 23.1099C19.1139 22.8329 19.7214 22.4271 20.2331 21.9154C20.7447 21.4037 21.1506 20.7963 21.4275 20.1277C21.7045 19.4592 21.847 18.7427 21.847 18.019V11.7574C21.9005 11.6619 21.9442 11.5612 21.9772 11.4568C22.0497 11.3381 22.1133 11.2142 22.1676 11.0861ZM17.1583 3.46196C17.6686 3.46318 18.1721 3.57906 18.6317 3.80102C19.0912 4.02298 19.495 4.34537 19.8132 4.74435C20.2019 5.22853 20.4482 5.81131 20.5245 6.42748L20.9052 9.43307C20.9203 9.59636 20.9203 9.7607 20.9052 9.92399V10.1043C20.91 10.1944 20.91 10.2847 20.9052 10.3748C20.9052 10.455 20.8551 10.5451 20.8151 10.6353C20.8028 10.6803 20.786 10.7239 20.765 10.7656C20.718 10.8773 20.661 10.9847 20.5947 11.0861C20.5145 11.1964 20.4444 11.3066 20.3642 11.4067C20.1256 11.6764 19.8326 11.8926 19.5046 12.041C19.1765 12.1895 18.8208 12.267 18.4607 12.2683C17.8262 12.2869 17.2083 12.0649 16.7307 11.6468C16.2532 11.2287 15.9514 10.6455 15.8859 10.0142L15.5753 6.4375L15.3248 3.43191L17.1583 3.46196ZM13.8822 3.46196V3.74248L14.3931 9.75367C14.4224 10.0802 14.3832 10.4093 14.278 10.7199C14.1727 11.0304 14.0038 11.3156 13.782 11.557C13.556 11.7894 13.2858 11.9741 12.9872 12.1002C12.6887 12.2263 12.3678 12.2913 12.0437 12.2913C11.7196 12.2913 11.3988 12.2263 11.1003 12.1002C10.8017 11.9741 10.5315 11.7894 10.3055 11.557C10.0827 11.3212 9.91079 11.0421 9.80048 10.7371C9.69017 10.432 9.64382 10.1075 9.66431 9.78372L9.87471 5.61597L10.015 3.46196H13.8822ZM3.47279 6.52767C3.56167 5.68797 3.95748 4.91066 4.58428 4.34488C5.21108 3.77909 6.02473 3.46468 6.86911 3.46196H8.57228L8.1515 10.1043C8.11335 10.7059 7.8478 11.2705 7.40873 11.6835C6.96965 12.0966 6.38991 12.3271 5.7871 12.3285H5.47652C5.14355 12.3275 4.81449 12.2566 4.51071 12.1203C4.20693 11.9839 3.93523 11.7852 3.71324 11.537C3.6376 11.4501 3.5705 11.3562 3.51287 11.2565C3.44651 11.155 3.38951 11.0477 3.34255 10.9359C3.33878 10.9059 3.33878 10.8756 3.34255 10.8457C3.30358 10.7588 3.27337 10.6681 3.25238 10.5752C3.24668 10.5018 3.24668 10.4281 3.25238 10.3548C3.24756 10.2914 3.24756 10.2278 3.25238 10.1644C3.23739 10.0145 3.23739 9.8635 3.25238 9.71359L3.47279 6.52767ZM10.0851 22.0566V20.0528C10.0851 19.5214 10.2962 19.0118 10.672 18.636C11.0477 18.2602 11.5574 18.0491 12.0888 18.0491C12.6202 18.0491 13.1299 18.2602 13.5057 18.636C13.8814 19.0118 14.0926 19.5214 14.0926 20.0528V22.0566H10.0851ZM16.3668 22.0566H15.5653V20.0528C15.5653 19.1308 15.199 18.2466 14.5471 17.5946C13.8951 16.9426 13.0108 16.5764 12.0888 16.5764C11.1668 16.5764 10.2826 16.9426 9.63059 17.5946C8.97863 18.2466 8.61236 19.1308 8.61236 20.0528V22.0566H7.61049C6.54765 22.0566 5.52834 21.6343 4.77679 20.8828C4.02525 20.1313 3.60304 19.1119 3.60304 18.0491V13.2902C4.16825 13.612 4.80614 13.7844 5.45649 13.7912H5.76706C6.37454 13.7882 6.97267 13.6414 7.51249 13.3627C8.05231 13.0841 8.51848 12.6816 8.87284 12.1882C8.96097 12.3273 9.06157 12.4581 9.1734 12.5789C9.53341 12.9655 9.96916 13.2737 10.4535 13.4845C10.9379 13.6953 11.4604 13.804 11.9886 13.804C12.5169 13.804 13.0394 13.6953 13.5238 13.4845C14.0081 13.2737 14.4439 12.9655 14.8039 12.5789C14.9161 12.4488 15.0198 12.3116 15.1145 12.1682C15.693 12.9788 16.5566 13.5407 17.532 13.7414C18.5075 13.942 19.5227 13.7666 20.3742 13.2502V18.0491C20.3742 18.5754 20.2706 19.0965 20.0692 19.5827C19.8678 20.0689 19.5726 20.5107 19.2005 20.8828C18.8284 21.2549 18.3866 21.5501 17.9004 21.7515C17.4142 21.9529 16.893 22.0566 16.3668 22.0566Z" fill="white"/>
</svg>
