<svg width="24" height="25" viewBox="0 0 24 25" fill="none" xmlns="http://www.w3.org/2000/svg">
<path d="M14 7.65625H18.25" stroke="white" stroke-width="1.5" stroke-linecap="round" stroke-linejoin="round"/>
<path d="M14 10.7773H18.25" stroke="white" stroke-width="1.5" stroke-linecap="round" stroke-linejoin="round"/>
<path d="M8.87891 11.0312H6.87891C6.32891 11.0312 5.87891 10.5813 5.87891 10.0312V8.53125C5.87891 7.98125 6.32891 7.53125 6.87891 7.53125H8.87891C9.42891 7.53125 9.87891 7.98125 9.87891 8.53125V10.0312C9.87891 10.5813 9.42891 11.0312 8.87891 11.0312Z" stroke="white" stroke-width="1.5" stroke-miterlimit="10" stroke-linejoin="round"/>
<path d="M6 14.7773H18.25" stroke="white" stroke-width="1.5" stroke-linecap="round" stroke-linejoin="round"/>
<path d="M6 18.7773H18.25" stroke="white" stroke-width="1.5" stroke-linecap="round" stroke-linejoin="round"/>
<path d="M9 22.7773H15C20 22.7773 22 20.7773 22 15.7773V9.77734C22 4.77734 20 2.77734 15 2.77734H9C4 2.77734 2 4.77734 2 9.77734V15.7773C2 20.7773 4 22.7773 9 22.7773Z" stroke="white" stroke-width="1.5" stroke-linecap="round" stroke-linejoin="round"/>
</svg>
