<svg width="24" height="25" viewBox="0 0 24 25" fill="none" xmlns="http://www.w3.org/2000/svg">
<path d="M18.0001 7.93735C17.9401 7.92735 17.8701 7.92735 17.8101 7.93735C16.4301 7.88735 15.3301 6.75735 15.3301 5.35735C15.3301 3.92735 16.4801 2.77734 17.9101 2.77734C19.3401 2.77734 20.4901 3.93735 20.4901 5.35735C20.4801 6.75735 19.3801 7.88735 18.0001 7.93735Z" stroke="white" stroke-width="1.5" stroke-linecap="round" stroke-linejoin="round"/>
<path d="M16.9695 15.2175C18.3395 15.4475 19.8495 15.2075 20.9095 14.4975C22.3195 13.5575 22.3195 12.0175 20.9095 11.0775C19.8395 10.3675 18.3095 10.1275 16.9395 10.3675" stroke="white" stroke-width="1.5" stroke-linecap="round" stroke-linejoin="round"/>
<path d="M5.96852 7.93735C6.02852 7.92735 6.09852 7.92735 6.15852 7.93735C7.53852 7.88735 8.63852 6.75735 8.63852 5.35735C8.63852 3.92735 7.48852 2.77734 6.05852 2.77734C4.62852 2.77734 3.47852 3.93735 3.47852 5.35735C3.48852 6.75735 4.58852 7.88735 5.96852 7.93735Z" stroke="white" stroke-width="1.5" stroke-linecap="round" stroke-linejoin="round"/>
<path d="M6.99945 15.2175C5.62945 15.4475 4.11945 15.2075 3.05945 14.4975C1.64945 13.5575 1.64945 12.0175 3.05945 11.0775C4.12945 10.3675 5.65945 10.1275 7.02945 10.3675" stroke="white" stroke-width="1.5" stroke-linecap="round" stroke-linejoin="round"/>
<path d="M12.0001 15.4081C11.9401 15.3981 11.8701 15.3981 11.8101 15.4081C10.4301 15.3581 9.33008 14.228 9.33008 12.828C9.33008 11.398 10.4801 10.248 11.9101 10.248C13.3401 10.248 14.4901 11.408 14.4901 12.828C14.4801 14.228 13.3801 15.3681 12.0001 15.4081Z" stroke="white" stroke-width="1.5" stroke-linecap="round" stroke-linejoin="round"/>
<path d="M9.0907 18.5587C7.6807 19.4987 7.6807 21.0387 9.0907 21.9787C10.6907 23.0487 13.3107 23.0487 14.9107 21.9787C16.3207 21.0387 16.3207 19.4987 14.9107 18.5587C13.3207 17.4987 10.6907 17.4987 9.0907 18.5587Z" stroke="white" stroke-width="1.5" stroke-linecap="round" stroke-linejoin="round"/>
</svg>
