<?xml version="1.0" encoding="iso-8859-1"?>
<!-- Uploaded to: SVG Repo, www.svgrepo.com, Generator: SVG Repo Mixer Tools -->
<svg fill="#000000" height="800px" width="800px" version="1.1" id="Layer_1" xmlns="http://www.w3.org/2000/svg" xmlns:xlink="http://www.w3.org/1999/xlink" 
	 viewBox="0 0 512 512" xml:space="preserve">
<g>
	<g>
		<path d="M173.345,250.017c-3.253-3.253-7.529-4.885-11.805-4.885c-4.276,0-8.552,1.632-11.815,4.885
			c-3.144,3.155-4.885,7.355-4.885,11.826c0,4.461,1.73,8.65,4.885,11.794c3.155,3.166,7.344,4.897,11.805,4.897
			c0.011,0,0.011,0,0.011,0c4.472,0,8.66-1.741,11.815-4.885C179.863,267.131,179.863,256.534,173.345,250.017z"/>
	</g>
</g>
<g>
	<g>
		<path d="M119.305,103.548c-2.144-2.144-4.874-3.274-7.888-3.274c-3.025,0-5.744,1.121-7.867,3.253
			c-2.155,2.144-3.274,4.863-3.274,7.888c0,3.014,1.132,5.744,3.264,7.877c4.253,4.286,11.489,4.275,15.754,0
			c2.132-2.132,3.264-4.863,3.264-7.877C122.558,108.39,121.437,105.671,119.305,103.548z"/>
	</g>
</g>
<g>
	<g>
		<path d="M497.311,213.708L298.294,14.69c-9.466-9.477-22.054-14.689-35.447-14.689H50.138C22.492,0.001,0,22.491,0,50.137v212.708
			c0,13.393,5.213,25.982,14.69,35.447L213.709,497.31c9.466,9.477,22.065,14.689,35.447,14.689
			c13.393,0,25.993-5.223,35.447-14.689l212.708-212.697c9.466-9.466,14.689-22.065,14.689-35.458
			C512,235.772,506.788,223.174,497.311,213.708z M79.895,142.912c-8.411-8.411-13.045-19.595-13.045-31.498
			c0-11.913,4.646-23.109,13.068-31.52c8.388-8.399,19.584-13.045,31.498-13.045c11.903,0,23.088,4.635,31.509,13.056
			c8.411,8.399,13.057,19.595,13.057,31.509c0,11.903-4.635,23.088-13.057,31.509c-8.422,8.421-19.607,13.056-31.509,13.056
			C99.502,155.979,88.306,151.333,79.895,142.912z M196.988,297.281c-9.466,9.466-22.054,14.678-35.447,14.678
			c-0.011,0-0.011,0-0.011,0c-13.404,0-25.982-5.212-35.447-14.678c-9.455-9.455-14.666-22.032-14.666-35.437
			c0-13.405,5.212-25.993,14.678-35.458c19.54-19.541,51.354-19.541,70.894,0C216.529,245.938,216.529,277.741,196.988,297.281z
			 M278.533,362.094c0,9.226-7.486,16.712-16.712,16.712c-9.226,0-16.712-7.486-16.712-16.712V161.55
			c0-9.226,7.486-16.712,16.712-16.712c9.226,0,16.712,7.486,16.712,16.712V362.094z M397.532,297.281
			c-9.466,9.466-22.054,14.678-35.447,14.678c-0.011,0-0.011,0-0.011,0c-13.404,0-25.982-5.212-35.447-14.678
			c-9.455-9.455-14.666-22.032-14.666-35.437c0-13.405,5.211-25.993,14.677-35.458c19.541-19.541,51.355-19.541,70.895,0
			C417.073,245.938,417.073,277.741,397.532,297.281z"/>
	</g>
</g>
<g>
	<g>
		<path d="M373.889,250.017c-3.253-3.253-7.529-4.885-11.805-4.885c-4.276,0-8.552,1.632-11.815,4.885
			c-3.144,3.155-4.885,7.355-4.885,11.826c0,4.461,1.73,8.65,4.885,11.794c3.155,3.166,7.344,4.897,11.805,4.897
			c0.011,0,0.011,0,0.011,0c4.472,0,8.66-1.741,11.815-4.885C380.407,267.131,380.407,256.534,373.889,250.017z"/>
	</g>
</g>
</svg>