<?xml version="1.0" encoding="iso-8859-1"?>
<!-- Uploaded to: SVG Repo, www.svgrepo.com, Generator: SVG Repo Mixer Tools -->
<svg height="800px" width="800px" version="1.1" id="Layer_1" xmlns="http://www.w3.org/2000/svg" xmlns:xlink="http://www.w3.org/1999/xlink" 
	 viewBox="0 0 512 512" xml:space="preserve">
<path style="fill:#FF5023;" d="M497.308,213.927L298.407,14.915C288.946,5.454,276.369,0,263.012,0H50.532
	C36.73,0,23.93,5.788,14.915,14.915C5.788,24.042,0,36.73,0,50.532v212.48c0,13.357,5.454,25.934,14.915,35.395l198.901,198.901
	c9.461,9.461,22.094,14.692,35.45,14.692c13.468,0,26.073-5.231,35.534-14.692l212.493-212.48
	c9.461-9.461,14.699-22.038,14.699-35.506C511.993,235.965,506.769,223.388,497.308,213.927z M111.75,156.271
	c-11.91,0-23.04-4.675-31.499-13.023c-8.348-8.459-13.023-19.59-13.023-31.499c0-11.91,4.675-23.04,13.023-31.499
	c8.459-8.348,19.59-13.023,31.499-13.023s23.04,4.675,31.499,13.023c8.348,8.459,13.023,19.59,13.023,31.499
	s-4.675,23.04-13.023,31.499C134.79,151.597,123.659,156.271,111.75,156.271z"/>
<path style="fill:#CD2A00;" d="M512,249.322c0,13.468-5.231,26.045-14.692,35.506L391.012,391.012L143.249,143.249
	c8.348-8.459,13.023-19.59,13.023-31.499c0-11.91-4.675-23.04-13.023-31.499c-8.459-8.348-19.59-13.023-31.499-13.023
	S88.71,71.903,80.25,80.25L15.137,14.915C24.153,5.788,36.73,0,50.532,0h212.48c13.357,0,25.934,5.454,35.395,14.915
	l198.901,198.901C506.769,223.277,512,235.965,512,249.322z"/>
<path style="fill:#D1E7F8;" d="M362.168,312.086c-12.826,0-25.652-4.881-35.413-14.647c-19.527-19.522-19.527-51.299-0.006-70.832
	c19.533-19.533,51.316-19.533,70.837,0c19.533,19.527,19.533,51.305,0,70.832C387.826,307.206,375,312.086,362.168,312.086z
	 M362.168,245.336c-4.272,0-8.549,1.625-11.804,4.881c-6.506,6.511-6.506,17.103,0,23.614c6.516,6.511,17.109,6.511,23.614,0
	c6.511-6.511,6.511-17.103,0-23.614C370.723,246.961,366.445,245.336,362.168,245.336z"/>
<path style="fill:#FFFFFF;" d="M261.565,378.88c-9.223,0-16.696-7.473-16.696-16.696V161.837c0-9.223,7.473-16.696,16.696-16.696
	c9.223,0,16.696,7.473,16.696,16.696v200.348C278.261,371.407,270.788,378.88,261.565,378.88z"/>
<path style="fill:#D1E7F8;" d="M261.565,145.141c-9.223,0-16.696,7.473-16.696,16.696v83.478l33.391,33.391v-116.87
	C278.261,152.614,270.788,145.141,261.565,145.141z"/>
<path style="fill:#FFFFFF;" d="M161.82,312.086c-12.826,0-25.652-4.881-35.413-14.647c-19.527-19.522-19.527-51.299-0.006-70.832
	c19.533-19.533,51.316-19.533,70.837,0c19.533,19.527,19.533,51.305,0,70.832C187.478,307.206,174.652,312.086,161.82,312.086z
	 M161.82,245.336c-4.272,0-8.549,1.625-11.804,4.881c-6.506,6.511-6.506,17.103,0,23.614c6.511,6.511,17.103,6.511,23.614,0
	c6.511-6.511,6.511-17.103,0-23.614C170.375,246.961,166.097,245.336,161.82,245.336z"/>
</svg>