<svg width="24" height="24" viewBox="0 0 24 24" fill="none" xmlns="http://www.w3.org/2000/svg">
<path d="M14 6.87891H18.25" stroke="#1255FB" stroke-width="1.5" stroke-linecap="round" stroke-linejoin="round"/>
<path d="M14 10H18.25" stroke="#1255FB" stroke-width="1.5" stroke-linecap="round" stroke-linejoin="round"/>
<path d="M8.87891 10.2539H6.87891C6.32891 10.2539 5.87891 9.80391 5.87891 9.25391V7.75391C5.87891 7.20391 6.32891 6.75391 6.87891 6.75391H8.87891C9.42891 6.75391 9.87891 7.20391 9.87891 7.75391V9.25391C9.87891 9.80391 9.42891 10.2539 8.87891 10.2539Z" stroke="#1255FB" stroke-width="1.5" stroke-miterlimit="10" stroke-linejoin="round"/>
<path d="M6 14H18.25" stroke="#1255FB" stroke-width="1.5" stroke-linecap="round" stroke-linejoin="round"/>
<path d="M6 18H18.25" stroke="#1255FB" stroke-width="1.5" stroke-linecap="round" stroke-linejoin="round"/>
<path d="M9 22H15C20 22 22 20 22 15V9C22 4 20 2 15 2H9C4 2 2 4 2 9V15C2 20 4 22 9 22Z" stroke="#1255FB" stroke-width="1.5" stroke-linecap="round" stroke-linejoin="round"/>
</svg>
